<?xml version="1.0" standalone="no"?>
<!DOCTYPE svg PUBLIC "-//W3C//DTD SVG 1.1//EN" "http://www.w3.org/Graphics/SVG/1.1/DTD/svg11.dtd" >
<svg xmlns="http://www.w3.org/2000/svg" xmlns:xlink="http://www.w3.org/1999/xlink" version="1.1">
<metadata>
Created by FontForge 20161013 at Wed Oct 29 15:38:26 2014
 By ,,,
Copyright (c) 2014 by Josep Patau Bellart. All rights reserved.
</metadata>
<defs>
<font id="Naste-Bold" horiz-adv-x="620" >
  <font-face 
    font-family="Naste"
    font-weight="700"
    font-stretch="normal"
    units-per-em="1000"
    panose-1="2 0 0 0 0 0 0 0 0 0"
    ascent="762"
    descent="-238"
    x-height="495"
    cap-height="675"
    bbox="-183 -396 1322 1126"
    underline-thickness="50"
    underline-position="-200"
    unicode-range="U+0020-FB04"
  />
<missing-glyph horiz-adv-x="500" 
d="M50 750h400v-1000h-400v1000zM400 -200v900h-300v-900h300z" />
    <glyph glyph-name="f_f" unicode="ff" horiz-adv-x="692" 
d="M244 352l1 -354h-170v352h-36v143h36v25q0 57 16 93q17 37 48 60q32 23 80 32t112 9l-17 -143q-24 0 -36 -4q-15 -5 -21 -10q-7 -5 -10 -15q-3 -9 -3 -20v-25h77v-41l-10 -102h-67zM591 350l1 -354h-170v352h-36v143h36v25q0 57 16 93q16 37 48 60t80 32t112 9l-17 -143
q-24 0 -36 -4q-15 -5 -21 -10q-7 -5 -10 -15q-3 -9 -3 -20v-25h77v-41l-10 -102h-67z" />
    <glyph glyph-name="fi" unicode="fi" horiz-adv-x="626" 
d="M244 352l1 -354h-170v352h-36v143h36v25q0 57 16 93q17 37 48 60q32 23 80 32t112 9l-17 -143q-24 0 -36 -4q-15 -5 -21 -10q-7 -5 -10 -15q-3 -9 -3 -20v-25h77v-41l-10 -102h-67zM489 552l-1 -1q-21 0 -40 8t-32 21q-14 14 -21 33q-8 21 -8 40q0 20 8 39t21 32t32 21
t41 8q19 0 38 -8t32 -21q14 -14 21 -31q8 -19 8 -39q0 -19 -8 -40q-8 -20 -21 -33t-32 -21t-38 -8zM401 492h170v-495h-170v495z" />
    <glyph glyph-name="fl" unicode="fl" horiz-adv-x="626" 
d="M244 352l1 -354h-170v352h-36v143h36v25q0 57 16 93q17 37 48 60q32 23 80 32t112 9l-17 -143q-24 0 -36 -4q-15 -5 -21 -10q-7 -5 -10 -15q-3 -9 -3 -20v-25h77v-41l-10 -102h-67zM402 712h170v-714h-170v714z" />
    <glyph glyph-name="f_f_i" unicode="ffi" horiz-adv-x="972" 
d="M244 352l1 -354h-170v352h-36v143h36v25q0 57 16 93q17 37 48 60q32 23 80 32t112 9l-17 -143q-24 0 -36 -4q-15 -5 -21 -10q-7 -5 -10 -15q-3 -9 -3 -20v-25h77v-41l-10 -102h-67zM591 350l1 -354h-170v352h-36v143h36v25q0 57 16 93q16 37 48 60t80 32t112 9l-17 -143
q-24 0 -36 -4q-15 -5 -21 -10q-7 -5 -10 -15q-3 -9 -3 -20v-25h77v-41l-10 -102h-67zM836 550l-1 -1q-21 0 -40 8t-32 21q-13 14 -21 33q-8 21 -8 40q0 20 8 39t21 32t32 21t41 8q19 0 38 -8t32 -21q14 -14 21 -31q8 -19 8 -39q0 -19 -8 -40q-7 -20 -21 -33q-13 -13 -32 -21
t-38 -8zM748 490h170v-495h-170v495z" />
    <glyph glyph-name="f_f_l" unicode="ffl" horiz-adv-x="972" 
d="M244 352l1 -354h-170v352h-36v143h36v25q0 57 16 93q17 37 48 60q32 23 80 32t112 9l-17 -143q-24 0 -36 -4q-15 -5 -21 -10q-7 -5 -10 -15q-3 -9 -3 -20v-25h77v-41l-10 -102h-67zM591 350l1 -354h-170v352h-36v143h36v25q0 57 16 93q16 37 48 60t80 32t112 9l-17 -143
q-24 0 -36 -4q-15 -5 -21 -10q-7 -5 -10 -15q-3 -9 -3 -20v-25h77v-41l-10 -102h-67zM749 710h170v-714h-170v714z" />
    <glyph glyph-name=".notdef" horiz-adv-x="500" 
d="M50 750h400v-1000h-400v1000zM400 -200v900h-300v-900h300z" />
    <glyph glyph-name=".null" horiz-adv-x="0" 
 />
    <glyph glyph-name="nonmarkingreturn" horiz-adv-x="333" 
 />
    <glyph glyph-name="space" unicode=" " horiz-adv-x="225" 
 />
    <glyph glyph-name="exclam" unicode="!" horiz-adv-x="289" 
d="M57 574v101h175v-101l-31 -334h-113zM146 -13l-1 -1q-21 0 -40 8t-32 21t-21 33q-8 21 -8 40q0 20 8 39t21 32t32 21t41 8q19 0 38 -8t32 -21q14 -14 21 -31q8 -19 8 -39q0 -19 -8 -40q-7 -19 -21 -33q-13 -13 -32 -21t-38 -8z" />
    <glyph glyph-name="quotedbl" unicode="&#x22;" horiz-adv-x="440" 
d="M240 574v101h155v-101l-31 -124h-93zM45 574v101h155v-101l-31 -124h-93z" />
    <glyph glyph-name="numbersign" unicode="#" horiz-adv-x="721" 
d="M109 547h80l23 128h170l-23 -128h95l23 128h170l-23 -128h64l-28 -160h-64l-18 -100h62l-28 -160h-63l-22 -127h-170l22 127h-95l-22 -127h-170l22 127h-81l28 160h82l18 100h-80zM313 287h95l18 100h-95z" />
    <glyph glyph-name="dollar" unicode="$" horiz-adv-x="638" 
d="M100 223q51 -25 99 -42q48 -16 95 -24v110q-74 22 -124 50q-47 26 -75 56q-27 28 -36 59q-9 30 -9 58q0 40 15 76q15 35 47 63q31 26 76 43q44 16 104 16h1v105h43v-107q30 -2 58 -7q34 -7 64 -16q37 -12 66 -25q38 -17 65 -34l-65 -142q-44 21 -94 36q-54 16 -94 20v-98
q81 -24 131 -48q51 -24 81 -51q31 -28 41 -58q11 -33 11 -69q0 -48 -18 -87q-18 -40 -52 -66q-36 -28 -81 -41q-48 -14 -104 -14h-8v-96h-43v99q-62 7 -133 30t-132 63zM416 195v1q0 23 -18 35q-19 13 -61 23v-102h14q26 0 46 11q19 10 19 32zM243 489l-2 -1q0 -16 10 -27
q11 -12 42 -24v86q-23 -2 -36 -10q-14 -9 -14 -24z" />
    <glyph glyph-name="percent" unicode="%" horiz-adv-x="735" 
d="M544 90l2 -1q22 0 39 15q16 15 16 38q0 26 -16 39q-17 14 -39 14t-39 -15q-16 -15 -16 -38q0 -26 15 -39q14 -13 38 -13zM386 143l-2 -2q0 33 12 61t33 49t51 33t65 12q36 0 66 -12t51 -33t33 -49t12 -61t-12 -62t-33 -50t-51 -33t-66 -12q-40 0 -69 13q-31 14 -50 36
q-20 23 -30 51q-10 27 -10 59zM136 528l2 -1q0 -25 15 -39q14 -13 38 -13q23 0 39 15t16 38q0 26 -16 39q-17 14 -39 14q-23 0 -39 -15t-16 -38zM217 -4h-91l390 675h91zM32 529l-2 -2q0 33 12 61t33 49t51 33t65 12q36 0 66 -12t51 -33t33 -49t12 -61t-12 -62t-33 -50
t-51 -33t-66 -12q-40 0 -69 13q-31 14 -50 36q-20 23 -30 51q-10 27 -10 59z" />
    <glyph glyph-name="ampersand" unicode="&#x26;" horiz-adv-x="726" 
d="M587 -16l-89 74q-50 -35 -108 -55q-56 -19 -120 -19q-49 0 -94 14q-42 13 -75 38q-31 23 -49 57q-18 33 -18 71q0 53 35 99t99 80q-23 21 -38 44q-14 22 -24 44q-9 21 -12 41t-3 36q0 39 18 72t48 57q29 23 72 37q44 14 90 14q48 0 90 -14q41 -14 69 -37q30 -25 44 -55
q15 -32 15 -66q0 -42 -23 -90q-22 -46 -68 -87l55 -48q15 21 30 47q13 24 27 51l143 -64q-15 -31 -38 -73q-19 -34 -42 -66l85 -73zM292 148l-1 -2q37 0 78 21l-94 81q-29 -10 -45 -24q-16 -13 -16 -33q0 -19 21 -31t57 -12zM274 494h-1q0 -17 14 -26q16 -10 38 -30l7 -6
q21 24 21 55q0 17 -12 29t-32 12q-13 0 -24 -9t-11 -25z" />
    <glyph glyph-name="quotesingle" unicode="'" horiz-adv-x="245" 
d="M45 574v101h155v-101l-31 -124h-93z" />
    <glyph glyph-name="parenleft" unicode="(" horiz-adv-x="405" 
d="M318 -276h-1q-133 91 -210 215q-76 122 -76 281q0 158 72 282t204 213l90 -130q-55 -40 -90 -79q-36 -41 -57 -85q-21 -45 -30 -94t-9 -108t9 -108q9 -51 31 -93q23 -45 58 -84q35 -40 89 -78z" />
    <glyph glyph-name="parenright" unicode=")" horiz-adv-x="405" 
d="M7 -144l1 -3q54 38 89 78q36 41 57 84t30 93t9 108t-9 108q-9 49 -30 94q-21 44 -57 85q-37 42 -90 80l90 130q132 -89 204 -213t72 -282t-76 -280t-210 -214z" />
    <glyph glyph-name="asterisk" unicode="*" horiz-adv-x="444" 
d="M325 461l55 -77l-99 -72l-56 78l-56 -77l-99 72l55 75l-93 30l38 117l92 -30v98h123v-98l88 28l38 -116z" />
    <glyph glyph-name="plus" unicode="+" horiz-adv-x="493" 
d="M40 319h131v131h150v-131h132v-151h-132v-131h-150v131h-131v151z" />
    <glyph glyph-name="comma" unicode="," horiz-adv-x="282" 
d="M141 191l-1 1q47 0 74 -33t27 -80v-4q-2 -57 -31 -110t-104 -103l-24 33q23 28 35 48q13 22 21 47q-21 2 -39 9q-19 8 -32 21t-21 32q-7 17 -7 39q0 20 8 39t21 32t32 21t41 8z" />
    <glyph glyph-name="hyphen" unicode="-" horiz-adv-x="521" 
d="M54 325h413v-160h-413v160z" />
    <glyph glyph-name="period" unicode="." horiz-adv-x="279" 
d="M141 -13l-1 -1q-20 0 -39 8q-18 8 -33 21q-14 13 -22 33q-8 21 -8 40q0 20 8 39t21 32t32 21t41 8q20 0 39 -8t32 -21q14 -14 21 -31q8 -19 8 -39q0 -19 -8 -40q-8 -19 -21 -33q-13 -13 -32 -21t-38 -8z" />
    <glyph glyph-name="slash" unicode="/" horiz-adv-x="386" 
d="M222 675h135l-192 -675h-135z" />
    <glyph glyph-name="zero" unicode="0" horiz-adv-x="709" 
d="M354 -13h-3q-65 0 -121 22t-100 66q-43 43 -67 109t-24 154q0 87 24 153t68 110t100 66t122 22t122 -22t100 -66t68 -110t24 -153q0 -88 -24 -154t-67 -109q-44 -44 -100 -66t-122 -22zM351 152l-5 -3q29 0 53 12t42 36q19 25 29 58q11 36 11 80q0 47 -10 80
q-11 36 -28 59q-18 24 -42 36t-52 12q-27 0 -51 -12t-42 -36q-17 -23 -28 -58q-10 -33 -10 -79q0 -43 11 -79q10 -33 29 -58q18 -24 42 -36t51 -12z" />
    <glyph glyph-name="one" unicode="1" horiz-adv-x="494" 
d="M89 160h101v333l-101 -57l-74 139l175 100h175v-515h100v-160h-376v160z" />
    <glyph glyph-name="two" unicode="2" horiz-adv-x="617" 
d="M25 567l-1 -5q35 32 73 54q42 24 79 38q38 14 79 22q36 7 73 7q55 0 99 -16q47 -17 77 -43q31 -27 49 -64q18 -38 18 -78q0 -49 -23 -84q-22 -33 -57 -61q-35 -27 -75 -48q-51 -27 -75 -40q-36 -20 -59 -42t-25 -51h317v-160h-508v128q0 56 24 96t60 72q38 33 78 56
q42 24 78 45t60 42t24 46q0 19 -22 29q-24 11 -57 11q-17 0 -43 -3q-22 -3 -52 -11q-28 -8 -56 -21q-28 -14 -54 -33z" />
    <glyph glyph-name="three" unicode="3" horiz-adv-x="618" 
d="M98 207l-4 -5q27 -16 57 -27q26 -9 57 -16q27 -6 51 -9t40 -3q44 0 66 14q21 13 21 39q0 28 -36 46t-103 18v147q45 0 72 6t42 15t20 20q5 12 5 21q0 25 -27 36q-28 11 -69 11q-53 0 -94 -12q-32 -9 -87 -29l-66 133q29 16 63 30q37 15 71 23q40 10 72 14q40 5 66 5
q55 0 101 -15q48 -15 81 -40q35 -26 54 -61q20 -37 20 -76q0 -46 -24 -84t-69 -66q45 -26 69 -63q24 -38 24 -85q0 -38 -15 -75q-14 -36 -47 -67q-31 -30 -81 -48q-49 -18 -115 -18q-35 0 -72 6t-75 18q-36 12 -74 32q-36 20 -69 48z" />
    <glyph glyph-name="four" unicode="4" horiz-adv-x="641" 
d="M27 285l322 390h186v-390h65v-160h-65v-125h-175v125h-333v160zM360 285v174l-140 -174h140z" />
    <glyph glyph-name="five" unicode="5" horiz-adv-x="609" 
d="M107 675l432 2l-15 -160h-268l-6 -70q6 1 18 1h18q73 0 129 -17q54 -16 89 -47q34 -30 51 -72q17 -43 17 -90q0 -51 -18 -94q-18 -44 -54 -75q-35 -30 -92 -49q-56 -18 -132 -18q-41 0 -74 6q-36 7 -63 16q-31 11 -58 25q-23 12 -60 35l80 124q53 -26 93 -36
q42 -11 84 -11q67 0 98 20q30 19 30 54q0 19 -15 33q-16 14 -39 23q-22 8 -56 13q-28 4 -68 4q-39 0 -71 -4q-35 -4 -67 -15l-21 -7z" />
    <glyph glyph-name="six" unicode="6" horiz-adv-x="644" 
d="M352 -13l-3 -1q-54 0 -111 17q-55 16 -99 53q-43 36 -72 95q-28 57 -28 144v5q0 102 30 175t81 121q50 47 118 70q66 22 144 22q43 0 88 -6q43 -6 95 -23l-51 -153q-36 13 -71 17q-40 5 -64 5q-55 0 -100 -21t-67 -73q53 14 94 14q58 0 104 -13q49 -14 84 -40
q36 -27 57 -69t21 -97q0 -50 -17 -95q-17 -43 -49 -76q-32 -32 -79 -52q-45 -19 -105 -19zM320 151l-3 -1q43 0 71 18q29 18 29 51q0 29 -30 46q-29 16 -74 16q-39 0 -67 -18t-28 -44q0 -35 30 -51q31 -17 72 -17z" />
    <glyph glyph-name="seven" unicode="7" horiz-adv-x="609" 
d="M34 675h582l-370 -675h-198l282 515h-296v160z" />
    <glyph glyph-name="eight" unicode="8" horiz-adv-x="638" 
d="M326 -13l-4 -6q-58 0 -111 15q-52 15 -91 42q-38 26 -61 66q-22 38 -22 88q0 56 30 94t81 60q-37 21 -60 56q-22 34 -22 87q0 47 20 84q20 36 54 60q35 25 80 38q43 13 96 13q55 0 98 -13q47 -14 80 -37q34 -24 54 -60q20 -37 20 -84q0 -52 -22 -86q-23 -35 -60 -56
q51 -21 81 -57t30 -91q0 -47 -21 -86q-22 -40 -58 -68q-39 -29 -87 -44q-49 -15 -105 -15zM315 146q43 0 71 15q29 15 29 41q0 28 -29 42q-27 13 -71 13q-42 0 -69 -13q-29 -14 -29 -42q0 -26 29 -41q28 -15 69 -15zM315 425h-1q29 0 50 12t21 35q0 21 -21 33t-49 12
q-29 0 -48 -12q-20 -12 -20 -33q0 -23 20 -35q19 -12 48 -12z" />
    <glyph glyph-name="nine" unicode="9" horiz-adv-x="643" 
d="M291 688l-3 -1q57 0 111 -16q55 -16 99 -53q43 -36 72 -95q28 -57 28 -144v-5q0 -102 -30 -175t-81 -121q-50 -47 -118 -70q-66 -22 -144 -22q-43 0 -88 6q-42 6 -94 23l51 153q36 -13 71 -17q40 -5 65 -5q55 0 100 21q46 21 68 73q-54 -14 -93 -14q-53 0 -103 14
q-47 13 -84 41q-36 27 -57 68t-21 96q0 50 17 95q16 44 50 77q33 33 79 52q45 19 105 19zM317 522l1 1q-42 0 -70 -18t-28 -51q0 -30 30 -46q29 -16 74 -16q38 0 67 18q28 18 28 44q0 34 -30 51q-31 17 -72 17z" />
    <glyph glyph-name="colon" unicode=":" horiz-adv-x="299" 
d="M151 305h-3q-21 0 -40 8t-32 21q-14 14 -21 33q-8 21 -8 40q0 20 8 39t21 32t32 21t41 8q42 0 71 -28q30 -29 30 -72q0 -19 -8 -40q-8 -19 -21 -33q-14 -14 -31 -21q-19 -8 -39 -8zM148 -13l-1 -1q-21 0 -40 8t-32 21t-21 33q-8 21 -8 40q0 20 8 39t21 32t32 21t41 8
q21 0 38 -7q19 -8 32 -21t21 -32t8 -39q0 -19 -8 -40q-7 -19 -21 -33t-31 -21q-19 -8 -39 -8z" />
    <glyph glyph-name="semicolon" unicode=";" horiz-adv-x="301" 
d="M92 -107h1q23 28 35 48q13 22 21 47q-21 2 -39 9q-19 8 -32 21t-21 32q-7 17 -7 39q0 20 8 39t21 32t32 21t41 8q20 0 38 -9q19 -9 32 -24q14 -15 21 -36q8 -22 8 -43v-4q-2 -57 -31 -110t-104 -103zM152 305l-1 -1q-21 0 -40 8t-32 21t-21 33q-8 21 -8 40q0 20 8 39
t21 32t32 21t41 8q19 0 38 -8t32 -21q14 -14 21 -31q8 -19 8 -39q0 -19 -8 -40q-7 -19 -21 -33q-13 -13 -32 -21t-38 -8z" />
    <glyph glyph-name="less" unicode="&#x3c;" horiz-adv-x="545" 
d="M492 482v-172l-259 -61l253 -57v-174l-447 139v184z" />
    <glyph glyph-name="equal" unicode="=" horiz-adv-x="527" 
d="M57 443h413v-160h-413v160zM57 203h413v-160h-413v160z" />
    <glyph glyph-name="greater" unicode="&#x3e;" horiz-adv-x="545" 
d="M506 157l-447 -139v174l253 57l-259 61v172l453 -141v-184z" />
    <glyph glyph-name="question" unicode="?" horiz-adv-x="580" 
d="M26 598l-1 -5q54 49 128 70q72 21 141 21q64 0 112 -15q47 -15 79 -42q31 -26 46 -63q15 -36 15 -76q0 -36 -12 -69t-36 -60t-63 -48q-38 -20 -91 -31v-71h-150v194q90 0 139 23q48 22 48 57q0 19 -21 30q-20 10 -66 10q-98 0 -186 -54zM268 -18l-2 -2q-40 0 -67 27
t-27 66q0 38 27 65t67 27q20 0 35 -7q18 -8 29 -19q13 -12 20 -29q8 -18 8 -36q0 -21 -7 -36q-7 -16 -20 -29t-29 -20q-15 -7 -34 -7z" />
    <glyph glyph-name="at" unicode="@" horiz-adv-x="817" 
d="M613 52l-5 4q-31 0 -61 9q-28 8 -49 26q-26 -19 -57 -30q-30 -10 -64 -10q-39 0 -75 15t-63 42q-28 28 -44 63t-16 80q0 41 17 78q16 35 44 63q27 27 63 42t75 15q33 0 62 -10q32 -11 56 -28l7 26h84v-228q0 -19 9 -33q9 -13 23 -13q19 0 30 10q12 11 21 27q8 15 13 37
q4 19 4 41q0 59 -20 105q-19 45 -57 75t-90 45t-117 15q-71 0 -125 -21t-90 -57t-54 -85t-18 -106q0 -56 18 -104q18 -47 53 -84q34 -36 86 -57q51 -21 118 -21v-80q-82 0 -149 29q-64 28 -112 77q-45 47 -70 110q-24 61 -24 129q0 69 26 133q26 65 73 110q49 47 116 74
t153 27q74 0 142 -21t118 -61q51 -40 81 -99t30 -135q0 -44 -12 -84t-33 -72q-22 -32 -51 -50q-30 -18 -66 -18zM376 322h-2q-28 0 -46 -21t-18 -48q0 -29 18 -50t47 -21t50 21t21 51q0 28 -21 48q-22 20 -49 20z" />
    <glyph glyph-name="A" unicode="A" horiz-adv-x="718" 
d="M267 675h184l271 -675h-183l-42 114h-277l-41 -114h-183zM279 274h160l-80 218z" />
    <glyph glyph-name="B" unicode="B" horiz-adv-x="698" 
d="M69 0l-1 673h370q45 0 78 -16q34 -16 58 -43t36 -61q12 -35 12 -69q0 -32 -11 -67q-11 -34 -33 -59q43 -25 66 -68t23 -88q0 -35 -14 -72q-13 -36 -41 -65q-28 -30 -67 -47q-41 -18 -91 -18h-385zM429 158h-1q29 0 44 17t15 35t-13 32q-14 15 -42 15h-189v-99h186z
M385 417q29 0 42 16q14 17 14 33q0 18 -13 32q-14 15 -42 15h-144v-96h143z" />
    <glyph glyph-name="C" unicode="C" horiz-adv-x="693" 
d="M674 95l-3 -3q-48 -50 -120 -78q-73 -29 -157 -29q-75 0 -141 24q-67 24 -116 69q-50 45 -78 109q-28 63 -28 147q0 89 33 155q33 67 84 110t114 66q62 22 124 22q96 0 166 -30t126 -83l-124 -117q-31 31 -75 49q-43 18 -93 18q-34 0 -64 -13q-31 -13 -55 -39t-39 -60
t-15 -78q0 -40 14 -76q13 -34 39 -58q25 -24 59 -36q33 -12 72 -12q44 0 87 17t68 48z" />
    <glyph glyph-name="D" unicode="D" horiz-adv-x="748" 
d="M69 675l315 3q69 0 129 -27t105 -72t71 -107q26 -63 26 -132t-26 -132q-26 -62 -70 -108t-105 -73q-60 -27 -129 -27h-316v675zM243 518v-356h141q30 0 58 14q26 13 48 38q21 24 33 57t12 69t-12 69t-33 57q-22 25 -48 38q-28 14 -58 14h-141z" />
    <glyph glyph-name="E" unicode="E" horiz-adv-x="615" 
d="M69 675h496v-160h-321v-99h301v-160h-301v-96h324v-160h-499v675z" />
    <glyph glyph-name="F" unicode="F" horiz-adv-x="588" 
d="M69 675h476v-160h-301v-133h281v-160h-281v-222h-175v675z" />
    <glyph glyph-name="G" unicode="G" horiz-adv-x="739" 
d="M690 86h-2q-45 -47 -121 -72q-78 -26 -162 -26q-81 0 -151 26q-68 25 -118 72t-77 111q-27 65 -27 143t27 141t77 110t117 72q66 25 149 25q94 0 167 -30q74 -30 126 -85l-117 -110q-12 13 -32 24t-43 18q-25 8 -49 12q-23 4 -48 4q-47 0 -83 -15q-35 -15 -60 -41
q-23 -25 -37 -58q-13 -32 -13 -67q0 -36 13 -69q13 -34 39 -61q24 -26 62 -43q35 -16 83 -16q26 0 53 6q23 5 52 17v59h-102v160h277v-307z" />
    <glyph glyph-name="H" unicode="H" horiz-adv-x="775" 
d="M69 675h175v-255h287v255h175v-675h-175v260h-287v-260h-175v675z" />
    <glyph glyph-name="I" unicode="I" horiz-adv-x="313" 
d="M69 675h175v-675h-175v675z" />
    <glyph glyph-name="J" unicode="J" horiz-adv-x="567" 
d="M279 -13l-3 -2q-34 0 -74 8q-35 7 -75 23q-36 14 -70 36q-33 21 -60 48l99 111q36 -23 70 -39q37 -17 71 -17q17 0 33 6q17 6 29 18q13 13 20 30q8 19 8 44v422h175v-435q0 -71 -18 -119t-48 -78q-29 -29 -71 -43q-39 -13 -86 -13z" />
    <glyph glyph-name="K" unicode="K" horiz-adv-x="705" 
d="M496 0l-194 233l-58 -64v-169h-175v675h175v-259l230 259h226l-279 -310l301 -365h-226z" />
    <glyph glyph-name="L" unicode="L" horiz-adv-x="571" 
d="M69 675h175v-515h307v-160h-482v675z" />
    <glyph glyph-name="M" unicode="M" horiz-adv-x="918" 
d="M69 675h180l210 -374l210 374h180v-675h-175v397l-178 -323h-74l-178 323v-397h-175v675z" />
    <glyph glyph-name="N" unicode="N" horiz-adv-x="776" 
d="M69 675h175l288 -415v415h175v-675h-175l-288 413v-413h-175v675z" />
    <glyph glyph-name="O" unicode="O" horiz-adv-x="785" 
d="M392 -13l-2 -1q-75 0 -141 27t-114 75q-49 49 -77 111t-28 137q0 70 29 136q28 63 77 112q48 48 114 75t141 27t141 -27t114 -75q49 -49 77 -112q29 -66 29 -136q0 -74 -28 -136t-77 -111q-48 -48 -114 -75t-141 -27zM390 151q37 0 70 15q34 15 57 40q24 26 39 60t15 72
t-15 72t-39 60q-23 25 -57 40q-33 15 -70 15t-70 -15q-34 -15 -57 -40q-24 -26 -39 -60t-15 -72t15 -72t39 -60q23 -25 57 -40q33 -15 70 -15z" />
    <glyph glyph-name="P" unicode="P" horiz-adv-x="684" 
d="M69 0v672h364q54 0 96 -21t71 -56q29 -36 44 -78q15 -43 15 -90q0 -45 -15 -90q-15 -44 -44 -81q-29 -36 -71 -59q-43 -23 -96 -23h-189v-174h-175zM244 512l-1 -181h151q22 0 39 9t27 22q10 14 15 30q5 18 5 33q0 33 -21 60t-64 27h-151z" />
    <glyph glyph-name="Q" unicode="Q" horiz-adv-x="785" 
d="M216 31l-3 2q-41 23 -75 54q-33 30 -58 71q-23 37 -37 84q-13 43 -13 95q0 70 29 136q28 63 77 112q48 48 114 75t141 27t141 -27t114 -75q49 -49 77 -112q29 -66 29 -136q0 -57 -16 -105q-17 -52 -46 -92q-31 -43 -70 -75t-90 -52l56 -13l135 -48v-175zM389 154
q37 0 70 15q34 15 57 40q24 25 39 60t15 72t-15 72t-39 60q-23 25 -57 40q-33 15 -70 15t-70 -15q-34 -15 -57 -40q-24 -25 -39 -60t-15 -72t15 -72t39 -60q23 -25 57 -40q33 -15 70 -15z" />
    <glyph glyph-name="R" unicode="R" horiz-adv-x="709" 
d="M69 0l1 673h370q52 0 90 -19q39 -20 66 -51t42 -72t15 -82q0 -53 -23 -108q-23 -54 -62 -92l126 -249h-188l-98 194h-164v-194h-175zM245 513l-2 -162h165q14 0 27 8q11 7 21 20q8 11 13 27q4 13 4 30q0 29 -15 53t-47 24h-166z" />
    <glyph glyph-name="S" unicode="S" horiz-adv-x="632" 
d="M96 223l-4 -3q69 -35 131 -53q63 -18 121 -18q26 0 46 11q19 10 19 32t-18 36t-63 24q-88 22 -144 51t-87 60t-42 63q-11 33 -11 62q0 40 15 76q15 35 47 63q31 26 76 43q44 16 104 16q30 0 62 -4q41 -5 75 -13q42 -10 81 -25q42 -16 81 -42l-65 -142q-25 13 -56 24
q-30 10 -60 18q-31 8 -58 12q-32 5 -51 5q-26 0 -41 -9t-15 -25q0 -10 4 -18t15 -16t28 -15q19 -8 46 -15q81 -24 132 -48t81 -51t41 -59q11 -33 11 -69q0 -48 -18 -87q-18 -40 -52 -66q-36 -28 -81 -41q-48 -14 -104 -14q-34 0 -75 6q-39 6 -82 18q-41 12 -82 30t-78 42z
" />
    <glyph glyph-name="T" unicode="T" 
d="M19 675h582v-160h-203v-515h-175v515h-204v160z" />
    <glyph glyph-name="U" unicode="U" horiz-adv-x="738" 
d="M235 675l-2 -373q0 -36 11 -66q11 -29 30 -47q20 -18 45 -27t54 -9q57 0 93 36t36 113v373h175v-389q0 -74 -21 -129q-21 -56 -61 -93q-41 -38 -96 -57q-54 -19 -124 -19t-126 19q-57 19 -99 57t-66 93t-24 129v389h175z" />
    <glyph glyph-name="V" unicode="V" horiz-adv-x="702" 
d="M186 675l167 -468l164 468h187l-261 -675h-184l-261 675h188z" />
    <glyph glyph-name="W" unicode="W" horiz-adv-x="1010" 
d="M703 242l110 433h187l-198 -675h-184l-113 446l-112 -446h-184l-201 675h188l114 -429l111 429h167z" />
    <glyph glyph-name="X" unicode="X" horiz-adv-x="722" 
d="M257 338l-255 337h213l149 -197l144 197h212l-255 -335l265 -340h-213l-155 202l-153 -202h-217z" />
    <glyph glyph-name="Y" unicode="Y" horiz-adv-x="713" 
d="M444 223v-223h-175v223l-276 452h201l164 -302l168 302h193z" />
    <glyph glyph-name="Z" unicode="Z" horiz-adv-x="621" 
d="M49 675h522v-118l-310 -397h326v-160h-553v119l302 396h-287v160z" />
    <glyph glyph-name="bracketleft" unicode="[" horiz-adv-x="360" 
d="M59 675h263v-150h-88v-625h88v-150h-263v925z" />
    <glyph glyph-name="backslash" unicode="\" horiz-adv-x="386" 
d="M221 0l-192 675h135l192 -675h-135z" />
    <glyph glyph-name="bracketright" unicode="]" horiz-adv-x="360" 
d="M38 -250v150h88v625h-88v150h263v-925h-263z" />
    <glyph glyph-name="asciicircum" unicode="^" horiz-adv-x="570" 
d="M33 311l159 364h184l161 -370h-172l-81 221l-77 -215h-174z" />
    <glyph glyph-name="underscore" unicode="_" horiz-adv-x="583" 
d="M0 -65h583v-150h-583v150z" />
    <glyph glyph-name="grave" unicode="`" horiz-adv-x="294" 
d="M20 709h194l60 -156h-154z" />
    <glyph glyph-name="a" unicode="a" horiz-adv-x="575" 
d="M355 304q0 30 -31 45q-32 15 -87 15q-37 0 -79 -6q-39 -6 -83 -17l-30 132q47 14 103 25q50 10 111 10q130 0 198 -50t68 -138v-319h-100l-32 53q-46 -37 -91 -52t-97 -15q-92 0 -136 37q-45 38 -45 103q0 72 48 107q48 34 135 42l148 13v15zM247 97l-1 -1q32 0 57 12
q24 11 51 32v62l-96 -15q-26 -5 -41 -13q-17 -9 -17 -35q0 -18 12 -30t35 -12z" />
    <glyph glyph-name="b" unicode="b" horiz-adv-x="623" 
d="M334 -13l2 -3q-49 0 -91 15q-40 14 -76 41l-19 -43h-94v714h170v-151l-10 -98q30 21 60 32q32 12 66 12q52 0 99 -18t81 -51q34 -32 55 -81q21 -48 21 -106q0 -59 -21 -107q-21 -49 -57 -83t-84 -54q-47 -19 -102 -19zM317 139l-2 1q21 0 42 8q19 7 33 23q15 17 23 34
q9 19 9 42t-9 42q-9 20 -22 33q-13 14 -33 21q-21 8 -42 8q-42 0 -73 -29q-30 -28 -30 -74t30 -78q30 -31 74 -31z" />
    <glyph glyph-name="c" unicode="c" horiz-adv-x="532" 
d="M514 78l-2 2q-20 -22 -45 -39q-23 -15 -54 -28q-29 -12 -60 -18t-60 -6q-53 0 -101 18q-47 18 -85 51q-37 33 -60 81q-22 47 -22 107t22 107q23 49 60 83t86 54q47 19 101 19q29 0 59 -6q31 -6 59 -18q31 -13 54 -28q26 -17 45 -39l-122 -105q-19 18 -39 29
q-21 12 -55 12q-18 0 -36 -8q-17 -8 -30 -22q-14 -15 -21 -34q-7 -18 -7 -42q0 -47 28 -76q29 -30 69 -30q26 0 47 9t47 29z" />
    <glyph glyph-name="d" unicode="d" horiz-adv-x="624" 
d="M455 43l1 3q-36 -27 -76 -41q-42 -15 -91 -15q-55 0 -102 19q-48 19 -84 54q-36 34 -57 83q-21 48 -21 107q0 58 21 106q21 47 56 81q34 33 81 51t99 18q34 0 66 -12q33 -13 60 -31l-9 97v151h170v-714h-94zM309 145h-2q44 0 74 31q30 32 30 78t-30 74q-31 29 -73 29
q-24 0 -42 -7q-19 -7 -34 -21q-14 -13 -22 -33q-8 -21 -8 -42t8 -42q7 -18 23 -34q15 -15 34 -24t42 -9z" />
    <glyph glyph-name="e" unicode="e" horiz-adv-x="575" 
d="M529 83l-1 -1q-40 -47 -99 -71q-60 -24 -124 -24q-54 0 -105 18t-90 51q-38 32 -61 81t-23 108q0 60 22 107q23 49 60 83t86 54q47 19 101 19t99 -19q48 -20 83 -55q36 -36 57 -89t21 -120h-350q9 -43 41 -63t77 -20q25 0 51 9q25 9 45 29zM289 372h-1q-38 0 -57 -25
t-27 -57l167 7q-21 75 -82 75z" />
    <glyph glyph-name="f" unicode="f" horiz-adv-x="346" 
d="M244 352l1 -354h-170v352h-36v143h36v25q0 57 16 93q17 37 48 60q32 23 80 32t112 9l-17 -143q-24 0 -36 -4q-15 -5 -21 -10q-7 -5 -10 -15q-3 -9 -3 -20v-25h77v-41l-10 -102h-67z" />
    <glyph glyph-name="g" unicode="g" horiz-adv-x="623" 
d="M289 508h-8q49 0 91 -15q40 -14 76 -41l20 43h94v-478q0 -118 -68 -186q-67 -67 -198 -67q-53 0 -119 11q-64 11 -122 33l42 132q39 -12 92 -22q47 -9 83 -9q63 0 93 27t30 81v5q-24 -16 -54 -25q-29 -9 -60 -9q-53 0 -99 18t-81 51q-34 32 -55 81q-21 48 -21 107t21 107
q21 49 57 83q36 35 84 54q47 19 102 19zM304 353l-3 -1q-23 0 -42 -9q-20 -9 -34 -22q-15 -13 -24 -33t-9 -42q0 -46 32 -75t78 -29q20 0 39 8t32 21t21 33q8 21 8 42q0 24 -7 42q-7 20 -21 33q-15 15 -31 23q-18 9 -39 9z" />
    <glyph glyph-name="h" unicode="h" horiz-adv-x="621" 
d="M55 0l-1 713h170v-162l-8 -102q28 27 66 42t86 15q40 0 76 -12t64 -37q29 -26 45 -64q17 -40 17 -93v-301h-170v261q0 43 -23 63t-57 20q-49 0 -95 -38v-305h-170z" />
    <glyph glyph-name="i" unicode="i" horiz-adv-x="280" 
d="M142 554l-1 -1q-21 0 -40 8t-32 21q-13 14 -21 33q-8 21 -8 40q0 20 8 39t21 32t32 21t41 8q19 0 38 -8t32 -21q14 -14 21 -31q8 -19 8 -39q0 -19 -8 -40q-7 -20 -21 -33q-13 -13 -32 -21t-38 -8zM54 494h170v-495h-170v495z" />
    <glyph glyph-name="j" unicode="j" horiz-adv-x="280" 
d="M142 554l-1 -1q-21 0 -40 8t-32 21q-13 14 -21 33q-8 21 -8 40q0 20 8 39t21 32t32 21t41 8q19 0 38 -8t32 -21q14 -14 21 -31q8 -19 8 -39q0 -19 -8 -40q-7 -20 -21 -33q-13 -13 -32 -21t-38 -8zM224 -8l1 -1q0 -50 -17 -93t-49 -72t-81 -46q-47 -16 -109 -16v155
q35 0 61 21t24 54v500h170v-502z" />
    <glyph glyph-name="k" unicode="k" horiz-adv-x="603" 
d="M55 714h170v-399l165 180h200l-200 -219l222 -276h-194l-133 162l-60 -66v-96h-170v714z" />
    <glyph glyph-name="l" unicode="l" horiz-adv-x="280" 
d="M55 714h170v-714h-170v714z" />
    <glyph glyph-name="m" unicode="m" horiz-adv-x="966" 
d="M55 0l-5 493h111l27 -71q38 44 82 63q46 20 96 20t96 -20q45 -19 72 -63q38 44 82 63q46 20 96 20q40 0 76 -12t64 -37q29 -26 45 -64q17 -40 17 -93v-301h-169v261q0 43 -23 63t-57 20q-49 0 -95 -38v-305h-170v261q0 43 -23 63t-57 20q-49 0 -95 -38v-305h-170z" />
    <glyph glyph-name="n" unicode="n" horiz-adv-x="621" 
d="M55 0l-3 494h111l27 -71q38 44 82 63q46 20 96 20q40 0 76 -12t64 -37q29 -26 45 -64q17 -40 17 -93v-301h-170v261q0 43 -23 63t-57 20q-49 0 -95 -38v-305h-170z" />
    <glyph glyph-name="o" unicode="o" horiz-adv-x="612" 
d="M305 -13l-3 -1q-54 0 -105 18t-90 51q-38 32 -61 81t-23 107t23 107q23 48 62 83t90 54q50 19 105 19q57 0 107 -19q51 -19 90 -54t62 -83q23 -49 23 -107q0 -57 -23 -106t-61 -81q-39 -33 -90 -51t-106 -18zM302 141h-1q21 0 42 8q19 7 34 21t23 32q8 19 8 41
q0 21 -8 42t-22 35q-15 15 -34 24q-20 9 -42 9q-43 0 -73 -31q-30 -32 -30 -78q0 -45 29 -74t74 -29z" />
    <glyph glyph-name="p" unicode="p" horiz-adv-x="624" 
d="M335 508l-4 -2q55 0 102 -19q48 -19 84 -54q36 -34 57 -83q21 -48 21 -106q0 -59 -21 -107q-21 -49 -55 -81q-35 -33 -81 -51t-99 -18q-35 0 -67 9q-29 8 -57 23l9 -86v-169h-170v731h94l21 -46q33 26 77 43q41 16 89 16zM312 351l1 -1q-22 0 -40 -9q-20 -10 -32 -22
q-13 -13 -21 -33q-8 -21 -8 -42t8 -42q8 -20 21 -33t32 -21t41 -8q43 0 74 29q30 29 30 75q0 22 -9 42t-22 33q-14 14 -33 23q-20 9 -42 9z" />
    <glyph glyph-name="q" unicode="q" horiz-adv-x="623" 
d="M289 508l-3 1q49 0 90 -16t76 -42l21 45h94v-731h-170v169l8 86q-28 -15 -57 -23q-32 -9 -67 -9q-53 0 -99 18t-81 51q-34 32 -55 81q-21 48 -21 107t21 107q21 49 57 83q36 35 84 54q47 19 102 19zM305 354l1 -1q-22 0 -42 -9t-34 -22t-22 -33q-8 -21 -8 -42
q0 -47 30 -75q31 -29 74 -29q22 0 41 8t32 21q13 14 21 33q8 21 8 42t-8 42q-8 19 -21 33q-14 14 -32 23t-40 9z" />
    <glyph glyph-name="r" unicode="r" horiz-adv-x="393" 
d="M378 344h-1q-52 0 -90 -20q-37 -19 -64 -51v-273h-170v495h122l41 -88q35 47 75 74q41 27 87 27v-164z" />
    <glyph glyph-name="s" unicode="s" horiz-adv-x="540" 
d="M71 188l-2 -8q68 -32 119 -44q52 -12 104 -12q16 0 24 5t8 11q0 13 -31 19q-76 17 -122 36t-74 41q-26 20 -37 45q-11 24 -12 49q-2 36 12 68q13 31 42 55q27 23 71 37q40 13 98 13q25 0 56 -3q30 -3 64 -9q33 -6 63 -15q29 -9 53 -23l-55 -129q-22 9 -46 15
q-17 4 -49 10q-24 5 -45 6q-28 2 -35 2q-21 0 -36 -3t-15 -11q0 -7 6 -12q6 -4 23 -9q69 -15 117 -30q47 -15 78 -35t44 -46q14 -27 15 -63q0 -37 -16 -66q-17 -31 -46 -51q-30 -21 -72 -33t-96 -12q-23 0 -56 3q-29 3 -69 11q-36 8 -72 21t-65 35z" />
    <glyph glyph-name="t" unicode="t" horiz-adv-x="389" 
d="M31 495l52 -1v117l170 50v-167h97v-130l-15 -15h-82v-123q0 -18 8 -34q7 -15 21 -27t33 -18t42 -6v-155q-64 0 -117 17q-50 16 -87 47q-36 30 -54 72t-18 93v135h-50v145z" />
    <glyph glyph-name="u" unicode="u" horiz-adv-x="619" 
d="M564 495l1 -497h-111l-27 70q-37 -44 -84 -63q-45 -19 -93 -19q-38 0 -75 14q-35 13 -64 42q-29 28 -45 72q-17 45 -17 104v277h170v-249q0 -48 24 -71q25 -23 62 -23q46 0 89 37v306h170z" />
    <glyph glyph-name="v" unicode="v" horiz-adv-x="539" 
d="M322 0h-105l-221 495h186l88 -268l87 268h186z" />
    <glyph glyph-name="w" unicode="w" horiz-adv-x="850" 
d="M492 495l88 -267l87 267h186l-211 -495h-125l-92 304l-92 -304h-125l-211 495h186l88 -267l87 267h134z" />
    <glyph glyph-name="x" unicode="x" horiz-adv-x="571" 
d="M375 0l-88 132l-91 -132h-196l192 249l-184 246h196l81 -137l82 137h196l-185 -246l193 -249h-196z" />
    <glyph glyph-name="y" unicode="y" horiz-adv-x="556" 
d="M375 86h-1q-66 -158 -147 -240t-191 -82v155q19 0 45 8q23 7 46 24q24 17 42 40q20 25 33 55l-201 449h186l93 -264l97 264h186z" />
    <glyph glyph-name="z" unicode="z" horiz-adv-x="521" 
d="M257 143h227v-143h-449v143l217 209h-200v143h423v-143z" />
    <glyph glyph-name="braceleft" unicode="{" horiz-adv-x="358" 
d="M257 392h-1q0 -32 -18 -61t-45 -51q28 -23 45 -49q18 -27 18 -58v-134q-1 -25 17 -42q17 -16 42 -16v-140q-45 0 -87 12q-41 12 -73 33q-31 21 -51 51q-19 29 -19 67v150q1 21 -14 36q-16 16 -38 17h-4v140q25 0 41 15q17 15 15 38v150q0 39 19 68q20 30 51 51
q32 21 73 33q42 12 87 12v-140q-25 0 -42 -16q-18 -16 -16 -42v-124z" />
    <glyph glyph-name="bar" unicode="|" horiz-adv-x="290" 
d="M60 714h170v-964h-170v964z" />
    <glyph glyph-name="braceright" unicode="}" horiz-adv-x="358" 
d="M101 174l-3 -6q0 31 18 58q16 25 44 49q-24 22 -43 51q-18 28 -18 61v124q2 26 -16 42q-19 17 -42 17v140q45 0 87 -12q41 -12 73 -33q31 -21 51 -51q19 -29 19 -67v-150q-1 -22 14 -36t37 -15h5v-140q-23 0 -40 -15q-16 -15 -15 -37v-150q0 -38 -19 -67q-19 -30 -51 -51
t-73 -33q-42 -12 -87 -12v140q23 0 42 17q18 17 17 42v134z" />
    <glyph glyph-name="asciitilde" unicode="~" horiz-adv-x="505" 
d="M58 221l2 3q1 80 38 120q36 39 83 39q20 0 44 -6q32 -8 49 -13q20 -6 52 -13q27 -6 51 -6q13 0 26 8t14 30h35q0 -79 -30 -123q-30 -43 -87 -43q-23 0 -48 6q-34 8 -52 13t-54 13q-27 6 -51 6q-14 0 -23 -9t-12 -25h-37z" />
    <glyph glyph-name="uni00A0" unicode="&#xa0;" horiz-adv-x="225" 
 />
    <glyph glyph-name="exclamdown" unicode="&#xa1;" horiz-adv-x="279" 
d="M196 254l31 -334v-101h-175v101l31 334h113zM141 508l-1 -1q19 0 38 -8t32 -21q14 -14 21 -33q8 -21 8 -40q0 -20 -8 -39q-7 -17 -21 -31q-13 -13 -32 -21t-38 -8q-21 0 -40 8t-32 21t-21 32t-8 39q0 19 8 40q7 20 21 33q13 13 32 21t41 8z" />
    <glyph glyph-name="cent" unicode="&#xa2;" horiz-adv-x="548" 
d="M209 1l-4 -3q-36 13 -70 36q-33 22 -57 54q-23 31 -37 70q-13 38 -13 85q0 46 14 86q13 39 38 71q23 30 57 55q31 23 71 37v151h162v-145q45 -11 80 -31q39 -22 65 -51l-122 -105q-20 18 -43 29q-26 12 -51 12q-39 0 -66 -28t-27 -76q0 -47 28 -76q28 -30 69 -30
q23 0 45 9q21 8 48 29l122 -102q-26 -31 -66 -52q-39 -21 -81 -30v-152h-162v157z" />
    <glyph glyph-name="sterling" unicode="&#xa3;" horiz-adv-x="667" 
d="M48 0l-4 135l107 10l-14 86h-91v141l67 6l-8 53q-11 65 9 113q20 49 57 80q38 32 87 47q50 15 102 15q78 0 144 -30q67 -30 117 -76l-85 -111q-19 12 -40 20q-32 12 -49 17q-25 8 -48 12q-20 4 -38 4q-15 0 -32 -5q-14 -4 -27 -14q-12 -9 -18 -24t-3 -35l10 -60h101v-142
l-77 -3l14 -89h136l9 153h139v-303h-565z" />
    <glyph glyph-name="currency" unicode="&#xa4;" horiz-adv-x="705" 
d="M41 145l62 61q-34 55 -34 126q0 37 9 70q8 30 26 61l-64 65l119 119l74 -75q57 23 114 23q64 0 121 -25l77 77l119 -119l-70 -70q15 -25 25 -59q9 -31 9 -66t-9 -65q-10 -33 -22 -56l68 -68l-119 -119l-76 75q-56 -24 -122 -24q-30 0 -60 6q-27 5 -55 17l-73 -73z
M347 230l-2 1q21 0 42 8q19 7 34 21t23 32q8 19 8 41q0 21 -8 42q-7 19 -22 34t-34 24q-20 9 -42 9q-43 0 -73 -31t-30 -78q0 -45 30 -74q31 -29 74 -29z" />
    <glyph glyph-name="yen" unicode="&#xa5;" horiz-adv-x="728" 
d="M540 392h82v-142h-162l-4 -7v-39h166v-142h-166v-62h-175v62h-195v142h195v39l-4 7h-191v142h110l-161 283h179l153 -295l151 295h183z" />
    <glyph glyph-name="brokenbar" unicode="&#xa6;" horiz-adv-x="299" 
d="M62 314h175v-314h-175v314zM62 675h175v-296h-175v296z" />
    <glyph glyph-name="section" unicode="&#xa7;" horiz-adv-x="633" 
d="M118 0l-5 -1q57 -28 97 -45q44 -19 90 -19q22 0 39 9q16 9 16 27q0 14 -13 23q-15 10 -48 17q-82 21 -133 51q-50 29 -79 63q-28 33 -39 66q-10 31 -10 61q0 45 21 84t61 67q-13 23 -18 45q-4 20 -4 42q0 40 15 76q15 37 43 63t69 43q39 16 95 16q24 0 57 -3
q32 -3 67 -12q38 -10 69 -22q36 -14 65 -33l-59 -153q-40 25 -90 42q-48 16 -96 16q-19 0 -30 -7q-12 -8 -12 -21q0 -9 3 -15q2 -5 11 -10q8 -4 21 -9l36 -12q73 -23 119 -51q48 -29 74 -60q28 -32 38 -63q11 -33 11 -62q0 -46 -21 -85t-57 -66q11 -22 15 -45q5 -25 5 -45
q0 -46 -16 -82q-17 -39 -46 -65q-30 -27 -72 -42t-91 -15q-60 0 -135 23q-72 22 -138 62zM279 281l-3 -2q-26 -2 -41 -12q-15 -11 -15 -27q0 -12 6 -20t21 -15q13 -6 41 -13q26 -6 66 -15l5 -2q23 5 36 15q14 11 14 24q0 22 -21 32q-23 12 -70 23z" />
    <glyph glyph-name="dieresis" unicode="&#xa8;" horiz-adv-x="490" 
d="M368 553l-1 -1q-21 0 -40 8t-32 21t-21 33q-8 21 -8 40q0 20 8 39t21 32t32 21t41 8q19 0 38 -8t32 -21q14 -14 21 -31q8 -19 8 -39q0 -19 -8 -40q-7 -19 -21 -33q-13 -13 -32 -21t-38 -8zM124 552l-1 -1q-21 0 -40 8t-32 21q-13 14 -21 33q-8 21 -8 40q0 20 8 39t21 32
t32 21t41 8q19 0 38 -8t32 -21q14 -14 21 -31q8 -19 8 -39q0 -19 -8 -40q-7 -20 -21 -33q-13 -13 -32 -21t-38 -8z" />
    <glyph glyph-name="copyright" unicode="&#xa9;" horiz-adv-x="777" 
d="M568 182l-3 -2q-32 -32 -74 -50t-92 -18q-48 0 -90 18q-41 18 -73 48q-30 29 -49 71q-18 41 -18 87t18 87q19 42 49 71q32 30 73 48q42 18 90 18q53 0 95 -19q44 -19 75 -54l-79 -75q-14 20 -39 30q-27 11 -51 11t-45 -9t-37 -25t-25 -37t-9 -46t9 -46t25 -37t37 -25
t45 -9q27 0 51 10q25 10 40 30zM385 19l-3 -1q66 0 122 25t100 69t68 101t24 122q0 66 -25 122q-26 59 -67 101q-42 44 -99 69q-56 25 -121 25t-121 -25q-57 -25 -99 -69q-41 -42 -67 -101q-25 -56 -25 -122t25 -122q25 -55 68 -100q42 -43 99 -69q56 -25 121 -25zM382 -16
v-1q-72 0 -136 27t-112 75t-75 111t-27 137q0 71 27 136q27 64 75 112t112 75t136 27q74 0 138 -27t112 -75t75 -112t27 -136q0 -73 -27 -136t-75 -111t-112 -75t-138 -27z" />
    <glyph glyph-name="ordfeminine" unicode="&#xaa;" horiz-adv-x="373" 
d="M204 575l2 -3q0 10 -12 14q-13 5 -33 5q-26 0 -47 -3q-14 -2 -44 -8l-17 88q46 12 54 14q25 6 63 6q74 0 111 -28q38 -29 38 -78v-177h-74l-16 17q-20 -13 -42 -19q-21 -6 -47 -6q-50 0 -76 23q-25 22 -25 56q0 42 27 60q28 19 75 23l63 5v11zM161 480q0 -8 6 -12
q7 -5 18 -5q13 0 20 4v40l-13 -3q-13 -1 -22 -6q-9 -4 -9 -18z" />
    <glyph glyph-name="guillemotleft" unicode="&#xab;" horiz-adv-x="608" 
d="M556 18l-235 129v204l235 131v-172l-129 -60l129 -58v-174zM276 18l-235 129v204l235 131v-172l-129 -60l129 -58v-174z" />
    <glyph glyph-name="logicalnot" unicode="&#xac;" horiz-adv-x="657" 
d="M593 76h-170v183h-375v150h545v-333z" />
    <glyph glyph-name="registered" unicode="&#xae;" horiz-adv-x="777" 
d="M388 -13v-1q-72 0 -136 27t-112 75t-75 111t-27 137q0 72 27 136t75 112t112 75t136 27q74 0 138 -27t112 -75t75 -112q27 -65 27 -136q0 -73 -27 -136t-75 -111t-112 -75t-138 -27zM388 20l-3 -1q66 0 122 25t100 69t68 101t24 122q0 66 -25 122q-26 59 -67 101
q-42 43 -99 69q-56 25 -121 25t-121 -25q-57 -26 -99 -69q-41 -42 -67 -101q-25 -56 -25 -122t25 -122q25 -55 68 -100q42 -44 99 -69q56 -25 121 -25zM210 130v410h244q26 0 47 -12t36 -30q14 -17 22 -42q8 -26 8 -48q0 -20 -4 -37q-4 -18 -12 -37t-19 -33t-27 -25l74 -146
h-115l-66 130h-82v-130h-106zM316 449v-100h102q19 0 30 17q10 16 10 36q0 18 -10 32q-10 15 -30 15h-102z" />
    <glyph glyph-name="macron" unicode="&#xaf;" horiz-adv-x="381" 
d="M30 675h321v-122h-321v122z" />
    <glyph glyph-name="degree" unicode="&#xb0;" horiz-adv-x="387" 
d="M193 478l2 -1q23 0 39 15t16 38q0 26 -16 39q-17 14 -39 14q-23 0 -39 -15t-16 -38q0 -26 15 -39q14 -13 38 -13zM35 531l-1 2q0 35 12 63t33 48q22 20 51 32q30 12 65 12q36 0 66 -12t51 -33t33 -49t12 -63q0 -33 -12 -62t-33 -50t-51 -33t-66 -12q-37 0 -67 12t-51 33
q-20 20 -31 50t-11 62z" />
    <glyph glyph-name="plusminus" unicode="&#xb1;" horiz-adv-x="467" 
d="M52 398h104v97h144v-97h115v-145h-115v-101h-144v101h-104v145zM52 120h363v-120h-363v120z" />
    <glyph glyph-name="two.sups" unicode="&#xb2;" horiz-adv-x="344" 
d="M10 623l1 -2q41 35 87 50t87 15q61 0 99 -30q37 -30 37 -77q0 -35 -21 -58q-21 -22 -46 -37q-21 -13 -48 -25q-23 -11 -29 -22h139v-99h-275v74q0 25 11 45t27 35q18 16 36 26q7 4 19 10.5t17 9.5q14 7 27 17q11 8 11 15q0 15 -27 15q-24 0 -48 -7q-26 -8 -48 -24z" />
    <glyph glyph-name="three.sups" unicode="&#xb3;" horiz-adv-x="347" 
d="M63 455v-4q27 -13 53 -18q23 -4 44 -4q18 0 26 6t8 14q0 17 -52 17v81q32 0 42 8q9 7 9 15t-9 11t-23 3q-29 0 -48 -4q-21 -4 -45 -9l-44 82q34 15 72 23q41 9 83 9q26 0 54 -5q25 -4 45 -15q19 -10 31 -27q12 -16 12 -40q0 -26 -15 -49t-40 -39q26 -14 39 -34
q14 -22 14 -45q0 -18 -9 -36t-27 -33t-45 -24t-65 -9q-37 0 -81 12t-81 42z" />
    <glyph glyph-name="acute" unicode="&#xb4;" horiz-adv-x="294" 
d="M20 552l60 156h194l-100 -156h-154z" />
    <glyph glyph-name="mu" unicode="&#xb5;" horiz-adv-x="626" 
d="M225 495v-255q1 -45 26 -66q24 -21 61 -21q44 0 89 36v306h170v-495h-111l-27 70q-37 -44 -84 -63q-45 -19 -93 -19h-15q-5 0 -15 2q-1 -49 -18 -91q-17 -43 -49 -72t-81 -46q-47 -16 -108 -16v155q35 0 61 21q25 21 24 54v500h170z" />
    <glyph glyph-name="paragraph" unicode="&#xb6;" horiz-adv-x="863" 
d="M357 -235l-1 401h-65q-63 0 -112 24q-51 25 -83 61q-33 37 -51 83q-18 45 -18 89t18 89q18 46 52 81q35 37 84 59q51 23 111 23h523v-150h-53v-760h-170v760h-65v-760h-170z" />
    <glyph glyph-name="periodcentered" unicode="&#xb7;" horiz-adv-x="287" 
d="M145 194l-1 -1q-20 0 -39 8q-18 7 -33 21q-14 13 -22 33q-8 21 -8 40q0 20 8 39t21 32t32 21t41 8q20 0 39 -8t32 -21q14 -14 21 -31q8 -19 8 -39q0 -19 -8 -40q-8 -20 -21 -33t-32 -21t-38 -8z" />
    <glyph glyph-name="cedilla" unicode="&#xb8;" horiz-adv-x="244" 
d="M51 -127l-5 2q10 -10 23 -12q16 -2 25 -2q14 0 23 6t9 20t-17 20t-45 6l27 89h60l-15 -51q50 -3 69 -22q20 -20 20 -43q0 -34 -32 -58q-31 -24 -83 -24q-32 0 -50 9t-26 20z" />
    <glyph glyph-name="one.sups" unicode="&#xb9;" horiz-adv-x="288" 
d="M56 439h43v122l-41 -21l-52 85l93 50h124v-236h43v-99h-210v99z" />
    <glyph glyph-name="ordmasculine" unicode="&#xba;" horiz-adv-x="364" 
d="M34 545h-2q0 29 11 56q11 25 30 45q19 19 47 30t60 11t60 -11t47 -30q19 -20 30 -45q11 -27 11 -56q0 -30 -11 -58q-10 -26 -30 -46q-19 -19 -47 -30t-60 -11q-35 0 -63 11q-26 10 -46 30q-19 19 -28 46t-9 58zM180 495l-1 -1q22 0 36 13q15 13 15 36t-15 36
q-14 13 -36 13q-21 0 -35 -13q-15 -13 -15 -36q0 -24 15 -36t36 -12z" />
    <glyph glyph-name="guillemotright" unicode="&#xbb;" horiz-adv-x="608" 
d="M332 482l235 -131v-204l-235 -129v174l129 58l-129 60v172zM52 482l235 -131v-204l-235 -129v174l129 58l-129 60v172z" />
    <glyph glyph-name="onequarter" unicode="&#xbc;" horiz-adv-x="796" 
d="M416 675h135l-192 -675h-135zM56 439h43v122l-41 -21l-52 85l93 50h124v-236h43v-99h-210v99zM459 156l159 179h132v-179h21v-98h-21v-58h-123v58h-168v98zM627 156v55l-48 -55h48z" />
    <glyph glyph-name="onehalf" unicode="&#xbd;" horiz-adv-x="821" 
d="M416 675h135l-192 -675h-135zM56 439h43v122l-41 -21l-52 85l93 50h124v-236h43v-99h-210v99zM487 283l1 -2q41 35 87 50q47 15 87 15q62 0 99 -30t37 -77q0 -35 -21 -58q-21 -22 -46 -37q-21 -13 -48 -25q-23 -11 -29 -22h139v-99h-275v74q0 25 11 45t27 35q18 16 36 26
q7 4 19 11t17 9q14 7 27 17q11 8 11 15q0 15 -27 15q-24 0 -48 -7q-25 -8 -48 -24z" />
    <glyph glyph-name="threequarters" unicode="&#xbe;" horiz-adv-x="826" 
d="M446 675h135l-192 -675h-135zM489 156l159 179h132v-179h21v-98h-21v-58h-123v58h-168v98zM657 156v55l-48 -55h48zM63 455v-4q27 -13 53 -18q23 -4 44 -4q18 0 26 6t8 14q0 17 -52 17v81q32 0 42 8q9 7 9 15t-9 11t-23 3q-29 0 -48 -4q-21 -4 -45 -9l-44 82q34 15 72 23
q41 9 83 9q26 0 54 -5q25 -4 45 -15q19 -10 31 -27q12 -16 12 -40q0 -26 -15 -49t-40 -39q26 -14 39 -34q14 -22 14 -45q0 -18 -9 -36t-27 -33t-45 -24t-65 -9q-37 0 -81 12t-81 42z" />
    <glyph glyph-name="questiondown" unicode="&#xbf;" horiz-adv-x="574" 
d="M383 90l1 -2q-93 0 -145 -20q-51 -20 -51 -50q0 -22 23 -36q22 -13 72 -13q97 0 186 54l82 -114q-55 -49 -127 -70t-141 -21q-65 0 -111 15q-45 15 -78 41q-30 25 -46 62q-15 36 -15 75q0 34 12 67t36 60q23 26 62 46t90 29v71h150v-194zM308 321l-2 -3q-19 0 -34 7
q-16 8 -29 20q-13 13 -20 29q-7 15 -7 36q0 18 8 37q7 17 20 30q12 13 29 20q18 8 35 8q40 0 67 -27t27 -66q0 -37 -27 -64t-67 -27z" />
    <glyph glyph-name="Agrave" unicode="&#xc0;" horiz-adv-x="718" 
d="M267 675h184l271 -675h-183l-42 114h-277l-41 -114h-183zM279 274h160l-80 218zM180 886h194l60 -156h-154z" />
    <glyph glyph-name="Aacute" unicode="&#xc1;" horiz-adv-x="718" 
d="M267 675h184l271 -675h-183l-42 114h-277l-41 -114h-183zM279 274h160l-80 218zM285 730l60 156h194l-100 -156h-154z" />
    <glyph glyph-name="Acircumflex" unicode="&#xc2;" horiz-adv-x="718" 
d="M267 675h184l271 -675h-183l-42 114h-277l-41 -114h-183zM279 274h160l-80 218zM141 730l100 156h236l100 -156h-154l-65 99l-64 -99h-153z" />
    <glyph glyph-name="Atilde" unicode="&#xc3;" horiz-adv-x="718" 
d="M267 675h184l271 -675h-183l-42 114h-277l-41 -114h-183zM279 274h160l-80 218zM165 742l1 -2q2 76 33 114q31 37 78 37q25 0 47 -6q30 -8 44 -13t44 -13q22 -6 45 -6q13 0 24 6q10 6 12 23h55q0 -74 -29 -115q-28 -40 -77 -40q-24 0 -47 6q-30 8 -46 13t-46 13
q-23 6 -45 6q-14 0 -24 -6t-12 -17h-57z" />
    <glyph glyph-name="Adieresis" unicode="&#xc4;" horiz-adv-x="718" 
d="M267 675h184l271 -675h-183l-42 114h-277l-41 -114h-183zM279 274h160l-80 218zM482 729l-1 -1q-21 0 -40 8t-32 21t-21 33q-8 21 -8 40q0 20 8 39t21 32t32 21t41 8q19 0 38 -8t32 -21q14 -14 21 -31q8 -19 8 -39q0 -19 -8 -40q-7 -19 -21 -33q-13 -13 -32 -21t-38 -8z
M238 728l-1 -1q-21 0 -40 8t-32 21q-13 14 -21 33q-8 21 -8 40q0 20 8 39t21 32t32 21t41 8q19 0 38 -8t32 -21q14 -14 21 -31q8 -19 8 -39q0 -19 -8 -40q-7 -20 -21 -33q-13 -13 -32 -21t-38 -8z" />
    <glyph glyph-name="Aring" unicode="&#xc5;" horiz-adv-x="718" 
d="M218 766l-2 -1q0 27 11 52q10 23 29 42q17 17 45 28q26 10 59 10t57 -10q27 -11 44 -28q19 -19 29 -42q11 -25 11 -52q0 -31 -12 -57q-13 -27 -34 -44l267 -664h-183l-42 114h-277l-41 -114h-183l266 663q-44 36 -44 103zM277 273h160l-80 218zM360 715v-1q19 0 33 13
q15 13 15 36q0 22 -15 34t-33 12q-21 0 -36 -12t-15 -33q0 -25 15 -37t36 -12z" />
    <glyph glyph-name="AE" unicode="&#xc6;" horiz-adv-x="1000" 
d="M313 675h637v-160h-321v-98h301v-160h-301v-97h324v-160h-499v134h-220l-63 -134h-178zM309 294h145v221h-42z" />
    <glyph glyph-name="Ccedilla" unicode="&#xc7;" horiz-adv-x="694" 
d="M299 -127h-6q10 -10 23 -12q16 -2 25 -2q14 0 23 6t9 20t-17 20q-16 6 -45 6l23 78q-64 9 -120 36q-55 27 -96 71q-40 43 -64 103t-24 134q0 89 33 155q33 67 84 110q51 44 114 66q62 22 124 22q95 0 166 -30q70 -30 126 -83l-124 -117q-31 31 -75 49t-93 18
q-34 0 -64 -13q-31 -13 -55 -39q-24 -25 -39 -60t-15 -78q0 -40 14 -76q13 -34 39 -58q25 -24 59 -36q33 -12 72 -12q44 0 87 17t68 48l122 -122q-48 -50 -120 -78q-73 -29 -157 -29h-2l-10 -36q50 -3 69 -22q20 -20 20 -43q0 -34 -32 -58q-31 -24 -83 -24q-32 0 -50 9
t-26 20z" />
    <glyph glyph-name="Egrave" unicode="&#xc8;" horiz-adv-x="615" 
d="M69 675h496v-160h-321v-99h301v-160h-301v-96h324v-160h-499v675zM159 886h194l60 -156h-154z" />
    <glyph glyph-name="Eacute" unicode="&#xc9;" horiz-adv-x="615" 
d="M69 675h496v-160h-321v-99h301v-160h-301v-96h324v-160h-499v675zM235 730l60 156h194l-100 -156h-154z" />
    <glyph glyph-name="Ecircumflex" unicode="&#xca;" horiz-adv-x="615" 
d="M69 675h496v-160h-321v-99h301v-160h-301v-96h324v-160h-499v675zM101 730l100 156h236l100 -156h-154l-65 99l-64 -99h-153z" />
    <glyph glyph-name="Edieresis" unicode="&#xcb;" horiz-adv-x="615" 
d="M69 675h496v-160h-321v-99h301v-160h-301v-96h324v-160h-499v675zM444 729l-1 -1q-21 0 -40 8t-32 21t-21 33q-8 21 -8 40q0 20 8 39t21 32t32 21t41 8q19 0 38 -8t32 -21q14 -14 21 -31q8 -19 8 -39q0 -19 -8 -40q-7 -19 -21 -33q-13 -13 -32 -21t-38 -8zM200 728l-1 -1
q-21 0 -40 8t-32 21q-13 14 -21 33q-8 21 -8 40q0 20 8 39t21 32t32 21t41 8q19 0 38 -8t32 -21q14 -14 21 -31q8 -19 8 -39q0 -19 -8 -40q-7 -20 -21 -33q-13 -13 -32 -21t-38 -8z" />
    <glyph glyph-name="Igrave" unicode="&#xcc;" horiz-adv-x="313" 
d="M69 675h175v-675h-175v675zM-20 886h194l60 -156h-154z" />
    <glyph glyph-name="Iacute" unicode="&#xcd;" horiz-adv-x="313" 
d="M69 675h175v-675h-175v675zM82 730l60 156h194l-100 -156h-154z" />
    <glyph glyph-name="Icircumflex" unicode="&#xce;" horiz-adv-x="313" 
d="M69 675h175v-675h-175v675zM-61 730l100 156h236l100 -156h-154l-65 99l-64 -99h-153z" />
    <glyph glyph-name="Idieresis" unicode="&#xcf;" horiz-adv-x="313" 
d="M69 675h175v-675h-175v675zM280 729l-1 -1q-21 0 -40 8t-32 21t-21 33q-8 21 -8 40q0 20 8 39t21 32t32 21t41 8q19 0 38 -8t32 -21q14 -14 21 -31q8 -19 8 -39q0 -19 -8 -40q-7 -19 -21 -33q-13 -13 -32 -21t-38 -8zM36 728l-1 -1q-21 0 -40 8t-32 21q-13 14 -21 33
q-8 21 -8 40q0 20 8 39t21 32t32 21t41 8q19 0 38 -8t32 -21q14 -14 21 -31q8 -19 8 -39q0 -19 -8 -40q-7 -20 -21 -33q-13 -13 -32 -21t-38 -8z" />
    <glyph glyph-name="Eth" unicode="&#xd0;" horiz-adv-x="750" 
d="M31 423l37 3v252h318q69 0 129 -27t105 -72q46 -45 71 -107q26 -63 26 -132t-26 -132q-26 -62 -70 -108t-105 -73q-60 -27 -129 -27h-318v263h-38v160zM243 518v-93h130v-160h-130v-103h143q30 0 58 14q26 13 48 38q21 24 33 57t12 69t-12 69t-33 57q-22 25 -48 38
q-28 14 -58 14h-143z" />
    <glyph glyph-name="Ntilde" unicode="&#xd1;" horiz-adv-x="776" 
d="M69 675h175l288 -415v415h175v-675h-175l-288 413v-413h-175v675zM197 742l1 -2q2 76 33 114q31 37 78 37q25 0 47 -6q30 -8 44 -13t44 -13q22 -6 45 -6q13 0 24 6q10 6 12 23h55q0 -74 -29 -115q-28 -40 -77 -40q-24 0 -47 6q-30 8 -46 13t-46 13q-23 6 -45 6
q-14 0 -24 -6t-12 -17h-57z" />
    <glyph glyph-name="Ograve" unicode="&#xd2;" horiz-adv-x="785" 
d="M392 -13l-2 -1q-75 0 -141 27t-114 75q-49 49 -77 111t-28 137q0 70 29 136q28 63 77 112q48 48 114 75t141 27t141 -27t114 -75q49 -49 77 -112q29 -66 29 -136q0 -74 -28 -136t-77 -111q-48 -48 -114 -75t-141 -27zM390 151q37 0 70 15q34 15 57 40q24 26 39 60t15 72
t-15 72t-39 60q-23 25 -57 40q-33 15 -70 15t-70 -15q-34 -15 -57 -40q-24 -26 -39 -60t-15 -72t15 -72t39 -60q23 -25 57 -40q33 -15 70 -15zM211 885h194l60 -156h-154z" />
    <glyph glyph-name="Oacute" unicode="&#xd3;" horiz-adv-x="785" 
d="M392 -13l-2 -1q-75 0 -141 27t-114 75q-49 49 -77 111t-28 137q0 70 29 136q28 63 77 112q48 48 114 75t141 27t141 -27t114 -75q49 -49 77 -112q29 -66 29 -136q0 -74 -28 -136t-77 -111q-48 -48 -114 -75t-141 -27zM390 151q37 0 70 15q34 15 57 40q24 26 39 60t15 72
t-15 72t-39 60q-23 25 -57 40q-33 15 -70 15t-70 -15q-34 -15 -57 -40q-24 -26 -39 -60t-15 -72t15 -72t39 -60q23 -25 57 -40q33 -15 70 -15zM300 728l60 156h194l-100 -156h-154z" />
    <glyph glyph-name="Ocircumflex" unicode="&#xd4;" horiz-adv-x="785" 
d="M392 -13l-2 -1q-75 0 -141 27t-114 75q-49 49 -77 111t-28 137q0 70 29 136q28 63 77 112q48 48 114 75t141 27t141 -27t114 -75q49 -49 77 -112q29 -66 29 -136q0 -74 -28 -136t-77 -111q-48 -48 -114 -75t-141 -27zM390 151q37 0 70 15q34 15 57 40q24 26 39 60t15 72
t-15 72t-39 60q-23 25 -57 40q-33 15 -70 15t-70 -15q-34 -15 -57 -40q-24 -26 -39 -60t-15 -72t15 -72t39 -60q23 -25 57 -40q33 -15 70 -15zM172 729l100 156h236l100 -156h-154l-65 99l-64 -99h-153z" />
    <glyph glyph-name="Otilde" unicode="&#xd5;" horiz-adv-x="785" 
d="M392 -13l-2 -1q-75 0 -141 27t-114 75q-49 49 -77 111t-28 137q0 70 29 136q28 63 77 112q48 48 114 75t141 27t141 -27t114 -75q49 -49 77 -112q29 -66 29 -136q0 -74 -28 -136t-77 -111q-48 -48 -114 -75t-141 -27zM390 151q37 0 70 15q34 15 57 40q24 26 39 60t15 72
t-15 72t-39 60q-23 25 -57 40q-33 15 -70 15t-70 -15q-34 -15 -57 -40q-24 -26 -39 -60t-15 -72t15 -72t39 -60q23 -25 57 -40q33 -15 70 -15zM199 741l1 -2q2 77 33 114t78 37q25 0 47 -6q30 -8 44 -13t44 -13q22 -6 45 -6q13 0 24 6q10 6 12 23h55q0 -74 -29 -115
q-28 -40 -77 -40q-24 0 -47 6q-30 8 -46 13t-46 13q-23 6 -45 6q-14 0 -24 -6t-12 -17h-57z" />
    <glyph glyph-name="Odieresis" unicode="&#xd6;" horiz-adv-x="785" 
d="M392 -13l-2 -1q-75 0 -141 27t-114 75q-49 49 -77 111t-28 137q0 70 29 136q28 63 77 112q48 48 114 75t141 27t141 -27t114 -75q49 -49 77 -112q29 -66 29 -136q0 -74 -28 -136t-77 -111q-48 -48 -114 -75t-141 -27zM390 151q37 0 70 15q34 15 57 40q24 26 39 60t15 72
t-15 72t-39 60q-23 25 -57 40q-33 15 -70 15t-70 -15q-34 -15 -57 -40q-24 -26 -39 -60t-15 -72t15 -72t39 -60q23 -25 57 -40q33 -15 70 -15zM513 728l-1 -1q-21 0 -40 8t-32 21q-14 14 -21 33q-8 21 -8 40q0 20 8 39t21 32t32 21t41 8q19 0 38 -8t32 -21q14 -14 21 -31
q8 -19 8 -39q0 -19 -8 -40q-8 -20 -21 -33t-32 -21t-38 -8zM269 727l-1 -1q-21 0 -40 8t-32 21q-14 13 -21 33q-8 21 -8 40q0 20 8 39t21 32t32 21t41 8q19 0 38 -8t32 -21q14 -14 21 -31q8 -19 8 -39q0 -19 -8 -40q-8 -19 -21 -33q-13 -13 -32 -21t-38 -8z" />
    <glyph glyph-name="multiply" unicode="&#xd7;" horiz-adv-x="480" 
d="M41 150l93 93l-93 93l106 106l93 -93l93 93l107 -106l-94 -94l93 -92l-106 -106l-93 92l-92 -92z" />
    <glyph glyph-name="Oslash" unicode="&#xd8;" horiz-adv-x="785" 
d="M392 -13l-2 -1q-47 0 -87 10q-43 11 -80 30l-75 -106h-97l106 150q-59 48 -93 117q-34 68 -34 150q0 70 29 136q28 63 77 112q48 48 114 75t141 27q47 0 91 -12q45 -12 82 -31l79 112h97l-111 -157q57 -49 90 -117t33 -146q0 -74 -28 -136t-77 -111q-48 -48 -114 -75
t-141 -27zM210 336l1 1q0 -37 12 -68t35 -57l208 294q-37 17 -75 17q-37 0 -70 -15q-34 -15 -57 -40q-24 -26 -39 -60t-15 -72zM391 152v-3q37 0 70 15q34 15 57 40q24 26 39 60t15 72q0 34 -12 66q-11 29 -32 55l-205 -291q34 -14 68 -14z" />
    <glyph glyph-name="Ugrave" unicode="&#xd9;" horiz-adv-x="738" 
d="M235 675l-2 -373q0 -36 11 -66q11 -29 30 -47q20 -18 45 -27t54 -9q57 0 93 36t36 113v373h175v-389q0 -74 -21 -129q-21 -56 -61 -93q-41 -38 -96 -57q-54 -19 -124 -19t-126 19q-57 19 -99 57t-66 93t-24 129v389h175zM205 886h194l60 -156h-154z" />
    <glyph glyph-name="Uacute" unicode="&#xda;" horiz-adv-x="738" 
d="M235 675l-2 -373q0 -36 11 -66q11 -29 30 -47q20 -18 45 -27t54 -9q57 0 93 36t36 113v373h175v-389q0 -74 -21 -129q-21 -56 -61 -93q-41 -38 -96 -57q-54 -19 -124 -19t-126 19q-57 19 -99 57t-66 93t-24 129v389h175zM283 730l60 156h194l-100 -156h-154z" />
    <glyph glyph-name="Ucircumflex" unicode="&#xdb;" horiz-adv-x="738" 
d="M235 675l-2 -373q0 -36 11 -66q11 -29 30 -47q20 -18 45 -27t54 -9q57 0 93 36t36 113v373h175v-389q0 -74 -21 -129q-21 -56 -61 -93q-41 -38 -96 -57q-54 -19 -124 -19t-126 19q-57 19 -99 57t-66 93t-24 129v389h175zM148 730l100 156h236l100 -156h-154l-65 99
l-64 -99h-153z" />
    <glyph glyph-name="Udieresis" unicode="&#xdc;" horiz-adv-x="738" 
d="M235 675l-2 -373q0 -36 11 -66q11 -29 30 -47q20 -18 45 -27t54 -9q57 0 93 36t36 113v373h175v-389q0 -74 -21 -129q-21 -56 -61 -93q-41 -38 -96 -57q-54 -19 -124 -19t-126 19q-57 19 -99 57t-66 93t-24 129v389h175zM489 729l-1 -1q-21 0 -40 8t-32 21q-14 13 -21 33
q-8 21 -8 40q0 20 8 39t21 32t32 21t41 8q19 0 38 -8t32 -21q14 -14 21 -31q8 -19 8 -39q0 -19 -8 -40q-8 -19 -21 -33q-13 -13 -32 -21t-38 -8zM245 728l-1 -1q-21 0 -40 8t-32 21q-14 14 -21 33q-8 21 -8 40q0 20 8 39t21 32t32 21t41 8q19 0 38 -8t32 -21q14 -14 21 -31
q8 -19 8 -39q0 -19 -8 -40q-8 -20 -21 -33t-32 -21t-38 -8z" />
    <glyph glyph-name="Yacute" unicode="&#xdd;" horiz-adv-x="713" 
d="M444 223v-223h-175v223l-276 452h201l164 -302l168 302h193zM279 730l60 156h194l-100 -156h-154z" />
    <glyph glyph-name="Thorn" unicode="&#xde;" horiz-adv-x="661" 
d="M69 0l-2 673h175v-107h183q49 0 87 -19q41 -20 68 -52q28 -32 43 -73q15 -40 15 -82q0 -41 -15 -83t-42 -75t-66 -54t-88 -21h-183v-107h-175zM242 406l-3 -143h141q20 0 34 7q15 8 24 18q10 11 14 24q5 15 5 26q0 26 -18 47t-56 21h-141z" />
    <glyph glyph-name="germandbls" unicode="&#xdf;" horiz-adv-x="661" 
d="M315 414l11 -3q44 0 74 15t30 49q0 13 -9 24t-22 18t-30 12q-15 4 -35 4q-48 0 -79 -27t-31 -80v-426h-170v454q0 58 23 102t60 72q38 29 89 44t110 15q56 0 104 -12q49 -12 84 -34q36 -23 57 -57t21 -79q0 -59 -31 -97q-32 -40 -84 -59q66 -21 105 -63t39 -108
q0 -48 -21 -84t-57 -60t-84 -36t-103 -12q-21 0 -42 3q-14 2 -40 8v155q25 -7 44 -8q28 -2 38 -2q39 0 66 15t27 44q0 16 -10 26q-11 11 -28 18q-18 7 -42 12q-21 4 -52 4h-12v153z" />
    <glyph glyph-name="agrave" unicode="&#xe0;" horiz-adv-x="575" 
d="M355 304q0 30 -31 45q-32 15 -87 15q-37 0 -79 -6q-39 -6 -83 -17l-30 132q47 14 103 25q50 10 111 10q130 0 198 -50t68 -138v-319h-100l-32 53q-46 -37 -91 -52t-97 -15q-92 0 -136 37q-45 38 -45 103q0 72 48 107q48 34 135 42l148 13v15zM247 97l-1 -1q32 0 57 12
q24 11 51 32v62l-96 -15q-26 -5 -41 -13q-17 -9 -17 -35q0 -18 12 -30t35 -12zM106 709h194l60 -156h-154z" />
    <glyph glyph-name="aacute" unicode="&#xe1;" horiz-adv-x="575" 
d="M355 304q0 30 -31 45q-32 15 -87 15q-37 0 -79 -6q-39 -6 -83 -17l-30 132q47 14 103 25q50 10 111 10q130 0 198 -50t68 -138v-319h-100l-32 53q-46 -37 -91 -52t-97 -15q-92 0 -136 37q-45 38 -45 103q0 72 48 107q48 34 135 42l148 13v15zM247 97l-1 -1q32 0 57 12
q24 11 51 32v62l-96 -15q-26 -5 -41 -13q-17 -9 -17 -35q0 -18 12 -30t35 -12zM191 551l60 156h194l-100 -156h-154z" />
    <glyph glyph-name="acircumflex" unicode="&#xe2;" horiz-adv-x="575" 
d="M355 304q0 30 -31 45q-32 15 -87 15q-37 0 -79 -6q-39 -6 -83 -17l-30 132q47 14 103 25q50 10 111 10q130 0 198 -50t68 -138v-319h-100l-32 53q-46 -37 -91 -52t-97 -15q-92 0 -136 37q-45 38 -45 103q0 72 48 107q48 34 135 42l148 13v15zM247 97l-1 -1q32 0 57 12
q24 11 51 32v62l-96 -15q-26 -5 -41 -13q-17 -9 -17 -35q0 -18 12 -30t35 -12zM68 551l90 156h256l90 -156h-154l-65 99l-64 -99h-153z" />
    <glyph glyph-name="atilde" unicode="&#xe3;" horiz-adv-x="575" 
d="M355 304q0 30 -31 45q-32 15 -87 15q-37 0 -79 -6q-39 -6 -83 -17l-30 132q47 14 103 25q50 10 111 10q130 0 198 -50t68 -138v-319h-100l-32 53q-46 -37 -91 -52t-97 -15q-92 0 -136 37q-45 38 -45 103q0 72 48 107q48 34 135 42l148 13v15zM247 97l-1 -1q32 0 57 12
q24 11 51 32v62l-96 -15q-26 -5 -41 -13q-17 -9 -17 -35q0 -18 12 -30t35 -12zM99 565l4 -2q1 76 35 114q33 37 77 37q17 0 40 -6q30 -8 45 -13t47 -13q24 -6 46 -6q13 0 24 6q10 6 12 23h55q0 -75 -27 -115t-79 -40q-20 0 -46 6q-34 8 -51 13t-49 13q-24 6 -43 6
q-28 0 -33 -23h-57z" />
    <glyph glyph-name="adieresis" unicode="&#xe4;" horiz-adv-x="575" 
d="M355 304q0 30 -31 45q-32 15 -87 15q-37 0 -79 -6q-39 -6 -83 -17l-30 132q47 14 103 25q50 10 111 10q130 0 198 -50t68 -138v-319h-100l-32 53q-46 -37 -91 -52t-97 -15q-92 0 -136 37q-45 38 -45 103q0 72 48 107q48 34 135 42l148 13v15zM247 97l-1 -1q32 0 57 12
q24 11 51 32v62l-96 -15q-26 -5 -41 -13q-17 -9 -17 -35q0 -18 12 -30t35 -12zM408 552l-1 -1q-21 0 -40 8t-32 21q-13 14 -21 33q-8 21 -8 40q0 20 8 39t21 32t32 21t41 8q19 0 38 -8t32 -21q14 -14 21 -31q8 -19 8 -39q0 -19 -8 -40q-7 -20 -21 -33q-13 -13 -32 -21
t-38 -8zM164 551l-1 -1q-21 0 -40 8t-32 21t-21 33q-8 21 -8 40q0 20 8 39t21 32t32 21t41 8q19 0 38 -8t32 -21q14 -14 21 -31q8 -19 8 -39q0 -19 -8 -40q-7 -19 -21 -33q-13 -13 -32 -21t-38 -8z" />
    <glyph glyph-name="aring" unicode="&#xe5;" horiz-adv-x="575" 
d="M355 304q0 30 -31 45q-32 15 -87 15q-37 0 -79 -6q-39 -6 -83 -17l-30 132q47 14 103 25q50 10 111 10q130 0 198 -50t68 -138v-319h-100l-32 53q-46 -37 -91 -52t-97 -15q-92 0 -136 37q-45 38 -45 103q0 72 48 107q48 34 135 42l148 13v15zM247 97l-1 -1q32 0 57 12
q24 11 51 32v62l-96 -15q-26 -5 -41 -13q-17 -9 -17 -35q0 -18 12 -30t35 -12zM149 685l-2 -1q0 27 11 52q10 23 29 42q17 17 45 28q26 10 59 10t57 -10q27 -11 44 -28q19 -19 29 -42q11 -25 11 -52q0 -30 -10 -53t-29 -42q-17 -17 -44 -28q-24 -10 -57 -10q-71 0 -107 38
q-36 37 -36 96zM291 634v-1q19 0 33 13q15 14 15 36t-15 34t-33 12q-21 0 -36 -12t-15 -33q0 -25 15 -37t36 -12z" />
    <glyph glyph-name="ae" unicode="&#xe6;" horiz-adv-x="904" 
d="M355 304h1q0 30 -31 45t-87 15q-38 0 -80 -6q-39 -6 -83 -17l-30 132q44 13 99 25q47 10 113 10q69 0 118 -13q50 -13 85 -39q34 25 77 39q44 14 87 14q54 0 99 -19q48 -20 83 -55q36 -36 57 -89q21 -52 21 -120h-349q11 -38 42 -60q32 -23 75 -23q26 0 51 9t45 29
l110 -97q-40 -48 -100 -71q-62 -24 -124 -24q-55 0 -109 20q-52 19 -91 57q-57 -42 -114 -60t-115 -18q-91 0 -136 36t-45 104q0 74 48 107q49 34 135 41l148 13v15zM373 154l-1 1q-8 19 -12 42l-101 -16q-25 -5 -41 -12q-17 -8 -17 -30q0 -14 12 -23t35 -9q36 0 65 12
q27 11 60 35zM619 374l-1 1q-19 0 -32 -7q-14 -8 -24 -19q-11 -13 -17 -27q-4 -10 -10 -30l165 8q-11 39 -31 56q-21 18 -50 18z" />
    <glyph glyph-name="ccedilla" unicode="&#xe7;" horiz-adv-x="532" 
d="M216 -127l-6 5q10 -10 23 -12q16 -2 25 -2q14 0 23 6t9 20t-17 20t-45 6l23 77q-46 6 -88 27q-41 21 -73 54q-30 32 -49 77q-18 43 -18 96q0 60 22 107q23 49 60 83t86 54q47 19 101 19q29 0 59 -6q31 -6 59 -18q31 -13 54 -28q26 -16 45 -39l-122 -105q-19 18 -39 29
q-21 12 -55 12q-18 0 -36 -8q-17 -8 -30 -22q-14 -15 -21 -34q-7 -18 -7 -42q0 -47 28 -76q29 -30 69 -30q26 0 47 9t47 29l122 -102q-16 -19 -41 -37q-23 -17 -49 -27q-28 -11 -55 -18q-29 -8 -55 -9l-11 -37q50 -3 69 -22q20 -20 20 -43q0 -34 -32 -58t-83 -24
q-32 0 -50 9t-26 20z" />
    <glyph glyph-name="egrave" unicode="&#xe8;" horiz-adv-x="575" 
d="M529 83l-1 -1q-40 -47 -99 -71q-60 -24 -124 -24q-54 0 -105 18t-90 51q-38 32 -61 81t-23 108q0 60 22 107q23 49 60 83t86 54q47 19 101 19t99 -19q48 -20 83 -55q36 -36 57 -89t21 -120h-350q9 -43 41 -63t77 -20q25 0 51 9q25 9 45 29zM289 372h-1q-38 0 -57 -25
t-27 -57l167 7q-21 75 -82 75zM122 708h194l60 -156h-154z" />
    <glyph glyph-name="eacute" unicode="&#xe9;" horiz-adv-x="575" 
d="M529 83l-1 -1q-40 -47 -99 -71q-60 -24 -124 -24q-54 0 -105 18t-90 51q-38 32 -61 81t-23 108q0 60 22 107q23 49 60 83t86 54q47 19 101 19t99 -19q48 -20 83 -55q36 -36 57 -89t21 -120h-350q9 -43 41 -63t77 -20q25 0 51 9q25 9 45 29zM289 372h-1q-38 0 -57 -25
t-27 -57l167 7q-21 75 -82 75zM212 551l60 156h194l-100 -156h-154z" />
    <glyph glyph-name="ecircumflex" unicode="&#xea;" horiz-adv-x="575" 
d="M529 83l-1 -1q-40 -47 -99 -71q-60 -24 -124 -24q-54 0 -105 18t-90 51q-38 32 -61 81t-23 108q0 60 22 107q23 49 60 83t86 54q47 19 101 19t99 -19q48 -20 83 -55q36 -36 57 -89t21 -120h-350q9 -43 41 -63t77 -20q25 0 51 9q25 9 45 29zM289 372h-1q-38 0 -57 -25
t-27 -57l167 7q-21 75 -82 75zM73 551l90 156h256l90 -156h-154l-65 99l-64 -99h-153z" />
    <glyph glyph-name="edieresis" unicode="&#xeb;" horiz-adv-x="575" 
d="M529 83l-1 -1q-40 -47 -99 -71q-60 -24 -124 -24q-54 0 -105 18t-90 51q-38 32 -61 81t-23 108q0 60 22 107q23 49 60 83t86 54q47 19 101 19t99 -19q48 -20 83 -55q36 -36 57 -89t21 -120h-350q9 -43 41 -63t77 -20q25 0 51 9q25 9 45 29zM289 372h-1q-38 0 -57 -25
t-27 -57l167 7q-21 75 -82 75zM413 552l-1 -1q-21 0 -40 8t-32 21q-14 14 -21 33q-8 21 -8 40q0 20 8 39t21 32t32 21t41 8q19 0 38 -8t32 -21q14 -14 21 -31q8 -19 8 -39q0 -19 -8 -40q-8 -20 -21 -33t-32 -21t-38 -8zM169 551l-1 -1q-21 0 -40 8t-32 21q-14 13 -21 33
q-8 21 -8 40q0 20 8 39t21 32t32 21t41 8q19 0 38 -8t32 -21q14 -14 21 -31q8 -19 8 -39q0 -19 -8 -40q-8 -19 -21 -33q-13 -13 -32 -21t-38 -8z" />
    <glyph glyph-name="igrave" unicode="&#xec;" horiz-adv-x="280" 
d="M55 495h170v-495h-170v495zM-34 709h194l60 -156h-154z" />
    <glyph glyph-name="iacute" unicode="&#xed;" horiz-adv-x="280" 
d="M55 495h170v-495h-170v495zM61 552l60 156h194l-100 -156h-154z" />
    <glyph glyph-name="icircumflex" unicode="&#xee;" horiz-adv-x="280" 
d="M55 495h170v-495h-170v495zM-79 552l90 156h256l90 -156h-154l-65 99l-64 -99h-153z" />
    <glyph glyph-name="idieresis" unicode="&#xef;" horiz-adv-x="280" 
d="M55 495h170v-495h-170v495zM261 553l-1 -1q-21 0 -40 8t-32 21q-14 13 -21 33q-8 21 -8 40q0 20 8 39t21 32t32 21t41 8q19 0 38 -8t32 -21q14 -14 21 -31q8 -19 8 -39q0 -19 -8 -40q-8 -19 -21 -33q-13 -13 -32 -21t-38 -8zM17 552l-1 -1q-21 0 -40 8t-32 21
q-14 14 -21 33q-8 21 -8 40q0 20 8 39t21 32t32 21t41 8q19 0 38 -8t32 -21q14 -14 21 -31q8 -19 8 -39q0 -19 -8 -40q-8 -20 -21 -33t-32 -21t-38 -8z" />
    <glyph glyph-name="eth" unicode="&#xf0;" horiz-adv-x="585" 
d="M277 -13v-2q-55 0 -102 18q-46 18 -79 51t-51 78t-18 96q0 56 21 96q21 41 57 68q37 28 84 41q50 14 104 14q14 0 32 -3q12 -2 38 -8q-9 44 -33 72l-47 -48l-35 39l40 40q-39 18 -87 18q-29 0 -58 -6q-31 -6 -58 -16l-51 123q52 17 96 23q46 6 87 6q50 0 95 -9
q46 -9 83 -30l75 76l36 -38l-67 -68q50 -44 80 -120q30 -77 30 -196v-5q0 -79 -22 -136q-22 -58 -60 -97q-37 -38 -87 -58q-48 -19 -103 -19zM288 150h-3q31 0 56 17q24 17 24 51q0 27 -22 45q-23 18 -54 18q-36 0 -59 -16q-24 -17 -24 -46q0 -33 24 -51t58 -18z" />
    <glyph glyph-name="ntilde" unicode="&#xf1;" horiz-adv-x="621" 
d="M55 0l-3 494h111l27 -71q38 44 82 63q46 20 96 20q40 0 76 -12t64 -37q29 -26 45 -64q17 -40 17 -93v-301h-170v261q0 43 -23 63t-57 20q-49 0 -95 -38v-305h-170zM125 565l4 -2q1 76 35 114q33 37 77 37q17 0 40 -6q30 -8 45 -13t47 -13q24 -6 46 -6q13 0 24 6
q10 6 12 23h55q0 -75 -27 -115t-79 -40q-20 0 -46 6q-34 8 -51 13t-49 13q-24 6 -43 6q-28 0 -33 -23h-57z" />
    <glyph glyph-name="ograve" unicode="&#xf2;" horiz-adv-x="612" 
d="M305 -13l-3 -1q-54 0 -105 18t-90 51q-38 32 -61 81t-23 107t23 107q23 48 62 83t90 54q50 19 105 19q57 0 107 -19q51 -19 90 -54t62 -83q23 -49 23 -107q0 -57 -23 -106t-61 -81q-39 -33 -90 -51t-106 -18zM302 141h-1q21 0 42 8q19 7 34 21t23 32q8 19 8 41
q0 21 -8 42t-22 35q-15 15 -34 24q-20 9 -42 9q-43 0 -73 -31q-30 -32 -30 -78q0 -45 29 -74t74 -29zM133 708h194l60 -156h-154z" />
    <glyph glyph-name="oacute" unicode="&#xf3;" horiz-adv-x="612" 
d="M305 -13l-3 -1q-54 0 -105 18t-90 51q-38 32 -61 81t-23 107t23 107q23 48 62 83t90 54q50 19 105 19q57 0 107 -19q51 -19 90 -54t62 -83q23 -49 23 -107q0 -57 -23 -106t-61 -81q-39 -33 -90 -51t-106 -18zM302 141h-1q21 0 42 8q19 7 34 21t23 32q8 19 8 41
q0 21 -8 42t-22 35q-15 15 -34 24q-20 9 -42 9q-43 0 -73 -31q-30 -32 -30 -78q0 -45 29 -74t74 -29zM213 551l60 156h194l-100 -156h-154z" />
    <glyph glyph-name="ocircumflex" unicode="&#xf4;" horiz-adv-x="612" 
d="M305 -13l-3 -1q-54 0 -105 18t-90 51q-38 32 -61 81t-23 107t23 107q23 48 62 83t90 54q50 19 105 19q57 0 107 -19q51 -19 90 -54t62 -83q23 -49 23 -107q0 -57 -23 -106t-61 -81q-39 -33 -90 -51t-106 -18zM302 141h-1q21 0 42 8q19 7 34 21t23 32q8 19 8 41
q0 21 -8 42t-22 35q-15 15 -34 24q-20 9 -42 9q-43 0 -73 -31q-30 -32 -30 -78q0 -45 29 -74t74 -29zM82 551l90 156h256l90 -156h-154l-65 99l-64 -99h-153z" />
    <glyph glyph-name="otilde" unicode="&#xf5;" horiz-adv-x="612" 
d="M305 -13l-3 -1q-54 0 -105 18t-90 51q-38 32 -61 81t-23 107t23 107q23 48 62 83t90 54q50 19 105 19q57 0 107 -19q51 -19 90 -54t62 -83q23 -49 23 -107q0 -57 -23 -106t-61 -81q-39 -33 -90 -51t-106 -18zM302 141h-1q21 0 42 8q19 7 34 21t23 32q8 19 8 41
q0 21 -8 42t-22 35q-15 15 -34 24q-20 9 -42 9q-43 0 -73 -31q-30 -32 -30 -78q0 -45 29 -74t74 -29zM116 565l4 -2q1 76 35 114q33 37 77 37q18 0 40 -6q30 -8 45 -13t47 -13q24 -6 46 -6q14 0 24 6t12 23h55q0 -75 -27 -115t-79 -40q-21 0 -46 6q-34 8 -51 13t-49 13
q-24 6 -43 6q-28 0 -33 -23h-57z" />
    <glyph glyph-name="odieresis" unicode="&#xf6;" horiz-adv-x="612" 
d="M305 -13l-3 -1q-54 0 -105 18t-90 51q-38 32 -61 81t-23 107t23 107q23 48 62 83t90 54q50 19 105 19q57 0 107 -19q51 -19 90 -54t62 -83q23 -49 23 -107q0 -57 -23 -106t-61 -81q-39 -33 -90 -51t-106 -18zM302 141h-1q21 0 42 8q19 7 34 21t23 32q8 19 8 41
q0 21 -8 42t-22 35q-15 15 -34 24q-20 9 -42 9q-43 0 -73 -31q-30 -32 -30 -78q0 -45 29 -74t74 -29zM428 552l-1 -1q-21 0 -40 8t-32 21q-13 14 -21 33q-8 21 -8 40q0 20 8 39t21 32t32 21t41 8q19 0 38 -8t32 -21q14 -14 21 -31q8 -19 8 -39q0 -19 -8 -40q-7 -20 -21 -33
q-13 -13 -32 -21t-38 -8zM184 551l-1 -1q-21 0 -40 8t-32 21t-21 33q-8 21 -8 40q0 20 8 39t21 32t32 21t41 8q19 0 38 -8t32 -21q14 -14 21 -31q8 -19 8 -39q0 -19 -8 -40q-7 -19 -21 -33q-13 -13 -32 -21t-38 -8z" />
    <glyph glyph-name="divide" unicode="&#xf7;" horiz-adv-x="497" 
d="M32 299h433v-103h-433v103zM250 329l-1 -1q-21 0 -36 7q-16 8 -29 20q-11 11 -19 29q-7 15 -7 36q0 19 7 34t20 28q11 11 29 19q15 7 36 7q19 0 34 -7q16 -8 28 -19q12 -12 19 -28q7 -15 7 -34q0 -21 -7 -36q-8 -18 -19 -29q-12 -11 -28 -19q-15 -7 -34 -7zM249 -14
l-1 -1q-21 0 -36 7q-16 8 -29 20q-11 11 -19 29q-7 15 -7 36q0 19 7 34t20 28q11 11 29 19q15 7 36 7q19 0 34 -7q17 -8 28 -19q12 -11 19 -28q7 -15 7 -34q0 -21 -7 -36q-8 -18 -19 -29q-11 -12 -28 -19q-15 -7 -34 -7z" />
    <glyph glyph-name="oslash" unicode="&#xf8;" horiz-adv-x="612" 
d="M305 -13l-4 -3q-42 0 -78 10q-37 10 -70 30l-83 -106h-37l95 122q-46 34 -75 86q-28 50 -28 117q0 58 23 107q23 48 62 83t90 54q50 19 105 19q44 0 83 -12q40 -12 74 -33l88 113h37l-101 -129q45 -34 72 -86q27 -51 27 -116q0 -57 -23 -106t-61 -81q-39 -33 -90 -51
t-106 -18zM198 242v1q0 -45 30 -75l130 166q-26 17 -57 17q-43 0 -73 -31q-30 -32 -30 -78zM301 140l-2 1q21 0 42 8q19 7 34 21t23 32q8 19 8 41q0 42 -27 72l-128 -164q25 -11 50 -11z" />
    <glyph glyph-name="ugrave" unicode="&#xf9;" horiz-adv-x="619" 
d="M564 495l1 -497h-111l-27 70q-37 -44 -84 -63q-45 -19 -93 -19q-38 0 -75 14q-35 13 -64 42q-29 28 -45 72q-17 45 -17 104v277h170v-249q0 -48 24 -71q25 -23 62 -23q46 0 89 37v306h170zM151 707h194l60 -156h-154z" />
    <glyph glyph-name="uacute" unicode="&#xfa;" horiz-adv-x="619" 
d="M564 495l1 -497h-111l-27 70q-37 -44 -84 -63q-45 -19 -93 -19q-38 0 -75 14q-35 13 -64 42q-29 28 -45 72q-17 45 -17 104v277h170v-249q0 -48 24 -71q25 -23 62 -23q46 0 89 37v306h170zM229 550l60 156h194l-100 -156h-154z" />
    <glyph glyph-name="ucircumflex" unicode="&#xfb;" horiz-adv-x="619" 
d="M564 495l1 -497h-111l-27 70q-37 -44 -84 -63q-45 -19 -93 -19q-38 0 -75 14q-35 13 -64 42q-29 28 -45 72q-17 45 -17 104v277h170v-249q0 -48 24 -71q25 -23 62 -23q46 0 89 37v306h170zM92 550l90 156h256l90 -156h-154l-65 99l-64 -99h-153z" />
    <glyph glyph-name="udieresis" unicode="&#xfc;" horiz-adv-x="619" 
d="M564 495l1 -497h-111l-27 70q-37 -44 -84 -63q-45 -19 -93 -19q-38 0 -75 14q-35 13 -64 42q-29 28 -45 72q-17 45 -17 104v277h170v-249q0 -48 24 -71q25 -23 62 -23q46 0 89 37v306h170zM437 551l-1 -1q-21 0 -40 8t-32 21q-14 13 -21 33q-8 21 -8 40q0 20 8 39t21 32
t32 21t41 8q19 0 38 -8t32 -21q14 -14 21 -31q8 -19 8 -39q0 -19 -8 -40q-8 -19 -21 -33q-13 -13 -32 -21t-38 -8zM193 550l-1 -1q-21 0 -40 8t-32 21q-14 14 -21 33q-8 21 -8 40q0 20 8 39t21 32t32 21t41 8q19 0 38 -8t32 -21q14 -14 21 -31q8 -19 8 -39q0 -19 -8 -40
q-8 -20 -21 -33t-32 -21t-38 -8z" />
    <glyph glyph-name="yacute" unicode="&#xfd;" horiz-adv-x="556" 
d="M375 86h-1q-66 -158 -147 -240t-191 -82v155q19 0 45 8q23 7 46 24q24 17 42 40q20 25 33 55l-201 449h186l93 -264l97 264h186zM209 552l60 156h194l-100 -156h-154z" />
    <glyph glyph-name="thorn" unicode="&#xfe;" horiz-adv-x="624" 
d="M341 -13l-2 -2q-35 0 -67 9q-29 8 -57 23l9 -86v-169h-170v950h170v-234q25 13 53 21q29 8 56 8q55 0 102 -19q48 -20 84 -54q36 -35 57 -82q21 -48 21 -107q0 -58 -21 -106t-55 -82t-81 -52q-46 -18 -99 -18zM314 140h-3q21 0 42 8q19 8 33 21q14 14 23 33q9 20 9 42
t-9 42t-22 33q-14 14 -33 23q-20 9 -42 9t-40 -9q-20 -10 -32 -22q-14 -14 -21 -33q-8 -21 -8 -42q0 -44 29 -75q29 -30 74 -30z" />
    <glyph glyph-name="ydieresis" unicode="&#xff;" horiz-adv-x="556" 
d="M375 86h-1q-66 -158 -147 -240t-191 -82v155q19 0 45 8q23 7 46 24q24 17 42 40q20 25 33 55l-201 449h186l93 -264l97 264h186zM412 553l-1 -1q-21 0 -40 8t-32 21t-21 33q-8 21 -8 40q0 20 8 39t21 32t32 21t41 8q19 0 38 -8t32 -21q14 -14 21 -31q8 -19 8 -39
q0 -19 -8 -40q-7 -19 -21 -33q-13 -13 -32 -21t-38 -8zM168 552l-1 -1q-21 0 -40 8t-32 21q-13 14 -21 33q-8 21 -8 40q0 20 8 39t21 32t32 21t41 8q19 0 38 -8t32 -21q14 -14 21 -31q8 -19 8 -39q0 -19 -8 -40q-7 -20 -21 -33q-13 -13 -32 -21t-38 -8z" />
    <glyph glyph-name="Amacron" unicode="&#x100;" horiz-adv-x="718" 
d="M267 675h184l271 -675h-183l-42 114h-277l-41 -114h-183zM279 274h160l-80 218zM193 852h321v-122h-321v122z" />
    <glyph glyph-name="amacron" unicode="&#x101;" horiz-adv-x="575" 
d="M355 304q0 30 -31 45q-32 15 -87 15q-37 0 -79 -6q-39 -6 -83 -17l-30 132q47 14 103 25q50 10 111 10q130 0 198 -50t68 -138v-319h-100l-32 53q-46 -37 -91 -52t-97 -15q-92 0 -136 37q-45 38 -45 103q0 72 48 107q48 34 135 42l148 13v15zM247 97l-1 -1q32 0 57 12
q24 11 51 32v62l-96 -15q-26 -5 -41 -13q-17 -9 -17 -35q0 -18 12 -30t35 -12zM137 692h321v-122h-321v122z" />
    <glyph glyph-name="Abreve" unicode="&#x102;" horiz-adv-x="718" 
d="M267 675h184l271 -675h-183l-42 114h-277l-41 -114h-183zM279 274h160l-80 218zM282 899h-1q3 -23 24 -41t54 -18q32 0 53 18q20 17 25 41h89q-8 -81 -48 -126t-117 -45q-78 0 -120 45q-41 44 -46 126h87z" />
    <glyph glyph-name="abreve" unicode="&#x103;" horiz-adv-x="575" 
d="M355 304q0 30 -31 45q-32 15 -87 15q-37 0 -79 -6q-39 -6 -83 -17l-30 132q47 14 103 25q50 10 111 10q130 0 198 -50t68 -138v-319h-100l-32 53q-46 -37 -91 -52t-97 -15q-92 0 -136 37q-45 38 -45 103q0 72 48 107q48 34 135 42l148 13v15zM247 97l-1 -1q32 0 57 12
q24 11 51 32v62l-96 -15q-26 -5 -41 -13q-17 -9 -17 -35q0 -18 12 -30t35 -12zM219 721q3 -23 24 -41t53 -18t53 18q20 17 25 41h89q-7 -81 -48 -126t-117 -45q-78 0 -120 45q-41 44 -46 126h87z" />
    <glyph glyph-name="Aogonek" unicode="&#x104;" horiz-adv-x="717" 
d="M730 -161l-2 -3q-18 -14 -49 -24q-33 -11 -66 -11q-26 0 -50 6q-23 6 -42 20q-18 14 -29 32q-11 19 -11 41q0 29 16 54q17 26 42 45h-2l-42 114h-277l-41 -114h-183l271 675h184l271 -675h-21q-59 -15 -80 -33t-21 -43q0 -13 10 -22t25 -9q42 0 69 27zM276 271h160
l-80 218z" />
    <glyph glyph-name="aogonek" unicode="&#x105;" horiz-adv-x="575" 
d="M555 -161h-2q-18 -14 -49 -24q-33 -11 -66 -11q-26 0 -50 6q-23 6 -42 20q-18 14 -29 32q-11 19 -11 41q0 38 28 69q29 32 73 54l-15 26q-46 -37 -91 -52t-97 -15q-92 0 -136 37q-45 38 -45 103q0 73 48 107t135 42l148 13v15q0 30 -31 45t-87 15q-37 0 -79 -6
q-39 -6 -83 -17l-30 132q47 14 103 25q50 10 111 10q130 0 198 -50t68 -138v-319q-59 -15 -80 -33t-21 -43q0 -13 10 -22q11 -9 25 -9q42 0 69 27zM245 97l-1 -1q32 0 57 12q24 11 51 32v62l-96 -15q-26 -5 -41 -13q-17 -9 -17 -35q0 -18 12 -30t35 -12z" />
    <glyph glyph-name="Cacute" unicode="&#x106;" horiz-adv-x="693" 
d="M674 95l-3 -3q-48 -50 -120 -78q-73 -29 -157 -29q-75 0 -141 24q-67 24 -116 69q-50 45 -78 109q-28 63 -28 147q0 89 33 155q33 67 84 110t114 66q62 22 124 22q96 0 166 -30t126 -83l-124 -117q-31 31 -75 49q-43 18 -93 18q-34 0 -64 -13q-31 -13 -55 -39t-39 -60
t-15 -78q0 -40 14 -76q13 -34 39 -58q25 -24 59 -36q33 -12 72 -12q44 0 87 17t68 48zM303 727l60 156h194l-100 -156h-154z" />
    <glyph glyph-name="cacute" unicode="&#x107;" horiz-adv-x="532" 
d="M514 78l-2 2q-20 -22 -45 -39q-23 -15 -54 -28q-29 -12 -60 -18t-60 -6q-53 0 -101 18q-47 18 -85 51q-37 33 -60 81q-22 47 -22 107t22 107q23 49 60 83t86 54q47 19 101 19q29 0 59 -6q31 -6 59 -18q31 -13 54 -28q26 -17 45 -39l-122 -105q-19 18 -39 29
q-21 12 -55 12q-18 0 -36 -8q-17 -8 -30 -22q-14 -15 -21 -34q-7 -18 -7 -42q0 -47 28 -76q29 -30 69 -30q26 0 47 9t47 29zM213 554l60 156h194l-100 -156h-154z" />
    <glyph glyph-name="Ccircumflex" unicode="&#x108;" horiz-adv-x="693" 
d="M674 95l-3 -3q-48 -50 -120 -78q-73 -29 -157 -29q-75 0 -141 24q-67 24 -116 69q-50 45 -78 109q-28 63 -28 147q0 89 33 155q33 67 84 110t114 66q62 22 124 22q96 0 166 -30t126 -83l-124 -117q-31 31 -75 49q-43 18 -93 18q-34 0 -64 -13q-31 -13 -55 -39t-39 -60
t-15 -78q0 -40 14 -76q13 -34 39 -58q25 -24 59 -36q33 -12 72 -12q44 0 87 17t68 48zM168 727l100 156h236l100 -156h-154l-65 99l-64 -99h-153z" />
    <glyph glyph-name="ccircumflex" unicode="&#x109;" horiz-adv-x="532" 
d="M514 78l-2 2q-20 -22 -45 -39q-23 -15 -54 -28q-29 -12 -60 -18t-60 -6q-53 0 -101 18q-47 18 -85 51q-37 33 -60 81q-22 47 -22 107t22 107q23 49 60 83t86 54q47 19 101 19q29 0 59 -6q31 -6 59 -18q31 -13 54 -28q26 -17 45 -39l-122 -105q-19 18 -39 29
q-21 12 -55 12q-18 0 -36 -8q-17 -8 -30 -22q-14 -15 -21 -34q-7 -18 -7 -42q0 -47 28 -76q29 -30 69 -30q26 0 47 9t47 29zM74 554l90 156h256l90 -156h-154l-65 99l-64 -99h-153z" />
    <glyph glyph-name="Cdotaccent" unicode="&#x10a;" horiz-adv-x="693" 
d="M674 95l-3 -3q-48 -50 -120 -78q-73 -29 -157 -29q-75 0 -141 24q-67 24 -116 69q-50 45 -78 109q-28 63 -28 147q0 89 33 155q33 67 84 110t114 66q62 22 124 22q96 0 166 -30t126 -83l-124 -117q-31 31 -75 49q-43 18 -93 18q-34 0 -64 -13q-31 -13 -55 -39t-39 -60
t-15 -78q0 -40 14 -76q13 -34 39 -58q25 -24 59 -36q33 -12 72 -12q44 0 87 17t68 48zM382 726l-1 -1q-21 0 -40 8t-32 21q-13 14 -21 33q-8 21 -8 40q0 20 8 39t21 32t32 21t41 8q19 0 38 -8t32 -21q14 -14 21 -31q8 -19 8 -39q0 -19 -8 -40q-7 -20 -21 -33
q-13 -13 -32 -21t-38 -8z" />
    <glyph glyph-name="cdotaccent" unicode="&#x10b;" horiz-adv-x="532" 
d="M514 78l-2 2q-20 -22 -45 -39q-23 -15 -54 -28q-29 -12 -60 -18t-60 -6q-53 0 -101 18q-47 18 -85 51q-37 33 -60 81q-22 47 -22 107t22 107q23 49 60 83t86 54q47 19 101 19q29 0 59 -6q31 -6 59 -18q31 -13 54 -28q26 -17 45 -39l-122 -105q-19 18 -39 29
q-21 12 -55 12q-18 0 -36 -8q-17 -8 -30 -22q-14 -15 -21 -34q-7 -18 -7 -42q0 -47 28 -76q29 -30 69 -30q26 0 47 9t47 29zM294 554l-1 -1q-21 0 -40 8t-32 21q-13 14 -21 33q-8 21 -8 40q0 20 8 39t21 32t32 21t41 8q19 0 38 -8t32 -21q14 -14 21 -31q8 -19 8 -39
q0 -19 -8 -40q-7 -20 -21 -33q-13 -13 -32 -21t-38 -8z" />
    <glyph glyph-name="Ccaron" unicode="&#x10c;" horiz-adv-x="693" 
d="M674 95l-3 -3q-48 -50 -120 -78q-73 -29 -157 -29q-75 0 -141 24q-67 24 -116 69q-50 45 -78 109q-28 63 -28 147q0 89 33 155q33 67 84 110t114 66q62 22 124 22q96 0 166 -30t126 -83l-124 -117q-31 31 -75 49q-43 18 -93 18q-34 0 -64 -13q-31 -13 -55 -39t-39 -60
t-15 -78q0 -40 14 -76q13 -34 39 -58q25 -24 59 -36q33 -12 72 -12q44 0 87 17t68 48zM389 782l65 100h154l-90 -156h-256l-90 156h153z" />
    <glyph glyph-name="ccaron" unicode="&#x10d;" horiz-adv-x="532" 
d="M514 78l-2 2q-20 -22 -45 -39q-23 -15 -54 -28q-29 -12 -60 -18t-60 -6q-53 0 -101 18q-47 18 -85 51q-37 33 -60 81q-22 47 -22 107t22 107q23 49 60 83t86 54q47 19 101 19q29 0 59 -6q31 -6 59 -18q31 -13 54 -28q26 -17 45 -39l-122 -105q-19 18 -39 29
q-21 12 -55 12q-18 0 -36 -8q-17 -8 -30 -22q-14 -15 -21 -34q-7 -18 -7 -42q0 -47 28 -76q29 -30 69 -30q26 0 47 9t47 29zM293 611l65 100h154l-90 -156h-256l-90 156h153z" />
    <glyph glyph-name="Dcaron" unicode="&#x10e;" horiz-adv-x="748" 
d="M69 675l315 3q69 0 129 -27t105 -72t71 -107q26 -63 26 -132t-26 -132q-26 -62 -70 -108t-105 -73q-60 -27 -129 -27h-316v675zM243 518v-356h141q30 0 58 14q26 13 48 38q21 24 33 57t12 69t-12 69t-33 57q-22 25 -48 38q-28 14 -58 14h-141zM343 787l65 100h154
l-90 -156h-256l-90 156h153z" />
    <glyph glyph-name="dcaron" unicode="&#x10f;" horiz-adv-x="772" 
d="M455 43l1 3q-36 -27 -76 -41q-42 -15 -91 -15q-55 0 -102 19q-48 19 -84 54q-36 34 -57 83q-21 48 -21 107q0 58 21 106q21 47 56 81q34 33 81 51t99 18q34 0 66 -12q33 -13 60 -31l-9 97v151h170v-714h-94zM309 145h-2q44 0 74 31q30 32 30 78t-30 74q-31 29 -73 29
q-24 0 -42 -7q-19 -7 -34 -21q-14 -13 -22 -33q-8 -21 -8 -42t8 -42q7 -18 23 -34q15 -15 34 -24t42 -9zM647 393l1 -2q23 28 35 48q13 22 21 47q-21 0 -39 9t-32 23q-13 13 -21 32q-7 17 -7 39q0 20 8 39t21 32t32 21t41 8q20 0 38 -9q19 -9 32 -24t21 -36q8 -22 8 -43
q0 -57 -30 -112t-105 -105z" />
    <glyph glyph-name="Dcroat" unicode="&#x110;" horiz-adv-x="750" 
d="M31 423l37 3v252h318q69 0 129 -27t105 -72q46 -45 71 -107q26 -63 26 -132t-26 -132q-26 -62 -70 -108t-105 -73q-60 -27 -129 -27h-318v263h-38v160zM243 518v-93h130v-160h-130v-103h143q30 0 58 14q26 13 48 38q21 24 33 57t12 69t-12 69t-33 57q-22 25 -48 38
q-28 14 -58 14h-143z" />
    <glyph glyph-name="dcroat" unicode="&#x111;" horiz-adv-x="624" 
d="M187 647l213 3v67h170v-67h40v-100h-40v-547h-94l-20 43q-36 -27 -76 -41q-42 -15 -91 -15q-55 0 -102 19q-48 19 -84 54q-36 34 -57 83q-21 48 -21 107q0 58 21 106q21 47 56 81q34 33 81 51t99 18q34 0 66 -12q33 -13 60 -31l-8 81h-213v100zM309 145h-2q44 0 74 31
q30 32 30 78t-30 74q-31 29 -73 29q-24 0 -42 -7q-19 -7 -34 -21q-14 -13 -22 -33q-8 -21 -8 -42t8 -42q7 -18 23 -34q15 -15 34 -24t42 -9z" />
    <glyph glyph-name="Emacron" unicode="&#x112;" horiz-adv-x="615" 
d="M69 675h496v-160h-321v-99h301v-160h-301v-96h324v-160h-499v675zM156 852h321v-122h-321v122z" />
    <glyph glyph-name="emacron" unicode="&#x113;" horiz-adv-x="575" 
d="M529 83l-1 -1q-40 -47 -99 -71q-60 -24 -124 -24q-54 0 -105 18t-90 51q-38 32 -61 81t-23 108q0 60 22 107q23 49 60 83t86 54q47 19 101 19t99 -19q48 -20 83 -55q36 -36 57 -89t21 -120h-350q9 -43 41 -63t77 -20q25 0 51 9q25 9 45 29zM289 372h-1q-38 0 -57 -25
t-27 -57l167 7q-21 75 -82 75zM125 693h321v-122h-321v122z" />
    <glyph glyph-name="Ebreve" unicode="&#x114;" horiz-adv-x="615" 
d="M69 675h496v-160h-321v-99h301v-160h-301v-96h324v-160h-499v675zM241 899h-1q3 -23 24 -41t54 -18q32 0 53 18q20 17 25 41h89q-7 -81 -48 -126t-117 -45q-78 0 -120 45q-41 44 -46 126h87z" />
    <glyph glyph-name="ebreve" unicode="&#x115;" horiz-adv-x="575" 
d="M529 83l-1 -1q-40 -47 -99 -71q-60 -24 -124 -24q-54 0 -105 18t-90 51q-38 32 -61 81t-23 108q0 60 22 107q23 49 60 83t86 54q47 19 101 19t99 -19q48 -20 83 -55q36 -36 57 -89t21 -120h-350q9 -43 41 -63t77 -20q25 0 51 9q25 9 45 29zM289 372h-1q-38 0 -57 -25
t-27 -57l167 7q-21 75 -82 75zM213 721q3 -23 24 -41t53 -18t53 18q20 17 25 41h89q-7 -81 -48 -126t-117 -45q-78 0 -120 45q-41 44 -46 126h87z" />
    <glyph glyph-name="Edotaccent" unicode="&#x116;" horiz-adv-x="615" 
d="M69 675h496v-160h-321v-99h301v-160h-301v-96h324v-160h-499v675zM320 729l-1 -1q-21 0 -40 8t-32 21t-21 33q-8 21 -8 40q0 20 8 39t21 32t32 21t41 8q19 0 38 -8t32 -21q14 -14 21 -31q8 -19 8 -39q0 -19 -8 -40q-7 -19 -21 -33q-13 -13 -32 -21t-38 -8z" />
    <glyph glyph-name="edotaccent" unicode="&#x117;" horiz-adv-x="575" 
d="M529 83l-1 -1q-40 -47 -99 -71q-60 -24 -124 -24q-54 0 -105 18t-90 51q-38 32 -61 81t-23 108q0 60 22 107q23 49 60 83t86 54q47 19 101 19t99 -19q48 -20 83 -55q36 -36 57 -89t21 -120h-350q9 -43 41 -63t77 -20q25 0 51 9q25 9 45 29zM289 372h-1q-38 0 -57 -25
t-27 -57l167 7q-21 75 -82 75zM293 551l-1 -1q-21 0 -40 8t-32 21q-14 13 -21 33q-8 21 -8 40q0 20 8 39t21 32t32 21t41 8q19 0 38 -8t32 -21q14 -14 21 -31q8 -19 8 -39q0 -19 -8 -40q-8 -19 -21 -33q-13 -13 -32 -21t-38 -8z" />
    <glyph glyph-name="Eogonek" unicode="&#x118;" horiz-adv-x="614" 
d="M68 675l494 -3v-160h-321v-99h301v-160h-301v-96h324v-160q-59 -15 -80 -33t-21 -43q0 -13 10 -22t25 -9q42 0 69 27l28 -80q-18 -14 -49 -24q-33 -11 -66 -11q-26 0 -50 6q-23 6 -42 20q-18 14 -29 32q-11 19 -11 41q0 29 16 54q17 25 42 45h-339v675z" />
    <glyph glyph-name="eogonek" unicode="&#x119;" horiz-adv-x="575" 
d="M465 -147l-2 -1q-18 -14 -49 -24q-33 -11 -66 -11q-26 0 -50 6q-23 6 -42 20q-18 14 -29 32q-11 19 -11 41q0 40 33 76q-45 7 -87 29q-41 21 -71 53t-48 75t-18 96q0 60 22 107q23 49 60 83t86 54q47 19 101 19t99 -19q48 -20 83 -55q36 -36 57 -89t21 -120h-350
q9 -43 41 -63t77 -20q26 0 51 9t45 29l110 -97q-28 -33 -66 -54q-39 -22 -83 -32q-25 -12 -36 -27q-10 -14 -10 -33q0 -13 10 -22q11 -9 25 -9q42 0 69 27zM288 372h-1q-38 0 -57 -25q-20 -25 -27 -57l167 7q-21 75 -82 75z" />
    <glyph glyph-name="Ecaron" unicode="&#x11a;" horiz-adv-x="615" 
d="M69 675h496v-160h-321v-99h301v-160h-301v-96h324v-160h-499v675zM319 785l65 100h154l-90 -156h-256l-90 156h153z" />
    <glyph glyph-name="ecaron" unicode="&#x11b;" horiz-adv-x="575" 
d="M529 83l-1 -1q-40 -47 -99 -71q-60 -24 -124 -24q-54 0 -105 18t-90 51q-38 32 -61 81t-23 108q0 60 22 107q23 49 60 83t86 54q47 19 101 19t99 -19q48 -20 83 -55q36 -36 57 -89t21 -120h-350q9 -43 41 -63t77 -20q25 0 51 9q25 9 45 29zM289 372h-1q-38 0 -57 -25
t-27 -57l167 7q-21 75 -82 75zM292 608l65 100h154l-90 -156h-256l-90 156h153z" />
    <glyph glyph-name="Gcircumflex" unicode="&#x11c;" horiz-adv-x="739" 
d="M690 86h-2q-45 -47 -121 -72q-78 -26 -162 -26q-81 0 -151 26q-68 25 -118 72t-77 111q-27 65 -27 143t27 141t77 110t117 72q66 25 149 25q94 0 167 -30q74 -30 126 -85l-117 -110q-12 13 -32 24t-43 18q-25 8 -49 12q-23 4 -48 4q-47 0 -83 -15q-35 -15 -60 -41
q-23 -25 -37 -58q-13 -32 -13 -67q0 -36 13 -69q13 -34 39 -61q24 -26 62 -43q35 -16 83 -16q26 0 53 6q23 5 52 17v59h-102v160h277v-307zM166 730l100 156h236l100 -156h-154l-65 99l-64 -99h-153z" />
    <glyph glyph-name="gcircumflex" unicode="&#x11d;" horiz-adv-x="623" 
d="M289 508h-8q49 0 91 -15q40 -14 76 -41l20 43h94v-478q0 -118 -68 -186q-67 -67 -198 -67q-53 0 -119 11q-64 11 -122 33l42 132q39 -12 92 -22q47 -9 83 -9q63 0 93 27t30 81v5q-24 -16 -54 -25q-29 -9 -60 -9q-53 0 -99 18t-81 51q-34 32 -55 81q-21 48 -21 107t21 107
q21 49 57 83q36 35 84 54q47 19 102 19zM304 353l-3 -1q-23 0 -42 -9q-20 -9 -34 -22q-15 -13 -24 -33t-9 -42q0 -46 32 -75t78 -29q20 0 39 8t32 21t21 33q8 21 8 42q0 24 -7 42q-7 20 -21 33q-15 15 -31 23q-18 9 -39 9zM81 551l90 156h256l90 -156h-154l-65 99l-64 -99
h-153z" />
    <glyph glyph-name="Gbreve" unicode="&#x11e;" horiz-adv-x="739" 
d="M690 86h-2q-45 -47 -121 -72q-78 -26 -162 -26q-81 0 -151 26q-68 25 -118 72t-77 111q-27 65 -27 143t27 141t77 110t117 72q66 25 149 25q94 0 167 -30q74 -30 126 -85l-117 -110q-12 13 -32 24t-43 18q-25 8 -49 12q-23 4 -48 4q-47 0 -83 -15q-35 -15 -60 -41
q-23 -25 -37 -58q-13 -32 -13 -67q0 -36 13 -69q13 -34 39 -61q24 -26 62 -43q35 -16 83 -16q26 0 53 6q23 5 52 17v59h-102v160h277v-307zM310 899h-1q3 -23 24 -41t54 -18q32 0 53 18q20 17 25 41h89q-8 -81 -48 -126t-117 -45q-78 0 -120 45q-41 44 -46 126h87z" />
    <glyph glyph-name="gbreve" unicode="&#x11f;" horiz-adv-x="623" 
d="M289 508h-8q49 0 91 -15q40 -14 76 -41l20 43h94v-478q0 -118 -68 -186q-67 -67 -198 -67q-53 0 -119 11q-64 11 -122 33l42 132q39 -12 92 -22q47 -9 83 -9q63 0 93 27t30 81v5q-24 -16 -54 -25q-29 -9 -60 -9q-53 0 -99 18t-81 51q-34 32 -55 81q-21 48 -21 107t21 107
q21 49 57 83q36 35 84 54q47 19 102 19zM304 353l-3 -1q-23 0 -42 -9q-20 -9 -34 -22q-15 -13 -24 -33t-9 -42q0 -46 32 -75t78 -29q20 0 39 8t32 21t21 33q8 21 8 42q0 24 -7 42q-7 20 -21 33q-15 15 -31 23q-18 9 -39 9zM216 721q3 -23 24 -41t53 -18t53 18q20 17 25 41
h89q-8 -81 -48 -126t-117 -45q-78 0 -120 45q-41 44 -46 126h87z" />
    <glyph glyph-name="Gdotaccent" unicode="&#x120;" horiz-adv-x="739" 
d="M690 86h-2q-45 -47 -121 -72q-78 -26 -162 -26q-81 0 -151 26q-68 25 -118 72t-77 111q-27 65 -27 143t27 141t77 110t117 72q66 25 149 25q94 0 167 -30q74 -30 126 -85l-117 -110q-12 13 -32 24t-43 18q-25 8 -49 12q-23 4 -48 4q-47 0 -83 -15q-35 -15 -60 -41
q-23 -25 -37 -58q-13 -32 -13 -67q0 -36 13 -69q13 -34 39 -61q24 -26 62 -43q35 -16 83 -16q26 0 53 6q23 5 52 17v59h-102v160h277v-307zM390 729l-1 -1q-21 0 -40 8t-32 21t-21 33q-8 21 -8 40q0 20 8 39t21 32t32 21t41 8q19 0 38 -8t32 -21q14 -14 21 -31q8 -19 8 -39
q0 -19 -8 -40q-7 -19 -21 -33q-13 -13 -32 -21t-38 -8z" />
    <glyph glyph-name="gdotaccent" unicode="&#x121;" horiz-adv-x="623" 
d="M289 508h-8q49 0 91 -15q40 -14 76 -41l20 43h94v-478q0 -118 -68 -186q-67 -67 -198 -67q-53 0 -119 11q-64 11 -122 33l42 132q39 -12 92 -22q47 -9 83 -9q63 0 93 27t30 81v5q-24 -16 -54 -25q-29 -9 -60 -9q-53 0 -99 18t-81 51q-34 32 -55 81q-21 48 -21 107t21 107
q21 49 57 83q36 35 84 54q47 19 102 19zM304 353l-3 -1q-23 0 -42 -9q-20 -9 -34 -22q-15 -13 -24 -33t-9 -42q0 -46 32 -75t78 -29q20 0 39 8t32 21t21 33q8 21 8 42q0 24 -7 42q-7 20 -21 33q-15 15 -31 23q-18 9 -39 9zM296 551l-1 -1q-21 0 -40 8t-32 21t-21 33
q-8 21 -8 40q0 20 8 39t21 32t32 21t41 8q19 0 38 -8t32 -21q14 -14 21 -31q8 -19 8 -39q0 -19 -8 -40q-7 -19 -21 -33q-13 -13 -32 -21t-38 -8z" />
    <glyph glyph-name="Gcommaaccent" unicode="&#x122;" horiz-adv-x="739" 
d="M690 86h-2q-45 -47 -121 -72q-78 -26 -162 -26q-81 0 -151 26q-68 25 -118 72t-77 111q-27 65 -27 143t27 141t77 110t117 72q66 25 149 25q94 0 167 -30q74 -30 126 -85l-117 -110q-12 13 -32 24t-43 18q-25 8 -49 12q-23 4 -48 4q-47 0 -83 -15q-35 -15 -60 -41
q-23 -25 -37 -58q-13 -32 -13 -67q0 -36 13 -69q13 -34 39 -61q24 -26 62 -43q35 -16 83 -16q26 0 53 6q23 5 52 17v59h-102v160h277v-307zM392 -59h1q20 0 38 -9q19 -9 32 -24t21 -36q8 -22 8 -43q0 -56 -30 -112q-30 -55 -105 -105l-24 33q23 28 35 48q13 22 21 47
q-21 2 -39 9q-19 8 -32 21t-21 32q-7 17 -7 39q0 20 8 39t21 32t32 21t41 8z" />
    <glyph glyph-name="gcommaaccent" unicode="&#x123;" horiz-adv-x="623" 
d="M299 544q-23 0 -41 9q-17 9 -31 24q-13 15 -21 36q-7 20 -7 44q0 57 30 113t105 105l24 -33q-26 -31 -38 -48q-15 -21 -21 -47q21 0 40 -9t33 -24t21 -33q8 -19 8 -38q0 -20 -8 -39q-7 -17 -21 -31q-14 -13 -33 -21q-21 -8 -40 -8zM289 508h-8q49 0 91 -15q40 -14 76 -41
l20 43h94v-478q0 -118 -68 -186q-67 -67 -198 -67q-53 0 -119 11q-64 11 -122 33l42 132q39 -12 92 -22q47 -9 83 -9q63 0 93 27t30 81v5q-24 -16 -54 -25q-29 -9 -60 -9q-53 0 -99 18t-81 51q-34 32 -55 81q-21 48 -21 107t21 107q21 49 57 83q36 35 84 54q47 19 102 19z
M304 353l-3 -1q-23 0 -42 -9q-20 -9 -34 -22q-15 -13 -24 -33t-9 -42q0 -46 32 -75t78 -29q20 0 39 8t32 21t21 33q8 21 8 42q0 24 -7 42q-7 20 -21 33q-15 15 -31 23q-18 9 -39 9z" />
    <glyph glyph-name="Hcircumflex" unicode="&#x124;" horiz-adv-x="775" 
d="M69 675h175v-255h287v255h175v-675h-175v260h-287v-260h-175v675zM169 730l100 156h236l100 -156h-154l-65 99l-64 -99h-153z" />
    <glyph glyph-name="hcircumflex" unicode="&#x125;" horiz-adv-x="621" 
d="M55 0l-1 713h170v-162l-8 -102q28 27 66 42t86 15q40 0 76 -12t64 -37q29 -26 45 -64q17 -40 17 -93v-301h-170v261q0 43 -23 63t-57 20q-49 0 -95 -38v-305h-170zM112 784l100 156h236l100 -156h-154l-65 99l-64 -99h-153z" />
    <glyph glyph-name="Hbar" unicode="&#x126;" horiz-adv-x="776" 
d="M24 595h46v80h175v-80h287v80h175v-80h36v-100h-36v-495h-175v260h-287v-260h-175v495h-46v100zM532 420v75h-287v-75h287z" />
    <glyph glyph-name="hbar" unicode="&#x127;" horiz-adv-x="621" 
d="M13 649l41 -1v65h170v-65h210v-100h-210l-8 -99q28 27 66 42t86 15q40 0 76 -12t64 -37q29 -26 45 -64q17 -40 17 -93v-301h-170v261q0 43 -23 63t-57 20q-49 0 -95 -38v-305h-170v549h-42v100z" />
    <glyph glyph-name="Itilde" unicode="&#x128;" horiz-adv-x="313" 
d="M69 675h175v-675h-175v675zM-35 742l1 -2q2 76 33 114q31 37 78 37q24 0 47 -6q30 -8 44 -13t44 -13q22 -6 45 -6q13 0 24 6q10 6 12 23h55q0 -74 -29 -115q-28 -40 -77 -40q-24 0 -47 6q-30 8 -46 13t-46 13q-23 6 -45 6q-14 0 -24 -6t-12 -17h-57z" />
    <glyph glyph-name="itilde" unicode="&#x129;" horiz-adv-x="280" 
d="M55 495h170v-495h-170v495zM-53 566l4 -2q1 76 35 114q33 37 77 37q17 0 40 -6q30 -8 45 -13t47 -13q24 -6 46 -6q13 0 24 6q10 6 12 23h55q0 -74 -27 -115q-27 -40 -79 -40q-20 0 -46 6q-34 8 -51 13t-49 13q-24 6 -43 6q-28 0 -33 -23h-57z" />
    <glyph glyph-name="Imacron" unicode="&#x12a;" horiz-adv-x="313" 
d="M69 675h175v-675h-175v675zM-4 855h321v-122h-321v122z" />
    <glyph glyph-name="imacron" unicode="&#x12b;" horiz-adv-x="280" 
d="M55 495h170v-495h-170v495zM-27 675h321v-122h-321v122z" />
    <glyph glyph-name="Ibreve" unicode="&#x12c;" horiz-adv-x="313" 
d="M69 675h175v-675h-175v675zM78 901h-1q3 -23 24 -41t54 -18q32 0 53 18q20 17 25 41h89q-8 -81 -48 -126t-117 -45q-78 0 -120 45q-41 44 -46 126h87z" />
    <glyph glyph-name="ibreve" unicode="&#x12d;" horiz-adv-x="280" 
d="M55 495h170v-495h-170v495zM61 722q3 -23 24 -41t53 -18t53 18q20 17 25 41h89q-7 -81 -48 -126t-117 -45q-78 0 -120 45q-41 44 -46 126h87z" />
    <glyph glyph-name="Iogonek" unicode="&#x12e;" horiz-adv-x="313" 
d="M69 675l173 -3v-675q-59 -15 -80 -33t-21 -43q0 -13 10 -22q11 -9 25 -9q42 0 69 27l28 -80q-18 -14 -49 -24q-33 -11 -66 -11q-26 0 -50 6q-23 6 -42 20q-18 14 -29 32q-11 19 -11 41q0 29 16 54t42 45h-15v675z" />
    <glyph glyph-name="iogonek" unicode="&#x12f;" horiz-adv-x="280" 
d="M55 495l168 -3v-495q-59 -15 -80 -33t-21 -43q0 -13 10 -22t25 -9q42 0 69 27l28 -80q-18 -14 -49 -24q-33 -11 -66 -11q-26 0 -50 6q-23 6 -42 20q-18 14 -29 32q-11 19 -11 41q0 29 16 54q17 25 42 45h-10v495zM140 551l-1 -1q-21 0 -40 8t-32 21t-21 33q-8 21 -8 40
q0 20 8 39t21 32t32 21t41 8q19 0 38 -8t32 -21q14 -14 21 -31q8 -19 8 -39q0 -19 -8 -40q-7 -19 -21 -33q-13 -13 -32 -21t-38 -8z" />
    <glyph glyph-name="Idotaccent" unicode="&#x130;" horiz-adv-x="313" 
d="M69 675h175v-675h-175v675zM158 729l-1 -1q-21 0 -40 8t-32 21t-21 33q-8 21 -8 40q0 20 8 39t21 32t32 21t41 8q19 0 38 -8t32 -21q14 -14 21 -31q8 -19 8 -39q0 -19 -8 -40q-7 -19 -21 -33q-13 -13 -32 -21t-38 -8z" />
    <glyph glyph-name="dotlessi" unicode="&#x131;" horiz-adv-x="280" 
d="M55 495h170v-495h-170v495z" />
    <glyph glyph-name="IJ" unicode="&#x132;" horiz-adv-x="880" 
d="M69 675h175v-675h-175v675zM592 -13l-3 -2q-34 0 -74 8q-35 7 -75 23q-36 14 -70 36q-33 21 -60 48l99 111q36 -23 70 -39q37 -17 71 -17q16 0 33 6t29 18q13 13 20 30q8 19 8 44v422h175v-435q0 -71 -18 -119t-48 -78q-29 -29 -71 -43q-39 -13 -86 -13z" />
    <glyph glyph-name="ij" unicode="&#x133;" horiz-adv-x="560" 
d="M142 554l-1 -1q-21 0 -40 8t-32 21q-13 14 -21 33q-8 21 -8 40q0 20 8 39t21 32t32 21t41 8q19 0 38 -8t32 -21q14 -14 21 -31q8 -19 8 -39q0 -19 -8 -40q-7 -20 -21 -33q-13 -13 -32 -21t-38 -8zM54 494h170v-495h-170v495zM421 553l-1 -1q-21 0 -40 8t-32 21
q-14 13 -21 33q-8 21 -8 40q0 20 8 39t21 32t32 21t41 8q19 0 38 -8t32 -21q14 -14 21 -31q8 -19 8 -39q0 -19 -8 -40q-8 -19 -21 -33q-13 -13 -32 -21t-38 -8zM503 -9l1 -1q0 -50 -17 -93t-49 -72t-81 -46q-47 -16 -109 -16v155q36 0 61 21t24 54v500h170v-502z" />
    <glyph glyph-name="Jcircumflex" unicode="&#x134;" horiz-adv-x="567" 
d="M279 -13l-3 -2q-34 0 -74 8q-35 7 -75 23q-36 14 -70 36q-33 21 -60 48l99 111q36 -23 70 -39q37 -17 71 -17q17 0 33 6q17 6 29 18q13 13 20 30q8 19 8 44v422h175v-435q0 -71 -18 -119t-48 -78q-29 -29 -71 -43q-39 -13 -86 -13zM192 728l100 156h236l100 -156h-154
l-65 99l-64 -99h-153z" />
    <glyph glyph-name="jcircumflex" unicode="&#x135;" horiz-adv-x="280" 
d="M225 -7l1 -1q0 -50 -17 -93t-49 -72t-81 -46q-47 -16 -109 -16v155q35 0 61 21q25 21 24 54v500h170v-502zM-77 551l90 156h256l90 -156h-154l-65 99l-64 -99h-153z" />
    <glyph glyph-name="Kcommaaccent" unicode="&#x136;" horiz-adv-x="705" 
d="M496 0l-194 233l-58 -64v-169h-175v675h175v-259l230 259h226l-279 -310l301 -365h-226zM364 -59h1q20 0 38 -9q19 -9 32 -24t21 -36q8 -22 8 -43q0 -56 -30 -112q-30 -55 -105 -105l-24 33q23 28 35 48q13 22 21 47q-21 2 -39 9q-19 8 -32 21t-21 32q-7 17 -7 39
q0 20 8 39t21 32t32 21t41 8z" />
    <glyph glyph-name="kcommaaccent" unicode="&#x137;" horiz-adv-x="603" 
d="M55 714h170v-399l165 180h200l-200 -219l222 -276h-194l-133 162l-60 -66v-96h-170v714zM314 -59h1q20 0 38 -9q19 -9 32 -24t21 -36q8 -22 8 -43q0 -56 -30 -112q-30 -55 -105 -105l-24 33q23 28 35 48q13 22 21 47q-21 2 -39 9q-19 8 -32 21t-21 32q-7 17 -7 39
q0 20 8 39t21 32t32 21t41 8z" />
    <glyph glyph-name="kgreenlandic" unicode="&#x138;" horiz-adv-x="603" 
d="M285 162l-60 -66v-96h-170v495h170v-180l165 180h200l-200 -219l222 -276h-194z" />
    <glyph glyph-name="Lacute" unicode="&#x139;" horiz-adv-x="571" 
d="M69 675h175v-515h307v-160h-482v675zM76 730l60 156h194l-100 -156h-154z" />
    <glyph glyph-name="lacute" unicode="&#x13a;" horiz-adv-x="280" 
d="M55 714h170v-714h-170v714zM62 746l60 156h194l-100 -156h-154z" />
    <glyph glyph-name="Lcommaaccent" unicode="&#x13b;" horiz-adv-x="571" 
d="M69 675h175v-515h307v-160h-482v675zM302 -59h1q20 0 38 -9q19 -9 32 -24t21 -36q8 -22 8 -43q0 -56 -30 -112q-30 -55 -105 -105l-24 33q23 28 35 48q13 22 21 47q-21 2 -39 9q-19 8 -32 21t-21 32q-7 17 -7 39q0 20 8 39t21 32t32 21t41 8z" />
    <glyph glyph-name="lcommaaccent" unicode="&#x13c;" horiz-adv-x="280" 
d="M55 714h170v-714h-170v714zM141 -59h1q20 0 38 -9q19 -9 32 -24q14 -15 21 -36q8 -22 8 -43q0 -56 -30 -112q-30 -55 -105 -105l-24 33q23 28 35 48q13 22 21 47q-21 2 -39 9q-19 8 -32 21t-21 32q-7 17 -7 39q0 20 8 39t21 32t32 21t41 8z" />
    <glyph glyph-name="Lcaron" unicode="&#x13d;" horiz-adv-x="571" 
d="M68 675h175v-515h307v-160h-482v675zM329 390l1 -2q23 28 35 48q13 22 21 47q-21 0 -39 9t-32 23q-13 13 -21 32q-7 17 -7 39q0 20 8 39t21 32t32 21t41 8q20 0 38 -9q19 -9 32 -24t21 -36q8 -22 8 -43q0 -56 -30 -112t-105 -105z" />
    <glyph glyph-name="lcaron" unicode="&#x13e;" horiz-adv-x="427" 
d="M55 714h170v-714h-170v714zM304 390l1 -2q23 28 35 48q13 22 21 47q-21 0 -39 9t-32 23q-13 13 -21 32q-7 17 -7 39q0 20 8 39t21 32t32 21t41 8q20 0 38 -9q19 -9 32 -24q14 -15 21 -36q8 -22 8 -43q0 -56 -30 -112t-105 -105z" />
    <glyph glyph-name="Ldot" unicode="&#x13f;" horiz-adv-x="592" 
d="M69 675h175v-515h307v-160h-482v675zM438 290l-1 -1q-20 0 -39 8q-18 7 -33 21q-14 13 -22 33q-8 21 -8 40q0 20 8 39t21 32t32 21t41 8q20 0 39 -8t32 -21q14 -14 21 -31q8 -19 8 -39q0 -19 -8 -40q-7 -20 -21 -33q-13 -13 -32 -21t-38 -8z" />
    <glyph glyph-name="ldot" unicode="&#x140;" horiz-adv-x="459" 
d="M55 714h170v-714h-170v714zM372 274l-1 -1q-20 0 -39 8q-18 7 -33 21q-14 13 -22 33q-8 21 -8 40q0 20 8 39t21 32t32 21t41 8q20 0 39 -8t32 -21q14 -14 21 -31q8 -19 8 -39q0 -19 -8 -40q-7 -20 -21 -33q-13 -13 -32 -21t-38 -8z" />
    <glyph glyph-name="Lslash" unicode="&#x141;" horiz-adv-x="571" 
d="M21 265l48 32v378h175v-261l90 61v-80l-90 -61v-174h307v-160h-482v217l-48 -32v80z" />
    <glyph glyph-name="lslash" unicode="&#x142;" horiz-adv-x="286" 
d="M56 271l-41 -25v78l41 25v365h170v-259l44 27v-78l-44 -27v-377h-170v271z" />
    <glyph glyph-name="Nacute" unicode="&#x143;" horiz-adv-x="776" 
d="M69 675h175l288 -415v415h175v-675h-175l-288 413v-413h-175v675zM299 730l60 156h194l-100 -156h-154z" />
    <glyph glyph-name="nacute" unicode="&#x144;" horiz-adv-x="621" 
d="M55 0l-3 494h111l27 -71q38 44 82 63q46 20 96 20q40 0 76 -12t64 -37q29 -26 45 -64q17 -40 17 -93v-301h-170v261q0 43 -23 63t-57 20q-49 0 -95 -38v-305h-170zM225 551l60 156h194l-100 -156h-154z" />
    <glyph glyph-name="Ncommaaccent" unicode="&#x145;" horiz-adv-x="776" 
d="M69 675h175l288 -415v415h175v-675h-175l-288 413v-413h-175v675zM390 -59h1q20 0 38 -9q19 -9 32 -24t21 -36q8 -22 8 -43q0 -56 -30 -112q-30 -55 -105 -105l-24 33q23 28 35 48q13 22 21 47q-21 2 -39 9q-19 8 -32 21t-21 32q-7 17 -7 39q0 20 8 39t21 32t32 21t41 8z
" />
    <glyph glyph-name="ncommaaccent" unicode="&#x146;" horiz-adv-x="621" 
d="M55 0l-3 494h111l27 -71q38 44 82 63q46 20 96 20q40 0 76 -12t64 -37q29 -26 45 -64q17 -40 17 -93v-301h-170v261q0 43 -23 63t-57 20q-49 0 -95 -38v-305h-170zM302 -60h1q20 0 38 -9q19 -9 32 -24t21 -36q8 -22 8 -43q0 -56 -30 -112t-105 -105l-24 33q23 28 35 48
q13 22 21 47q-21 1 -39 9q-19 8 -32 21t-21 32q-7 17 -7 39q0 20 8 39t21 32t32 21t41 8z" />
    <glyph glyph-name="Ncaron" unicode="&#x147;" horiz-adv-x="776" 
d="M69 675h175l288 -415v415h175v-675h-175l-288 413v-413h-175v675zM387 785l65 100h154l-90 -156h-256l-90 156h153z" />
    <glyph glyph-name="ncaron" unicode="&#x148;" horiz-adv-x="621" 
d="M55 0l-3 494h111l27 -71q38 44 82 63q46 20 96 20q40 0 76 -12t64 -37q29 -26 45 -64q17 -40 17 -93v-301h-170v261q0 43 -23 63t-57 20q-49 0 -95 -38v-305h-170zM327 608l65 100h154l-90 -156h-256l-90 156h153z" />
    <glyph glyph-name="napostrophe" unicode="&#x149;" horiz-adv-x="793" 
d="M48 390l1 -2q23 28 35 48q13 22 21 47q-21 0 -39 9t-32 23q-13 13 -21 32q-7 17 -7 39q0 20 8 39t21 32t32 21t41 8q20 0 38 -9q19 -9 32 -24q14 -15 21 -36q8 -22 8 -43q0 -56 -30 -112t-105 -105zM235 -2l-3 494h111l27 -71q38 44 82 63q46 20 96 20q40 0 76 -12
t64 -37q29 -26 45 -64q17 -40 17 -93v-301h-170v261q0 43 -23 63t-57 20q-49 0 -95 -38v-305h-170z" />
    <glyph glyph-name="Eng" unicode="&#x14a;" horiz-adv-x="775" 
d="M68 675l175 2l288 -415v415h175v-692q0 -59 -18 -102t-49 -73t-72 -45t-85 -15q-67 0 -130 30t-111 84l99 111q30 -27 57 -41q29 -15 56 -15q29 0 54 20q24 19 24 57v4l-288 413v-413h-175v675z" />
    <glyph glyph-name="eng" unicode="&#x14b;" 
d="M54 0l-2 493h111l27 -71q38 44 82 63q46 20 96 20q40 0 76 -12t64 -37q29 -26 45 -64q17 -40 17 -93v-308q0 -50 -17 -93t-49 -72t-81 -46q-47 -16 -109 -16v155q36 0 61 21t24 54v266q0 43 -23 63t-57 20q-49 0 -95 -38v-305h-170z" />
    <glyph glyph-name="Omacron" unicode="&#x14c;" horiz-adv-x="785" 
d="M392 -13l-2 -1q-75 0 -141 27t-114 75q-49 49 -77 111t-28 137q0 70 29 136q28 63 77 112q48 48 114 75t141 27t141 -27t114 -75q49 -49 77 -112q29 -66 29 -136q0 -74 -28 -136t-77 -111q-48 -48 -114 -75t-141 -27zM390 151q37 0 70 15q34 15 57 40q24 26 39 60t15 72
t-15 72t-39 60q-23 25 -57 40q-33 15 -70 15t-70 -15q-34 -15 -57 -40q-24 -26 -39 -60t-15 -72t15 -72t39 -60q23 -25 57 -40q33 -15 70 -15zM230 851h321v-122h-321v122z" />
    <glyph glyph-name="omacron" unicode="&#x14d;" horiz-adv-x="612" 
d="M305 -13l-3 -1q-54 0 -105 18t-90 51q-38 32 -61 81t-23 107t23 107q23 48 62 83t90 54q50 19 105 19q57 0 107 -19q51 -19 90 -54t62 -83q23 -49 23 -107q0 -57 -23 -106t-61 -81q-39 -33 -90 -51t-106 -18zM302 141h-1q21 0 42 8q19 7 34 21t23 32q8 19 8 41
q0 21 -8 42t-22 35q-15 15 -34 24q-20 9 -42 9q-43 0 -73 -31q-30 -32 -30 -78q0 -45 29 -74t74 -29zM134 692h321v-122h-321v122z" />
    <glyph glyph-name="Obreve" unicode="&#x14e;" horiz-adv-x="785" 
d="M392 -13l-2 -1q-75 0 -141 27t-114 75q-49 49 -77 111t-28 137q0 70 29 136q28 63 77 112q48 48 114 75t141 27t141 -27t114 -75q49 -49 77 -112q29 -66 29 -136q0 -74 -28 -136t-77 -111q-48 -48 -114 -75t-141 -27zM390 151q37 0 70 15q34 15 57 40q24 26 39 60t15 72
t-15 72t-39 60q-23 25 -57 40q-33 15 -70 15t-70 -15q-34 -15 -57 -40q-24 -26 -39 -60t-15 -72t15 -72t39 -60q23 -25 57 -40q33 -15 70 -15zM312 898h-1q3 -23 24 -41t54 -18q32 0 53 18q20 17 25 41h89q-8 -81 -48 -126t-117 -45q-78 0 -120 45q-41 44 -46 126h87z" />
    <glyph glyph-name="obreve" unicode="&#x14f;" horiz-adv-x="612" 
d="M305 -13l-3 -1q-54 0 -105 18t-90 51q-38 32 -61 81t-23 107t23 107q23 48 62 83t90 54q50 19 105 19q57 0 107 -19q51 -19 90 -54t62 -83q23 -49 23 -107q0 -57 -23 -106t-61 -81q-39 -33 -90 -51t-106 -18zM302 141h-1q21 0 42 8q19 7 34 21t23 32q8 19 8 41
q0 21 -8 42t-22 35q-15 15 -34 24q-20 9 -42 9q-43 0 -73 -31q-30 -32 -30 -78q0 -45 29 -74t74 -29zM222 721q3 -23 24 -41t53 -18t53 18q20 17 25 41h89q-8 -81 -48 -126t-117 -45q-78 0 -120 45q-41 44 -46 126h87z" />
    <glyph glyph-name="Ohungarumlaut" unicode="&#x150;" horiz-adv-x="785" 
d="M392 -13l-2 -1q-75 0 -141 27t-114 75q-49 49 -77 111t-28 137q0 70 29 136q28 63 77 112q48 48 114 75t141 27t141 -27t114 -75q49 -49 77 -112q29 -66 29 -136q0 -74 -28 -136t-77 -111q-48 -48 -114 -75t-141 -27zM390 151q37 0 70 15q34 15 57 40q24 26 39 60t15 72
t-15 72t-39 60q-23 25 -57 40q-33 15 -70 15t-70 -15q-34 -15 -57 -40q-24 -26 -39 -60t-15 -72t15 -72t39 -60q23 -25 57 -40q33 -15 70 -15zM415 887l-70 -156h-134l30 156h174zM625 887l-70 -156h-134l30 156h174z" />
    <glyph glyph-name="ohungarumlaut" unicode="&#x151;" horiz-adv-x="612" 
d="M305 -13l-3 -1q-54 0 -105 18t-90 51q-38 32 -61 81t-23 107t23 107q23 48 62 83t90 54q50 19 105 19q57 0 107 -19q51 -19 90 -54t62 -83q23 -49 23 -107q0 -57 -23 -106t-61 -81q-39 -33 -90 -51t-106 -18zM302 141h-1q21 0 42 8q19 7 34 21t23 32q8 19 8 41
q0 21 -8 42t-22 35q-15 15 -34 24q-20 9 -42 9q-43 0 -73 -31q-30 -32 -30 -78q0 -45 29 -74t74 -29zM323 707l-70 -156h-134l30 156h174zM533 707l-70 -156h-134l30 156h174z" />
    <glyph glyph-name="OE" unicode="&#x152;" horiz-adv-x="1048" 
d="M363 0v-3q-68 0 -128 27t-105 72q-46 45 -71 107q-26 63 -26 132t26 132q25 61 71 108q44 46 105 73q60 27 128 27h635v-160h-321v-99h301v-160h-301v-96h324v-160h-638zM214 334l1 1q0 -37 14 -71q13 -32 36 -58q21 -24 53 -40q30 -15 65 -15h119v370h-109
q-37 0 -70 -15q-34 -15 -57 -40q-25 -26 -38 -60q-14 -36 -14 -72z" />
    <glyph glyph-name="oe" unicode="&#x153;" horiz-adv-x="959" 
d="M913 83l-4 -1q-40 -47 -99 -71q-60 -24 -124 -24q-54 0 -104 18q-48 18 -87 50q-36 -31 -87 -49q-50 -18 -105 -18q-54 0 -105 18t-90 51q-38 32 -61 81t-23 107t23 107q23 48 62 83t90 54q50 19 105 19q54 0 104 -18t87 -51q38 33 85 51q48 18 99 18q54 0 99 -19
q48 -20 83 -55q36 -36 57 -89t21 -120h-350q9 -43 41 -63t77 -20q25 0 51 9q25 9 45 29zM301 141h-1q21 0 42 8q19 7 34 21t23 32q8 19 8 41q0 21 -8 42t-22 35q-15 15 -34 24t-42 9q-43 0 -73 -31q-30 -32 -30 -78q0 -45 29 -74t74 -29zM669 372h-1q-38 0 -57 -25t-27 -57
l167 7q-21 75 -82 75z" />
    <glyph glyph-name="Racute" unicode="&#x154;" horiz-adv-x="709" 
d="M69 0l1 673h370q52 0 90 -19q39 -20 66 -51t42 -72t15 -82q0 -53 -23 -108q-23 -54 -62 -92l126 -249h-188l-98 194h-164v-194h-175zM245 513l-2 -162h165q14 0 27 8q11 7 21 20q8 11 13 27q4 13 4 30q0 29 -15 53t-47 24h-166zM253 726l60 156h194l-100 -156h-154z" />
    <glyph glyph-name="racute" unicode="&#x155;" horiz-adv-x="393" 
d="M378 344h-1q-52 0 -90 -20q-37 -19 -64 -51v-273h-170v495h122l41 -88q35 47 75 74q41 27 87 27v-164zM127 552l60 156h194l-100 -156h-154z" />
    <glyph glyph-name="Rcommaaccent" unicode="&#x156;" horiz-adv-x="709" 
d="M69 0l1 673h370q52 0 90 -19q39 -20 66 -51t42 -72t15 -82q0 -53 -23 -108q-23 -54 -62 -92l126 -249h-188l-98 194h-164v-194h-175zM245 513l-2 -162h165q14 0 27 8q11 7 21 20q8 11 13 27q4 13 4 30q0 29 -15 53t-47 24h-166zM367 -63h1q20 0 38 -9q19 -9 32 -24
q14 -15 21 -36q8 -22 8 -43q0 -56 -30 -112q-30 -55 -105 -105l-24 33q23 28 35 48q13 22 21 47q-21 2 -39 9q-19 8 -32 21t-21 32q-7 17 -7 39q0 20 8 39t21 32t32 21t41 8z" />
    <glyph glyph-name="rcommaaccent" unicode="&#x157;" horiz-adv-x="393" 
d="M378 344h-1q-52 0 -90 -20q-37 -19 -64 -51v-273h-170v495h122l41 -88q35 47 75 74q41 27 87 27v-164zM138 -59h1q20 0 38 -9q19 -9 32 -24t21 -36q8 -22 8 -43q0 -56 -30 -112q-30 -55 -105 -105l-24 33q23 28 35 48q13 22 21 47q-21 2 -39 9q-19 8 -32 21t-21 32
q-7 17 -7 39q0 20 8 39t21 32t32 21t41 8z" />
    <glyph glyph-name="Rcaron" unicode="&#x158;" horiz-adv-x="709" 
d="M69 0l1 673h370q52 0 90 -19q39 -20 66 -51t42 -72t15 -82q0 -53 -23 -108q-23 -54 -62 -92l126 -249h-188l-98 194h-164v-194h-175zM245 513l-2 -162h165q14 0 27 8q11 7 21 20q8 11 13 27q4 13 4 30q0 29 -15 53t-47 24h-166zM339 781l65 100h154l-90 -156h-256
l-90 156h153z" />
    <glyph glyph-name="rcaron" unicode="&#x159;" horiz-adv-x="393" 
d="M378 344h-1q-52 0 -90 -20q-37 -19 -64 -51v-273h-170v495h122l41 -88q35 47 75 74q41 27 87 27v-164zM220 609l65 100h154l-90 -156h-256l-90 156h153z" />
    <glyph glyph-name="Sacute" unicode="&#x15a;" horiz-adv-x="632" 
d="M96 223l-4 -3q69 -35 131 -53q63 -18 121 -18q26 0 46 11q19 10 19 32t-18 36t-63 24q-88 22 -144 51t-87 60t-42 63q-11 33 -11 62q0 40 15 76q15 35 47 63q31 26 76 43q44 16 104 16q30 0 62 -4q41 -5 75 -13q42 -10 81 -25q42 -16 81 -42l-65 -142q-25 13 -56 24
q-30 10 -60 18q-31 8 -58 12q-32 5 -51 5q-26 0 -41 -9t-15 -25q0 -10 4 -18t15 -16t28 -15q19 -8 46 -15q81 -24 132 -48t81 -51t41 -59q11 -33 11 -69q0 -48 -18 -87q-18 -40 -52 -66q-36 -28 -81 -41q-48 -14 -104 -14q-34 0 -75 6q-39 6 -82 18q-41 12 -82 30t-78 42z
M219 727l60 156h194l-100 -156h-154z" />
    <glyph glyph-name="sacute" unicode="&#x15b;" horiz-adv-x="540" 
d="M71 188l-2 -8q68 -32 119 -44q52 -12 104 -12q16 0 24 5t8 11q0 13 -31 19q-76 17 -122 36t-74 41q-26 20 -37 45q-11 24 -12 49q-2 36 12 68q13 31 42 55q27 23 71 37q40 13 98 13q25 0 56 -3q30 -3 64 -9q33 -6 63 -15q29 -9 53 -23l-55 -129q-22 9 -46 15
q-17 4 -49 10q-24 5 -45 6q-28 2 -35 2q-21 0 -36 -3t-15 -11q0 -7 6 -12q6 -4 23 -9q69 -15 117 -30q47 -15 78 -35t44 -46q14 -27 15 -63q0 -37 -16 -66q-17 -31 -46 -51q-30 -21 -72 -33t-96 -12q-23 0 -56 3q-29 3 -69 11q-36 8 -72 21t-65 35zM192 544l60 156h194
l-100 -156h-154z" />
    <glyph glyph-name="Scircumflex" unicode="&#x15c;" horiz-adv-x="632" 
d="M96 223l-4 -3q69 -35 131 -53q63 -18 121 -18q26 0 46 11q19 10 19 32t-18 36t-63 24q-88 22 -144 51t-87 60t-42 63q-11 33 -11 62q0 40 15 76q15 35 47 63q31 26 76 43q44 16 104 16q30 0 62 -4q41 -5 75 -13q42 -10 81 -25q42 -16 81 -42l-65 -142q-25 13 -56 24
q-30 10 -60 18q-31 8 -58 12q-32 5 -51 5q-26 0 -41 -9t-15 -25q0 -10 4 -18t15 -16t28 -15q19 -8 46 -15q81 -24 132 -48t81 -51t41 -59q11 -33 11 -69q0 -48 -18 -87q-18 -40 -52 -66q-36 -28 -81 -41q-48 -14 -104 -14q-34 0 -75 6q-39 6 -82 18q-41 12 -82 30t-78 42z
M96 727l100 156h236l100 -156h-154l-65 99l-64 -99h-153z" />
    <glyph glyph-name="scircumflex" unicode="&#x15d;" horiz-adv-x="540" 
d="M71 188l-2 -8q68 -32 119 -44q52 -12 104 -12q16 0 24 5t8 11q0 13 -31 19q-76 17 -122 36t-74 41q-26 20 -37 45q-11 24 -12 49q-2 36 12 68q13 31 42 55q27 23 71 37q40 13 98 13q25 0 56 -3q30 -3 64 -9q33 -6 63 -15q29 -9 53 -23l-55 -129q-22 9 -46 15
q-17 4 -49 10q-24 5 -45 6q-28 2 -35 2q-21 0 -36 -3t-15 -11q0 -7 6 -12q6 -4 23 -9q69 -15 117 -30q47 -15 78 -35t44 -46q14 -27 15 -63q0 -37 -16 -66q-17 -31 -46 -51q-30 -21 -72 -33t-96 -12q-23 0 -56 3q-29 3 -69 11q-36 8 -72 21t-65 35zM60 544l90 156h256
l90 -156h-154l-65 99l-64 -99h-153z" />
    <glyph glyph-name="Scedilla" unicode="&#x15e;" horiz-adv-x="632" 
d="M96 223l-4 -3q69 -35 131 -53q63 -18 121 -18q26 0 46 11q19 10 19 32t-18 36t-63 24q-88 22 -144 51t-87 60t-42 63q-11 33 -11 62q0 40 15 76q15 35 47 63q31 26 76 43q44 16 104 16q30 0 62 -4q41 -5 75 -13q42 -10 81 -25q42 -16 81 -42l-65 -142q-25 13 -56 24
q-30 10 -60 18q-31 8 -58 12q-32 5 -51 5q-26 0 -41 -9t-15 -25q0 -10 4 -18t15 -16t28 -15q19 -8 46 -15q81 -24 132 -48t81 -51t41 -59q11 -33 11 -69q0 -48 -18 -87q-18 -40 -52 -66q-36 -28 -81 -41q-48 -14 -104 -14q-34 0 -75 6q-39 6 -82 18q-41 12 -82 30t-78 42z
M318 -62h1q20 0 38 -9q19 -9 32 -24t21 -36q8 -22 8 -43q0 -57 -30 -112q-30 -56 -105 -105l-24 33q23 28 35 48q13 22 21 47q-21 1 -39 9q-19 8 -32 21t-21 32q-7 17 -7 39q0 20 8 39t21 32t32 21t41 8z" />
    <glyph glyph-name="scedilla" unicode="&#x15f;" horiz-adv-x="540" 
d="M71 188l-2 -8q68 -32 119 -44q52 -12 104 -12q16 0 24 5t8 11q0 13 -31 19q-76 17 -122 36t-74 41q-26 20 -37 45q-11 24 -12 49q-2 36 12 68q13 31 42 55q27 23 71 37q40 13 98 13q25 0 56 -3q30 -3 64 -9q33 -6 63 -15q29 -9 53 -23l-55 -129q-22 9 -46 15
q-17 4 -49 10q-24 5 -45 6q-28 2 -35 2q-21 0 -36 -3t-15 -11q0 -7 6 -12q6 -4 23 -9q69 -15 117 -30q47 -15 78 -35t44 -46q14 -27 15 -63q0 -37 -16 -66q-17 -31 -46 -51q-30 -21 -72 -33t-96 -12q-23 0 -56 3q-29 3 -69 11q-36 8 -72 21t-65 35zM257 -67h1q20 0 38 -9
q19 -9 32 -24q14 -15 21 -36q8 -22 8 -43q0 -57 -30 -112t-105 -105l-24 33q23 28 35 48q13 22 21 47q-21 2 -39 9q-19 8 -32 21t-21 32q-7 17 -7 39q0 20 8 39t21 32t32 21t41 8z" />
    <glyph glyph-name="Scaron" unicode="&#x160;" horiz-adv-x="632" 
d="M96 223l-4 -3q69 -35 131 -53q63 -18 121 -18q26 0 46 11q19 10 19 32t-18 36t-63 24q-88 22 -144 51t-87 60t-42 63q-11 33 -11 62q0 40 15 76q15 35 47 63q31 26 76 43q44 16 104 16q30 0 62 -4q41 -5 75 -13q42 -10 81 -25q42 -16 81 -42l-65 -142q-25 13 -56 24
q-30 10 -60 18q-31 8 -58 12q-32 5 -51 5q-26 0 -41 -9t-15 -25q0 -10 4 -18t15 -16t28 -15q19 -8 46 -15q81 -24 132 -48t81 -51t41 -59q11 -33 11 -69q0 -48 -18 -87q-18 -40 -52 -66q-36 -28 -81 -41q-48 -14 -104 -14q-34 0 -75 6q-39 6 -82 18q-41 12 -82 30t-78 42z
M302 782l65 100h154l-90 -156h-256l-90 156h153z" />
    <glyph glyph-name="scaron" unicode="&#x161;" horiz-adv-x="540" 
d="M71 188l-2 -8q68 -32 119 -44q52 -12 104 -12q16 0 24 5t8 11q0 13 -31 19q-76 17 -122 36t-74 41q-26 20 -37 45q-11 24 -12 49q-2 36 12 68q13 31 42 55q27 23 71 37q40 13 98 13q25 0 56 -3q30 -3 64 -9q33 -6 63 -15q29 -9 53 -23l-55 -129q-22 9 -46 15
q-17 4 -49 10q-24 5 -45 6q-28 2 -35 2q-21 0 -36 -3t-15 -11q0 -7 6 -12q6 -4 23 -9q69 -15 117 -30q47 -15 78 -35t44 -46q14 -27 15 -63q0 -37 -16 -66q-17 -31 -46 -51q-30 -21 -72 -33t-96 -12q-23 0 -56 3q-29 3 -69 11q-36 8 -72 21t-65 35zM272 601l65 100h154
l-90 -156h-256l-90 156h153z" />
    <glyph glyph-name="Tcedilla" unicode="&#x162;" 
d="M19 675h582v-160h-203v-515h-175v515h-204v160zM312 -60h1q20 0 38 -9q19 -9 32 -24t21 -36q8 -22 8 -43q0 -56 -30 -112t-105 -105l-24 33q23 28 35 48q13 22 21 47q-21 1 -39 9q-19 8 -32 21t-21 32q-7 17 -7 39q0 20 8 39t21 32t32 21t41 8z" />
    <glyph glyph-name="tcedilla" unicode="&#x163;" horiz-adv-x="389" 
d="M31 495l52 -1v117l170 50v-167h97v-130l-15 -15h-82v-123q0 -18 8 -34q7 -15 21 -27t33 -18t42 -6v-155q-64 0 -117 17q-50 16 -87 47q-36 30 -54 72t-18 93v135h-50v145zM237 -60h1q20 0 38 -9q19 -9 32 -24q14 -15 21 -36q8 -22 8 -43q0 -56 -30 -112t-105 -105l-24 33
q23 28 35 48q13 22 21 47q-21 1 -39 9q-19 8 -32 21t-21 32q-7 17 -7 39q0 20 8 39t21 32t32 21t41 8z" />
    <glyph glyph-name="Tcaron" unicode="&#x164;" 
d="M19 675h582v-160h-203v-515h-175v515h-204v160zM309 785l65 100h154l-90 -156h-256l-90 156h153z" />
    <glyph glyph-name="tcaron" unicode="&#x165;" horiz-adv-x="520" 
d="M31 495l52 -1v117l170 50v-167h97v-130l-15 -15h-82v-123q0 -18 8 -34q7 -15 21 -27t33 -18t42 -6v-155q-64 0 -117 17q-50 16 -87 47q-36 30 -54 72t-18 93v135h-50v145zM397 389l1 -2q23 28 35 48q13 22 21 47q-21 0 -39 9t-32 23q-13 13 -21 32q-7 17 -7 39q0 20 8 39
t21 32t32 21t41 8q20 0 38 -9q19 -9 32 -24t21 -36q8 -22 8 -43q0 -57 -30 -112t-105 -105z" />
    <glyph glyph-name="Tbar" unicode="&#x166;" horiz-adv-x="632" 
d="M25 675h582v-160h-203v-108h145v-100h-145v-307h-175v307h-145v100h145v108h-204v160z" />
    <glyph glyph-name="tbar" unicode="&#x167;" horiz-adv-x="389" 
d="M31 495l48 -2v117l170 50v-167h97v-130l-15 -15h-82v-38h97v-100h-96q4 -31 35 -51q29 -19 70 -19v-155q-68 0 -117 16q-53 17 -86 46q-35 31 -53 72q-18 42 -18 93h-50v100h50v38h-50v145z" />
    <glyph glyph-name="Utilde" unicode="&#x168;" horiz-adv-x="737" 
d="M235 675l-2 -373q0 -36 11 -66q11 -29 30 -47q20 -18 45 -27t54 -9q57 0 93 36t36 113v373h175v-389q0 -74 -21 -129q-21 -56 -61 -93q-41 -38 -96 -57q-54 -19 -124 -19t-126 19q-57 19 -99 57t-66 93t-24 129v389h175zM175 742l1 -2q2 76 33 114q31 37 78 37
q25 0 47 -6q30 -8 44 -13t44 -13q22 -6 45 -6q13 0 24 6q10 6 12 23h55q0 -74 -29 -115q-28 -40 -77 -40q-24 0 -47 6q-30 8 -46 13t-46 13q-23 6 -45 6q-14 0 -24 -6t-12 -17h-57z" />
    <glyph glyph-name="utilde" unicode="&#x169;" horiz-adv-x="619" 
d="M564 495l1 -497h-111l-27 70q-37 -44 -84 -63q-45 -19 -93 -19q-38 0 -75 14q-35 13 -64 42q-29 28 -45 72q-17 45 -17 104v277h170v-249q0 -48 24 -71q25 -23 62 -23q46 0 89 37v306h170zM118 564l4 -2q1 76 35 114q33 37 77 37q18 0 40 -6q30 -8 45 -13t47 -13
q24 -6 46 -6q14 0 24 6t12 23h55q0 -74 -27 -115q-27 -40 -79 -40q-21 0 -46 6q-34 8 -51 13t-49 13q-24 6 -43 6q-28 0 -33 -23h-57z" />
    <glyph glyph-name="Umacron" unicode="&#x16a;" horiz-adv-x="738" 
d="M235 675l-2 -373q0 -36 11 -66q11 -29 30 -47q20 -18 45 -27t54 -9q57 0 93 36t36 113v373h175v-389q0 -74 -21 -129q-21 -56 -61 -93q-41 -38 -96 -57q-54 -19 -124 -19t-126 19q-57 19 -99 57t-66 93t-24 129v389h175zM206 852h321v-122h-321v122z" />
    <glyph glyph-name="umacron" unicode="&#x16b;" horiz-adv-x="619" 
d="M564 495l1 -497h-111l-27 70q-37 -44 -84 -63q-45 -19 -93 -19q-38 0 -75 14q-35 13 -64 42q-29 28 -45 72q-17 45 -17 104v277h170v-249q0 -48 24 -71q25 -23 62 -23q46 0 89 37v306h170zM152 691h321v-122h-321v122z" />
    <glyph glyph-name="Ubreve" unicode="&#x16c;" horiz-adv-x="738" 
d="M235 675l-2 -373q0 -36 11 -66q11 -29 30 -47q20 -18 45 -27t54 -9q57 0 93 36t36 113v373h175v-389q0 -74 -21 -129q-21 -56 -61 -93q-41 -38 -96 -57q-54 -19 -124 -19t-126 19q-57 19 -99 57t-66 93t-24 129v389h175zM288 899h-1q3 -23 24 -41t54 -18q32 0 53 18
q20 17 25 41h89q-8 -81 -48 -126t-117 -45q-78 0 -120 45q-41 44 -46 126h87z" />
    <glyph glyph-name="ubreve" unicode="&#x16d;" horiz-adv-x="619" 
d="M564 495l1 -497h-111l-27 70q-37 -44 -84 -63q-45 -19 -93 -19q-38 0 -75 14q-35 13 -64 42q-29 28 -45 72q-17 45 -17 104v277h170v-249q0 -48 24 -71q25 -23 62 -23q46 0 89 37v306h170zM232 720q3 -23 24 -41t53 -18t53 18q20 17 25 41h89q-8 -81 -48 -126t-117 -45
q-78 0 -120 45q-41 44 -46 126h87z" />
    <glyph glyph-name="Uring" unicode="&#x16e;" horiz-adv-x="738" 
d="M235 675l-2 -373q0 -36 11 -66q11 -29 30 -47q20 -18 45 -27t54 -9q57 0 93 36t36 113v373h175v-389q0 -74 -21 -129q-21 -56 -61 -93q-41 -38 -96 -57q-54 -19 -124 -19t-126 19q-57 19 -99 57t-66 93t-24 129v389h175zM225 866l-2 -1q0 27 11 52q10 23 29 42
q17 17 45 28q26 10 59 10t57 -10q27 -11 44 -28q19 -19 29 -42q11 -25 11 -52q0 -30 -10 -53t-29 -42q-17 -17 -44 -28q-24 -10 -57 -10q-71 0 -107 38t-36 96zM367 815v-1q19 0 33 13q15 13 15 36q0 22 -15 34t-33 12q-21 0 -36 -12t-15 -33q0 -25 15 -37t36 -12z" />
    <glyph glyph-name="uring" unicode="&#x16f;" horiz-adv-x="619" 
d="M564 495l1 -497h-111l-27 70q-37 -44 -84 -63q-45 -19 -93 -19q-38 0 -75 14q-35 13 -64 42q-29 28 -45 72q-17 45 -17 104v277h170v-249q0 -48 24 -71q25 -23 62 -23q46 0 89 37v306h170zM174 684l-2 -1q0 27 11 52q10 23 29 42q17 17 45 28q26 10 59 10t57 -10
q27 -11 44 -28q19 -19 29 -42q11 -25 11 -52q0 -30 -10 -53t-29 -42q-17 -17 -44 -28q-24 -10 -57 -10q-71 0 -107 38t-36 96zM316 633v-1q19 0 33 13q15 13 15 36q0 22 -15 34t-33 12q-21 0 -36 -12t-15 -33q0 -25 15 -37t36 -12z" />
    <glyph glyph-name="Uhungarumlaut" unicode="&#x170;" horiz-adv-x="738" 
d="M235 675l-2 -373q0 -36 11 -66q11 -29 30 -47q20 -18 45 -27t54 -9q57 0 93 36t36 113v373h175v-389q0 -74 -21 -129q-21 -56 -61 -93q-41 -38 -96 -57q-54 -19 -124 -19t-126 19q-57 19 -99 57t-66 93t-24 129v389h175zM392 888l-70 -156h-134l30 156h174zM602 888
l-70 -156h-134l30 156h174z" />
    <glyph glyph-name="uhungarumlaut" unicode="&#x171;" horiz-adv-x="619" 
d="M564 495l1 -497h-111l-27 70q-37 -44 -84 -63q-45 -19 -93 -19q-38 0 -75 14q-35 13 -64 42q-29 28 -45 72q-17 45 -17 104v277h170v-249q0 -48 24 -71q25 -23 62 -23q46 0 89 37v306h170zM332 706l-70 -156h-134l30 156h174zM542 706l-70 -156h-134l30 156h174z" />
    <glyph glyph-name="Uogonek" unicode="&#x172;" horiz-adv-x="738" 
d="M506 -161l-4 1q-18 -14 -49 -24q-33 -11 -66 -11q-26 0 -50 6q-23 6 -42 20q-18 14 -29 32q-11 19 -11 41q0 26 13 48q14 22 36 42q-55 7 -100 30q-45 22 -78 60t-51 88q-18 51 -18 115v389h175v-373q0 -36 11 -66q11 -29 30 -47t45 -27t54 -9q57 0 93 36t36 113v373h175
v-389q0 -125 -58 -198t-159 -93q-48 -13 -67 -32q-18 -18 -18 -41q0 -13 10 -22t25 -9q42 0 69 27z" />
    <glyph glyph-name="uogonek" unicode="&#x173;" horiz-adv-x="619" 
d="M594 -161l-1 -4q-18 -14 -49 -24q-33 -11 -66 -11q-26 0 -50 6q-23 6 -42 20q-18 14 -29 32q-11 19 -11 41q0 37 27 69t70 54l-17 45q-38 -43 -84 -63q-45 -19 -93 -19q-38 0 -75 14q-35 13 -64 42q-28 29 -45 72q-17 45 -17 104v277h170v-249q0 -49 24 -71
q25 -23 62 -23q46 0 89 37v306h170v-495q-59 -15 -80 -33t-21 -43q0 -13 10 -22t25 -9q42 0 69 27z" />
    <glyph glyph-name="Wcircumflex" unicode="&#x174;" horiz-adv-x="1010" 
d="M703 242l110 433h187l-198 -675h-184l-113 446l-112 -446h-184l-201 675h188l114 -429l111 429h167zM286 730l100 156h236l100 -156h-154l-65 99l-64 -99h-153z" />
    <glyph glyph-name="wcircumflex" unicode="&#x175;" horiz-adv-x="850" 
d="M492 495l88 -267l87 267h186l-211 -495h-125l-92 304l-92 -304h-125l-211 495h186l88 -267l87 267h134zM206 552l90 156h256l90 -156h-154l-65 99l-64 -99h-153z" />
    <glyph glyph-name="Ycircumflex" unicode="&#x176;" horiz-adv-x="713" 
d="M444 223v-223h-175v223l-276 452h201l164 -302l168 302h193zM138 730l100 156h236l100 -156h-154l-65 99l-64 -99h-153z" />
    <glyph glyph-name="ycircumflex" unicode="&#x177;" horiz-adv-x="556" 
d="M375 86h-1q-66 -158 -147 -240t-191 -82v155q19 0 45 8q23 7 46 24q24 17 42 40q20 25 33 55l-201 449h186l93 -264l97 264h186zM59 552l90 156h256l90 -156h-154l-65 99l-64 -99h-153z" />
    <glyph glyph-name="Ydieresis" unicode="&#x178;" horiz-adv-x="713" 
d="M444 223v-223h-175v223l-276 452h201l164 -302l168 302h193zM479 729l-1 -1q-21 0 -40 8t-32 21q-14 13 -21 33q-8 21 -8 40q0 20 8 39t21 32t32 21t41 8q19 0 38 -8t32 -21q14 -14 21 -31q8 -19 8 -39q0 -19 -8 -40q-8 -19 -21 -33q-13 -13 -32 -21t-38 -8zM235 728
l-1 -1q-21 0 -40 8t-32 21q-14 14 -21 33q-8 21 -8 40q0 20 8 39t21 32t32 21t41 8q19 0 38 -8t32 -21q14 -14 21 -31q8 -19 8 -39q0 -19 -8 -40q-8 -20 -21 -33t-32 -21t-38 -8z" />
    <glyph glyph-name="Zacute" unicode="&#x179;" horiz-adv-x="621" 
d="M49 675h522v-118l-310 -397h326v-160h-553v119l302 396h-287v160zM222 730l60 156h194l-100 -156h-154z" />
    <glyph glyph-name="zacute" unicode="&#x17a;" horiz-adv-x="521" 
d="M257 143h227v-143h-449v143l217 209h-200v143h423v-143zM181 552l60 156h194l-100 -156h-154z" />
    <glyph glyph-name="Zdotaccent" unicode="&#x17b;" horiz-adv-x="621" 
d="M49 675h522v-118l-310 -397h326v-160h-553v119l302 396h-287v160zM315 729l-1 -1q-21 0 -40 8t-32 21q-14 13 -21 33q-8 21 -8 40q0 20 8 39t21 32t32 21t41 8q19 0 38 -8t32 -21q14 -14 21 -31q8 -19 8 -39q0 -19 -8 -40q-8 -19 -21 -33q-13 -13 -32 -21t-38 -8z" />
    <glyph glyph-name="zdotaccent" unicode="&#x17c;" horiz-adv-x="521" 
d="M257 143h227v-143h-449v143l217 209h-200v143h423v-143zM269 552l-1 -1q-21 0 -40 8t-32 21q-14 14 -21 33q-8 21 -8 40q0 20 8 39t21 32t32 21t41 8q19 0 38 -8t32 -21q14 -14 21 -31q8 -19 8 -39q0 -19 -8 -40q-8 -20 -21 -33t-32 -21t-38 -8z" />
    <glyph glyph-name="Zcaron" unicode="&#x17d;" horiz-adv-x="621" 
d="M49 675h522v-118l-310 -397h326v-160h-553v119l302 396h-287v160zM311 785l65 100h154l-90 -156h-256l-90 156h153z" />
    <glyph glyph-name="zcaron" unicode="&#x17e;" horiz-adv-x="521" 
d="M257 143h227v-143h-449v143l217 209h-200v143h423v-143zM268 609l65 100h154l-90 -156h-256l-90 156h153z" />
    <glyph glyph-name="longs" unicode="&#x17f;" horiz-adv-x="319" 
d="M74 352l-35 -2v143h36v25q0 57 16 93q17 37 48 60q32 23 80 32t112 9l-17 -143q-24 0 -36 -4q-15 -5 -21 -10q-7 -5 -10 -15q-3 -9 -3 -20v-520h-170v352z" />
    <glyph glyph-name="Schwa" unicode="&#x18f;" horiz-adv-x="767" 
d="M547 391v-5q-10 31 -25 53q-16 24 -39 42q-21 17 -51 28q-27 10 -58 10q-35 0 -68 -14q-32 -13 -57 -39l-122 122q49 46 111 71q64 26 135 26q75 0 141 -27t114 -75q49 -49 77 -112q29 -66 29 -136q0 -74 -28 -136t-77 -111q-48 -48 -114 -75t-141 -27q-74 0 -142 28
q-69 28 -120 81q-51 52 -78 128q-27 74 -16 168h529zM374 147l-3 -2q33 0 63 12q29 12 54 32q22 18 40 47q16 26 22 59h-353q8 -39 25 -66q17 -28 42 -46q24 -18 53 -27t57 -9z" />
    <glyph glyph-name="florin" unicode="&#x192;" horiz-adv-x="355" 
d="M247 520v-28h77v-41l-10 -102h-67v-393q0 -57 -16 -93q-17 -37 -48 -60q-32 -23 -80 -32t-112 -9l17 143q44 0 57 15q13 14 13 37v393h-36v143h36v25q0 57 16 93q16 37 48 60t80 32t112 9l-17 -143q-24 0 -36 -4q-15 -5 -21 -10q-7 -5 -10 -15q-3 -9 -3 -20z" />
    <glyph glyph-name="DZcaron" unicode="&#x1c4;" horiz-adv-x="1357" 
d="M69 675l315 3q69 0 129 -27t105 -72t71 -107q26 -63 26 -132t-26 -132q-26 -62 -70 -108t-105 -73q-60 -27 -129 -27h-316v675zM243 518v-356h141q30 0 58 14q26 13 48 38q21 24 33 57t12 69t-12 69t-33 57q-22 25 -48 38q-28 14 -58 14h-141zM784 677h522v-118
l-310 -397h326v-160h-553v119l302 396h-287v160zM1046 787l65 100h154l-90 -156h-256l-90 156h153z" />
    <glyph glyph-name="Dzcaron" unicode="&#x1c5;" horiz-adv-x="1267" 
d="M69 675l315 3q69 0 129 -27t105 -72t71 -107q26 -63 26 -132t-26 -132q-26 -62 -70 -108t-105 -73q-60 -27 -129 -27h-316v675zM243 518v-356h141q30 0 58 14q26 13 48 38q21 24 33 57t12 69t-12 69t-33 57q-22 25 -48 38q-28 14 -58 14h-141zM999 145h227v-143h-449v143
l217 209h-200v143h423v-143zM1010 611l65 100h154l-90 -156h-256l-90 156h153z" />
    <glyph glyph-name="dzcaron" unicode="&#x1c6;" horiz-adv-x="1145" 
d="M455 43l1 3q-36 -27 -76 -41q-42 -15 -91 -15q-55 0 -102 19q-48 19 -84 54q-36 34 -57 83q-21 48 -21 107q0 58 21 106q21 47 56 81q34 33 81 51t99 18q34 0 66 -12q33 -13 60 -31l-9 97v151h170v-714h-94zM309 145h-2q44 0 74 31q30 32 30 78t-30 74q-31 29 -73 29
q-24 0 -42 -7q-19 -7 -34 -21q-14 -13 -22 -33q-8 -21 -8 -42t8 -42q7 -18 23 -34q15 -15 34 -24t42 -9zM880 146h227v-143h-449v143l217 209h-200v143h423v-143zM891 612l65 100h154l-90 -156h-256l-90 156h153z" />
    <glyph glyph-name="LJ" unicode="&#x1c7;" horiz-adv-x="1138" 
d="M69 675h175v-515h307v-160h-482v675zM850 -13l-3 -2q-34 0 -74 8q-35 7 -75 23q-36 14 -70 36q-33 21 -60 48l99 111q36 -23 70 -39q37 -17 71 -17q16 0 33 6t29 18q13 13 20 30q8 19 8 44v422h175v-435q0 -71 -18 -119t-48 -78q-29 -29 -71 -43q-39 -13 -86 -13z" />
    <glyph glyph-name="Lj" unicode="&#x1c8;" horiz-adv-x="851" 
d="M69 675h175v-515h307v-160h-482v675zM713 554l-1 -1q-21 0 -40 8t-32 21q-14 14 -21 33q-8 21 -8 40q0 20 8 39t21 32t32 21t41 8q19 0 38 -8t32 -21q14 -14 21 -31q8 -19 8 -39q0 -19 -8 -40q-8 -20 -21 -33t-32 -21t-38 -8zM795 -8l1 -1q0 -50 -17 -93t-49 -72t-81 -46
q-47 -16 -109 -16v155q36 0 61 21t24 54v500h170v-502z" />
    <glyph glyph-name="lj" unicode="&#x1c9;" horiz-adv-x="560" 
d="M55 714h170v-714h-170v714zM422 554l-1 -1q-21 0 -40 8t-32 21q-13 14 -21 33q-8 21 -8 40q0 20 8 39t21 32t32 21t41 8q19 0 38 -8t32 -21q14 -14 21 -31q8 -19 8 -39q0 -19 -8 -40q-7 -20 -21 -33q-13 -13 -32 -21t-38 -8zM504 -8l1 -1q0 -50 -17 -93t-49 -72t-81 -46
q-47 -16 -109 -16v155q35 0 61 21t24 54v500h170v-502z" />
    <glyph glyph-name="NJ" unicode="&#x1ca;" horiz-adv-x="1343" 
d="M69 675h175l288 -415v415h175v-675h-175l-288 413v-413h-175v675zM1055 -13l-3 -2q-34 0 -74 8q-35 7 -75 23q-36 14 -70 36q-33 21 -60 48l99 111q36 -23 70 -39q37 -17 71 -17q17 0 33 6q17 6 29 18q13 13 20 30q8 19 8 44v422h175v-435q0 -71 -18 -119t-48 -78
q-29 -29 -71 -43q-39 -13 -86 -13z" />
    <glyph glyph-name="Nj" unicode="&#x1cb;" horiz-adv-x="1056" 
d="M69 675h175l288 -415v415h175v-675h-175l-288 413v-413h-175v675zM918 554l-1 -1q-21 0 -40 8t-32 21q-13 14 -21 33q-8 21 -8 40q0 20 8 39t21 32t32 21t41 8q19 0 38 -8t32 -21q14 -14 21 -31q8 -19 8 -39q0 -19 -8 -40q-7 -20 -21 -33q-13 -13 -32 -21t-38 -8z
M1000 -8l1 -1q0 -50 -17 -93t-49 -72t-81 -46q-47 -16 -109 -16v155q35 0 61 21t24 54v500h170v-502z" />
    <glyph glyph-name="nj" unicode="&#x1cc;" horiz-adv-x="901" 
d="M55 0l-3 494h111l27 -71q38 44 82 63q46 20 96 20q40 0 76 -12t64 -37q29 -26 45 -64q17 -40 17 -93v-301h-170v261q0 43 -23 63t-57 20q-49 0 -95 -38v-305h-170zM760 553l-1 -1q-21 0 -40 8t-32 21t-21 33q-8 21 -8 40q0 20 8 39t21 32t32 21t41 8q19 0 38 -8t32 -21
q14 -14 21 -31q8 -19 8 -39q0 -19 -8 -40q-7 -19 -21 -33q-13 -13 -32 -21t-38 -8zM842 -9l1 -1q0 -50 -17 -93t-49 -72t-81 -46q-47 -16 -109 -16v155q35 0 61 21t24 54v500h170v-502z" />
    <glyph glyph-name="Acaron" unicode="&#x1cd;" horiz-adv-x="718" 
d="M267 675h184l271 -675h-183l-42 114h-277l-41 -114h-183zM279 274h160l-80 218zM355 785l65 100h154l-90 -156h-256l-90 156h153z" />
    <glyph glyph-name="acaron" unicode="&#x1ce;" horiz-adv-x="575" 
d="M355 304q0 30 -31 45q-32 15 -87 15q-37 0 -79 -6q-39 -6 -83 -17l-30 132q47 14 103 25q50 10 111 10q130 0 198 -50t68 -138v-319h-100l-32 53q-46 -37 -91 -52t-97 -15q-92 0 -136 37q-45 38 -45 103q0 72 48 107q48 34 135 42l148 13v15zM247 97l-1 -1q32 0 57 12
q24 11 51 32v62l-96 -15q-26 -5 -41 -13q-17 -9 -17 -35q0 -18 12 -30t35 -12zM287 608l65 100h154l-90 -156h-256l-90 156h153z" />
    <glyph glyph-name="Icaron" unicode="&#x1cf;" horiz-adv-x="313" 
d="M69 675h175v-675h-175v675zM156 785l65 100h154l-90 -156h-256l-90 156h153z" />
    <glyph glyph-name="icaron" unicode="&#x1d0;" horiz-adv-x="280" 
d="M55 495h170v-495h-170v495zM140 609l65 100h154l-90 -156h-256l-90 156h153z" />
    <glyph glyph-name="Ocaron" unicode="&#x1d1;" horiz-adv-x="785" 
d="M392 -13l-2 -1q-75 0 -141 27t-114 75q-49 49 -77 111t-28 137q0 70 29 136q28 63 77 112q48 48 114 75t141 27t141 -27t114 -75q49 -49 77 -112q29 -66 29 -136q0 -74 -28 -136t-77 -111q-48 -48 -114 -75t-141 -27zM390 151q37 0 70 15q34 15 57 40q24 26 39 60t15 72
t-15 72t-39 60q-23 25 -57 40q-33 15 -70 15t-70 -15q-34 -15 -57 -40q-24 -26 -39 -60t-15 -72t15 -72t39 -60q23 -25 57 -40q33 -15 70 -15zM391 784l65 100h154l-90 -156h-256l-90 156h153z" />
    <glyph glyph-name="ocaron" unicode="&#x1d2;" horiz-adv-x="612" 
d="M305 -13l-3 -1q-54 0 -105 18t-90 51q-38 32 -61 81t-23 107t23 107q23 48 62 83t90 54q50 19 105 19q57 0 107 -19q51 -19 90 -54t62 -83q23 -49 23 -107q0 -57 -23 -106t-61 -81q-39 -33 -90 -51t-106 -18zM302 141h-1q21 0 42 8q19 7 34 21t23 32q8 19 8 41
q0 21 -8 42t-22 35q-15 15 -34 24q-20 9 -42 9q-43 0 -73 -31q-30 -32 -30 -78q0 -45 29 -74t74 -29zM301 608l65 100h154l-90 -156h-256l-90 156h153z" />
    <glyph glyph-name="Ucaron" unicode="&#x1d3;" horiz-adv-x="738" 
d="M235 675l-2 -373q0 -36 11 -66q11 -29 30 -47q20 -18 45 -27t54 -9q57 0 93 36t36 113v373h175v-389q0 -74 -21 -129q-21 -56 -61 -93q-41 -38 -96 -57q-54 -19 -124 -19t-126 19q-57 19 -99 57t-66 93t-24 129v389h175zM365 785l65 100h154l-90 -156h-256l-90 156h153z
" />
    <glyph glyph-name="ucaron" unicode="&#x1d4;" horiz-adv-x="619" 
d="M564 495l1 -497h-111l-27 70q-37 -44 -84 -63q-45 -19 -93 -19q-38 0 -75 14q-35 13 -64 42q-29 28 -45 72q-17 45 -17 104v277h170v-249q0 -48 24 -71q25 -23 62 -23q46 0 89 37v306h170zM306 607l65 100h154l-90 -156h-256l-90 156h153z" />
    <glyph glyph-name="Udieresismacron" unicode="&#x1d5;" horiz-adv-x="738" 
d="M235 675l-2 -373q0 -36 11 -66q11 -29 30 -47q20 -18 45 -27t54 -9q57 0 93 36t36 113v373h175v-389q0 -74 -21 -129q-21 -56 -61 -93q-41 -38 -96 -57q-54 -19 -124 -19t-126 19q-57 19 -99 57t-66 93t-24 129v389h175zM489 729l-1 -1q-21 0 -40 8t-32 21q-14 13 -21 33
q-8 21 -8 40q0 20 8 39t21 32t32 21t41 8q19 0 38 -8t32 -21q14 -14 21 -31q8 -19 8 -39q0 -19 -8 -40q-8 -19 -21 -33q-13 -13 -32 -21t-38 -8zM245 728l-1 -1q-21 0 -40 8t-32 21q-14 14 -21 33q-8 21 -8 40q0 20 8 39t21 32t32 21t41 8q19 0 38 -8t32 -21q14 -14 21 -31
q8 -19 8 -39q0 -19 -8 -40q-8 -20 -21 -33t-32 -21t-38 -8zM204 1090h321v-122h-321v122z" />
    <glyph glyph-name="udieresismacron" unicode="&#x1d6;" horiz-adv-x="619" 
d="M564 495l1 -497h-111l-27 70q-37 -44 -84 -63q-45 -19 -93 -19q-38 0 -75 14q-35 13 -64 42q-29 28 -45 72q-17 45 -17 104v277h170v-249q0 -48 24 -71q25 -23 62 -23q46 0 89 37v306h170zM430 523l-1 -1q-21 0 -40 8t-32 21t-21 33q-8 21 -8 40q0 20 8 39t21 32t32 21
t41 8q19 0 38 -8t32 -21q14 -14 21 -31q8 -19 8 -39q0 -19 -8 -40q-7 -19 -21 -33q-13 -13 -32 -21t-38 -8zM186 522l-1 -1q-21 0 -40 8t-32 21q-13 14 -21 33q-8 21 -8 40q0 20 8 39t21 32t32 21t41 8q19 0 38 -8t32 -21q14 -14 21 -31q8 -19 8 -39q0 -19 -8 -40
q-7 -20 -21 -33q-13 -13 -32 -21t-38 -8zM145 878h321v-122h-321v122z" />
    <glyph glyph-name="Udieresisacute" unicode="&#x1d7;" horiz-adv-x="738" 
d="M235 675l-2 -373q0 -36 11 -66q11 -29 30 -47q20 -18 45 -27t54 -9q57 0 93 36t36 113v373h175v-389q0 -74 -21 -129q-21 -56 -61 -93q-41 -38 -96 -57q-54 -19 -124 -19t-126 19q-57 19 -99 57t-66 93t-24 129v389h175zM489 729l-1 -1q-21 0 -40 8t-32 21q-14 13 -21 33
q-8 21 -8 40q0 20 8 39t21 32t32 21t41 8q19 0 38 -8t32 -21q14 -14 21 -31q8 -19 8 -39q0 -19 -8 -40q-8 -19 -21 -33q-13 -13 -32 -21t-38 -8zM245 728l-1 -1q-21 0 -40 8t-32 21q-14 14 -21 33q-8 21 -8 40q0 20 8 39t21 32t32 21t41 8q19 0 38 -8t32 -21q14 -14 21 -31
q8 -19 8 -39q0 -19 -8 -40q-8 -20 -21 -33t-32 -21t-38 -8zM268 964l60 156h194l-100 -156h-154z" />
    <glyph glyph-name="udieresisacute" unicode="&#x1d8;" horiz-adv-x="619" 
d="M429 525l-1 -1q-21 0 -40 8t-32 21q-14 13 -21 33q-8 21 -8 40q0 20 8 39t21 32t32 21t41 8q19 0 38 -8t32 -21q14 -14 21 -31q8 -19 8 -39q0 -19 -8 -40q-8 -19 -21 -33q-13 -13 -32 -21t-38 -8zM185 524l-1 -1q-21 0 -40 8t-32 21q-14 14 -21 33q-8 21 -8 40q0 20 8 39
t21 32t32 21t41 8q19 0 38 -8t32 -21q14 -14 21 -31q8 -19 8 -39q0 -19 -8 -40q-8 -20 -21 -33t-32 -21t-38 -8zM562 493l1 -497h-111l-27 70q-37 -44 -84 -63q-45 -19 -93 -19q-38 0 -75 14q-35 13 -64 42q-29 28 -45 72q-17 45 -17 104v277h170v-249q0 -48 24 -71
q25 -23 62 -23q46 0 89 37v306h170zM226 756l60 156h194l-100 -156h-154z" />
    <glyph glyph-name="Udieresiscaron" unicode="&#x1d9;" horiz-adv-x="738" 
d="M235 675l-2 -373q0 -36 11 -66q11 -29 30 -47q20 -18 45 -27t54 -9q57 0 93 36t36 113v373h175v-389q0 -74 -21 -129q-21 -56 -61 -93q-41 -38 -96 -57q-54 -19 -124 -19t-126 19q-57 19 -99 57t-66 93t-24 129v389h175zM489 729l-1 -1q-21 0 -40 8t-32 21q-14 13 -21 33
q-8 21 -8 40q0 20 8 39t21 32t32 21t41 8q19 0 38 -8t32 -21q14 -14 21 -31q8 -19 8 -39q0 -19 -8 -40q-8 -19 -21 -33q-13 -13 -32 -21t-38 -8zM245 728l-1 -1q-21 0 -40 8t-32 21q-14 14 -21 33q-8 21 -8 40q0 20 8 39t21 32t32 21t41 8q19 0 38 -8t32 -21q14 -14 21 -31
q8 -19 8 -39q0 -19 -8 -40q-8 -20 -21 -33t-32 -21t-38 -8zM363 1025l65 100h154l-90 -156h-256l-90 156h153z" />
    <glyph glyph-name="udieresiscaron" unicode="&#x1da;" horiz-adv-x="619" 
d="M429 525l-1 -1q-21 0 -40 8t-32 21q-14 13 -21 33q-8 21 -8 40q0 20 8 39t21 32t32 21t41 8q19 0 38 -8t32 -21q14 -14 21 -31q8 -19 8 -39q0 -19 -8 -40q-8 -19 -21 -33q-13 -13 -32 -21t-38 -8zM185 524l-1 -1q-21 0 -40 8t-32 21q-14 14 -21 33q-8 21 -8 40q0 20 8 39
t21 32t32 21t41 8q19 0 38 -8t32 -21q14 -14 21 -31q8 -19 8 -39q0 -19 -8 -40q-8 -20 -21 -33t-32 -21t-38 -8zM562 493l1 -497h-111l-27 70q-37 -44 -84 -63q-45 -19 -93 -19q-38 0 -75 14q-35 13 -64 42q-29 28 -45 72q-17 45 -17 104v277h170v-249q0 -48 24 -71
q25 -23 62 -23q46 0 89 37v306h170zM304 812l65 100h154l-90 -156h-256l-90 156h153z" />
    <glyph glyph-name="Udieresisgrave" unicode="&#x1db;" horiz-adv-x="738" 
d="M235 675l-2 -373q0 -36 11 -66q11 -29 30 -47q20 -18 45 -27t54 -9q57 0 93 36t36 113v373h175v-389q0 -74 -21 -129q-21 -56 -61 -93q-41 -38 -96 -57q-54 -19 -124 -19t-126 19q-57 19 -99 57t-66 93t-24 129v389h175zM489 729l-1 -1q-21 0 -40 8t-32 21q-14 13 -21 33
q-8 21 -8 40q0 20 8 39t21 32t32 21t41 8q19 0 38 -8t32 -21q14 -14 21 -31q8 -19 8 -39q0 -19 -8 -40q-8 -19 -21 -33q-13 -13 -32 -21t-38 -8zM245 728l-1 -1q-21 0 -40 8t-32 21q-14 14 -21 33q-8 21 -8 40q0 20 8 39t21 32t32 21t41 8q19 0 38 -8t32 -21q14 -14 21 -31
q8 -19 8 -39q0 -19 -8 -40q-8 -20 -21 -33t-32 -21t-38 -8zM189 1126h194l60 -156h-154z" />
    <glyph glyph-name="udieresisgrave" unicode="&#x1dc;" horiz-adv-x="619" 
d="M429 525l-1 -1q-21 0 -40 8t-32 21q-14 13 -21 33q-8 21 -8 40q0 20 8 39t21 32t32 21t41 8q19 0 38 -8t32 -21q14 -14 21 -31q8 -19 8 -39q0 -19 -8 -40q-8 -19 -21 -33q-13 -13 -32 -21t-38 -8zM185 524l-1 -1q-21 0 -40 8t-32 21q-14 14 -21 33q-8 21 -8 40q0 20 8 39
t21 32t32 21t41 8q19 0 38 -8t32 -21q14 -14 21 -31q8 -19 8 -39q0 -19 -8 -40q-8 -20 -21 -33t-32 -21t-38 -8zM562 493l1 -497h-111l-27 70q-37 -44 -84 -63q-45 -19 -93 -19q-38 0 -75 14q-35 13 -64 42q-29 28 -45 72q-17 45 -17 104v277h170v-249q0 -48 24 -71
q25 -23 62 -23q46 0 89 37v306h170zM126 912h194l60 -156h-154z" />
    <glyph glyph-name="Oogonek" unicode="&#x1ea;" horiz-adv-x="785" 
d="M505 -165l-2 -4q-18 -14 -49 -24q-33 -11 -66 -11q-26 0 -50 6q-23 6 -42 20q-18 14 -29 32q-11 19 -11 41q0 29 15 53t41 44q-59 13 -112 45q-52 31 -90 77t-59 102q-21 57 -21 120q0 70 29 136q28 63 77 112q48 48 114 75t141 27t141 -27t114 -75q49 -49 77 -112
q29 -66 29 -136q0 -64 -21 -119q-22 -58 -58 -101q-37 -45 -88 -76q-51 -32 -111 -45q-59 -15 -80 -33t-21 -43q0 -13 10 -22q11 -9 25 -9q42 0 69 27zM390 148q37 0 70 15q34 15 57 40q24 25 39 60t15 72t-15 72t-39 60q-23 25 -57 40q-33 15 -70 15t-70 -15
q-34 -15 -57 -40q-24 -25 -39 -60t-15 -72t15 -72t39 -60q23 -25 57 -40q33 -15 70 -15z" />
    <glyph glyph-name="oogonek" unicode="&#x1eb;" horiz-adv-x="612" 
d="M410 -165l-6 1q-18 -14 -49 -24q-33 -11 -66 -11q-26 0 -50 6q-23 6 -42 20q-18 14 -29 32q-11 19 -11 41q0 28 17 54q16 26 45 45q-41 11 -77 33t-63 54t-42 72t-15 87q0 58 23 107q23 48 62 83t90 54q50 19 105 19q57 0 107 -19q51 -19 90 -54t62 -83q23 -49 23 -107
q0 -51 -16 -92q-17 -43 -46 -75q-30 -33 -69 -54t-84 -30q-53 -15 -72 -33t-19 -42q0 -13 10 -22t25 -9q42 0 69 27zM299 143h-1q21 0 42 8q19 7 34 21t23 32q8 19 8 41q0 21 -8 42t-22 35q-15 15 -34 24t-42 9q-43 0 -73 -31q-30 -32 -30 -78q0 -45 29 -74t74 -29z" />
    <glyph glyph-name="DZ" unicode="&#x1f1;" horiz-adv-x="1357" 
d="M69 675l315 3q69 0 129 -27t105 -72t71 -107q26 -63 26 -132t-26 -132q-26 -62 -70 -108t-105 -73q-60 -27 -129 -27h-316v675zM243 518v-356h141q30 0 58 14q26 13 48 38q21 24 33 57t12 69t-12 69t-33 57q-22 25 -48 38q-28 14 -58 14h-141zM784 677h522v-118
l-310 -397h326v-160h-553v119l302 396h-287v160z" />
    <glyph glyph-name="Dz" unicode="&#x1f2;" horiz-adv-x="1263" 
d="M69 675l315 3q69 0 129 -27t105 -72t71 -107q26 -63 26 -132t-26 -132q-26 -62 -70 -108t-105 -73q-60 -27 -129 -27h-316v675zM243 518v-356h141q30 0 58 14q26 13 48 38q21 24 33 57t12 69t-12 69t-33 57q-22 25 -48 38q-28 14 -58 14h-141zM998 145h227v-143h-449v143
l217 209h-200v143h423v-143z" />
    <glyph glyph-name="dz" unicode="&#x1f3;" horiz-adv-x="1145" 
d="M455 43l1 3q-36 -27 -76 -41q-42 -15 -91 -15q-55 0 -102 19q-48 19 -84 54q-36 34 -57 83q-21 48 -21 107q0 58 21 106q21 47 56 81q34 33 81 51t99 18q34 0 66 -12q33 -13 60 -31l-9 97v151h170v-714h-94zM309 145h-2q44 0 74 31q30 32 30 78t-30 74q-31 29 -73 29
q-24 0 -42 -7q-19 -7 -34 -21q-14 -13 -22 -33q-8 -21 -8 -42t8 -42q7 -18 23 -34q15 -15 34 -24t42 -9zM880 146h227v-143h-449v143l217 209h-200v143h423v-143z" />
    <glyph glyph-name="Gacute" unicode="&#x1f4;" horiz-adv-x="739" 
d="M690 86h-2q-45 -47 -121 -72q-78 -26 -162 -26q-81 0 -151 26q-68 25 -118 72t-77 111q-27 65 -27 143t27 141t77 110t117 72q66 25 149 25q94 0 167 -30q74 -30 126 -85l-117 -110q-12 13 -32 24t-43 18q-25 8 -49 12q-23 4 -48 4q-47 0 -83 -15q-35 -15 -60 -41
q-23 -25 -37 -58q-13 -32 -13 -67q0 -36 13 -69q13 -34 39 -61q24 -26 62 -43q35 -16 83 -16q26 0 53 6q23 5 52 17v59h-102v160h277v-307zM313 730l60 156h194l-100 -156h-154z" />
    <glyph glyph-name="gacute" unicode="&#x1f5;" horiz-adv-x="623" 
d="M289 508h-8q49 0 91 -15q40 -14 76 -41l20 43h94v-478q0 -118 -68 -186q-67 -67 -198 -67q-53 0 -119 11q-64 11 -122 33l42 132q39 -12 92 -22q47 -9 83 -9q63 0 93 27t30 81v5q-24 -16 -54 -25q-29 -9 -60 -9q-53 0 -99 18t-81 51q-34 32 -55 81q-21 48 -21 107t21 107
q21 49 57 83q36 35 84 54q47 19 102 19zM304 353l-3 -1q-23 0 -42 -9q-20 -9 -34 -22q-15 -13 -24 -33t-9 -42q0 -46 32 -75t78 -29q20 0 39 8t32 21t21 33q8 21 8 42q0 24 -7 42q-7 20 -21 33q-15 15 -31 23q-18 9 -39 9zM211 551l60 156h194l-100 -156h-154z" />
    <glyph glyph-name="Aringacute" unicode="&#x1fa;" horiz-adv-x="718" 
d="M220 736h-2q0 27 11 52q10 23 29 42q17 17 45 28q26 10 59 10t57 -10q27 -11 44 -28q19 -19 29 -42q11 -25 11 -52q0 -58 -39 -96l258 -641h-183l-42 114h-277l-41 -114h-183l258 644q-34 37 -34 93zM277 897l60 156h194l-100 -156h-154zM277 274h160l-80 218zM362 686
v-1q19 0 33 13q15 14 15 36t-15 34t-33 12q-21 0 -36 -12t-15 -33q0 -25 15 -37t36 -12z" />
    <glyph glyph-name="aringacute" unicode="&#x1fb;" horiz-adv-x="575" 
d="M355 304q0 30 -31 45q-32 15 -87 15q-37 0 -79 -6q-39 -6 -83 -17l-30 132q47 14 103 25q50 10 111 10q130 0 198 -50t68 -138v-319h-100l-32 53q-46 -37 -91 -52t-97 -15q-92 0 -136 37q-45 38 -45 103q0 72 48 107q48 34 135 42l148 13v15zM247 97l-1 -1q32 0 57 12
q24 11 51 32v62l-96 -15q-26 -5 -41 -13q-17 -9 -17 -35q0 -18 12 -30t35 -12zM158 685l-2 -1q0 27 11 52q10 23 29 42q17 17 45 28q26 10 59 10t57 -10q27 -11 44 -28q19 -19 29 -42q11 -25 11 -52q0 -30 -10 -53t-29 -42q-17 -17 -44 -28q-24 -10 -57 -10q-71 0 -107 38
q-36 37 -36 96zM300 634v-1q19 0 33 13q15 14 15 36t-15 34t-33 12q-21 0 -36 -12t-15 -33q0 -25 15 -37t36 -12zM209 851l60 156h194l-100 -156h-154z" />
    <glyph glyph-name="AEacute" unicode="&#x1fc;" horiz-adv-x="1000" 
d="M313 675h637v-160h-321v-98h301v-160h-301v-97h324v-160h-499v134h-220l-63 -134h-178zM309 294h145v221h-42zM506 730l60 156h194l-100 -156h-154z" />
    <glyph glyph-name="aeacute" unicode="&#x1fd;" horiz-adv-x="904" 
d="M355 304h1q0 30 -31 45t-87 15q-38 0 -80 -6q-39 -6 -83 -17l-30 132q44 13 99 25q47 10 113 10q69 0 118 -13q50 -13 85 -39q34 25 77 39q44 14 87 14q54 0 99 -19q48 -20 83 -55q36 -36 57 -89q21 -52 21 -120h-349q11 -38 42 -60q32 -23 75 -23q26 0 51 9t45 29
l110 -97q-40 -48 -100 -71q-62 -24 -124 -24q-55 0 -109 20q-52 19 -91 57q-57 -42 -114 -60t-115 -18q-91 0 -136 36t-45 104q0 74 48 107q49 34 135 41l148 13v15zM373 154l-1 1q-8 19 -12 42l-101 -16q-25 -5 -41 -12q-17 -8 -17 -30q0 -14 12 -23t35 -9q36 0 65 12
q27 11 60 35zM619 374l-1 1q-19 0 -32 -7q-14 -8 -24 -19q-11 -13 -17 -27q-4 -10 -10 -30l165 8q-11 39 -31 56q-21 18 -50 18zM319 554l60 156h194l-100 -156h-154z" />
    <glyph glyph-name="Oslashacute" unicode="&#x1fe;" horiz-adv-x="785" 
d="M392 -13l-2 -1q-47 0 -87 10q-43 11 -80 30l-75 -106h-97l106 150q-59 48 -93 117q-34 68 -34 150q0 70 29 136q28 63 77 112q48 48 114 75t141 27q47 0 91 -12q45 -12 82 -31l79 112h97l-111 -157q57 -49 90 -117t33 -146q0 -74 -28 -136t-77 -111q-48 -48 -114 -75
t-141 -27zM210 336l1 1q0 -37 12 -68t35 -57l208 294q-37 17 -75 17q-37 0 -70 -15q-34 -15 -57 -40q-24 -26 -39 -60t-15 -72zM391 152v-3q37 0 70 15q34 15 57 40q24 26 39 60t15 72q0 34 -12 66q-11 29 -32 55l-205 -291q34 -14 68 -14zM306 727l60 156h194l-100 -156
h-154z" />
    <glyph glyph-name="oslashacute" unicode="&#x1ff;" horiz-adv-x="612" 
d="M305 -13l-4 -3q-42 0 -78 10q-37 10 -70 30l-83 -106h-37l95 122q-46 34 -75 86q-28 50 -28 117q0 58 23 107q23 48 62 83t90 54q50 19 105 19q44 0 83 -12q40 -12 74 -33l88 113h37l-101 -129q45 -34 72 -86q27 -51 27 -116q0 -57 -23 -106t-61 -81q-39 -33 -90 -51
t-106 -18zM211 549l60 156h194l-100 -156h-154zM198 242v1q0 -45 30 -75l130 166q-26 17 -57 17q-43 0 -73 -31q-30 -32 -30 -78zM301 140l-2 1q21 0 42 8q19 7 34 21t23 32q8 19 8 41q0 42 -27 72l-128 -164q25 -11 50 -11z" />
    <glyph glyph-name="Adblgrave" unicode="&#x200;" horiz-adv-x="718" 
d="M267 675h184l271 -675h-183l-42 114h-277l-41 -114h-183zM279 274h160l-80 218zM327 886h174l30 -156h-134zM117 886h174l30 -156h-134z" />
    <glyph glyph-name="adblgrave" unicode="&#x201;" horiz-adv-x="575" 
d="M355 304q0 30 -31 45q-32 15 -87 15q-37 0 -79 -6q-39 -6 -83 -17l-30 132q47 14 103 25q50 10 111 10q130 0 198 -50t68 -138v-319h-100l-32 53q-46 -37 -91 -52t-97 -15q-92 0 -136 37q-45 38 -45 103q0 72 48 107q48 34 135 42l148 13v15zM247 97l-1 -1q32 0 57 12
q24 11 51 32v62l-96 -15q-26 -5 -41 -13q-17 -9 -17 -35q0 -18 12 -30t35 -12zM265 707h174l30 -156h-134zM55 707h174l30 -156h-134z" />
    <glyph glyph-name="Ainvertedbreve" unicode="&#x202;" horiz-adv-x="718" 
d="M267 675h184l271 -675h-183l-42 114h-277l-41 -114h-183zM279 274h160l-80 218zM188 729h-1q4 80 47 126q42 45 120 45q76 0 117 -45t48 -126h-89q-5 24 -25 41q-21 18 -53 18t-53 -18t-24 -41h-87z" />
    <glyph glyph-name="ainvertedbreve" unicode="&#x203;" horiz-adv-x="575" 
d="M355 304q0 30 -31 45q-32 15 -87 15q-37 0 -79 -6q-39 -6 -83 -17l-30 132q47 14 103 25q50 10 111 10q130 0 198 -50t68 -138v-319h-100l-32 53q-46 -37 -91 -52t-97 -15q-92 0 -136 37q-45 38 -45 103q0 72 48 107q48 34 135 42l148 13v15zM247 97l-1 -1q32 0 57 12
q24 11 51 32v62l-96 -15q-26 -5 -41 -13q-17 -9 -17 -35q0 -18 12 -30t35 -12zM118 551h-1q4 80 47 126q42 45 120 45q76 0 117 -45t48 -126h-89q-5 24 -25 41q-21 18 -53 18t-53 -18t-24 -41h-87z" />
    <glyph glyph-name="Edblgrave" unicode="&#x204;" horiz-adv-x="615" 
d="M69 675h496v-160h-321v-99h301v-160h-301v-96h324v-160h-499v675zM305 886h174l30 -156h-134zM95 886h174l30 -156h-134z" />
    <glyph glyph-name="edblgrave" unicode="&#x205;" horiz-adv-x="575" 
d="M529 83l-1 -1q-40 -47 -99 -71q-60 -24 -124 -24q-54 0 -105 18t-90 51q-38 32 -61 81t-23 108q0 60 22 107q23 49 60 83t86 54q47 19 101 19t99 -19q48 -20 83 -55q36 -36 57 -89t21 -120h-350q9 -43 41 -63t77 -20q25 0 51 9q25 9 45 29zM289 372h-1q-38 0 -57 -25
t-27 -57l167 7q-21 75 -82 75zM262 707h174l30 -156h-134zM52 707h174l30 -156h-134z" />
    <glyph glyph-name="Einvertedbreve" unicode="&#x206;" horiz-adv-x="615" 
d="M69 675h496v-160h-321v-99h301v-160h-301v-96h324v-160h-499v675zM153 729h-1q4 80 47 126q42 45 120 45q77 0 117 -45t48 -126h-89q-5 24 -25 41q-21 18 -53 18t-53 -18t-24 -41h-87z" />
    <glyph glyph-name="einvertedbreve" unicode="&#x207;" horiz-adv-x="575" 
d="M529 83l-1 -1q-40 -47 -99 -71q-60 -24 -124 -24q-54 0 -105 18t-90 51q-38 32 -61 81t-23 108q0 60 22 107q23 49 60 83t86 54q47 19 101 19t99 -19q48 -20 83 -55q36 -36 57 -89t21 -120h-350q9 -43 41 -63t77 -20q25 0 51 9q25 9 45 29zM289 372h-1q-38 0 -57 -25
t-27 -57l167 7q-21 75 -82 75zM126 551h-1q4 80 47 126q42 45 120 45q76 0 117 -45t48 -126h-89q-5 24 -25 41q-21 18 -53 18t-53 -18t-24 -41h-87z" />
    <glyph glyph-name="Idblgrave" unicode="&#x208;" horiz-adv-x="313" 
d="M69 675h175v-675h-175v675zM130 886h174l30 -156h-134zM-80 886h174l30 -156h-134z" />
    <glyph glyph-name="idblgrave" unicode="&#x209;" horiz-adv-x="280" 
d="M55 495h170v-495h-170v495zM119 708h174l30 -156h-134zM-91 708h174l30 -156h-134z" />
    <glyph glyph-name="Iinvertedbreve" unicode="&#x20a;" horiz-adv-x="313" 
d="M69 675h175v-675h-175v675zM-9 729h-1q4 80 47 126q42 45 120 45q77 0 117 -45t48 -126h-89q-5 24 -25 41q-21 18 -53 18t-53 -18t-24 -41h-87z" />
    <glyph glyph-name="iinvertedbreve" unicode="&#x20b;" horiz-adv-x="280" 
d="M55 495h170v-495h-170v495zM-26 552h-1q4 80 47 126q42 45 120 45q76 0 117 -45t48 -126h-89q-5 24 -25 41q-21 18 -53 18t-53 -18t-24 -41h-87z" />
    <glyph glyph-name="Odblgrave" unicode="&#x20c;" horiz-adv-x="785" 
d="M392 -13l-2 -1q-75 0 -141 27t-114 75q-49 49 -77 111t-28 137q0 70 29 136q28 63 77 112q48 48 114 75t141 27t141 -27t114 -75q49 -49 77 -112q29 -66 29 -136q0 -74 -28 -136t-77 -111q-48 -48 -114 -75t-141 -27zM390 151q37 0 70 15q34 15 57 40q24 26 39 60t15 72
t-15 72t-39 60q-23 25 -57 40q-33 15 -70 15t-70 -15q-34 -15 -57 -40q-24 -26 -39 -60t-15 -72t15 -72t39 -60q23 -25 57 -40q33 -15 70 -15zM362 885h174l30 -156h-134zM152 885h174l30 -156h-134z" />
    <glyph glyph-name="odblgrave" unicode="&#x20d;" horiz-adv-x="612" 
d="M305 -13l-3 -1q-54 0 -105 18t-90 51q-38 32 -61 81t-23 107t23 107q23 48 62 83t90 54q50 19 105 19q57 0 107 -19q51 -19 90 -54t62 -83q23 -49 23 -107q0 -57 -23 -106t-61 -81q-39 -33 -90 -51t-106 -18zM302 141h-1q21 0 42 8q19 7 34 21t23 32q8 19 8 41
q0 21 -8 42t-22 35q-15 15 -34 24q-20 9 -42 9q-43 0 -73 -31q-30 -32 -30 -78q0 -45 29 -74t74 -29zM265 707h174l30 -156h-134zM55 707h174l30 -156h-134z" />
    <glyph glyph-name="Oinvertedbreve" unicode="&#x20e;" horiz-adv-x="785" 
d="M392 -13l-2 -1q-75 0 -141 27t-114 75q-49 49 -77 111t-28 137q0 70 29 136q28 63 77 112q48 48 114 75t141 27t141 -27t114 -75q49 -49 77 -112q29 -66 29 -136q0 -74 -28 -136t-77 -111q-48 -48 -114 -75t-141 -27zM390 151q37 0 70 15q34 15 57 40q24 26 39 60t15 72
t-15 72t-39 60q-23 25 -57 40q-33 15 -70 15t-70 -15q-34 -15 -57 -40q-24 -26 -39 -60t-15 -72t15 -72t39 -60q23 -25 57 -40q33 -15 70 -15zM225 728h-1q4 80 47 126q42 45 120 45q77 0 117 -45t48 -126h-89q-5 24 -25 41q-21 18 -53 18t-53 -18t-24 -41h-87z" />
    <glyph glyph-name="oinvertedbreve" unicode="&#x20f;" horiz-adv-x="612" 
d="M305 -13l-3 -1q-54 0 -105 18t-90 51q-38 32 -61 81t-23 107t23 107q23 48 62 83t90 54q50 19 105 19q57 0 107 -19q51 -19 90 -54t62 -83q23 -49 23 -107q0 -57 -23 -106t-61 -81q-39 -33 -90 -51t-106 -18zM302 141h-1q21 0 42 8q19 7 34 21t23 32q8 19 8 41
q0 21 -8 42t-22 35q-15 15 -34 24q-20 9 -42 9q-43 0 -73 -31q-30 -32 -30 -78q0 -45 29 -74t74 -29zM135 551h-1q4 80 47 126q42 45 120 45q77 0 117 -45t48 -126h-89q-5 24 -25 41q-21 18 -53 18t-53 -18t-24 -41h-87z" />
    <glyph glyph-name="Rdblgrave" unicode="&#x210;" horiz-adv-x="709" 
d="M69 0l1 673h370q52 0 90 -19q39 -20 66 -51t42 -72t15 -82q0 -53 -23 -108q-23 -54 -62 -92l126 -249h-188l-98 194h-164v-194h-175zM245 513l-2 -162h165q14 0 27 8q11 7 21 20q8 11 13 27q4 13 4 30q0 29 -15 53t-47 24h-166zM299 882h174l30 -156h-134zM89 882h174
l30 -156h-134z" />
    <glyph glyph-name="rdblgrave" unicode="&#x211;" horiz-adv-x="393" 
d="M378 344h-1q-52 0 -90 -20q-37 -19 -64 -51v-273h-170v495h122l41 -88q35 47 75 74q41 27 87 27v-164zM186 708h174l30 -156h-134zM-24 708h174l30 -156h-134z" />
    <glyph glyph-name="Rinvertedbreve" unicode="&#x212;" horiz-adv-x="709" 
d="M69 0l1 673h370q52 0 90 -19q39 -20 66 -51t42 -72t15 -82q0 -53 -23 -108q-23 -54 -62 -92l126 -249h-188l-98 194h-164v-194h-175zM245 513l-2 -162h165q14 0 27 8q11 7 21 20q8 11 13 27q4 13 4 30q0 29 -15 53t-47 24h-166zM164 725h-1q4 80 47 126q42 45 120 45
q76 0 117 -45t48 -126h-89q-5 24 -25 41q-21 18 -53 18t-53 -18t-24 -41h-87z" />
    <glyph glyph-name="rinvertedbreve" unicode="&#x213;" horiz-adv-x="393" 
d="M378 344h-1q-52 0 -90 -20q-37 -19 -64 -51v-273h-170v495h122l41 -88q35 47 75 74q41 27 87 27v-164zM54 552h-1q4 80 47 126q42 45 120 45q76 0 117 -45t48 -126h-89q-5 24 -25 41q-21 18 -53 18t-53 -18t-24 -41h-87z" />
    <glyph glyph-name="Udblgrave" unicode="&#x214;" horiz-adv-x="738" 
d="M235 675l-2 -373q0 -36 11 -66q11 -29 30 -47q20 -18 45 -27t54 -9q57 0 93 36t36 113v373h175v-389q0 -74 -21 -129q-21 -56 -61 -93q-41 -38 -96 -57q-54 -19 -124 -19t-126 19q-57 19 -99 57t-66 93t-24 129v389h175zM341 886h174l30 -156h-134zM131 886h174l30 -156
h-134z" />
    <glyph glyph-name="udblgrave" unicode="&#x215;" horiz-adv-x="619" 
d="M564 495l1 -497h-111l-27 70q-37 -44 -84 -63q-45 -19 -93 -19q-38 0 -75 14q-35 13 -64 42q-29 28 -45 72q-17 45 -17 104v277h170v-249q0 -48 24 -71q25 -23 62 -23q46 0 89 37v306h170zM290 706h174l30 -156h-134zM80 706h174l30 -156h-134z" />
    <glyph glyph-name="Uinvertedbreve" unicode="&#x216;" horiz-adv-x="738" 
d="M235 675l-2 -373q0 -36 11 -66q11 -29 30 -47q20 -18 45 -27t54 -9q57 0 93 36t36 113v373h175v-389q0 -74 -21 -129q-21 -56 -61 -93q-41 -38 -96 -57q-54 -19 -124 -19t-126 19q-57 19 -99 57t-66 93t-24 129v389h175zM201 729h-1q4 80 47 126q42 45 120 45
q77 0 117 -45t48 -126h-89q-5 24 -25 41q-21 18 -53 18t-53 -18t-24 -41h-87z" />
    <glyph glyph-name="uinvertedbreve" unicode="&#x217;" horiz-adv-x="619" 
d="M564 495l1 -497h-111l-27 70q-37 -44 -84 -63q-45 -19 -93 -19q-38 0 -75 14q-35 13 -64 42q-29 28 -45 72q-17 45 -17 104v277h170v-249q0 -48 24 -71q25 -23 62 -23q46 0 89 37v306h170zM145 550h-1q4 80 47 126q42 45 120 45q77 0 117 -45t48 -126h-89q-5 24 -25 41
q-21 18 -53 18t-53 -18t-24 -41h-87z" />
    <glyph glyph-name="Scommaaccent" unicode="&#x218;" horiz-adv-x="632" 
d="M96 223l-4 -3q69 -35 131 -53q63 -18 121 -18q26 0 46 11q19 10 19 32t-18 36t-63 24q-88 22 -144 51t-87 60t-42 63q-11 33 -11 62q0 40 15 76q15 35 47 63q31 26 76 43q44 16 104 16q30 0 62 -4q41 -5 75 -13q42 -10 81 -25q42 -16 81 -42l-65 -142q-25 13 -56 24
q-30 10 -60 18q-31 8 -58 12q-32 5 -51 5q-26 0 -41 -9t-15 -25q0 -10 4 -18t15 -16t28 -15q19 -8 46 -15q81 -24 132 -48t81 -51t41 -59q11 -33 11 -69q0 -48 -18 -87q-18 -40 -52 -66q-36 -28 -81 -41q-48 -14 -104 -14q-34 0 -75 6q-39 6 -82 18q-41 12 -82 30t-78 42z
M314 -62h1q20 0 38 -9q19 -9 32 -24t21 -36q8 -22 8 -43q0 -57 -30 -112q-30 -56 -105 -105l-24 33q23 28 35 48q13 22 21 47q-21 1 -39 9q-19 8 -32 21t-21 32q-7 17 -7 39q0 20 8 39t21 32t32 21t41 8z" />
    <glyph glyph-name="scommaaccent" unicode="&#x219;" horiz-adv-x="540" 
d="M71 188l-2 -8q68 -32 119 -44q52 -12 104 -12q16 0 24 5t8 11q0 13 -31 19q-76 17 -122 36t-74 41q-26 20 -37 45q-11 24 -12 49q-2 36 12 68q13 31 42 55q27 23 71 37q40 13 98 13q25 0 56 -3q30 -3 64 -9q33 -6 63 -15q29 -9 53 -23l-55 -129q-22 9 -46 15
q-17 4 -49 10q-24 5 -45 6q-28 2 -35 2q-21 0 -36 -3t-15 -11q0 -7 6 -12q6 -4 23 -9q69 -15 117 -30q47 -15 78 -35t44 -46q14 -27 15 -63q0 -37 -16 -66q-17 -31 -46 -51q-30 -21 -72 -33t-96 -12q-23 0 -56 3q-29 3 -69 11q-36 8 -72 21t-65 35zM259 -67h1q20 0 38 -9
q19 -9 32 -24q14 -15 21 -36q8 -22 8 -43q0 -57 -30 -112t-105 -105l-24 33q23 28 35 48q13 22 21 47q-21 2 -39 9q-19 8 -32 21t-21 32q-7 17 -7 39q0 20 8 39t21 32t32 21t41 8z" />
    <glyph glyph-name="uni021A" unicode="&#x21a;" 
d="M19 675h582v-160h-203v-515h-175v515h-204v160zM312 -59h1q20 0 38 -9q19 -9 32 -24t21 -36q8 -22 8 -43q0 -56 -30 -112q-30 -55 -105 -105l-24 33q23 28 35 48q13 22 21 47q-21 2 -39 9q-19 8 -32 21t-21 32q-7 17 -7 39q0 20 8 39t21 32t32 21t41 8z" />
    <glyph glyph-name="uni021B" unicode="&#x21b;" horiz-adv-x="389" 
d="M31 495l52 -1v117l170 50v-167h97v-130l-15 -15h-82v-123q0 -18 8 -34q7 -15 21 -27t33 -18t42 -6v-155q-64 0 -117 17q-50 16 -87 47q-36 30 -54 72t-18 93v135h-50v145zM214 -60h1q20 0 38 -9q19 -9 32 -24t21 -36q8 -22 8 -43q0 -56 -30 -112t-105 -105l-24 33
q23 28 35 48q13 22 21 47q-21 1 -39 9q-19 8 -32 21t-21 32q-7 17 -7 39q0 20 8 39t21 32t32 21t41 8z" />
    <glyph glyph-name="schwa" unicode="&#x259;" horiz-adv-x="575" 
d="M46 412l-2 -3q40 47 99 71q60 24 125 24q54 0 105 -18t90 -51q40 -34 62 -81q23 -49 23 -106q0 -60 -22 -107q-23 -49 -60 -83t-86 -54q-47 -19 -100 -19q-54 0 -99 19q-47 20 -83 56t-57 89t-21 120h349q-11 36 -42 60t-75 24q-26 0 -51 -9t-45 -29zM283 119v1
q37 0 57 24t27 57l-166 -8q20 -74 82 -74z" />
    <glyph glyph-name="circumflex" unicode="&#x2c6;" horiz-adv-x="486" 
d="M25 552l90 156h256l90 -156h-154l-65 99l-64 -99h-153z" />
    <glyph glyph-name="caron" unicode="&#x2c7;" horiz-adv-x="486" 
d="M242 609l65 100h154l-90 -156h-256l-90 156h153z" />
    <glyph glyph-name="breve" unicode="&#x2d8;" horiz-adv-x="381" 
d="M112 722q3 -23 24 -41t53 -18t53 18q20 17 25 41h89q-8 -81 -48 -126t-117 -45q-78 0 -120 45q-41 44 -46 126h87z" />
    <glyph glyph-name="dotaccent" unicode="&#x2d9;" horiz-adv-x="253" 
d="M128 552l-1 -1q-21 0 -40 8t-32 21q-13 14 -21 33q-8 21 -8 40q0 20 8 39t21 32t32 21t41 8q19 0 38 -8t32 -21q14 -14 21 -31q8 -19 8 -39q0 -19 -8 -40q-7 -20 -21 -33q-13 -13 -32 -21t-38 -8z" />
    <glyph glyph-name="ring" unicode="&#x2da;" horiz-adv-x="333" 
d="M25 686l-2 -1q0 27 11 52q10 23 29 42q17 17 45 28q26 10 59 10t57 -10q27 -11 44 -28q19 -19 29 -42q11 -25 11 -52q0 -30 -10 -53t-29 -42q-17 -17 -44 -28q-24 -10 -57 -10q-71 0 -107 38t-36 96zM167 635v-1q19 0 33 13q15 13 15 36q0 22 -15 34t-33 12
q-21 0 -36 -12t-15 -33q0 -25 15 -37t36 -12z" />
    <glyph glyph-name="ogonek" unicode="&#x2db;" horiz-adv-x="298" 
d="M273 -165l-2 -1q-18 -14 -49 -24q-33 -11 -66 -11q-26 0 -50 6q-23 6 -42 20q-18 14 -29 32q-11 19 -11 41q0 28 18 54t47 47t66 36q40 16 78 23l9 -63q-59 -15 -80 -33t-21 -43q0 -13 10 -22q11 -9 25 -9q42 0 69 27z" />
    <glyph glyph-name="tilde" unicode="&#x2dc;" horiz-adv-x="393" 
d="M5 566l4 -2q1 76 35 114q33 37 77 37q17 0 40 -6q30 -8 45 -13t47 -13q24 -6 46 -6q13 0 24 6q10 6 12 23h55q0 -74 -27 -115q-27 -40 -79 -40q-20 0 -46 6q-34 8 -51 13t-49 13q-24 6 -43 6q-28 0 -33 -23h-57z" />
    <glyph glyph-name="hungarumlaut" unicode="&#x2dd;" horiz-adv-x="464" 
d="M229 708l-70 -156h-134l30 156h174zM439 708l-70 -156h-134l30 156h174z" />
    <glyph glyph-name="uni0401" unicode="&#x401;" horiz-adv-x="615" 
d="M69 675h496v-160h-321v-99h301v-160h-301v-96h324v-160h-499v675zM444 729l-1 -1q-21 0 -40 8t-32 21t-21 33q-8 21 -8 40q0 20 8 39t21 32t32 21t41 8q19 0 38 -8t32 -21q14 -14 21 -31q8 -19 8 -39q0 -19 -8 -40q-7 -19 -21 -33q-13 -13 -32 -21t-38 -8zM200 728l-1 -1
q-21 0 -40 8t-32 21q-13 14 -21 33q-8 21 -8 40q0 20 8 39t21 32t32 21t41 8q19 0 38 -8t32 -21q14 -14 21 -31q8 -19 8 -39q0 -19 -8 -40q-7 -20 -21 -33q-13 -13 -32 -21t-38 -8z" />
    <glyph glyph-name="uni0402" unicode="&#x402;" horiz-adv-x="777" 
d="M20 675l479 -4v-160h-153v-88q46 17 87 24q43 8 83 8q57 0 100 -13q47 -14 77 -40q31 -26 49 -69q18 -42 18 -100q0 -57 -18 -103t-51 -78q-32 -31 -81 -49q-48 -18 -109 -18v155q36 0 60 21t24 63q0 38 -24 57q-23 19 -79 19q-28 0 -63 -6q-32 -6 -70 -23v-271h-175v515
h-154v160z" />
    <glyph glyph-name="uni0403" unicode="&#x403;" horiz-adv-x="576" 
d="M555 675v-160h-311v-515h-175v675h486zM221 730l60 156h194l-100 -156h-154z" />
    <glyph glyph-name="uni0404" unicode="&#x404;" horiz-adv-x="676" 
d="M431 256l-202 -1q23 -47 66 -75t96 -28q22 0 39 4q20 4 39 12q18 7 36 20q15 11 28 27l121 -119q-49 -50 -117 -79q-66 -28 -145 -28q-75 0 -141 27t-114 75q-49 49 -77 111t-28 137q0 70 29 136q28 63 77 112q48 48 114 75t141 27q79 0 147 -30q67 -30 117 -83
l-124 -117q-23 31 -60 48q-39 17 -81 17q-54 0 -97 -30t-66 -78h202v-160z" />
    <glyph glyph-name="uni0405" unicode="&#x405;" horiz-adv-x="632" 
d="M96 223l-4 -3q69 -35 131 -53q63 -18 121 -18q26 0 46 11q19 10 19 32t-18 36t-63 24q-88 22 -144 51t-87 60t-42 63q-11 33 -11 62q0 40 15 76q15 35 47 63q31 26 76 43q44 16 104 16q30 0 62 -4q41 -5 75 -13q42 -10 81 -25q42 -16 81 -42l-65 -142q-25 13 -56 24
q-30 10 -60 18q-31 8 -58 12q-32 5 -51 5q-26 0 -41 -9t-15 -25q0 -10 4 -18t15 -16t28 -15q19 -8 46 -15q81 -24 132 -48t81 -51t41 -59q11 -33 11 -69q0 -48 -18 -87q-18 -40 -52 -66q-36 -28 -81 -41q-48 -14 -104 -14q-34 0 -75 6q-39 6 -82 18q-41 12 -82 30t-78 42z
" />
    <glyph glyph-name="uni0406" unicode="&#x406;" horiz-adv-x="313" 
d="M69 675h175v-675h-175v675z" />
    <glyph glyph-name="uni0407" unicode="&#x407;" horiz-adv-x="313" 
d="M69 675h175v-675h-175v675zM280 729l-1 -1q-21 0 -40 8t-32 21t-21 33q-8 21 -8 40q0 20 8 39t21 32t32 21t41 8q19 0 38 -8t32 -21q14 -14 21 -31q8 -19 8 -39q0 -19 -8 -40q-7 -19 -21 -33q-13 -13 -32 -21t-38 -8zM36 728l-1 -1q-21 0 -40 8t-32 21q-13 14 -21 33
q-8 21 -8 40q0 20 8 39t21 32t32 21t41 8q19 0 38 -8t32 -21q14 -14 21 -31q8 -19 8 -39q0 -19 -8 -40q-7 -20 -21 -33q-13 -13 -32 -21t-38 -8z" />
    <glyph glyph-name="uni0408" unicode="&#x408;" horiz-adv-x="567" 
d="M279 -13l-3 -2q-34 0 -74 8q-35 7 -75 23q-36 14 -70 36q-33 21 -60 48l99 111q36 -23 70 -39q37 -17 71 -17q17 0 33 6q17 6 29 18q13 13 20 30q8 19 8 44v422h175v-435q0 -71 -18 -119t-48 -78q-29 -29 -71 -43q-39 -13 -86 -13z" />
    <glyph glyph-name="uni0409" unicode="&#x409;" horiz-adv-x="1107" 
d="M30 143l-1 -3q35 0 61 21t24 54v457h593v-234h172q50 0 87 -19q38 -20 63 -49q25 -30 39 -69q14 -40 14 -80q0 -43 -13 -81q-14 -41 -40 -71q-27 -32 -64 -51t-86 -19h-347v515h-243v-299q0 -51 -18 -93t-51 -72q-32 -29 -81 -46q-47 -16 -109 -16v155zM707 278v-121h121
q38 0 56 20q18 19 18 42t-18 41t-57 18h-120z" />
    <glyph glyph-name="uni040A" unicode="&#x40a;" horiz-adv-x="1105" 
d="M69 675l175 -1v-255h287v255h175v-234h172q50 0 87 -19q38 -20 63 -49q26 -30 39 -69q14 -40 14 -80q0 -42 -13 -81q-14 -41 -40 -72q-27 -32 -64 -51t-86 -19h-347v260h-287v-260h-175v675zM706 280v-121h121q38 0 56 20q18 19 18 42t-18 41t-57 18h-120z" />
    <glyph glyph-name="uni040B" unicode="&#x40b;" horiz-adv-x="833" 
d="M19 675l581 -3v-160h-203v-88q44 17 79 24q38 8 80 8q57 0 100 -13q47 -14 77 -40q31 -26 49 -69q18 -42 18 -100v-236h-175v226q0 38 -24 57q-23 19 -79 19q-34 0 -62 -7q-33 -8 -62 -22v-271h-175v515h-204v160z" />
    <glyph glyph-name="uni040C" unicode="&#x40c;" horiz-adv-x="705" 
d="M496 0l-194 233l-58 -64v-169h-175v675h175v-259l230 259h226l-279 -310l301 -365h-226zM267 730l60 156h194l-100 -156h-154z" />
    <glyph glyph-name="uni040E" unicode="&#x40e;" horiz-adv-x="682" 
d="M509 293l-2 -3q-46 -99 -97 -156q-53 -59 -111 -89q-59 -30 -123 -39q-61 -9 -135 -7l11 155q64 0 113 11q46 10 80 32l-229 478h188l146 -323l145 323h187zM267 896h-1q3 -23 24 -41t54 -18q32 0 53 18q20 17 25 41h89q-7 -81 -48 -126t-117 -45q-78 0 -120 45
q-41 44 -46 126h87z" />
    <glyph glyph-name="uni040F" unicode="&#x40f;" horiz-adv-x="775" 
d="M69 675h175v-515h287v515h175v-675h-226l-13 -180h-155l-14 180h-229v675z" />
    <glyph glyph-name="uni0410" unicode="&#x410;" horiz-adv-x="718" 
d="M267 675h184l271 -675h-183l-42 114h-277l-41 -114h-183zM279 274h160l-80 218z" />
    <glyph glyph-name="uni0411" unicode="&#x411;" horiz-adv-x="687" 
d="M565 675v-161h-321v-74h212q50 0 87 -19q38 -20 63 -49q26 -30 39 -69q14 -40 14 -80q0 -42 -13 -81q-14 -41 -40 -72q-27 -32 -64 -51t-86 -19h-387v675h496zM244 280v-121h161q38 0 56 20q18 19 18 42t-18 41t-57 18h-160z" />
    <glyph glyph-name="uni0412" unicode="&#x412;" horiz-adv-x="698" 
d="M69 0l-1 673h370q45 0 78 -16q34 -16 58 -43t36 -61q12 -35 12 -69q0 -32 -11 -67q-11 -34 -33 -59q43 -25 66 -68t23 -88q0 -35 -14 -72q-13 -36 -41 -65q-28 -30 -67 -47q-41 -18 -91 -18h-385zM429 158h-1q29 0 44 17t15 35t-13 32q-14 15 -42 15h-189v-99h186z
M385 417q29 0 42 16q14 17 14 33q0 18 -13 32q-14 15 -42 15h-144v-96h143z" />
    <glyph glyph-name="uni0413" unicode="&#x413;" horiz-adv-x="576" 
d="M555 675v-160h-311v-515h-175v675h486z" />
    <glyph glyph-name="uni0414" unicode="&#x414;" horiz-adv-x="774" 
d="M573 0l-386 -2l-8 -110h-155v270h74q24 53 40 116q16 64 23 124q8 65 9 133q2 92 2 144h497v-515h67v-270h-155zM342 513l1 -1q-5 -58 -12 -108q-9 -59 -16 -93q-8 -37 -20 -81q-11 -38 -24 -72h223v355h-152z" />
    <glyph glyph-name="uni0415" unicode="&#x415;" horiz-adv-x="615" 
d="M69 675h496v-160h-321v-99h301v-160h-301v-96h324v-160h-499v675z" />
    <glyph glyph-name="uni0416" unicode="&#x416;" horiz-adv-x="1098" 
d="M636 0h-175v169l-58 64l-194 -233h-226l301 365l-279 310h226l230 -259v259h175v-260l231 260h226l-279 -310l301 -365h-226l-194 233l-59 -65v-168z" />
    <glyph glyph-name="uni0417" unicode="&#x417;" horiz-adv-x="662" 
d="M86 207h3q86 -37 146 -46q57 -9 87 -9q55 0 86 14q30 14 30 39q0 28 -44 46t-125 18v147q50 0 87 5q32 4 51 14q18 9 24 20t6 21q0 25 -35 36q-36 11 -90 11q-65 0 -111 -10q-48 -11 -102 -30l-66 133q60 35 133 54q72 19 160 19q59 0 116 -11q55 -11 93 -34
q40 -24 62 -60q23 -37 23 -86q0 -52 -24 -89t-69 -63q46 -26 69 -61q24 -36 24 -81q0 -37 -18 -76q-18 -38 -54 -70t-93 -51q-56 -19 -133 -19q-33 0 -78 5q-38 4 -81 17q-37 11 -79 32q-38 19 -73 48z" />
    <glyph glyph-name="uni0418" unicode="&#x418;" horiz-adv-x="773" 
d="M244 262l285 413h175v-675h-175v412l-285 -412h-175v675h175v-413z" />
    <glyph glyph-name="uni0419" unicode="&#x419;" horiz-adv-x="773" 
d="M304 899h-1q3 -23 24 -41t54 -18q32 0 53 18q20 17 25 41h89q-8 -81 -48 -126t-117 -45q-78 0 -120 45q-41 44 -46 126h87zM243 262l285 413h175v-675h-175v412l-285 -412h-175v675h175v-413z" />
    <glyph glyph-name="uni041A" unicode="&#x41a;" horiz-adv-x="705" 
d="M496 0l-194 233l-58 -64v-169h-175v675h175v-259l230 259h226l-279 -310l301 -365h-226z" />
    <glyph glyph-name="uni041B" unicode="&#x41b;" horiz-adv-x="775" 
d="M30 143l-1 -1q35 0 61 21t24 54v457h592v-675h-175v515h-242v-299q0 -51 -18 -93t-51 -72q-32 -29 -81 -46q-47 -16 -109 -16v155z" />
    <glyph glyph-name="uni041C" unicode="&#x41c;" horiz-adv-x="918" 
d="M69 675h180l210 -374l210 374h180v-675h-175v397l-178 -323h-74l-178 323v-397h-175v675z" />
    <glyph glyph-name="uni041D" unicode="&#x41d;" horiz-adv-x="775" 
d="M69 675h175v-255h287v255h175v-675h-175v260h-287v-260h-175v675z" />
    <glyph glyph-name="uni041E" unicode="&#x41e;" horiz-adv-x="785" 
d="M392 -13l-2 -1q-75 0 -141 27t-114 75q-49 49 -77 111t-28 137q0 70 29 136q28 63 77 112q48 48 114 75t141 27t141 -27t114 -75q49 -49 77 -112q29 -66 29 -136q0 -74 -28 -136t-77 -111q-48 -48 -114 -75t-141 -27zM390 151q37 0 70 15q34 15 57 40q24 26 39 60t15 72
t-15 72t-39 60q-23 25 -57 40q-33 15 -70 15t-70 -15q-34 -15 -57 -40q-24 -26 -39 -60t-15 -72t15 -72t39 -60q23 -25 57 -40q33 -15 70 -15z" />
    <glyph glyph-name="uni041F" unicode="&#x41f;" horiz-adv-x="775" 
d="M69 675h637v-675h-175v515h-287v-515h-175v675z" />
    <glyph glyph-name="uni0420" unicode="&#x420;" horiz-adv-x="684" 
d="M69 0v672h364q54 0 96 -21t71 -56q29 -36 44 -78q15 -43 15 -90q0 -45 -15 -90q-15 -44 -44 -81q-29 -36 -71 -59q-43 -23 -96 -23h-189v-174h-175zM244 512l-1 -181h151q22 0 39 9t27 22q10 14 15 30q5 18 5 33q0 33 -21 60t-64 27h-151z" />
    <glyph glyph-name="uni0421" unicode="&#x421;" horiz-adv-x="693" 
d="M674 95l-3 -3q-48 -50 -120 -78q-73 -29 -157 -29q-75 0 -141 24q-67 24 -116 69q-50 45 -78 109q-28 63 -28 147q0 89 33 155q33 67 84 110t114 66q62 22 124 22q96 0 166 -30t126 -83l-124 -117q-31 31 -75 49q-43 18 -93 18q-34 0 -64 -13q-31 -13 -55 -39t-39 -60
t-15 -78q0 -40 14 -76q13 -34 39 -58q25 -24 59 -36q33 -12 72 -12q44 0 87 17t68 48z" />
    <glyph glyph-name="uni0422" unicode="&#x422;" 
d="M19 675h582v-160h-203v-515h-175v515h-204v160z" />
    <glyph glyph-name="uni0423" unicode="&#x423;" horiz-adv-x="682" 
d="M509 293l-2 -3q-46 -99 -97 -156q-53 -59 -111 -89q-59 -30 -123 -39q-61 -9 -135 -7l11 155q64 0 113 11q46 10 80 32l-229 478h188l146 -323l145 323h187z" />
    <glyph glyph-name="uni0424" unicode="&#x424;" horiz-adv-x="860" 
d="M342 81l-1 -2q-157 15 -237 83q-79 67 -79 176q0 105 80 173t237 83v81h175v-81q159 -15 239 -83t80 -174t-80 -174q-79 -67 -239 -82v-81h-175v81zM655 335v-1q0 35 -32 59q-32 25 -107 32v-182q76 9 107 33q32 24 32 59zM204 334v-1q0 -34 32 -58q31 -23 105 -31v181
q-73 -9 -105 -33t-32 -58z" />
    <glyph glyph-name="uni0425" unicode="&#x425;" horiz-adv-x="722" 
d="M257 338l-255 337h213l149 -197l144 197h212l-255 -335l265 -340h-213l-155 202l-153 -202h-217z" />
    <glyph glyph-name="uni0426" unicode="&#x426;" horiz-adv-x="810" 
d="M68 675h175v-514h287v514h175v-514h66v-271h-155l-8 110h-540v675z" />
    <glyph glyph-name="uni0427" unicode="&#x427;" horiz-adv-x="709" 
d="M465 209h1q-30 -5 -58 -6q-38 -2 -54 -2q-73 0 -133 18q-59 18 -102 53t-65 87q-23 54 -23 120v196h175v-161q0 -41 11 -71q10 -28 30 -46q19 -17 48 -25q27 -7 66 -7q12 0 48 2q28 2 56 6v302h175v-675h-175v209z" />
    <glyph glyph-name="uni0428" unicode="&#x428;" horiz-adv-x="1053" 
d="M69 675h175v-515h195v515h175v-515h195v515h175v-675h-915v675z" />
    <glyph glyph-name="uni0429" unicode="&#x429;" horiz-adv-x="1087" 
d="M67 675h175v-515h195v515h175v-515h195v515h175v-515h66v-270h-155l-8 110h-818v675z" />
    <glyph glyph-name="uni042A" unicode="&#x42a;" horiz-adv-x="841" 
d="M20 675l382 -3v-234h212q50 0 87 -19q38 -20 63 -49q26 -30 39 -69q14 -40 14 -80q0 -42 -13 -80q-14 -41 -40 -71q-27 -32 -64 -51t-86 -19h-387v515h-207v160zM402 278v-121h161q38 0 56 20q18 19 18 42t-18 41t-57 18h-160z" />
    <glyph glyph-name="uni042B" unicode="&#x42b;" horiz-adv-x="963" 
d="M244 675v-235h212q50 0 87 -19q38 -20 63 -49q26 -30 39 -69q14 -40 14 -80q0 -42 -13 -81q-14 -41 -40 -72q-27 -32 -64 -51t-86 -19h-387v675h175zM719 674h175v-675h-175v675zM244 280v-121h161q38 0 56 20q18 19 18 42t-18 41t-57 18h-160z" />
    <glyph glyph-name="uni042C" unicode="&#x42c;" horiz-adv-x="683" 
d="M244 675v-237h212q50 0 87 -19q38 -20 63 -49q26 -30 39 -69q14 -40 14 -80q0 -42 -13 -80q-14 -41 -40 -71q-27 -32 -64 -51t-86 -19h-387v675h175zM244 278v-122h161q38 0 56 19t18 42t-18 42t-57 19h-160z" />
    <glyph glyph-name="uni042D" unicode="&#x42d;" horiz-adv-x="676" 
d="M446 416v-4q-22 48 -66 78t-97 30q-41 0 -81 -17q-38 -16 -61 -48l-124 117q50 53 117 83q68 30 147 30q75 0 141 -27t114 -75q49 -49 77 -112q29 -66 29 -136q0 -74 -28 -136t-77 -111q-48 -48 -114 -75t-141 -27q-76 0 -145 29q-67 28 -117 80l121 119q13 -16 28 -27
t36 -19q19 -8 39 -12q17 -4 39 -4q52 0 96 29q43 29 66 75h-200v160h201z" />
    <glyph glyph-name="uni042E" unicode="&#x42e;" horiz-adv-x="1122" 
d="M66 675l173 -2v-255h138q15 56 48 106q33 49 79 85q47 36 103 57q57 21 121 21q75 0 141 -27t114 -75q49 -49 77 -112q29 -66 29 -136q0 -74 -28 -136t-77 -111q-48 -48 -114 -75t-141 -27q-65 0 -122 21q-58 21 -104 57q-45 35 -79 86q-32 48 -46 108h-137v-260h-175
v675zM727 150q37 0 70 15q34 15 57 40q24 25 39 60t15 72t-15 72t-39 60q-23 25 -57 40q-33 15 -70 15t-70 -15q-34 -15 -57 -40q-24 -25 -39 -60t-15 -72t15 -72t39 -60q23 -25 57 -40q33 -15 70 -15z" />
    <glyph glyph-name="uni042F" unicode="&#x42f;" horiz-adv-x="739" 
d="M144 256v-1q-22 18 -39 42q-16 23 -27 50q-9 23 -16 54q-6 29 -6 54q0 43 15 84q15 40 42 70t66 48t89 18h402v-675h-175v214h-184l-108 -214h-188zM236 444h-2q2 -26 18 -48t47 -22h195v140h-196q-33 0 -48 -22q-15 -23 -14 -48z" />
    <glyph glyph-name="uni0430" unicode="&#x430;" horiz-adv-x="575" 
d="M355 304q0 30 -31 45q-32 15 -87 15q-37 0 -79 -6q-39 -6 -83 -17l-30 132q47 14 103 25q50 10 111 10q130 0 198 -50t68 -138v-319h-100l-32 53q-46 -37 -91 -52t-97 -15q-92 0 -136 37q-45 38 -45 103q0 72 48 107q48 34 135 42l148 13v15zM247 97l-1 -1q32 0 57 12
q24 11 51 32v62l-96 -15q-26 -5 -41 -13q-17 -9 -17 -35q0 -18 12 -30t35 -12z" />
    <glyph glyph-name="uni0431" unicode="&#x431;" horiz-adv-x="605" 
d="M328 -13h-4q-59 0 -110 19q-53 20 -93 58q-42 40 -65 97q-24 59 -24 136v5q0 105 29 180q29 74 78 120t115 67t141 21q43 0 84 -6q38 -6 87 -23l-51 -148q-33 13 -66 17q-38 5 -60 5q-47 0 -88 -18q-40 -18 -64 -60q28 6 42 8q21 3 39 3q52 0 99 -15t81 -45
q35 -31 56 -75q21 -45 21 -103q0 -59 -19 -103q-19 -43 -53 -76q-33 -31 -78 -48q-44 -16 -97 -16zM306 142l-2 -3q21 0 36 7q18 8 29 19q13 13 20 29q8 18 8 35q0 20 -9 35q-10 17 -22 26q-13 10 -31 16t-36 6q-38 0 -65 -24t-27 -58q0 -20 9 -36q8 -15 23 -28
q13 -12 32 -18q18 -6 35 -6z" />
    <glyph glyph-name="uni0432" unicode="&#x432;" horiz-adv-x="571" 
d="M55 0l-1 496h295q41 0 71 -12t51 -33t31 -46q10 -24 10 -51q0 -21 -8 -47q-7 -24 -23 -44q31 -20 47 -51q17 -32 17 -63q0 -27 -12 -54q-12 -28 -34 -48t-54 -34q-30 -13 -72 -13h-318zM342 147q11 0 15 7q5 8 5 15q0 9 -4 14q-4 6 -15 6h-119v-42h118zM316 309h2
q10 0 15 6q5 7 5 15t-6 14t-16 6h-92v-41h92z" />
    <glyph glyph-name="uni0433" unicode="&#x433;" horiz-adv-x="449" 
d="M55 495h376v-156h-206v-339h-170v495z" />
    <glyph glyph-name="uni0434" unicode="&#x434;" horiz-adv-x="616" 
d="M174 -110h-156v266h62q31 67 53 147q23 83 27 192h355v-339h67v-266h-155l-9 110h-236zM298 339v-1q-7 -46 -20 -95t-28 -87h94v183h-46z" />
    <glyph glyph-name="uni0435" unicode="&#x435;" horiz-adv-x="575" 
d="M529 83l-1 -1q-40 -47 -99 -71q-60 -24 -124 -24q-54 0 -105 18t-90 51q-38 32 -61 81t-23 108q0 60 22 107q23 49 60 83t86 54q47 19 101 19t99 -19q48 -20 83 -55q36 -36 57 -89t21 -120h-350q9 -43 41 -63t77 -20q25 0 51 9q25 9 45 29zM289 372h-1q-38 0 -57 -25
t-27 -57l167 7q-21 75 -82 75z" />
    <glyph glyph-name="uni0436" unicode="&#x436;" horiz-adv-x="894" 
d="M683 0l-122 143l-29 -31v-112h-170v112l-29 31l-122 -143h-220l228 266l-210 229h220l133 -149v149h170v-149l133 149h220l-211 -229l229 -266h-220z" />
    <glyph glyph-name="uni0437" unicode="&#x437;" horiz-adv-x="491" 
d="M73 170l-3 -4q22 -11 49 -19q25 -7 48 -12t40 -6q12 -1 29 -1q40 0 40 26q0 17 -24 26t-67 9v113q28 0 46 3q17 3 28 9q10 6 13 12t3 12q0 9 -14 14q-15 5 -36 5q-28 0 -40 -1q-24 -2 -35 -4l-33 -6q-17 -3 -36 -9l-51 122q48 22 104 35q59 14 118 14q44 0 81 -9
q38 -9 65 -27t42 -45t15 -61q0 -38 -18 -66q-18 -29 -49 -48q30 -18 48 -45t18 -63q0 -28 -12 -57q-12 -28 -38 -51q-25 -22 -65 -36q-38 -13 -93 -13q-52 0 -117 17q-63 16 -117 60z" />
    <glyph glyph-name="uni0438" unicode="&#x438;" 
d="M225 249l170 246h170v-495h-170v246l-170 -246h-170v495h170v-246z" />
    <glyph glyph-name="uni0439" unicode="&#x439;" 
d="M225 249l170 246h170v-495h-170v246l-170 -246h-170v495h170v-246zM216 722q3 -23 24 -41t53 -18t53 18q20 17 25 41h89q-8 -81 -48 -126t-117 -45q-78 0 -120 45q-41 44 -46 126h87z" />
    <glyph glyph-name="uni043A" unicode="&#x43a;" horiz-adv-x="587" 
d="M376 0l-122 143l-29 -31v-112h-170v495h170v-149l133 149h220l-211 -229l229 -266h-220z" />
    <glyph glyph-name="uni043B" unicode="&#x43b;" horiz-adv-x="645" 
d="M284 216l1 -1q0 -50 -17 -93t-49 -72t-81 -46q-47 -16 -109 -16v155q35 0 61 21t24 54v277h477v-495h-170v339h-137v-123z" />
    <glyph glyph-name="uni043C" unicode="&#x43c;" horiz-adv-x="726" 
d="M55 495h175l133 -224l133 224h175v-495h-170v241l-106 -182h-63l-107 183v-242h-170v495z" />
    <glyph glyph-name="uni043D" unicode="&#x43d;" horiz-adv-x="627" 
d="M55 495h170v-172h177v172h170v-495h-170v167h-177v-167h-170v495z" />
    <glyph glyph-name="uni043E" unicode="&#x43e;" horiz-adv-x="612" 
d="M305 -13l-3 -1q-54 0 -105 18t-90 51q-38 32 -61 81t-23 107t23 107q23 48 62 83t90 54q50 19 105 19q57 0 107 -19q51 -19 90 -54t62 -83q23 -49 23 -107q0 -57 -23 -106t-61 -81q-39 -33 -90 -51t-106 -18zM302 141h-1q21 0 42 8q19 7 34 21t23 32q8 19 8 41
q0 21 -8 42t-22 35q-15 15 -34 24q-20 9 -42 9q-43 0 -73 -31q-30 -32 -30 -78q0 -45 29 -74t74 -29z" />
    <glyph glyph-name="uni043F" unicode="&#x43f;" horiz-adv-x="627" 
d="M402 339h-177v-339h-170v495h517v-495h-170v339z" />
    <glyph glyph-name="uni0440" unicode="&#x440;" horiz-adv-x="623" 
d="M334 508l-4 -2q55 0 102 -19q48 -19 84 -54q36 -34 57 -83q21 -48 21 -106q0 -59 -21 -107q-21 -49 -55 -81q-34 -33 -81 -51t-99 -18q-36 0 -67 9q-29 8 -57 23l9 -86v-169h-170v731h94l21 -46q33 26 77 43q41 16 89 16zM311 351l1 -1q-22 0 -40 -9q-20 -10 -32 -22
q-14 -13 -21 -33q-8 -21 -8 -42t8 -42q7 -20 21 -33q13 -13 32 -21t41 -8q43 0 74 29q30 29 30 75q0 22 -9 42t-22 33q-14 14 -33 23t-42 9z" />
    <glyph glyph-name="uni0441" unicode="&#x441;" horiz-adv-x="531" 
d="M514 78l-2 2q-20 -22 -45 -39q-23 -15 -54 -28q-29 -12 -60 -18t-60 -6q-53 0 -101 18q-47 18 -85 51q-37 33 -60 81q-22 47 -22 107t22 107q23 49 60 83t86 54q47 19 101 19q29 0 59 -6q31 -6 59 -18q31 -13 54 -28q26 -17 45 -39l-122 -105q-19 18 -39 29
q-21 12 -55 12q-18 0 -36 -8q-17 -8 -30 -22q-14 -15 -21 -34q-7 -18 -7 -42q0 -47 28 -76q29 -30 69 -30q26 0 47 9t47 29z" />
    <glyph glyph-name="uni0442" unicode="&#x442;" horiz-adv-x="450" 
d="M17 495h416l2 -146h-125v-349h-170v349h-123v146z" />
    <glyph glyph-name="uni0443" unicode="&#x443;" horiz-adv-x="556" 
d="M375 86h-1q-66 -158 -147 -240t-191 -82v155q19 0 45 8q23 7 46 24q24 17 42 40q20 25 33 55l-201 449h186l93 -264l97 264h186z" />
    <glyph glyph-name="uni0444" unicode="&#x444;" horiz-adv-x="967" 
d="M288 -13l1 1q-55 0 -102 19q-48 19 -84 54q-36 34 -57 83q-21 48 -21 107q0 58 21 106q21 47 56 81q34 33 81 51t99 18q36 0 68 -9q30 -9 57 -26l-9 91v167h170v-245q26 12 51 17q27 6 59 6q55 0 102 -19q48 -19 84 -54q36 -34 57 -83q21 -48 21 -107t-21 -107
q-21 -49 -55 -81q-34 -33 -81 -51t-99 -18q-38 0 -69 9t-57 24l9 -88v-167h-170v246q-51 -25 -111 -25zM660 143h3q43 0 74 29q30 28 30 75q0 23 -9 42q-9 20 -22 34q-14 15 -33 24t-42 9q-43 0 -73 -31t-30 -78q0 -21 8 -42q8 -19 21 -33q13 -13 32 -21t41 -8zM311 143
q23 0 41 9q19 9 32 24q14 15 21 34q8 21 8 42q0 46 -30 74q-31 29 -73 29q-24 0 -42 -7q-19 -7 -34 -21q-14 -13 -22 -33q-8 -21 -8 -42t8 -42q7 -18 23 -34q15 -15 34 -24t42 -9z" />
    <glyph glyph-name="uni0445" unicode="&#x445;" horiz-adv-x="571" 
d="M375 0l-88 132l-91 -132h-196l192 249l-184 246h196l81 -137l82 137h196l-185 -246l193 -249h-196z" />
    <glyph glyph-name="uni0446" unicode="&#x446;" horiz-adv-x="671" 
d="M54 495h170v-339h177v339h170v-339h67v-266h-155l-9 110h-420v495z" />
    <glyph glyph-name="uni0447" unicode="&#x447;" horiz-adv-x="570" 
d="M515 495l-2 -496h-170v67l9 80q-18 -4 -28 -5q-20 -2 -34 -2q-61 0 -112 18q-50 18 -87 53q-35 34 -55 87q-19 51 -19 120v76h170v-61q0 -36 9 -61t24 -40t35 -21q19 -6 42 -6t48 6v185h170z" />
    <glyph glyph-name="uni0448" unicode="&#x448;" horiz-adv-x="894" 
d="M55 495h170v-339h137v339h170v-339h137v339h170v-495h-784v495z" />
    <glyph glyph-name="uni0449" unicode="&#x449;" horiz-adv-x="938" 
d="M54 495h170v-339h137v339h170v-339h137v339h170v-339h67v-266h-155l-9 110h-687v495z" />
    <glyph glyph-name="uni044A" unicode="&#x44a;" horiz-adv-x="622" 
d="M17 495h292v-130h110q43 0 78 -15q34 -15 57 -41q24 -27 35 -58q12 -33 12 -67t-12 -67q-12 -34 -36 -59q-24 -26 -57 -42q-32 -16 -76 -16h-280v349h-123v146zM309 220v-76h76q19 0 30 12q10 11 10 27q0 14 -10 25q-11 12 -31 12h-75z" />
    <glyph glyph-name="uni044B" unicode="&#x44b;" horiz-adv-x="785" 
d="M55 495h169v-130h110q44 0 78 -15t57 -41q24 -27 35 -58q12 -33 12 -67t-12 -67q-12 -34 -36 -59q-24 -26 -57 -42q-32 -16 -76 -16h-280v495zM559 0v495h170v-495h-170zM224 220v-76h76q20 0 30 12q10 11 10 27q0 14 -10 25q-10 12 -31 12h-75z" />
    <glyph glyph-name="uni044C" unicode="&#x44c;" horiz-adv-x="537" 
d="M55 495h169v-130h110q44 0 78 -15t57 -41q24 -27 35 -58q12 -33 12 -67t-12 -67q-12 -34 -36 -59q-24 -26 -57 -42q-32 -16 -76 -16h-280v495zM224 220v-76h76q20 0 30 12q10 11 10 27q0 14 -10 25q-10 12 -31 12h-75z" />
    <glyph glyph-name="uni044D" unicode="&#x44d;" horiz-adv-x="532" 
d="M140 180l-2 -4q24 -18 48 -28q22 -9 45 -9q35 0 60 21t33 56h-180v53h181q-7 35 -33 57q-26 23 -58 23q-26 0 -51 -12q-26 -12 -43 -28l-122 105q20 22 45 39q23 15 54 28q28 12 59 18q30 6 59 6q54 0 101 -19q49 -20 86 -54t60 -83q22 -47 22 -107q0 -59 -22 -106
q-22 -48 -60 -81q-37 -33 -86 -51q-48 -18 -100 -18q-30 0 -60 6q-31 6 -59 18q-26 11 -54 29q-25 17 -45 39z" />
    <glyph glyph-name="uni044E" unicode="&#x44e;" horiz-adv-x="853" 
d="M52 495l169 -3v-172h57q14 44 40 77q27 35 62 59q33 23 77 37q40 13 87 13q57 0 107 -19q51 -19 90 -54t62 -83q23 -49 23 -107q0 -57 -23 -106t-61 -81q-39 -33 -90 -51t-106 -18q-45 0 -87 12q-43 12 -77 36q-36 25 -62 57t-40 75h-58v-167h-170v495zM545 139l-6 1
q21 0 42 8q19 8 33 21q14 14 23 32t9 41q0 22 -9 42t-22 34q-13 15 -33 24t-40 9q-22 0 -40 -9q-19 -9 -32 -24q-14 -15 -21 -34q-8 -21 -8 -42q0 -46 30 -74q31 -29 74 -29z" />
    <glyph glyph-name="uni044F" unicode="&#x44f;" horiz-adv-x="570" 
d="M13 0l93 178q-33 26 -50 65q-17 40 -17 79q0 32 12 64q12 31 33 55t53 39q31 15 72 15h306v-495h-170v145h-73l-77 -145h-182zM213 324v1q0 -13 8 -24q7 -10 21 -10h101v58h-102q-14 0 -21 -7t-7 -18z" />
    <glyph glyph-name="uni0451" unicode="&#x451;" horiz-adv-x="575" 
d="M529 83l-1 -1q-40 -47 -99 -71q-60 -24 -124 -24q-54 0 -105 18t-90 51q-38 32 -61 81t-23 108q0 60 22 107q23 49 60 83t86 54q47 19 101 19t99 -19q48 -20 83 -55q36 -36 57 -89t21 -120h-350q9 -43 41 -63t77 -20q25 0 51 9q25 9 45 29zM289 372h-1q-38 0 -57 -25
t-27 -57l167 7q-21 75 -82 75zM413 552l-1 -1q-21 0 -40 8t-32 21q-14 14 -21 33q-8 21 -8 40q0 20 8 39t21 32t32 21t41 8q19 0 38 -8t32 -21q14 -14 21 -31q8 -19 8 -39q0 -19 -8 -40q-8 -20 -21 -33t-32 -21t-38 -8zM169 551l-1 -1q-21 0 -40 8t-32 21q-14 13 -21 33
q-8 21 -8 40q0 20 8 39t21 32t32 21t41 8q19 0 38 -8t32 -21q14 -14 21 -31q8 -19 8 -39q0 -19 -8 -40q-8 -19 -21 -33q-13 -13 -32 -21t-38 -8z" />
    <glyph glyph-name="uni0452" unicode="&#x452;" 
d="M7 656l45 -2v74h170v-74h216v-110h-217l-7 -96q30 27 68 42t86 15q40 0 76 -12t64 -37q29 -26 45 -64q17 -40 17 -93v-308q0 -50 -17 -93t-49 -72t-81 -46q-47 -16 -109 -16v155q36 0 61 21t24 54v266q0 44 -21 63q-22 20 -59 20q-51 0 -95 -38v-305h-170v546h-47v110z
" />
    <glyph glyph-name="uni0453" unicode="&#x453;" horiz-adv-x="449" 
d="M55 495h376v-156h-206v-339h-170v495zM130 552l60 156h194l-100 -156h-154z" />
    <glyph glyph-name="uni0454" unicode="&#x454;" horiz-adv-x="532" 
d="M514 78h-3q-19 -22 -45 -39q-23 -15 -54 -28q-28 -12 -60 -18t-60 -6q-53 0 -101 18q-47 18 -85 51t-60 81q-22 47 -22 107t22 107q23 49 60 83t86 54q47 19 101 19q29 0 59 -6q31 -6 59 -18q31 -13 54 -28q25 -17 45 -39l-122 -105q-17 16 -43 28q-25 12 -51 12
q-35 0 -58 -22q-25 -23 -32 -57h182v-53h-181q8 -35 33 -56q26 -21 60 -21q20 0 44 9t50 29z" />
    <glyph glyph-name="uni0455" unicode="&#x455;" horiz-adv-x="542" 
d="M72 188l-2 -8q68 -32 119 -44q52 -12 104 -12q16 0 24 5t8 11q0 13 -31 19q-76 17 -122 36t-74 41q-26 20 -37 45q-11 24 -12 49q-2 36 12 68q13 31 42 55q27 23 71 37q40 13 98 13q24 0 56 -3q30 -3 64 -9q33 -6 63 -15q29 -9 53 -23l-55 -129q-22 9 -46 15
q-17 4 -49 10q-24 5 -45 6q-28 2 -35 2q-21 0 -36 -3t-15 -11q0 -7 6 -12q6 -4 23 -9q69 -15 117 -30q47 -15 78 -35t44 -46q13 -27 15 -63q0 -37 -16 -66q-17 -31 -46 -51q-30 -21 -72 -33t-96 -12q-23 0 -56 3q-29 3 -69 11q-36 8 -72 21t-65 35z" />
    <glyph glyph-name="uni0456" unicode="&#x456;" horiz-adv-x="280" 
d="M142 554l-1 -1q-21 0 -40 8t-32 21q-13 14 -21 33q-8 21 -8 40q0 20 8 39t21 32t32 21t41 8q19 0 38 -8t32 -21q14 -14 21 -31q8 -19 8 -39q0 -19 -8 -40q-7 -20 -21 -33q-13 -13 -32 -21t-38 -8zM54 494h170v-495h-170v495z" />
    <glyph glyph-name="uni0457" unicode="&#x457;" horiz-adv-x="280" 
d="M55 495h170v-495h-170v495zM261 553l-1 -1q-21 0 -40 8t-32 21q-14 13 -21 33q-8 21 -8 40q0 20 8 39t21 32t32 21t41 8q19 0 38 -8t32 -21q14 -14 21 -31q8 -19 8 -39q0 -19 -8 -40q-8 -19 -21 -33q-13 -13 -32 -21t-38 -8zM17 552l-1 -1q-21 0 -40 8t-32 21
q-14 14 -21 33q-8 21 -8 40q0 20 8 39t21 32t32 21t41 8q19 0 38 -8t32 -21q14 -14 21 -31q8 -19 8 -39q0 -19 -8 -40q-8 -20 -21 -33t-32 -21t-38 -8z" />
    <glyph glyph-name="uni0458" unicode="&#x458;" horiz-adv-x="280" 
d="M142 554l-1 -1q-21 0 -40 8t-32 21q-13 14 -21 33q-8 21 -8 40q0 20 8 39t21 32t32 21t41 8q19 0 38 -8t32 -21q14 -14 21 -31q8 -19 8 -39q0 -19 -8 -40q-7 -20 -21 -33q-13 -13 -32 -21t-38 -8zM224 -8l1 -1q0 -50 -17 -93t-49 -72t-81 -46q-47 -16 -109 -16v155
q35 0 61 21t24 54v500h170v-502z" />
    <glyph glyph-name="uni0459" unicode="&#x459;" horiz-adv-x="901" 
d="M283 216v-1q0 -50 -17 -93t-49 -72t-81 -46q-47 -16 -109 -16v155q35 0 61 21t24 54v277h477v-130h110q43 0 78 -15q34 -15 57 -41q24 -27 35 -58q12 -33 12 -67t-12 -67q-12 -34 -36 -59q-24 -26 -57 -42q-32 -16 -76 -16h-280v339h-137v-123zM590 219v-76h76
q20 0 30 12q10 11 10 27q0 14 -10 25q-10 12 -31 12h-75z" />
    <glyph glyph-name="uni045A" unicode="&#x45a;" horiz-adv-x="884" 
d="M402 167h-178v-167h-170v495h170v-172h177v172h170v-130h110q43 0 78 -15q34 -15 57 -41q24 -27 35 -58q12 -33 12 -67t-12 -67q-12 -34 -36 -59q-24 -26 -57 -42q-32 -16 -76 -16h-280v167zM571 220v-76h76q19 0 30 12q10 11 10 27q0 14 -10 25q-11 12 -31 12h-75z" />
    <glyph glyph-name="uni045B" unicode="&#x45b;" horiz-adv-x="621" 
d="M13 649l41 -1v65h170v-65h210v-100h-210l-8 -99q28 27 66 42t86 15q40 0 76 -12t64 -37q29 -26 45 -64q17 -40 17 -93v-301h-170v261q0 43 -23 63t-57 20q-49 0 -95 -38v-305h-170v549h-42v100z" />
    <glyph glyph-name="uni045C" unicode="&#x45c;" horiz-adv-x="587" 
d="M55 495h170v-149l133 149h220l-211 -229l229 -266h-220l-122 143l-29 -31v-112h-170v495zM203 552l60 156h194l-100 -156h-154z" />
    <glyph glyph-name="uni045E" unicode="&#x45e;" horiz-adv-x="556" 
d="M375 86h-1q-66 -158 -147 -240t-191 -82v155q19 0 45 8q23 7 46 24q24 17 42 40q20 25 33 55l-201 449h186l93 -264l97 264h186zM182 722q3 -23 24 -41t53 -18t53 18q20 17 25 41h89q-8 -81 -48 -126t-117 -45q-78 0 -120 45q-41 44 -46 126h87z" />
    <glyph glyph-name="uni045F" unicode="&#x45f;" horiz-adv-x="625" 
d="M54 495h170v-339h177v339h170v-495h-170l-11 -150h-155l-11 150h-170v495z" />
    <glyph glyph-name="uni0490" unicode="&#x490;" horiz-adv-x="525" 
d="M358 675l12 100h135v-260h-262v-515h-175v675h290z" />
    <glyph glyph-name="uni0491" unicode="&#x491;" horiz-adv-x="448" 
d="M54 495h220l16 120h140v-276h-206v-339h-170v495z" />
    <glyph glyph-name="Bdotaccent" unicode="&#x1e02;" horiz-adv-x="698" 
d="M69 0l-1 673h370q45 0 78 -16q34 -16 58 -43t36 -61q12 -35 12 -69q0 -32 -11 -67q-11 -34 -33 -59q43 -25 66 -68t23 -88q0 -35 -14 -72q-13 -36 -41 -65q-28 -30 -67 -47q-41 -18 -91 -18h-385zM429 158h-1q29 0 44 17t15 35t-13 32q-14 15 -42 15h-189v-99h186z
M385 417q29 0 42 16q14 17 14 33q0 18 -13 32q-14 15 -42 15h-144v-96h143zM330 727l-1 -1q-21 0 -40 8t-32 21t-21 33q-8 21 -8 40q0 20 8 39t21 32t32 21t41 8q19 0 38 -8t32 -21q14 -14 21 -31q8 -19 8 -39q0 -19 -8 -40q-7 -19 -21 -33q-13 -13 -32 -21t-38 -8z" />
    <glyph glyph-name="bdotaccent" unicode="&#x1e03;" horiz-adv-x="623" 
d="M334 -13l2 -3q-49 0 -91 15q-40 14 -76 41l-19 -43h-94v714h170v-151l-10 -98q30 21 60 32q32 12 66 12q52 0 99 -18t81 -51q34 -32 55 -81q21 -48 21 -106q0 -59 -21 -107q-21 -49 -57 -83t-84 -54q-47 -19 -102 -19zM317 139l-2 1q21 0 42 8q19 7 33 23q15 17 23 34
q9 19 9 42t-9 42q-9 20 -22 33q-13 14 -33 21q-21 8 -42 8q-42 0 -73 -29q-30 -28 -30 -74t30 -78q30 -31 74 -31zM322 727l-1 -1q-21 0 -40 8t-32 21t-21 33q-8 21 -8 40q0 20 8 39t21 32t32 21t41 8q19 0 38 -8t32 -21q14 -14 21 -31q8 -19 8 -39q0 -19 -8 -40
q-7 -19 -21 -33q-13 -13 -32 -21t-38 -8z" />
    <glyph glyph-name="Ddotaccent" unicode="&#x1e0a;" horiz-adv-x="748" 
d="M69 675l315 3q69 0 129 -27t105 -72t71 -107q26 -63 26 -132t-26 -132q-26 -62 -70 -108t-105 -73q-60 -27 -129 -27h-316v675zM243 518v-356h141q30 0 58 14q26 13 48 38q21 24 33 57t12 69t-12 69t-33 57q-22 25 -48 38q-28 14 -58 14h-141zM346 731l-1 -1q-21 0 -40 8
t-32 21t-21 33q-8 21 -8 40q0 20 8 39t21 32t32 21t41 8q19 0 38 -8t32 -21q14 -14 21 -31q8 -19 8 -39q0 -19 -8 -40q-7 -19 -21 -33q-13 -13 -32 -21t-38 -8z" />
    <glyph glyph-name="ddotaccent" unicode="&#x1e0b;" horiz-adv-x="624" 
d="M455 43l1 3q-36 -27 -76 -41q-42 -15 -91 -15q-55 0 -102 19q-48 19 -84 54q-36 34 -57 83q-21 48 -21 107q0 58 21 106q21 47 56 81q34 33 81 51t99 18q34 0 66 -12q33 -13 60 -31l-9 97v151h170v-714h-94zM309 145h-2q44 0 74 31q30 32 30 78t-30 74q-31 29 -73 29
q-24 0 -42 -7q-19 -7 -34 -21q-14 -13 -22 -33q-8 -21 -8 -42t8 -42q7 -18 23 -34q15 -15 34 -24t42 -9zM313 732l-1 -1q-21 0 -40 8t-32 21q-14 14 -21 33q-8 21 -8 40q0 20 8 39t21 32t32 21t41 8q19 0 38 -8t32 -21q14 -14 21 -31q8 -19 8 -39q0 -19 -8 -40
q-8 -20 -21 -33t-32 -21t-38 -8z" />
    <glyph glyph-name="Ddotbelow" unicode="&#x1e0c;" horiz-adv-x="748" 
d="M69 675l315 3q69 0 129 -27t105 -72t71 -107q26 -63 26 -132t-26 -132q-26 -62 -70 -108t-105 -73q-60 -27 -129 -27h-316v675zM243 518v-356h141q30 0 58 14q26 13 48 38q21 24 33 57t12 69t-12 69t-33 57q-22 25 -48 38q-28 14 -58 14h-141zM338 -259l-1 -1
q-21 0 -40 8t-32 21t-21 33q-8 21 -8 40q0 20 8 39t21 32t32 21t41 8q19 0 38 -8t32 -21q14 -14 21 -31q8 -19 8 -39q0 -19 -8 -40q-7 -19 -21 -33q-13 -13 -32 -21t-38 -8z" />
    <glyph glyph-name="ddotbelow" unicode="&#x1e0d;" horiz-adv-x="624" 
d="M455 43l1 3q-36 -27 -76 -41q-42 -15 -91 -15q-55 0 -102 19q-48 19 -84 54q-36 34 -57 83q-21 48 -21 107q0 58 21 106q21 47 56 81q34 33 81 51t99 18q34 0 66 -12q33 -13 60 -31l-9 97v151h170v-714h-94zM309 145h-2q44 0 74 31q30 32 30 78t-30 74q-31 29 -73 29
q-24 0 -42 -7q-19 -7 -34 -21q-14 -13 -22 -33q-8 -21 -8 -42t8 -42q7 -18 23 -34q15 -15 34 -24t42 -9zM303 -258l-1 -1q-21 0 -40 8t-32 21q-14 14 -21 33q-8 21 -8 40q0 20 8 39t21 32t32 21t41 8q19 0 38 -8t32 -21q14 -14 21 -31q8 -19 8 -39q0 -19 -8 -40
q-8 -20 -21 -33t-32 -21t-38 -8z" />
    <glyph glyph-name="Fdotaccent" unicode="&#x1e1e;" horiz-adv-x="588" 
d="M69 675h476v-160h-301v-133h281v-160h-281v-222h-175v675zM309 729l-1 -1q-21 0 -40 8t-32 21q-14 13 -21 33q-8 21 -8 40q0 20 8 39t21 32t32 21t41 8q19 0 38 -8t32 -21q14 -14 21 -31q8 -19 8 -39q0 -19 -8 -40q-8 -19 -21 -33q-13 -13 -32 -21t-38 -8z" />
    <glyph glyph-name="fdotaccent" unicode="&#x1e1f;" horiz-adv-x="345" 
d="M244 352l1 -354h-170v352h-36v143h36v25q0 57 16 93q17 37 48 60q32 23 80 32t112 9l-17 -143q-24 0 -36 -4q-15 -5 -21 -10q-7 -5 -10 -15q-3 -9 -3 -20v-25h77v-41l-10 -102h-67zM211 747l-1 -1q-21 0 -40 8t-32 21q-14 13 -21 33q-8 21 -8 40q0 20 8 39t21 32t32 21
t41 8q19 0 38 -8t32 -21q14 -14 21 -31q8 -19 8 -39q0 -19 -8 -40q-8 -19 -21 -33q-13 -13 -32 -21t-38 -8z" />
    <glyph glyph-name="Hdotbelow" unicode="&#x1e24;" horiz-adv-x="775" 
d="M69 675h175v-255h287v255h175v-675h-175v260h-287v-260h-175v675zM389 -261l-1 -1q-21 0 -40 8t-32 21q-14 13 -21 33q-8 21 -8 40q0 20 8 39t21 32t32 21t41 8q19 0 38 -8t32 -21q14 -14 21 -31q8 -19 8 -39q0 -19 -8 -40q-8 -19 -21 -33q-13 -13 -32 -21t-38 -8z" />
    <glyph glyph-name="hdotbelow" unicode="&#x1e25;" horiz-adv-x="621" 
d="M55 0l-1 713h170v-162l-8 -102q28 27 66 42t86 15q40 0 76 -12t64 -37q29 -26 45 -64q17 -40 17 -93v-301h-170v261q0 43 -23 63t-57 20q-49 0 -95 -38v-305h-170zM312 -262l-1 -1q-21 0 -40 8t-32 21q-13 14 -21 33q-8 21 -8 40q0 20 8 39t21 32t32 21t41 8q19 0 38 -8
t32 -21q14 -14 21 -31q8 -19 8 -39q0 -19 -8 -40q-7 -20 -21 -33q-13 -13 -32 -21t-38 -8z" />
    <glyph glyph-name="Mdotaccent" unicode="&#x1e40;" horiz-adv-x="916" 
d="M68 675h180l210 -374l210 374h180v-675h-175v397l-178 -323h-74l-178 323v-397h-175v675zM460 595l-1 -1q-21 0 -40 8t-32 21t-21 33q-8 21 -8 40q0 20 8 39t21 32t32 21t41 8q19 0 38 -8t32 -21q14 -14 21 -31q8 -19 8 -39q0 -19 -8 -40q-7 -19 -21 -33q-13 -13 -32 -21
t-38 -8z" />
    <glyph glyph-name="mdotaccent" unicode="&#x1e41;" horiz-adv-x="966" 
d="M55 0l-5 493h111l27 -71q38 44 82 63q46 20 96 20t96 -20q45 -19 72 -63q38 44 82 63q46 20 96 20q40 0 76 -12t64 -37q29 -26 45 -64q17 -40 17 -93v-301h-169v261q0 43 -23 63t-57 20q-49 0 -95 -38v-305h-170v261q0 43 -23 63t-57 20q-49 0 -95 -38v-305h-170z
M492 550l-1 -1q-21 0 -40 8t-32 21q-13 14 -21 33q-8 21 -8 40q0 20 8 39t21 32t32 21t41 8q19 0 38 -8t32 -21q14 -14 21 -31q8 -19 8 -39q0 -19 -8 -40q-7 -20 -21 -33q-13 -13 -32 -21t-38 -8z" />
    <glyph glyph-name="Ndotaccent" unicode="&#x1e44;" horiz-adv-x="776" 
d="M69 675h175l288 -415v415h175v-675h-175l-288 413v-413h-175v675zM390 729l-1 -1q-21 0 -40 8t-32 21t-21 33q-8 21 -8 40q0 20 8 39t21 32t32 21t41 8q19 0 38 -8t32 -21q14 -14 21 -31q8 -19 8 -39q0 -19 -8 -40q-7 -19 -21 -33q-13 -13 -32 -21t-38 -8z" />
    <glyph glyph-name="ndotaccent" unicode="&#x1e45;" horiz-adv-x="621" 
d="M55 0l-3 494h111l27 -71q38 44 82 63q46 20 96 20q40 0 76 -12t64 -37q29 -26 45 -64q17 -40 17 -93v-301h-170v261q0 43 -23 63t-57 20q-49 0 -95 -38v-305h-170zM329 551l-1 -1q-21 0 -40 8t-32 21q-14 13 -21 33q-8 21 -8 40q0 20 8 39t21 32t32 21t41 8q19 0 38 -8
t32 -21q14 -14 21 -31q8 -19 8 -39q0 -19 -8 -40q-8 -19 -21 -33q-13 -13 -32 -21t-38 -8z" />
    <glyph glyph-name="Pdotaccent" unicode="&#x1e56;" horiz-adv-x="684" 
d="M69 0v672h364q54 0 96 -21t71 -56q29 -36 44 -78q15 -43 15 -90q0 -45 -15 -90q-15 -44 -44 -81q-29 -36 -71 -59q-43 -23 -96 -23h-189v-174h-175zM244 512l-1 -181h151q22 0 39 9t27 22q10 14 15 30q5 18 5 33q0 33 -21 60t-64 27h-151zM340 726l-1 -1q-21 0 -40 8
t-32 21q-13 14 -21 33q-8 21 -8 40q0 20 8 39t21 32t32 21t41 8q19 0 38 -8t32 -21q14 -14 21 -31q8 -19 8 -39q0 -19 -8 -40q-7 -20 -21 -33q-13 -13 -32 -21t-38 -8z" />
    <glyph glyph-name="pdotaccent" unicode="&#x1e57;" horiz-adv-x="624" 
d="M335 508l-4 -2q55 0 102 -19q48 -19 84 -54q36 -34 57 -83q21 -48 21 -106q0 -59 -21 -107q-21 -49 -55 -81q-35 -33 -81 -51t-99 -18q-35 0 -67 9q-29 8 -57 23l9 -86v-169h-170v731h94l21 -46q33 26 77 43q41 16 89 16zM312 351l1 -1q-22 0 -40 -9q-20 -10 -32 -22
q-13 -13 -21 -33q-8 -21 -8 -42t8 -42q8 -20 21 -33t32 -21t41 -8q43 0 74 29q30 29 30 75q0 22 -9 42t-22 33q-14 14 -33 23q-20 9 -42 9zM319 549l-1 -1q-21 0 -40 8t-32 21q-14 13 -21 33q-8 21 -8 40q0 20 8 39t21 32t32 21t41 8q19 0 38 -8t32 -21q14 -14 21 -31
q8 -19 8 -39q0 -19 -8 -40q-8 -19 -21 -33q-13 -13 -32 -21t-38 -8z" />
    <glyph glyph-name="Rdotbelow" unicode="&#x1e5a;" horiz-adv-x="709" 
d="M69 0l1 673h370q52 0 90 -19q39 -20 66 -51t42 -72t15 -82q0 -53 -23 -108q-23 -54 -62 -92l126 -249h-188l-98 194h-164v-194h-175zM245 513l-2 -162h165q14 0 27 8q11 7 21 20q8 11 13 27q4 13 4 30q0 29 -15 53t-47 24h-166zM367 -265l-1 -1q-21 0 -40 8t-32 21
q-14 13 -21 33q-8 21 -8 40q0 20 8 39t21 32t32 21t41 8q19 0 38 -8t32 -21q14 -14 21 -31q8 -19 8 -39q0 -19 -8 -40q-8 -19 -21 -33q-13 -13 -32 -21t-38 -8z" />
    <glyph glyph-name="rdotbelow" unicode="&#x1e5b;" horiz-adv-x="393" 
d="M378 344h-1q-52 0 -90 -20q-37 -19 -64 -51v-273h-170v495h122l41 -88q35 47 75 74q41 27 87 27v-164zM139 -261l-1 -1q-21 0 -40 8t-32 21q-14 13 -21 33q-8 21 -8 40q0 20 8 39t21 32t32 21t41 8q19 0 38 -8t32 -21q14 -14 21 -31q8 -19 8 -39q0 -19 -8 -40
q-8 -19 -21 -33q-13 -13 -32 -21t-38 -8z" />
    <glyph glyph-name="Sdotaccent" unicode="&#x1e60;" horiz-adv-x="632" 
d="M96 223l-4 -3q69 -35 131 -53q63 -18 121 -18q26 0 46 11q19 10 19 32t-18 36t-63 24q-88 22 -144 51t-87 60t-42 63q-11 33 -11 62q0 40 15 76q15 35 47 63q31 26 76 43q44 16 104 16q30 0 62 -4q41 -5 75 -13q42 -10 81 -25q42 -16 81 -42l-65 -142q-25 13 -56 24
q-30 10 -60 18q-31 8 -58 12q-32 5 -51 5q-26 0 -41 -9t-15 -25q0 -10 4 -18t15 -16t28 -15q19 -8 46 -15q81 -24 132 -48t81 -51t41 -59q11 -33 11 -69q0 -48 -18 -87q-18 -40 -52 -66q-36 -28 -81 -41q-48 -14 -104 -14q-34 0 -75 6q-39 6 -82 18q-41 12 -82 30t-78 42z
M305 726l-1 -1q-21 0 -40 8t-32 21q-14 14 -21 33q-8 21 -8 40q0 20 8 39t21 32t32 21t41 8q19 0 38 -8t32 -21q14 -14 21 -31q8 -19 8 -39q0 -19 -8 -40q-8 -20 -21 -33t-32 -21t-38 -8z" />
    <glyph glyph-name="sdotaccent" unicode="&#x1e61;" horiz-adv-x="540" 
d="M71 188l-2 -8q68 -32 119 -44q52 -12 104 -12q16 0 24 5t8 11q0 13 -31 19q-76 17 -122 36t-74 41q-26 20 -37 45q-11 24 -12 49q-2 36 12 68q13 31 42 55q27 23 71 37q40 13 98 13q25 0 56 -3q30 -3 64 -9q33 -6 63 -15q29 -9 53 -23l-55 -129q-22 9 -46 15
q-17 4 -49 10q-24 5 -45 6q-28 2 -35 2q-21 0 -36 -3t-15 -11q0 -7 6 -12q6 -4 23 -9q69 -15 117 -30q47 -15 78 -35t44 -46q14 -27 15 -63q0 -37 -16 -66q-17 -31 -46 -51q-30 -21 -72 -33t-96 -12q-23 0 -56 3q-29 3 -69 11q-36 8 -72 21t-65 35zM273 544l-1 -1
q-21 0 -40 8t-32 21q-14 14 -21 33q-8 21 -8 40q0 20 8 39t21 32t32 21t41 8q19 0 38 -8t32 -21q14 -14 21 -31q8 -19 8 -39q0 -19 -8 -40q-8 -20 -21 -33t-32 -21t-38 -8z" />
    <glyph glyph-name="Sdotbelow" unicode="&#x1e62;" horiz-adv-x="632" 
d="M96 223l-4 -3q69 -35 131 -53q63 -18 121 -18q26 0 46 11q19 10 19 32t-18 36t-63 24q-88 22 -144 51t-87 60t-42 63q-11 33 -11 62q0 40 15 76q15 35 47 63q31 26 76 43q44 16 104 16q30 0 62 -4q41 -5 75 -13q42 -10 81 -25q42 -16 81 -42l-65 -142q-25 13 -56 24
q-30 10 -60 18q-31 8 -58 12q-32 5 -51 5q-26 0 -41 -9t-15 -25q0 -10 4 -18t15 -16t28 -15q19 -8 46 -15q81 -24 132 -48t81 -51t41 -59q11 -33 11 -69q0 -48 -18 -87q-18 -40 -52 -66q-36 -28 -81 -41q-48 -14 -104 -14q-34 0 -75 6q-39 6 -82 18q-41 12 -82 30t-78 42z
M318 -264l-1 -1q-21 0 -40 8t-32 21q-13 14 -21 33q-8 21 -8 40q0 20 8 39t21 32t32 21t41 8q19 0 38 -8t32 -21q14 -14 21 -31q8 -19 8 -39q0 -19 -8 -40q-7 -20 -21 -33q-13 -13 -32 -21t-38 -8z" />
    <glyph glyph-name="sdotbelow" unicode="&#x1e63;" horiz-adv-x="540" 
d="M71 188l-2 -8q68 -32 119 -44q52 -12 104 -12q16 0 24 5t8 11q0 13 -31 19q-76 17 -122 36t-74 41q-26 20 -37 45q-11 24 -12 49q-2 36 12 68q13 31 42 55q27 23 71 37q40 13 98 13q25 0 56 -3q30 -3 64 -9q33 -6 63 -15q29 -9 53 -23l-55 -129q-22 9 -46 15
q-17 4 -49 10q-24 5 -45 6q-28 2 -35 2q-21 0 -36 -3t-15 -11q0 -7 6 -12q6 -4 23 -9q69 -15 117 -30q47 -15 78 -35t44 -46q14 -27 15 -63q0 -37 -16 -66q-17 -31 -46 -51q-30 -21 -72 -33t-96 -12q-23 0 -56 3q-29 3 -69 11q-36 8 -72 21t-65 35zM266 -269l-1 -1
q-21 0 -40 8t-32 21t-21 33q-8 21 -8 40q0 20 8 39t21 32t32 21t41 8q19 0 38 -8t32 -21q14 -14 21 -31q8 -19 8 -39q0 -19 -8 -40q-7 -19 -21 -33q-13 -13 -32 -21t-38 -8z" />
    <glyph glyph-name="Tdotaccent" unicode="&#x1e6a;" 
d="M19 675h582v-160h-203v-515h-175v515h-204v160zM312 729l-1 -1q-21 0 -40 8t-32 21t-21 33q-8 21 -8 40q0 20 8 39t21 32t32 21t41 8q19 0 38 -8t32 -21q14 -14 21 -31q8 -19 8 -39q0 -19 -8 -40q-7 -19 -21 -33q-13 -13 -32 -21t-38 -8z" />
    <glyph glyph-name="tdotaccent" unicode="&#x1e6b;" horiz-adv-x="389" 
d="M31 495l52 -1v117l170 50v-167h97v-130l-15 -15h-82v-123q0 -18 8 -34q7 -15 21 -27t33 -18t42 -6v-155q-64 0 -117 17q-50 16 -87 47q-36 30 -54 72t-18 93v135h-50v145zM185 728l-1 -1q-21 0 -40 8t-32 21q-14 14 -21 33q-8 21 -8 40q0 20 8 39t21 32t32 21t41 8
q19 0 38 -8t32 -21q14 -14 21 -31q8 -19 8 -39q0 -19 -8 -40q-8 -20 -21 -33t-32 -21t-38 -8z" />
    <glyph glyph-name="Tdotbelow" unicode="&#x1e6c;" 
d="M19 675h582v-160h-203v-515h-175v515h-204v160zM312 -261l-1 -1q-21 0 -40 8t-32 21t-21 33q-8 21 -8 40q0 20 8 39t21 32t32 21t41 8q19 0 38 -8t32 -21q14 -14 21 -31q8 -19 8 -39q0 -19 -8 -40q-7 -19 -21 -33q-13 -13 -32 -21t-38 -8z" />
    <glyph glyph-name="tdotbelow" unicode="&#x1e6d;" horiz-adv-x="389" 
d="M31 495l52 -1v117l170 50v-167h97v-130l-15 -15h-82v-123q0 -18 8 -34q7 -15 21 -27t33 -18t42 -6v-155q-64 0 -117 17q-50 16 -87 47q-36 30 -54 72t-18 93v135h-50v145zM221 -262l-1 -1q-21 0 -40 8t-32 21q-14 14 -21 33q-8 21 -8 40q0 20 8 39t21 32t32 21t41 8
q19 0 38 -8t32 -21q14 -14 21 -31q8 -19 8 -39q0 -19 -8 -40q-8 -20 -21 -33t-32 -21t-38 -8z" />
    <glyph glyph-name="Wgrave" unicode="&#x1e80;" horiz-adv-x="1010" 
d="M703 242l110 433h187l-198 -675h-184l-113 446l-112 -446h-184l-201 675h188l114 -429l111 429h167zM318 886h194l60 -156h-154z" />
    <glyph glyph-name="wgrave" unicode="&#x1e81;" horiz-adv-x="850" 
d="M492 495l88 -267l87 267h186l-211 -495h-125l-92 304l-92 -304h-125l-211 495h186l88 -267l87 267h134zM248 709h194l60 -156h-154z" />
    <glyph glyph-name="Wacute" unicode="&#x1e82;" horiz-adv-x="1010" 
d="M703 242l110 433h187l-198 -675h-184l-113 446l-112 -446h-184l-201 675h188l114 -429l111 429h167zM429 730l60 156h194l-100 -156h-154z" />
    <glyph glyph-name="wacute" unicode="&#x1e83;" horiz-adv-x="850" 
d="M492 495l88 -267l87 267h186l-211 -495h-125l-92 304l-92 -304h-125l-211 495h186l88 -267l87 267h134zM351 552l60 156h194l-100 -156h-154z" />
    <glyph glyph-name="Wdieresis" unicode="&#x1e84;" horiz-adv-x="1010" 
d="M703 242l110 433h187l-198 -675h-184l-113 446l-112 -446h-184l-201 675h188l114 -429l111 429h167zM627 729l-1 -1q-21 0 -40 8t-32 21q-14 13 -21 33q-8 21 -8 40q0 20 8 39t21 32t32 21t41 8q19 0 38 -8t32 -21q14 -14 21 -31q8 -19 8 -39q0 -19 -8 -40
q-8 -19 -21 -33q-13 -13 -32 -21t-38 -8zM383 728l-1 -1q-21 0 -40 8t-32 21q-14 14 -21 33q-8 21 -8 40q0 20 8 39t21 32t32 21t41 8q19 0 38 -8t32 -21q14 -14 21 -31q8 -19 8 -39q0 -19 -8 -40q-8 -20 -21 -33t-32 -21t-38 -8z" />
    <glyph glyph-name="wdieresis" unicode="&#x1e85;" horiz-adv-x="850" 
d="M492 495l88 -267l87 267h186l-211 -495h-125l-92 304l-92 -304h-125l-211 495h186l88 -267l87 267h134zM546 553l-1 -1q-21 0 -40 8t-32 21t-21 33q-8 21 -8 40q0 20 8 39t21 32t32 21t41 8q19 0 38 -8t32 -21q14 -14 21 -31q8 -19 8 -39q0 -19 -8 -40q-7 -19 -21 -33
q-13 -13 -32 -21t-38 -8zM302 552l-1 -1q-21 0 -40 8t-32 21q-13 14 -21 33q-8 21 -8 40q0 20 8 39t21 32t32 21t41 8q19 0 38 -8t32 -21q14 -14 21 -31q8 -19 8 -39q0 -19 -8 -40q-7 -20 -21 -33q-13 -13 -32 -21t-38 -8z" />
    <glyph glyph-name="Zdotbelow" unicode="&#x1e92;" horiz-adv-x="621" 
d="M49 675h522v-118l-310 -397h326v-160h-553v119l302 396h-287v160zM320 -261l-1 -1q-21 0 -40 8t-32 21t-21 33q-8 21 -8 40q0 20 8 39t21 32t32 21t41 8q19 0 38 -8t32 -21q14 -14 21 -31q8 -19 8 -39q0 -19 -8 -40q-7 -19 -21 -33q-13 -13 -32 -21t-38 -8z" />
    <glyph glyph-name="zdotbelow" unicode="&#x1e93;" horiz-adv-x="521" 
d="M257 143h227v-143h-449v143l217 209h-200v143h423v-143zM261 -261l-1 -1q-21 0 -40 8t-32 21q-14 13 -21 33q-8 21 -8 40q0 20 8 39t21 32t32 21t41 8q19 0 38 -8t32 -21q14 -14 21 -31q8 -19 8 -39q0 -19 -8 -40q-8 -19 -21 -33q-13 -13 -32 -21t-38 -8z" />
    <glyph glyph-name="Edotbelow" unicode="&#x1eb8;" horiz-adv-x="615" 
d="M69 675h496v-160h-321v-99h301v-160h-301v-96h324v-160h-499v675zM325 -261l-1 -1q-21 0 -40 8t-32 21q-14 13 -21 33q-8 21 -8 40q0 20 8 39t21 32t32 21t41 8q19 0 38 -8t32 -21q14 -14 21 -31q8 -19 8 -39q0 -19 -8 -40q-8 -19 -21 -33q-13 -13 -32 -21t-38 -8z" />
    <glyph glyph-name="edotbelow" unicode="&#x1eb9;" horiz-adv-x="575" 
d="M529 83l-1 -1q-40 -47 -99 -71q-60 -24 -124 -24q-54 0 -105 18t-90 51q-38 32 -61 81t-23 108q0 60 22 107q23 49 60 83t86 54q47 19 101 19t99 -19q48 -20 83 -55q36 -36 57 -89t21 -120h-350q9 -43 41 -63t77 -20q25 0 51 9q25 9 45 29zM289 372h-1q-38 0 -57 -25
t-27 -57l167 7q-21 75 -82 75zM291 -262l-1 -1q-21 0 -40 8t-32 21q-14 14 -21 33q-8 21 -8 40q0 20 8 39t21 32t32 21t41 8q19 0 38 -8t32 -21q14 -14 21 -31q8 -19 8 -39q0 -19 -8 -40q-8 -20 -21 -33t-32 -21t-38 -8z" />
    <glyph glyph-name="Etilde" unicode="&#x1ebc;" horiz-adv-x="615" 
d="M69 675h496v-160h-321v-99h301v-160h-301v-96h324v-160h-499v675zM129 742l1 -2q2 76 33 114q31 37 78 37q25 0 47 -6q30 -8 44 -13t44 -13q22 -6 45 -6q13 0 24 6q10 6 12 23h55q0 -74 -29 -115q-28 -40 -77 -40q-24 0 -47 6q-30 8 -46 13t-46 13q-23 6 -45 6
q-14 0 -24 -6t-12 -17h-57z" />
    <glyph glyph-name="etilde" unicode="&#x1ebd;" horiz-adv-x="575" 
d="M529 83l-1 -1q-40 -47 -99 -71q-60 -24 -124 -24q-54 0 -105 18t-90 51q-38 32 -61 81t-23 108q0 60 22 107q23 49 60 83t86 54q47 19 101 19t99 -19q48 -20 83 -55q36 -36 57 -89t21 -120h-350q9 -43 41 -63t77 -20q25 0 51 9q25 9 45 29zM289 372h-1q-38 0 -57 -25
t-27 -57l167 7q-21 75 -82 75zM99 565l4 -2q1 76 35 114q33 37 77 37q17 0 40 -6q30 -8 45 -13t47 -13q24 -6 46 -6q13 0 24 6q10 6 12 23h55q0 -75 -27 -115t-79 -40q-20 0 -46 6q-34 8 -51 13t-49 13q-24 6 -43 6q-28 0 -33 -23h-57z" />
    <glyph glyph-name="Idotbelow" unicode="&#x1eca;" horiz-adv-x="313" 
d="M69 675h175v-675h-175v675zM158 -261l-1 -1q-21 0 -40 8t-32 21t-21 33q-8 21 -8 40q0 20 8 39t21 32t32 21t41 8q19 0 38 -8t32 -21q14 -14 21 -31q8 -19 8 -39q0 -19 -8 -40q-7 -19 -21 -33q-13 -13 -32 -21t-38 -8z" />
    <glyph glyph-name="idotbelow" unicode="&#x1ecb;" horiz-adv-x="280" 
d="M142 554l-1 -1q-21 0 -40 8t-32 21q-13 14 -21 33q-8 21 -8 40q0 20 8 39t21 32t32 21t41 8q19 0 38 -8t32 -21q14 -14 21 -31q8 -19 8 -39q0 -19 -8 -40q-7 -20 -21 -33q-13 -13 -32 -21t-38 -8zM54 494h170v-495h-170v495zM140 -262l-1 -1q-21 0 -40 8t-32 21
q-13 14 -21 33q-8 21 -8 40q0 20 8 39t21 32t32 21t41 8q19 0 38 -8t32 -21q14 -14 21 -31q8 -19 8 -39q0 -19 -8 -40q-7 -20 -21 -33q-13 -13 -32 -21t-38 -8z" />
    <glyph glyph-name="Odotbelow" unicode="&#x1ecc;" horiz-adv-x="785" 
d="M392 -13l-2 -1q-75 0 -141 27t-114 75q-49 49 -77 111t-28 137q0 70 29 136q28 63 77 112q48 48 114 75t141 27t141 -27t114 -75q49 -49 77 -112q29 -66 29 -136q0 -74 -28 -136t-77 -111q-48 -48 -114 -75t-141 -27zM390 151q37 0 70 15q34 15 57 40q24 26 39 60t15 72
t-15 72t-39 60q-23 25 -57 40q-33 15 -70 15t-70 -15q-34 -15 -57 -40q-24 -26 -39 -60t-15 -72t15 -72t39 -60q23 -25 57 -40q33 -15 70 -15zM392 -262l-1 -1q-21 0 -40 8t-32 21q-13 14 -21 33q-8 21 -8 40q0 20 8 39t21 32t32 21t41 8q19 0 38 -8t32 -21q14 -14 21 -31
q8 -19 8 -39q0 -19 -8 -40q-7 -20 -21 -33q-13 -13 -32 -21t-38 -8z" />
    <glyph glyph-name="odotbelow" unicode="&#x1ecd;" horiz-adv-x="612" 
d="M305 -13l-3 -1q-54 0 -105 18t-90 51q-38 32 -61 81t-23 107t23 107q23 48 62 83t90 54q50 19 105 19q57 0 107 -19q51 -19 90 -54t62 -83q23 -49 23 -107q0 -57 -23 -106t-61 -81q-39 -33 -90 -51t-106 -18zM302 141h-1q21 0 42 8q19 7 34 21t23 32q8 19 8 41
q0 21 -8 42t-22 35q-15 15 -34 24q-20 9 -42 9q-43 0 -73 -31q-30 -32 -30 -78q0 -45 29 -74t74 -29zM303 -262l-1 -1q-21 0 -40 8t-32 21q-14 14 -21 33q-8 21 -8 40q0 20 8 39t21 32t32 21t41 8q19 0 38 -8t32 -21q14 -14 21 -31q8 -19 8 -39q0 -19 -8 -40q-8 -20 -21 -33
t-32 -21t-38 -8z" />
    <glyph glyph-name="Udotbelow" unicode="&#x1ee4;" horiz-adv-x="738" 
d="M235 675l-2 -373q0 -36 11 -66q11 -29 30 -47q20 -18 45 -27t54 -9q57 0 93 36t36 113v373h175v-389q0 -74 -21 -129q-21 -56 -61 -93q-41 -38 -96 -57q-54 -19 -124 -19t-126 19q-57 19 -99 57t-66 93t-24 129v389h175zM368 -261l-1 -1q-21 0 -40 8t-32 21t-21 33
q-8 21 -8 40q0 20 8 39t21 32t32 21t41 8q19 0 38 -8t32 -21q14 -14 21 -31q8 -19 8 -39q0 -19 -8 -40q-7 -19 -21 -33q-13 -13 -32 -21t-38 -8z" />
    <glyph glyph-name="udotbelow" unicode="&#x1ee5;" horiz-adv-x="619" 
d="M564 495l1 -497h-111l-27 70q-37 -44 -84 -63q-45 -19 -93 -19q-38 0 -75 14q-35 13 -64 42q-29 28 -45 72q-17 45 -17 104v277h170v-249q0 -48 24 -71q25 -23 62 -23q46 0 89 37v306h170zM310 -263l-1 -1q-21 0 -40 8t-32 21t-21 33q-8 21 -8 40q0 20 8 39t21 32t32 21
t41 8q19 0 38 -8t32 -21q14 -14 21 -31q8 -19 8 -39q0 -19 -8 -40q-7 -19 -21 -33q-13 -13 -32 -21t-38 -8z" />
    <glyph glyph-name="Ygrave" unicode="&#x1ef2;" horiz-adv-x="713" 
d="M444 223v-223h-175v223l-276 452h201l164 -302l168 302h193zM183 886h194l60 -156h-154z" />
    <glyph glyph-name="ygrave" unicode="&#x1ef3;" horiz-adv-x="556" 
d="M375 86h-1q-66 -158 -147 -240t-191 -82v155q19 0 45 8q23 7 46 24q24 17 42 40q20 25 33 55l-201 449h186l93 -264l97 264h186zM105 709h194l60 -156h-154z" />
    <glyph glyph-name="Ytilde" unicode="&#x1ef8;" horiz-adv-x="713" 
d="M444 223v-223h-175v223l-276 452h201l164 -302l168 302h193zM165 742l1 -2q2 76 33 114q31 37 78 37q25 0 47 -6q30 -8 44 -13t44 -13q22 -6 45 -6q13 0 24 6q10 6 12 23h55q0 -74 -29 -115q-28 -40 -77 -40q-24 0 -47 6q-30 8 -46 13t-46 13q-23 6 -45 6q-14 0 -24 -6
t-12 -17h-57z" />
    <glyph glyph-name="ytilde" unicode="&#x1ef9;" horiz-adv-x="556" 
d="M375 86h-1q-66 -158 -147 -240t-191 -82v155q19 0 45 8q23 7 46 24q24 17 42 40q20 25 33 55l-201 449h186l93 -264l97 264h186zM86 566l4 -2q1 76 35 114q33 37 77 37q18 0 40 -6q30 -8 45 -13t47 -13q24 -6 46 -6q14 0 24 6t12 23h55q0 -74 -27 -115q-27 -40 -79 -40
q-21 0 -46 6q-34 8 -51 13t-49 13q-24 6 -43 6q-28 0 -33 -23h-57z" />
    <glyph glyph-name="endash" unicode="&#x2013;" horiz-adv-x="591" 
d="M54 168v150h483v-150h-483z" />
    <glyph glyph-name="emdash" unicode="&#x2014;" horiz-adv-x="792" 
d="M54 168v150h684v-150h-684z" />
    <glyph glyph-name="quoteleft" unicode="&#x2018;" horiz-adv-x="267" 
d="M33 470l-3 -4q2 59 31 114q30 56 105 105l24 -33q-22 -26 -36 -48q-13 -22 -21 -47q21 -1 39 -9q19 -8 32 -21t21 -32t8 -39t-8 -39q-7 -17 -21 -31q-13 -13 -32 -21t-40 -8q-20 0 -38 9q-19 9 -32 24q-14 15 -21 36q-8 22 -8 44z" />
    <glyph glyph-name="quoteright" unicode="&#x2019;" horiz-adv-x="264" 
d="M75 390l1 -2q23 28 35 48q13 22 21 47q-21 0 -39 9t-32 23q-13 13 -21 32q-7 17 -7 39q0 20 8 39t21 32t32 21t41 8q20 0 38 -9q19 -9 32 -24t21 -36q8 -22 8 -43q0 -56 -30 -112t-105 -105z" />
    <glyph glyph-name="quotesinglbase" unicode="&#x201a;" horiz-adv-x="281" 
d="M81 -107h1q23 28 35 48q13 22 21 47q-21 2 -39 9q-19 8 -32 21t-21 32q-7 17 -7 39q0 20 8 39t21 32t32 21t41 8q20 0 38 -9q19 -9 32 -24t21 -36q8 -22 8 -43q0 -57 -30 -112t-105 -105z" />
    <glyph glyph-name="quotedblleft" unicode="&#x201c;" horiz-adv-x="507" 
d="M273 470l-5 -4q2 59 31 114q30 56 105 105l24 -33q-9 -11 -25 -31q-11 -14 -19 -28q-5 -9 -8 -17q-4 -12 -5 -18q21 0 40 -9q20 -9 33 -22t21 -32t8 -39t-8 -39q-7 -17 -21 -31q-13 -13 -32 -21t-40 -8q-20 0 -38 9q-19 9 -32 24q-14 15 -21 36q-8 22 -8 44zM141 585
l-2 -2q-8 -16 -11 -29q20 0 40 -9t33 -22t21 -32t8 -39t-8 -39q-7 -17 -21 -31q-13 -13 -32 -21t-40 -8q-20 0 -38 9q-19 9 -32 24t-21 36q-8 22 -8 44q0 58 30 113t105 105l24 -33q-15 -17 -28 -34q-13 -16 -20 -32z" />
    <glyph glyph-name="quotedblright" unicode="&#x201d;" horiz-adv-x="504" 
d="M338 357l-24 31q16 20 30 36q13 16 21 35l8 24q-43 0 -72 30q-29 31 -29 73q0 20 8 39t21 32t32 21t41 8q20 0 38 -9q19 -9 32 -24q14 -15 21 -36q8 -22 8 -43v-4q-2 -57 -31 -110t-104 -103zM32 586l2 -2q0 20 8 39t21 32t32 21t41 8q20 0 38 -9q19 -9 32 -24
q14 -15 21 -36q8 -22 8 -43q0 -56 -30 -112t-105 -105l-24 33q16 20 30 36q13 16 21 35q1 3 3 11t3 13q-43 0 -72 30q-29 31 -29 73z" />
    <glyph glyph-name="quotedblbase" unicode="&#x201e;" horiz-adv-x="513" 
d="M373 191h1q20 0 38 -9q19 -9 32 -24q14 -15 21 -36q8 -22 8 -43q0 -57 -30 -112t-105 -105l-24 33q23 28 35 48q13 22 21 47q-21 2 -39 9q-19 8 -32 21t-21 32q-7 17 -7 39q0 20 8 39t21 32t32 21t41 8zM82 -107h1q23 28 35 48q13 22 21 47q-21 2 -39 9q-19 8 -32 21
t-21 32q-7 17 -7 39q0 20 8 39t21 32t32 21t41 8q20 0 38 -9q19 -9 32 -24q14 -15 21 -36q8 -22 8 -43q0 -57 -30 -112t-105 -105z" />
    <glyph glyph-name="dagger" unicode="&#x2020;" horiz-adv-x="601" 
d="M213 -250v545h-184v160h184v259h175v-259h184v-160h-184v-545h-175z" />
    <glyph glyph-name="daggerdbl" unicode="&#x2021;" horiz-adv-x="635" 
d="M46 315v160h184v239h175v-239h184v-160h-184v-166h184v-160h-184v-239h-175v239h-184v160h184v166h-184z" />
    <glyph glyph-name="bullet" unicode="&#x2022;" horiz-adv-x="408" 
d="M61 242v-1q0 29 11 56q10 25 30 45q19 19 45 31t56 12q31 0 56 -12q26 -12 45 -31t31 -45q12 -25 12 -56q0 -29 -12 -55t-31 -45q-20 -19 -45 -30q-27 -11 -56 -11t-56 11q-25 11 -45 30t-30 45q-11 27 -11 56z" />
    <glyph glyph-name="ellipsis" unicode="&#x2026;" horiz-adv-x="734" 
d="M141 -13l-1 -1q-21 0 -40 8t-32 21q-14 13 -21 33q-8 21 -8 40q0 20 8 39t21 32t32 21t41 8q19 0 38 -8t32 -21q14 -14 21 -31q8 -19 8 -39q0 -19 -8 -40q-8 -19 -21 -33q-13 -13 -32 -21t-38 -8zM368 -14l-1 -1q-21 0 -40 8t-32 21q-13 14 -21 33q-8 21 -8 40q0 20 8 39
t21 32t32 21t41 8q19 0 38 -8t32 -21q14 -14 21 -31q8 -19 8 -39q0 -19 -8 -40q-7 -20 -21 -33q-13 -13 -32 -21t-38 -8zM594 -15l-1 -1q-21 0 -40 8t-32 21t-21 33q-8 21 -8 40q0 20 8 39t21 32t32 21t41 8q19 0 38 -8t32 -21q14 -14 21 -31q8 -19 8 -39q0 -19 -8 -40
q-7 -19 -21 -33q-13 -13 -32 -21t-38 -8z" />
    <glyph glyph-name="perthousand" unicode="&#x2030;" horiz-adv-x="1097" 
d="M907 90l2 -1q23 0 39 15t16 38q0 26 -16 39q-17 14 -39 14q-23 0 -39 -15t-16 -38q0 -26 15 -39q14 -13 38 -13zM749 143l-2 -1q0 32 12 61q12 28 33 49t51 33t65 12q36 0 66 -12t51 -33t33 -49q12 -29 12 -61q0 -34 -12 -62q-12 -29 -33 -50t-51 -33t-66 -12
q-38 0 -69 14q-30 14 -50 35q-19 21 -30 50q-10 27 -10 59zM30 531l-2 -1q0 32 12 61q12 28 33 49t51 33t65 12q36 0 66 -12t51 -33t33 -49t12 -61t-12 -62t-33 -50t-51 -33t-66 -12q-40 0 -69 13q-30 14 -50 35q-19 21 -30 50q-10 27 -10 60zM542 87l2 -1q22 0 39 15
q16 15 16 38q0 26 -16 39q-17 14 -39 14t-39 -15q-16 -15 -16 -38q0 -25 15 -39q14 -13 38 -13zM514 671h91l-390 -675h-91zM136 527l2 -1q0 -26 15 -39q14 -13 38 -13q23 0 39 15t16 38q0 26 -16 39q-17 14 -39 14q-23 0 -39 -15t-16 -38zM386 139l-2 -2q0 33 12 61t33 49
t51 33t65 12q36 0 66 -12t51 -33t33 -49q12 -29 12 -61q0 -33 -12 -62t-33 -50t-51 -33t-66 -12q-40 0 -69 13q-31 14 -50 36q-20 23 -30 51q-10 27 -10 59z" />
    <glyph glyph-name="guilsinglleft" unicode="&#x2039;" horiz-adv-x="328" 
d="M276 310l-129 -60l129 -58v-174l-235 129v204l235 131v-172z" />
    <glyph glyph-name="guilsinglright" unicode="&#x203a;" horiz-adv-x="328" 
d="M52 482l235 -131v-204l-235 -129v174l129 58l-129 60v172z" />
    <glyph glyph-name="fraction" unicode="&#x2044;" horiz-adv-x="132" 
d="M-183 0l372 675h125l-372 -675h-125z" />
    <glyph glyph-name="zero.sups" unicode="&#x2070;" horiz-adv-x="392" 
d="M196 330h-4q-35 0 -68 11q-31 10 -55 33q-23 21 -37 56q-14 34 -14 77q0 44 14 78q14 33 38 56q23 21 56 34q32 12 68 12q37 0 68 -12q33 -13 56 -34q24 -23 38 -56q14 -34 14 -78q0 -43 -14 -77q-14 -35 -37 -56q-24 -23 -55 -33q-33 -11 -68 -11zM192 432l-1 -1
q19 0 33 20t14 57t-14 57t-33 20t-33 -20q-13 -19 -13 -57q0 -37 14 -57q13 -19 33 -19z" />
    <glyph glyph-name="four.sups" unicode="&#x2074;" horiz-adv-x="353" 
d="M16 496l159 179h132v-179h21v-98h-21v-58h-123v58h-168v98zM184 496v55l-48 -55h48z" />
    <glyph glyph-name="five.sups" unicode="&#x2075;" horiz-adv-x="334" 
d="M53 675l242 -2l-10 -98h-130l-1 -15q81 -2 119 -31q39 -30 39 -77q0 -22 -9 -45q-9 -22 -28 -40q-19 -17 -48 -28q-27 -10 -68 -10q-27 0 -69 8q-39 7 -75 27l46 77q31 -11 51 -15q17 -4 39 -4q46 0 46 20q0 10 -21 18q-20 7 -60 7q-13 0 -41 -2q-22 -2 -38 -6l-4 -1z
" />
    <glyph glyph-name="six.sups" unicode="&#x2076;" horiz-adv-x="355" 
d="M179 330l-1 -2q-34 0 -61 10q-29 11 -50 30q-21 20 -33 48t-12 68q0 42 17 81q16 37 45 64q28 27 66 42t81 15q20 0 47 -3q28 -3 56 -12l-35 -99q-19 8 -36 12q-15 4 -36 4q-22 0 -40 -6q-17 -6 -28 -23l15 3q5 1 12 1q32 0 56 -7q26 -8 45 -21q20 -14 30 -34
q11 -22 11 -49q0 -30 -12 -53t-33 -38q-22 -16 -48 -23q-29 -8 -56 -8zM174 428l-1 -1q10 0 18 5t8 12t-8 12t-18 5t-18 -5q-7 -4 -7 -12q0 -7 8 -12q7 -4 18 -4z" />
    <glyph glyph-name="seven.sups" unicode="&#x2077;" horiz-adv-x="343" 
d="M20 675h326l-190 -335h-124l134 237h-146v98z" />
    <glyph glyph-name="eight.sups" unicode="&#x2078;" horiz-adv-x="340" 
d="M176 330l-2 -3q-30 0 -57 6q-25 6 -49 20q-22 13 -36 33q-13 19 -13 45q0 29 16 48q17 19 42 30q-19 10 -30 29t-11 44q0 23 11 43t29 32t42 18t51 6q29 0 53 -6t42 -18q19 -13 29 -31q11 -20 11 -43q0 -25 -11 -42t-30 -27q25 -10 40 -30t15 -48q0 -26 -12 -45
q-12 -20 -31 -33q-19 -14 -45 -21q-24 -7 -54 -7zM168 430q11 0 18 4t7 12t-7 12t-18 4q-9 0 -16 -4t-7 -12t7 -12t16 -4zM168 564q6 0 11 3t5 9t-5 9q-4 3 -11 3q-6 0 -11 -3t-5 -9t5 -9q4 -3 11 -3z" />
    <glyph glyph-name="nine.sups" unicode="&#x2079;" horiz-adv-x="355" 
d="M176 688l3 1q35 0 62 -10q29 -11 50 -30t33 -48t12 -68q-2 -43 -18 -81q-16 -37 -45 -64t-66 -42t-81 -15q-20 0 -47 3q-28 3 -56 12l35 99q20 -7 36 -12q15 -4 36 -4q22 0 40 6q17 6 28 23q-15 -4 -30 -4q-31 0 -55 7q-25 7 -45 21q-19 13 -30 35t-11 49q0 30 12 53
t33 38q22 16 48 23q29 8 56 8zM183 589l-1 -1q-11 0 -18 -4q-8 -5 -8 -12t8 -12q7 -4 18 -4q10 0 18 5t8 12q0 8 -7 12t-18 4z" />
    </font>
</defs>
</svg>
