<svg xmlns="http://www.w3.org/2000/svg" width="52" height="52" viewBox="0 0 52 52"><path fill="#3d8eb9" d="M50.91 0H1.06C.47 0 0 .47 0 1.06v49.85c0 .59.47 1.06 1.06 1.06h42.38c.58 0 1.05-.47 1.05-1.06 0-.58-.47-1.05-1.05-1.05H2.12V2.12h47.74v48.79a1.05 1.05 0 1 0 2.11 0V1.06C51.97.47 51.5 0 50.91 0z"/><path fill="#3d8eb9" d="M12.05 11a4.06 4.06 0 1 0 .02 8.12 4.06 4.06 0 0 0-.02-8.12zm0 5.99a1.94 1.94 0 0 1 0-3.87 1.94 1.94 0 1 1 0 3.87zM43.74 14H19.06a1.06 1.06 0 0 0 0 2.12h24.68c.58 0 1.05-.48 1.05-1.06 0-.59-.47-1.06-1.05-1.06zM12.05 22c-.58 0-1.05.47-1.05 1.06 0 .58.47 1.06 1.05 1.06a1.94 1.94 0 1 1 0 3.87 1.94 1.94 0 0 1-1.93-1.94c0-.58-.48-1.05-1.06-1.05-.59 0-1.06.47-1.06 1.05A4.06 4.06 0 1 0 12.05 22zM43.74 25H19.06a1.06 1.06 0 0 0 0 2.12h24.68c.58 0 1.05-.48 1.05-1.06 0-.59-.47-1.06-1.05-1.06zM12.05 33a4.06 4.06 0 1 0 .02 8.12 4.06 4.06 0 0 0-.02-8.12zm0 5.99a1.94 1.94 0 0 1 0-3.87 1.94 1.94 0 1 1 0 3.87zM43.74 36H19.06a1.06 1.06 0 0 0 0 2.12h24.68c.58 0 1.05-.48 1.05-1.06 0-.59-.47-1.06-1.05-1.06z"/></svg>