<svg xmlns="http://www.w3.org/2000/svg" width="52" height="52" viewBox="0 0 52 52"><path fill="#3d8eb9" d="M44.38 7.62A25.8 25.8 0 0 0 26 0 25.8 25.8 0 0 0 7.62 7.62 25.8 25.8 0 0 0 0 26a25.8 25.8 0 0 0 7.62 18.38A25.8 25.8 0 0 0 26 52a25.8 25.8 0 0 0 18.38-7.62A25.8 25.8 0 0 0 52 26a25.8 25.8 0 0 0-7.62-18.38zM26 49.93A23.96 23.96 0 0 1 2.07 26 23.96 23.96 0 0 1 26 2.07 23.96 23.96 0 0 1 49.93 26 23.96 23.96 0 0 1 26 49.93z"/><path fill="#3d8eb9" d="M39.87 15.78a9.33 9.33 0 0 0-13.31 0l-.75.75-.74-.75a9.34 9.34 0 0 0-13.32 0 9.56 9.56 0 0 0 0 13.42l13.36 13.47a.99.99 0 0 0 1.41.01L39.87 29.2a9.45 9.45 0 0 0 2.76-6.71c0-2.53-.98-4.92-2.76-6.71zm-1.4 12.01L25.81 40.55 13.16 27.79a7.54 7.54 0 0 1 0-10.6 7.36 7.36 0 0 1 10.5 0l1.45 1.47a.98.98 0 0 0 1.4 0l1.45-1.47a7.38 7.38 0 0 1 10.51 0 7.54 7.54 0 0 1 0 10.6z"/><path fill="#3d8eb9" d="M10.63 26H6.99A1 1 0 0 0 6 27a1 1 0 0 0 .99 1h3.64a1 1 0 0 0 .99-1 1 1 0 0 0-.99-1z"/><path fill="#3d8eb9" d="M41.4 25.33h-9.49l-1.47-3.27a.67.67 0 0 0-1.23.05l-3.02 8.58-3.67-10.25a.66.66 0 0 0-1.22-.06l-2.46 5.29h-8.18c-.36 0-.66.3-.66.66 0 .37.44.64.8.64h8.6c.25 0 .35-.12.45-.35l1.97-4.21 3.76 10.48c.09.27.34.44.62.44.28 0 .53-.17.62-.44l3.09-8.78.98 2.17c.1.23.48.35.74.35h9.91c.37 0 .53-.26.53-.63s-.3-.67-.67-.67z"/><path fill="#3d8eb9" d="M44.97 25h-2.98a1 1 0 0 0-.99 1 1 1 0 0 0 .99 1h2.98a1 1 0 0 0 0-2z"/></svg>