<svg xmlns="http://www.w3.org/2000/svg" width="52" height="52" viewBox="0 0 52 52"><path fill="#3d8eb9" d="M7.64 39A4.57 4.57 0 0 0 3 43.48a4.57 4.57 0 0 0 4.64 4.49 4.58 4.58 0 0 0 4.65-4.49A4.58 4.58 0 0 0 7.64 39zm0 7.17a2.74 2.74 0 0 1-2.78-2.69 2.74 2.74 0 0 1 2.78-2.69 2.75 2.75 0 0 1 2.79 2.69 2.74 2.74 0 0 1-2.79 2.69z"/><path fill="#3d8eb9" d="M51.07 31.38a3.82 3.82 0 0 0-2.52-3.8 4.38 4.38 0 0 0 1.59-3.37 4.57 4.57 0 0 0-4.64-4.49H32.16l.68-3.05c.9-4.08.31-8.71.1-10.04C32.46 3.5 29.6 0 26.48 0h-.23c-1.48 0-3.96.81-3.96 6.28 0 7.19-1.86 10.48-3.42 11.97-1.53 1.47-3 1.45-3.08 1.47h-.93v-1.79H0V52h14.86v-1.79h26a4.57 4.57 0 0 0 4.64-4.49c0-1.04-.37-2-.99-2.76a4.54 4.54 0 0 0 3.78-4.41c0-1.04-.38-2-1-2.77a4.53 4.53 0 0 0 3.78-4.4zM1.86 50.21V19.72H13v30.49zm44.57-16.14H36.21a.9.9 0 0 0-.92.9c0 .49.41.89.92.89h7.43a2.75 2.75 0 0 1 2.79 2.69 2.75 2.75 0 0 1-2.79 2.69h-9.28a.9.9 0 0 0-.93.9c0 .49.41.89.93.89h6.5a2.74 2.74 0 0 1 2.78 2.69 2.74 2.74 0 0 1-2.78 2.69h-26V21.52h.9c.09.01 2.24.04 4.34-1.93 2.68-2.5 4.04-6.98 4.04-13.31 0-1.68.28-4.49 2.11-4.49h.23c2.07 0 4.28 2.81 4.63 5.11.19 1.24.75 5.61-.09 9.39l-1.16 5.23H45.5c1.54 0 2.79 1.2 2.79 2.69a2.75 2.75 0 0 1-2.79 2.69h-9.29a.9.9 0 0 0-.92.89c0 .5.41.9.92.9h6.5c.82 0 2.63.04 3.58.17 2.43.35 2.92 1.26 2.92 2.52a2.74 2.74 0 0 1-2.78 2.69z"/></svg>