<svg xmlns="http://www.w3.org/2000/svg" width="50" height="52" viewBox="0 0 50 52"><path fill="#3d8eb9" d="M26.44 32.86a3.2 3.2 0 0 0 2.34-1.27l8.39-11.22a.84.84 0 0 0-.09-1.12.93.93 0 0 0-1.16-.09l-11.6 8.12a3.05 3.05 0 0 0-1.31 2.26c-.07.9.27 1.78.93 2.42.6.58 1.41.91 2.25.91l.25-.01zm-1.64-3.19c.03-.39.24-.75.57-.99l7.08-4.95-5.12 6.84a1.4 1.4 0 0 1-1.03.56c-.41.02-.81-.11-1.1-.39a1.34 1.34 0 0 1-.4-1.07z"/><path fill="#3d8eb9" d="M46.11 16.96l-.02-.06a23.05 23.05 0 0 0-3.23-4.21l1.92-1.86 1.27 1.22 3.81-3.67-3.81-3.68-3.8 3.68 1.27 1.22-1.93 1.86a24.65 24.65 0 0 0-4.31-3.09l-.05-.04-.05-.01a24.43 24.43 0 0 0-9.21-2.95V4.33h1.34a2.2 2.2 0 0 0 2.24-2.16c0-1.2-1-2.17-2.24-2.17h-8.07A2.2 2.2 0 0 0 19 2.17a2.2 2.2 0 0 0 2.24 2.16h1.35v1.01c-.97.09-1.94.25-2.89.46a.87.87 0 0 0-.68 1.04.9.9 0 0 0 1.08.65c.82-.18 1.65-.32 2.49-.42l.96-.07.83-.05v1.72c0 .48.4.86.9.86.49 0 .89-.38.89-.86V6.96c3.37.15 6.55 1.02 9.38 2.47l-.89 1.47a.86.86 0 0 0 .78 1.3.9.9 0 0 0 .78-.43l.88-1.47a22.3 22.3 0 0 1 6.97 6.73l-1.53.85a.85.85 0 0 0-.33 1.19.93.93 0 0 0 1.23.31l1.53-.85a20.88 20.88 0 0 1 2.55 9.2h-1.77c-.49 0-.9.39-.9.87s.41.87.9.87h1.77a20.88 20.88 0 0 1-2.55 9.2l-1.53-.86a.93.93 0 0 0-1.23.32c-.25.42-.1.95.33 1.19l1.53.85a22.3 22.3 0 0 1-6.97 6.73l-.88-1.47a.92.92 0 0 0-1.23-.32.84.84 0 0 0-.32 1.18l.88 1.48c-2.83 1.44-6 2.32-9.38 2.47v-1.71c0-.48-.4-.86-.89-.86-.5 0-.9.38-.9.86v1.72a23.87 23.87 0 0 1-4.28-.54.9.9 0 0 0-1.07.65c-.12.47.19.93.67 1.04 1.79.4 3.62.6 5.43.6H25.3a24.74 24.74 0 0 0 11.85-3.1l.08-.03.05-.04a24.02 24.02 0 0 0 8.76-8.46l.05-.07.02-.06a22.6 22.6 0 0 0 0-23.28zm-.06-9.81l1.27 1.23-1.27 1.22-1.27-1.22zM24.38 5.22V2.6h-3.14c-.24 0-.45-.19-.45-.43s.21-.44.45-.44h8.07c.25 0 .45.2.45.44s-.2.43-.45.43h-3.14v2.62l-.89-.02H25.13l-.44.01-.31.01zM17.38 12H12.9c-.5 0-.9.39-.9.87s.4.86.9.86h4.48c.5 0 .9-.38.9-.86s-.4-.87-.9-.87zM17.86 18H8.9c-.5 0-.9.39-.9.87s.4.86.9.86h8.96c.5 0 .9-.38.9-.86s-.4-.87-.9-.87zM17.34 24H3.9c-.5 0-.9.39-.9.87s.4.86.9.86h13.44c.5 0 .9-.38.9-.86s-.4-.87-.9-.87zM17.93 30H.9c-.5 0-.9.39-.9.87s.4.86.9.86h17.03c.5 0 .9-.38.9-.86s-.4-.87-.9-.87zM17.55 36H5.9c-.5 0-.9.39-.9.87s.4.86.9.86h11.65c.5 0 .9-.38.9-.86s-.4-.87-.9-.87zM17.17 42H10.9c-.5 0-.9.39-.9.87s.4.86.9.86h6.27c.5 0 .9-.38.9-.86s-.4-.87-.9-.87z"/></svg>