<svg xmlns="http://www.w3.org/2000/svg" width="52" height="52" viewBox="0 0 52 52"><path fill="#3d8eb9" d="M39.76 14C31.08 14 28 19.64 28 24.48v16.91c0 4.83 3.08 10.48 11.76 10.48 8.69 0 11.77-5.65 11.77-10.48V24.48c0-4.84-3.08-10.48-11.77-10.48zm10.11 27.39c0 1.02-.19 3.61-2 5.73-1.75 2.05-4.48 3.09-8.11 3.09-3.63 0-6.35-1.04-8.1-3.09a9.02 9.02 0 0 1-2-5.73V24.48c0-1.02.19-3.61 2-5.74 1.75-2.04 4.47-3.08 8.1-3.08s6.36 1.04 8.11 3.08a9.06 9.06 0 0 1 2 5.74z"/><path fill="#3d8eb9" d="M39.35 7.95v3.59c0 .45.37.83.83.83.45 0 .82-.38.82-.83V7.95a7.96 7.96 0 0 0-15.9-.04v22.05a6.3 6.3 0 1 1-12.59-.04v-6.59a11.7 11.7 0 0 0 10.85-11.65A11.7 11.7 0 0 0 11.68 0 11.7 11.7 0 0 0 0 11.68a11.7 11.7 0 0 0 10.85 11.65v6.59a7.96 7.96 0 0 0 15.91.04V7.91a6.3 6.3 0 0 1 12.59.04zM1.66 11.68a10.02 10.02 0 1 1 20.05.01 10.02 10.02 0 0 1-20.05-.01z"/><path fill="#3d8eb9" d="M11.28 14.43a.62.62 0 0 1-.62-.62.83.83 0 1 0-1.66 0c0 .96.6 1.78 1.45 2.12v.35a.83.83 0 1 0 1.66 0v-.35a2.29 2.29 0 0 0 1.45-2.12c0-1.6-1.3-2.21-1.93-2.5-.76-.36-.97-.58-.97-1.01a.63.63 0 0 1 1.25 0 .83.83 0 0 0 1.65 0c0-.96-.6-1.78-1.45-2.12v-.35a.83.83 0 0 0-1.65 0v.35a2.29 2.29 0 0 0-1.45 2.12c0 1.6 1.3 2.21 1.92 2.5.76.36.97.58.97 1.01 0 .34-.28.62-.62.62z"/><path fill="#3d8eb9" d="M19.55 11.37A8.37 8.37 0 0 0 3.02 9.53a.83.83 0 0 0 1.62.36 6.72 6.72 0 1 1 6.54 8.19 6.74 6.74 0 0 1-6.54-5.24.82.82 0 0 0-.99-.62.82.82 0 0 0-.63.98 8.38 8.38 0 0 0 16.53-1.83zM41.28 31.79v-2.87a2.97 2.97 0 0 0 2.13-2.85v-3.93c0-1.34-.9-2.48-2.13-2.84v-1.47a.83.83 0 1 0-1.66 0v1.47a2.97 2.97 0 0 0-2.13 2.84v3.93c0 1.35.9 2.49 2.13 2.85v2.87h-6.79a.83.83 0 1 0 0 1.66h15.25c.45 0 .82-.37.82-.83a.83.83 0 0 0-.82-.83zm-2.13-5.72v-3.93a1.3 1.3 0 0 1 2.61 0v3.93a1.3 1.3 0 0 1-2.61 0z"/></svg>