<svg xmlns="http://www.w3.org/2000/svg" width="52" height="52" viewBox="0 0 52 52"><path fill="#3d8eb9" d="M47.85 12.72c.46 0 .83-.37.83-.83V8.3h2.49c.46 0 .83-.37.83-.83V.83a.83.83 0 0 0-.83-.83h-6.64a.83.83 0 0 0-.83.83v2.49H8.3V.83A.83.83 0 0 0 7.47 0H.83A.83.83 0 0 0 0 .83v6.64c0 .46.37.83.83.83h2.49v35.4H.83a.83.83 0 0 0-.83.83v6.64c0 .46.37.83.83.83h6.64c.46 0 .83-.37.83-.83v-2.49h35.4v2.49c0 .46.37.83.83.83h6.64c.46 0 .83-.37.83-.83v-6.64a.83.83 0 0 0-.83-.83h-2.49V15.21a.83.83 0 1 0-1.66 0V43.7h-2.49a.83.83 0 0 0-.83.83v2.49H8.3v-2.49a.83.83 0 0 0-.83-.83H4.98V8.3h2.49c.46 0 .83-.37.83-.83V4.98h35.4v2.49c0 .46.37.83.83.83h2.49v3.59c0 .46.37.83.83.83zm-2.49 32.64h4.98v4.98h-4.98zM6.64 50.34H1.66v-4.98h4.98zm0-43.7H1.66V1.66h4.98zm38.72-4.98h4.98v4.98h-4.98z"/><path fill="#3d8eb9" d="M40.87 11.83a.83.83 0 0 0-.83-.83H11.83a.83.83 0 0 0-.83.83v14.11c0 .45.37.83.83.83h28.21c.46 0 .83-.38.83-.83zm-28.21 1.34l11.42 5.71-11.42 5.71zm2.68-.51h21.19l-10.59 5.29zm10.6 7.15l10.59 5.3H15.34zm1.85-.93l11.42-5.71v11.42zM24.28 39H11.83a.83.83 0 1 0 0 1.66h12.45c.45 0 .83-.37.83-.83a.83.83 0 0 0-.83-.83zM40.28 39H27.83a.83.83 0 1 0 0 1.66h12.45c.45 0 .83-.37.83-.83a.83.83 0 0 0-.83-.83zM24.28 36H11.83a.83.83 0 1 0 0 1.66h12.45c.45 0 .83-.37.83-.83a.83.83 0 0 0-.83-.83zM40.28 36H27.83a.83.83 0 1 0 0 1.66h12.45c.45 0 .83-.37.83-.83a.83.83 0 0 0-.83-.83zM24.28 32H11.83a.83.83 0 1 0 0 1.66h12.45c.45 0 .83-.37.83-.83a.83.83 0 0 0-.83-.83zM40.28 32H27.83a.83.83 0 1 0 0 1.66h12.45c.45 0 .83-.37.83-.83a.83.83 0 0 0-.83-.83zM40.04 29H11.83a.83.83 0 1 0 0 1.66h28.21a.83.83 0 1 0 0-1.66z"/></svg>