<svg xmlns="http://www.w3.org/2000/svg" width="28" height="32" viewBox="0 0 28 32"><path fill="#3d8eb9" d="M26.07 0H1.89A1.9 1.9 0 0 0 0 1.89v28.22A1.9 1.9 0 0 0 1.89 32h24.18a1.9 1.9 0 0 0 1.89-1.89V1.89A1.9 1.9 0 0 0 26.07 0zM1.52 1.89c0-.2.17-.37.37-.37h24.18c.21 0 .38.17.38.37v6.57H1.52zm7.3 28.59H1.89a.38.38 0 0 1-.37-.37v-9.12h7.3zm0-11.01h-7.3V9.98h7.3zm1.51 11.01v-9.49h7.3v9.49zm0-11.01V9.98h7.3v9.49zm16.12 10.64c0 .2-.17.37-.38.37h-6.92V9.98h7.3z"/><path fill="#3d8eb9" d="M7.5 13.87H6.39v-1.11a.76.76 0 1 0-1.52 0v1.11H3.76a.76.76 0 1 0 0 1.52h1.11v1.11a.76.76 0 1 0 1.52 0v-1.11H7.5a.76.76 0 1 0 0-1.52zM15.58 14h-3.82a.76.76 0 1 0 0 1.52h3.82a.76.76 0 1 0 0-1.52zM6.28 26.21l.91-.92c.3-.29.3-.77 0-1.07a.77.77 0 0 0-1.07 0l-.91.92-.92-.92a.77.77 0 0 0-1.07 0 .77.77 0 0 0 0 1.07l.92.92-.92.91a.77.77 0 0 0 .54 1.3c.19 0 .39-.08.53-.23l.92-.91.91.91a.74.74 0 0 0 1.07 0c.3-.29.3-.77 0-1.07zM16.19 24.22a.77.77 0 0 0-1.07 0l-2.9 2.9a.77.77 0 0 0 .54 1.3c.19 0 .39-.08.53-.23l2.9-2.9c.3-.29.3-.77 0-1.07zM12 24.5a.5.5 0 1 1 1 0 .5.5 0 0 1-1 0zM15 27.5a.5.5 0 1 1 1 0 .5.5 0 0 1-1 0zM24.63 18h-3.87a.76.76 0 1 0 0 1.52h3.87a.76.76 0 1 0 0-1.52zM24.63 21h-3.87a.76.76 0 1 0 0 1.52h3.87a.76.76 0 1 0 0-1.52z"/></svg>