<svg xmlns="http://www.w3.org/2000/svg" width="52" height="52" viewBox="0 0 52 52"><path fill="#3d8eb9" d="M44.38 7.62A25.8 25.8 0 0 0 26 0 25.8 25.8 0 0 0 7.62 7.62 25.8 25.8 0 0 0 0 26a25.8 25.8 0 0 0 7.62 18.38A25.8 25.8 0 0 0 26 52a25.8 25.8 0 0 0 18.38-7.62A25.8 25.8 0 0 0 52 26a25.8 25.8 0 0 0-7.62-18.38zM26 49.93A23.96 23.96 0 0 1 2.07 26 23.96 23.96 0 0 1 26 2.07 23.96 23.96 0 0 1 49.93 26 23.96 23.96 0 0 1 26 49.93zm20.94-19.65a1.03 1.03 0 0 0-1.26.75A20.29 20.29 0 0 1 26 46.3c-.57 0-1.04.47-1.04 1.04 0 .57.47 1.03 1.04 1.03a22.34 22.34 0 0 0 21.68-16.83 1.03 1.03 0 0 0-.74-1.26zm.4-5.32c-.57 0-1.04.47-1.04 1.04 0 .3 0 .59-.02.89-.02.57.42 1.05.99 1.08h.05c.55 0 1.01-.44 1.03-.99.02-.33.02-.65.02-.98 0-.57-.46-1.04-1.03-1.04zm-21.18-9.95c-4.73.16-8.66 3.72-9.11 8.27a8.92 8.92 0 0 0 .83 4.75c.95 2.17 3.15 5.82 8.09 9.79.3.24.75.24 1.06 0 4.94-3.97 7.14-7.61 8.1-9.8.27-.57.49-1.18.64-1.82l.06-.29a9 9 0 0 0 .17-1.74c0-5.17-4.44-9.35-9.84-9.16zm.34 13.73c-2.55 0-4.62-2-4.62-4.46a4.54 4.54 0 0 1 4.62-4.45 4.53 4.53 0 0 1 4.61 4.45 4.54 4.54 0 0 1-4.61 4.46z"/></svg>