<?xml version="1.0" encoding="UTF-8"?>
<svg width="22px" height="15px" viewBox="0 0 22 15" version="1.1" xmlns="http://www.w3.org/2000/svg" xmlns:xlink="http://www.w3.org/1999/xlink">
    <!-- Generator: Sketch 41.2 (35397) - http://www.bohemiancoding.com/sketch -->
    <title>Group 3</title>
    <desc>Created with Sketch.</desc>
    <defs></defs>
    <g id="Page-1" stroke="none" stroke-width="1" fill="none" fill-rule="evenodd">
        <g id="Group-3">
            <path d="M0,9.98357143 L21.957115,9.98357143 L21.957115,14.58125 C21.957115,14.7988839 21.7875906,14.9753571 21.5785263,14.9753571 L0.378588694,14.9753571 C0.169524366,14.9753571 0,14.7988839 0,14.58125 L0,9.98357143 Z" id="Shape" fill="#73AF00"></path>
            <path d="M0.378588694,0 L21.5785692,0 C21.7876335,0 21.9571579,0.176473214 21.9571579,0.394107143 L21.9571579,4.99178571 L0,4.99178571 L0,0.394107143 C0,0.176473214 0.169524366,0 0.378588694,0 Z" id="Shape" fill="#82AFFF"></path>
            <rect id="Rectangle-path" fill="#FF4B55" x="0" y="4.99160714" width="21.9570721" height="4.99160714"></rect>
            <g id="Group" transform="translate(9.048733, 5.478750)" fill="#F5F5F5">
                <path d="M2.44615984,3.64321429 C1.59660819,3.64321429 0.907403509,2.92575893 0.907403509,2.040625 C0.907403509,1.15705357 1.59660819,0.438035714 2.44615984,0.438035714 C2.76226511,0.438035714 3.05375439,0.539196429 3.29665497,0.710491071 C3.33383626,0.736741071 3.3762924,0.685803571 3.34515789,0.652098214 C2.98209357,0.259196429 2.46824561,0.0194196429 1.8985614,0.0396875 C0.919754386,0.0744642857 0.10948538,0.891339286 0.0469161793,1.90879464 C-0.0247446394,3.07415179 0.861688109,4.04263393 1.96537622,4.04263393 C2.50898635,4.04263393 2.99757505,3.80602679 3.34653021,3.42776786 C3.37732164,3.394375 3.33477973,3.34424107 3.29798441,3.37022321 C3.05482651,3.541875 2.76282261,3.64321429 2.44615984,3.64321429 Z" id="Shape"></path>
                <path d="M3.79326316,1.0540625 L3.95292398,1.52133929 L4.38323197,1.3084375 C4.41565302,1.29236607 4.44948928,1.32758929 4.43405068,1.36133929 L4.22953216,1.80928571 L4.67840936,1.97549107 C4.71224561,1.98799107 4.71224561,2.0378125 4.67840936,2.0503125 L4.22953216,2.21651786 L4.43405068,2.66446429 C4.44948928,2.69821429 4.41565302,2.7334375 4.38323197,2.71736607 L3.95292398,2.50446429 L3.79326316,2.97174107 C3.78125536,3.00696429 3.73339571,3.00696429 3.72138791,2.97174107 L3.5617271,2.50446429 L3.1314191,2.71736607 C3.09899805,2.7334375 3.06516179,2.69821429 3.08060039,2.66446429 L3.28511891,2.21651786 L2.83624172,2.0503125 C2.80240546,2.0378125 2.80240546,1.98799107 2.83624172,1.97549107 L3.28511891,1.80928571 L3.08060039,1.36133929 C3.06516179,1.32758929 3.09899805,1.29236607 3.1314191,1.3084375 L3.5617271,1.52133929 L3.72138791,1.0540625 C3.7334386,1.01888393 3.78125536,1.01888393 3.79326316,1.0540625 Z" id="Shape"></path>
            </g>
        </g>
    </g>
</svg>