<?xml version="1.0" encoding="UTF-8"?>
<svg width="21px" height="15px" viewBox="0 0 21 15" version="1.1" xmlns="http://www.w3.org/2000/svg" xmlns:xlink="http://www.w3.org/1999/xlink">
    <!-- Generator: Sketch 41.2 (35397) - http://www.bohemiancoding.com/sketch -->
    <title>m copy 4</title>
    <desc>Created with Sketch.</desc>
    <defs></defs>
    <g id="Page-1" stroke="none" stroke-width="1" fill="none" fill-rule="evenodd">
        <g id="Artboard-2" transform="translate(-696.000000, -1646.000000)" fill="#FF6D54">
            <path d="M707.477228,1648.69959 C710.152489,1648.94317 712.404941,1650.03247 714.234653,1651.96752 C716.078227,1653.92964 717,1656.24356 717,1658.90934 C717,1659.61299 716.923763,1660.30987 716.771287,1661 L714.79604,1661 C714.976239,1660.30987 715.066337,1659.61299 715.066337,1658.90934 C715.066337,1656.7713 714.338621,1654.90393 712.883168,1653.30717 C711.427715,1651.73748 709.625753,1650.83085 707.477228,1650.58728 L707.477228,1657.91475 L705.626733,1658.84844 L705.626733,1650.56698 C703.450484,1650.78349 701.62773,1651.68335 700.158416,1653.26658 C698.661379,1654.86334 697.912871,1656.74424 697.912871,1658.90934 C697.912871,1659.61299 698.0099,1660.30987 698.20396,1661 L696.228713,1661 C696.076237,1660.30987 696,1659.61299 696,1658.90934 C696,1656.23003 696.928704,1653.90935 698.786139,1651.94723 C700.643574,1649.98511 702.923749,1648.89581 705.626733,1648.6793 L705.626733,1646.93369 L707.477228,1646 L707.477228,1648.69959 Z" id="m-copy-4"></path>
        </g>
    </g>
</svg>