<?xml version="1.0" encoding="UTF-8"?>
<svg width="42px" height="42px" viewBox="0 0 42 42" version="1.1" xmlns="http://www.w3.org/2000/svg" xmlns:xlink="http://www.w3.org/1999/xlink">
    <!-- Generator: Sketch 41.2 (35397) - http://www.bohemiancoding.com/sketch -->
    <title>Group 6</title>
    <desc>Created with Sketch.</desc>
    <defs>
        <circle id="path-1" cx="21" cy="21" r="21"></circle>
        <mask id="mask-2" maskContentUnits="userSpaceOnUse" maskUnits="objectBoundingBox" x="0" y="0" width="42" height="42" fill="white">
            <use xlink:href="#path-1"></use>
        </mask>
    </defs>
    <g id="Page-1" stroke="none" stroke-width="1" fill="none" fill-rule="evenodd">
        <g id="Basket-Copy" transform="translate(-1642.000000, -24.000000)">
            <g id="Group-6" transform="translate(1642.000000, 24.000000)">
                <use id="Oval-2-Copy-2" stroke="#FFA400" mask="url(#mask-2)" stroke-width="3" xlink:href="#path-1"></use>
                <path d="M16.700029,24.8021862 L28.5584337,24.8021862 C29.9030644,24.8021862 31,23.5789264 31,22.0794466 L31,16.5155875 L31,16.4958575 L31,16.4563975 C31,16.4465325 31,16.4366675 30.9955769,16.4268025 C30.9955769,16.4169375 30.9911537,16.40214 30.9911537,16.392275 C30.9911537,16.38241 30.9867306,16.372545 30.9867306,16.36268 C30.9823075,16.352815 30.9823075,16.34295 30.9778844,16.3281525 C30.9734612,16.3182875 30.9734612,16.3084225 30.9690381,16.2985575 C30.964615,16.2886925 30.964615,16.2788275 30.9601919,16.2689625 C30.9557687,16.2590975 30.9513456,16.2492325 30.9469225,16.234435 C30.9424993,16.22457 30.9380762,16.214705 30.9336531,16.2097725 C30.92923,16.1999075 30.9248068,16.1900425 30.9203837,16.1801775 C30.9159606,16.1703125 30.9115375,16.16538 30.9071143,16.155515 C30.9026912,16.14565 30.8938449,16.135785 30.8894218,16.12592 C30.8849987,16.116055 30.8805756,16.1111225 30.8717293,16.1012575 C30.8673062,16.0913925 30.8584599,16.08646 30.8540368,16.076595 C30.8496137,16.06673 30.8407674,16.0617975 30.8363443,16.0519325 C30.8319212,16.0420675 30.8230749,16.037135 30.8186518,16.0322025 C30.8098055,16.0223375 30.8053824,16.017405 30.7965361,16.00754 C30.7876899,16.0026075 30.7832668,15.9927425 30.7744205,15.98781 C30.7655742,15.9828775 30.756728,15.9730125 30.7478817,15.9680801 C30.7390355,15.9631476 30.7346124,15.9582151 30.7257661,15.9532826 C30.7169198,15.9483501 30.7080736,15.9434176 30.6992273,15.9335526 C30.6903811,15.9286201 30.6815348,15.9236876 30.6726886,15.9187551 C30.6638423,15.9138226 30.6549961,15.9088901 30.6461498,15.9039576 C30.6373036,15.8990251 30.6284573,15.8940926 30.619611,15.8891601 C30.6107648,15.8842276 30.6019185,15.8842276 30.5930723,15.8792951 C30.584226,15.8743626 30.5709566,15.8694301 30.5621104,15.8694301 C30.5532641,15.8694301 30.5444179,15.8644976 30.5399947,15.8644976 C30.5267254,15.8595651 30.5178791,15.8595651 30.5046097,15.8595651 C30.5001866,15.8595651 30.4957635,15.8546326 30.4869172,15.8546326 L15.4571302,13.5412904 L15.4571302,11.2032858 C15.4571302,11.1786233 15.4571302,11.1539608 15.4527071,11.1342308 C15.4527071,11.1292983 15.4527071,11.1243658 15.448284,11.1145008 C15.448284,11.0997033 15.4438608,11.0849058 15.4438608,11.0701083 C15.4394377,11.0553108 15.4394377,11.0454458 15.4350146,11.0306483 C15.4350146,11.0207833 15.4305915,11.0158508 15.4305915,11.0059858 C15.4261683,10.9911883 15.4217452,10.9763908 15.4173221,10.9615933 C15.4173221,10.9566608 15.4128989,10.9467958 15.4128989,10.9418633 C15.4084758,10.9270658 15.4040527,10.9172008 15.3952064,10.9024033 C15.3907833,10.8974708 15.3907833,10.8876058 15.3863602,10.8826733 C15.3819371,10.8728083 15.3775139,10.8629433 15.3686677,10.8530783 C15.3642445,10.8432133 15.3598214,10.8382808 15.3553983,10.8284158 C15.3509752,10.8185508 15.346552,10.8136183 15.3421289,10.8037533 C15.3377058,10.7938883 15.3288595,10.7840233 15.3244364,10.7741583 C15.3200133,10.7692258 15.3155901,10.7642933 15.311167,10.7593608 C15.3023208,10.7494958 15.2934745,10.7396308 15.2846282,10.7297658 C15.2802051,10.7248333 15.275782,10.7199008 15.2713589,10.7149683 C15.2625126,10.7051033 15.2536664,10.6952383 15.240397,10.6853733 C15.2359738,10.6804408 15.2271276,10.6755083 15.2227045,10.6705758 C15.2138582,10.6607108 15.205012,10.6557783 15.1961657,10.6459133 C15.1828963,10.6360483 15.1696269,10.6261834 15.1607807,10.6212509 C15.1563576,10.6163184 15.1519344,10.6163184 15.1475113,10.6113859 C15.1298188,10.6015209 15.1077032,10.5916559 15.0900106,10.5817909 L11.8301657,9.05271609 C11.5249699,8.90967361 11.1755429,9.06751358 11.0472722,9.40785603 C10.9190015,9.74819848 11.0605416,10.1378659 11.3657373,10.2809084 L14.2584627,11.6422782 L14.2584627,14.6609677 L14.2584627,15.1394202 L14.2584627,18.8091996 L14.2584627,22.0893116 L14.2584627,26.232611 C14.2584627,27.6137108 15.1873194,28.7580506 16.385987,28.9306881 C16.1692537,29.335153 16.040983,29.808673 16.040983,30.3117879 C16.040983,31.7964702 17.1246493,33 18.4515875,33 C19.7785257,33 20.8621919,31.7915377 20.8621919,30.3117879 C20.8621919,29.818538 20.7427675,29.3499505 20.5304574,28.9553506 L25.9001341,28.9553506 C25.687824,29.354883 25.5683995,29.818538 25.5683995,30.3117879 C25.5683995,31.7964702 26.6520657,33 27.979004,33 C29.3059422,33 30.3896084,31.7915377 30.3896084,30.3117879 C30.3896084,28.8320381 29.3059422,27.6235758 27.979004,27.6235758 L16.700029,27.6235758 C16.0100211,27.6235758 15.4527071,26.9971484 15.4527071,26.232611 L15.4527071,24.4273163 C15.8154035,24.6640762 16.2444469,24.8021862 16.700029,24.8021862 Z M19.6723707,30.3068554 C19.6723707,31.0565953 19.1239029,31.6632927 18.4560106,31.6632927 C17.7881184,31.6632927 17.2396506,31.0516628 17.2396506,30.3068554 C17.2396506,29.562048 17.7881184,28.9504181 18.4560106,28.9504181 C19.1239029,28.9504181 19.6723707,29.5571155 19.6723707,30.3068554 Z M29.1997871,30.3068554 C29.1997871,31.0565953 28.6513193,31.6632927 27.9834271,31.6632927 C27.3155349,31.6632927 26.7670671,31.0516628 26.7670671,30.3068554 C26.7670671,29.562048 27.3155349,28.9504181 27.9834271,28.9504181 C28.6513193,28.9504181 29.1997871,29.5571155 29.1997871,30.3068554 Z M28.5584337,23.4704114 L16.700029,23.4704114 C16.0100211,23.4704114 15.4527071,22.843984 15.4527071,22.0794466 L15.4527071,18.7993346 L15.4527071,15.1295552 L15.4527071,14.8829302 L29.8057556,17.0877574 L29.8057556,22.0745141 C29.8057556,22.8489165 29.2440184,23.4704114 28.5584337,23.4704114 Z" id="Shape" fill="#FFA400"></path>
            </g>
        </g>
    </g>
</svg>