<svg xmlns="http://www.w3.org/2000/svg" width="60" height="22" viewBox="0 0 60 22"><path fill="#dce4e6" d="M43 19a1 1 0 0 1 1-1 1 1 0 0 1 1 1 1 1 0 0 1-1 1 1 1 0 0 1-1-1zm-2 0a3 3 0 0 0 3 3 3 3 0 0 0 3-3 3 3 0 0 0-3-3 3 3 0 0 0-3 3z"/><path fill="#dce4e6" d="M47 9h11V5H47zM35 9h10V5H35zM23 9h10V5H23zM10 9h11V5H10zm-5 6h3V5H5zM59 0a1 1 0 0 1 1 1v16l-.02.1-.04.2-.07.17a.9.9 0 0 1-.11.16.8.8 0 0 1-.29.23.5.5 0 0 1-.18.08l-.09.04-10 2-.2.02c-.13 0-.25-.03-.36-.07l-.11-.06a.9.9 0 0 1-.2-.14l-.09-.1a.94.94 0 0 1-.12-.18l-.06-.15-.04-.1v-.1L48 19a4 4 0 1 0-8 0 1 1 0 0 1-1 1H21a1 1 0 0 1-1-1 4 4 0 1 0-8 0 1 1 0 0 1-1 1H1a1 1 0 0 1-1-1v-4h2a1 1 0 0 0 1-1 1 1 0 0 0-1-1H0v-1a1 1 0 0 1 .08-.38c.05-.12.12-.23.21-.33l.71-.7V1a1 1 0 0 1 1-1z"/><path fill="#dce4e6" d="M15 19a1 1 0 0 1 1-1 1 1 0 0 1 1 1 1 1 0 0 1-1 1 1 1 0 0 1-1-1zm-2 0a3 3 0 0 0 3 3 3 3 0 0 0 3-3 3 3 0 0 0-3-3 3 3 0 0 0-3 3z"/></svg>