<svg xmlns="http://www.w3.org/2000/svg" width="22" height="22" viewBox="0 0 22 22"><path fill="#dce4e6" d="M16.48 4.64c.85 0 1.54-.68 1.54-1.52V1.53c0-.85-.69-1.53-1.54-1.53-.86 0-1.55.68-1.55 1.53v1.59c0 .84.69 1.52 1.55 1.52zm-11 0c.85 0 1.55-.68 1.55-1.52V1.53C7.03.68 6.33 0 5.48 0c-.86 0-1.55.68-1.55 1.53v1.59c0 .84.69 1.52 1.55 1.52zm16.5-2h-3.12v.78a2.34 2.34 0 0 1-2.36 2.32 2.33 2.33 0 0 1-2.35-2.32v-.78H7.86v.78A2.34 2.34 0 0 1 5.5 5.74a2.34 2.34 0 0 1-2.36-2.32v-.78L0 2.6V22h22zM1.57 20.46V8.06h18.86v12.4zM10 12v-2H8v2zm4 0v-2h-2v2zm4 0v-2h-2v2zm-8 3v-2H8v2zm4 0v-2h-2v2zm4 0v-2h-2v2zm-8 4v-2H8v2zm-4-4v-2H4v2zm0 4v-2H4v2zm8 0v-2h-2v2zm2 0v-2h2v2z"/></svg>