<?xml version="1.0" encoding="UTF-8"?>
<svg width="15px" height="16px" viewBox="0 0 15 16" version="1.1" xmlns="http://www.w3.org/2000/svg" xmlns:xlink="http://www.w3.org/1999/xlink">
    <!-- Generator: Sketch 41.2 (35397) - http://www.bohemiancoding.com/sketch -->
    <title>calendar</title>
    <desc>Created with Sketch.</desc>
    <defs></defs>
    <g id="Page-1" stroke="none" stroke-width="1" fill="none" fill-rule="evenodd">
        <g id="Artboard-2" transform="translate(-1409.000000, -296.000000)" fill="#FFA400">
            <g id="calendar" transform="translate(1409.000000, 296.000000)">
                <g id="Group-33">
                    <path d="M11.2272414,3.27786667 C11.8044828,3.27786667 12.272069,2.79893333 12.272069,2.20266667 L12.272069,1.07733333 C12.272069,0.480533333 11.805,0 11.2272414,0 C10.6494828,0 10.182931,0.48 10.182931,1.07733333 L10.182931,2.2032 C10.1834483,2.79893333 10.65,3.27786667 11.2272414,3.27786667 Z" id="Shape"></path>
                    <path d="M3.8037931,3.27786667 C4.38103448,3.27786667 4.84913793,2.79893333 4.84913793,2.20266667 L4.84913793,1.07733333 C4.84913793,0.48 4.38103448,0 3.8037931,0 C3.22655172,0 2.76,0.48 2.76,1.07733333 L2.76,2.2032 C2.76,2.79893333 3.22603448,3.27786667 3.8037931,3.27786667 Z" id="Shape"></path>
                    <g id="Group-31" transform="translate(0.000000, 1.600000)">
                        <path d="M14.9389655,0.263466667 L12.8358621,0.263466667 L12.8358621,0.8112 C12.8358621,1.7152 12.1236207,2.45173333 11.2453448,2.45173333 C10.3660345,2.45173333 9.65534483,1.7152 9.65534483,0.8112 L9.65534483,0.263466667 L5.41137931,0.263466667 L5.41137931,0.8112 C5.41137931,1.7152 4.69810345,2.45173333 3.82034483,2.45173333 C2.94258621,2.45173333 2.22982759,1.71573333 2.22982759,0.8112 L2.22982759,0.263466667 L0.107586207,0.236266667 L0.107586207,13.9312 L1.16896552,13.9312 L13.8951724,13.9312 L14.955,13.928 L14.9389655,0.263466667 Z M13.8941379,12.8405333 L1.16896552,12.8405333 L1.16896552,4.09173333 L13.8951724,4.09173333 L13.8951724,12.8405333 L13.8941379,12.8405333 Z" id="Shape"></path>
                        <g id="Group-29" transform="translate(2.586207, 4.800000)">
                            <rect id="Rectangle-path" x="2.82827586" y="0.4656" width="1.6712069" height="1.52106667"></rect>
                            <rect id="Rectangle-path" x="5.53034483" y="0.4656" width="1.67275862" height="1.52106667"></rect>
                            <rect id="Rectangle-path" x="8.03637931" y="0.4656" width="1.6712069" height="1.52106667"></rect>
                            <rect id="Rectangle-path" x="2.82827586" y="2.99146667" width="1.6712069" height="1.52"></rect>
                            <rect id="Rectangle-path" x="5.53034483" y="2.99146667" width="1.67275862" height="1.52"></rect>
                            <rect id="Rectangle-path" x="8.03637931" y="2.99146667" width="1.6712069" height="1.52"></rect>
                            <rect id="Rectangle-path" x="2.82827586" y="5.56746667" width="1.6712069" height="1.52"></rect>
                            <rect id="Rectangle-path" x="0.173793103" y="2.99146667" width="1.67017241" height="1.52"></rect>
                            <rect id="Rectangle-path" x="0.173793103" y="5.56746667" width="1.67017241" height="1.52"></rect>
                            <rect id="Rectangle-path" x="5.53034483" y="5.56746667" width="1.67275862" height="1.52"></rect>
                            <rect id="Rectangle-path" x="8.03637931" y="5.56746667" width="1.6712069" height="1.52"></rect>
                        </g>
                    </g>
                </g>
            </g>
        </g>
    </g>
</svg>