<svg xmlns="http://www.w3.org/2000/svg" width="52" height="52" viewBox="0 0 52 52"><path fill="#3d8eb9" d="M44.38 7.62A25.8 25.8 0 0 0 26 0 25.8 25.8 0 0 0 7.62 7.62 25.8 25.8 0 0 0 0 26a25.8 25.8 0 0 0 7.62 18.38A25.8 25.8 0 0 0 26 52a25.8 25.8 0 0 0 18.38-7.62A25.8 25.8 0 0 0 52 26a25.8 25.8 0 0 0-7.62-18.38zM26 49.93A23.96 23.96 0 0 1 2.07 26 23.96 23.96 0 0 1 26 2.07 23.96 23.96 0 0 1 49.93 26 23.96 23.96 0 0 1 26 49.93z"/><path fill="#3d8eb9" d="M40.02 21.66a.5.5 0 0 0-.07-.08l-1.12-1.24c.93-.24 1.93-1.14 1.93-2.05 0-1.07-1.29-1.45-2.39-1.45-1.16 0-1.29.91-1.3 1.55l-2.9-3.2A3.81 3.81 0 0 0 31.64 14H20.36c-.83 0-1.94.52-2.53 1.19l-2.89 3.2c-.02-.64-.15-1.55-1.31-1.55-1.1 0-2.39.38-2.39 1.45 0 .91 1 1.81 1.93 2.05l-1.12 1.24-.07.08A7.71 7.71 0 0 0 10 26.6v4.7c0 1.14.39 2.17 1.03 2.94v1.83c0 1.06.78 1.93 1.73 1.93h2.1c.96 0 1.74-.87 1.74-1.93v-.47h18.8v.47c0 1.06.78 1.93 1.74 1.93h2.1c.96 0 1.73-.87 1.73-1.93v-1.83A4.59 4.59 0 0 0 42 31.3v-4.7c0-1.58-.78-3.76-1.98-4.94zm-21.13-5.05a2.7 2.7 0 0 1 1.47-.68h11.28c.35 0 1.06.29 1.47.68l3.79 4.21H15.1zm-7.59 9.28c0-1.16.79-2.1 1.77-2.1.97 0 4.16 2.14 4.16 3.3 0 1.16-3.19.89-4.16.89-.98 0-1.77-.94-1.77-2.09zm2.63 7.65a3.7 3.7 0 0 1-1.22-.67 1.9 1.9 0 0 1-.52-.78c-.25-.8.27-1.54.27-1.54h3.4l2.27 2.99zm16.97 0h-9.8c-1.02 0-1.85-.95-1.85-2.12h13.5c0 1.17-.83 2.12-1.85 2.12zm.43-3.56H20.67c-1.11 0-2.01-1.57-2.01-3.51h14.68c0 1.94-.9 3.51-2.01 3.51zm8.48 2.12a1.9 1.9 0 0 1-.52.77c-.27.25-.66.48-1.22.67h-4.2l2.27-2.99h3.4s.52.74.27 1.55zm-.88-4.12c-.97 0-4.16.27-4.16-.89 0-1.15 3.19-3.3 4.16-3.3.98 0 1.77.94 1.77 2.1 0 1.15-.79 2.09-1.77 2.09z"/></svg>