<svg xmlns="http://www.w3.org/2000/svg" width="52" height="52" viewBox="0 0 52 52"><path fill="#3d8eb9" d="M44.38 7.62A25.8 25.8 0 0 0 26 0 25.8 25.8 0 0 0 7.62 7.62 25.8 25.8 0 0 0 0 26a25.8 25.8 0 0 0 7.62 18.38A25.8 25.8 0 0 0 26 52a25.8 25.8 0 0 0 18.38-7.62A25.8 25.8 0 0 0 52 26a25.8 25.8 0 0 0-7.62-18.38zM25.93 49.86A23.96 23.96 0 0 1 2 25.93 23.95 23.95 0 0 1 25.93 2a23.96 23.96 0 0 1 23.93 23.93 23.96 23.96 0 0 1-23.93 23.93zm21.01-19.58a1.03 1.03 0 0 0-1.26.75A20.29 20.29 0 0 1 26 46.3c-.57 0-1.04.47-1.04 1.04 0 .57.47 1.03 1.04 1.03a22.34 22.34 0 0 0 21.68-16.83 1.03 1.03 0 0 0-.74-1.26zM48.37 26c0 .33 0 .65-.02.98-.02.55-.48.99-1.03.99h-.05a1.04 1.04 0 0 1-.99-1.08c.02-.3.02-.59.02-.89 0-.57.47-1.04 1.04-1.04.57 0 1.03.47 1.03 1.04z"/><path fill="#3d8eb9" d="M26.76 25.91V13.36A1.4 1.4 0 0 0 25.34 12c-.71 0-1.34.61-1.34 1.36v12.75c0 .02.05.12.05.19-.05.44.07.8.37 1.09l7.29 7.25a1.4 1.4 0 0 0 1.88 0 1.3 1.3 0 0 0 0-1.89z"/></svg>