<svg xmlns="http://www.w3.org/2000/svg" width="30" height="32" viewBox="0 0 30 32"><path fill="#3d8eb9" d="M23.82 21.82c-.43 0-.72.29-.72.73v7.27c0 .43-.29.73-.72.73H2.17a.7.7 0 0 1-.73-.73V2.18a.7.7 0 0 1 .73-.73h14.87l4.11 4.15a.7.7 0 0 0 1.01 0 .7.7 0 0 0 0-1.02L17.83.22a.63.63 0 0 0-.5-.22H2.17C.94 0 0 .95 0 2.18v27.64C0 31.05.94 32 2.17 32h20.21c1.23 0 2.17-.95 2.17-2.18v-7.27c0-.44-.29-.73-.73-.73z"/><path fill="#3d8eb9" d="M29.33 12.64l-2.91-2.9a.7.7 0 0 0-1.02 0l-1.67 1.67V7.35c0-.43-.29-.72-.73-.72h-5.09c-.44 0-.73-.29-.73-.73V3.73c0-.44-.29-.73-.73-.73-.43 0-.72.29-.72.73V5.9c0 1.23.94 2.18 2.18 2.18h4.36v4.78l-7.05 7.04a.63.63 0 0 0-.22.5v2.9c0 .44.29.73.73.73h2.91c.21 0 .36-.07.51-.22l10.18-10.15a.7.7 0 0 0 0-1.02zm-12.88 9.94v-1.89l1.9 1.89zm10.19-8.27l-.95-.94a.7.7 0 0 0-1.02 0 .7.7 0 0 0 0 1.01l.95.95-6.26 6.23-1.89-1.88 6.04-6.02 2.4-2.39 1.89 1.88zM14.18 23H4.73c-.44 0-.73.37-.73.91 0 .55.29.92.73.92h9.45c.44 0 .73-.37.73-.92 0-.54-.29-.91-.73-.91zM11.5 11H4.68c-.41 0-.68.37-.68.91 0 .55.27.92.68.92h6.82c.41 0 .68-.37.68-.92 0-.54-.27-.91-.68-.91z"/><path fill="#3d8eb9" d="M14.66 14H9.71c-.43 0-.71.37-.71.91 0 .55.28.92.71.92h4.95c.42 0 .7-.37.7-.92 0-.54-.28-.91-.7-.91zM17.79 11h-3.03c-.46 0-.76.37-.76.91 0 .55.3.92.76.92h3.03c.45 0 .76-.37.76-.92 0-.54-.31-.91-.76-.91zM11.44 16h-6.7c-.44 0-.74.37-.74.91 0 .55.3.92.74.92h6.7c.44 0 .74-.37.74-.92 0-.54-.3-.91-.74-.91zM7.79 19H4.76c-.46 0-.76.37-.76.91 0 .55.3.92.76.92h3.03c.45 0 .76-.37.76-.92 0-.54-.31-.91-.76-.91zM7.79 14H4.76c-.46 0-.76.37-.76.91 0 .55.3.92.76.92h3.03c.45 0 .76-.37.76-.92 0-.54-.31-.91-.76-.91zM15.05 16h-1.37c-.41 0-.68.37-.68.91 0 .55.27.92.68.92h1.37c.4 0 .68-.37.68-.92 0-.54-.28-.91-.68-.91zM12.79 19H9.76c-.46 0-.76.37-.76.91 0 .55.3.92.76.92h3.03c.45 0 .76-.37.76-.92 0-.54-.31-.91-.76-.91z"/></svg>