<svg xmlns="http://www.w3.org/2000/svg" width="46" height="52" viewBox="0 0 46 52"><path fill="#e2e5e7" d="M10.25 0A3.26 3.26 0 0 0 7 3.25v45.5A3.26 3.26 0 0 0 10.25 52h32.5A3.26 3.26 0 0 0 46 48.75V13L33 0z"/><path fill="#b0b7bd" d="M36.25 13H46L33 0v9.75A3.26 3.26 0 0 0 36.25 13z"/><path fill="#cad1d8" d="M46 23L36 13h10z"/><path fill="#50bee8" d="M39 42.33c0 .92-.73 1.67-1.62 1.67H1.63C.73 44 0 43.25 0 42.33V25.67C0 24.75.73 24 1.63 24h35.75c.89 0 1.62.75 1.62 1.67z"/><path fill="#fff" d="M5 38.57v-7.73c0-.49.47-.84.9-.84h2.98c5.95 0 5.82 9.42.12 9.42H5.9c-.43 0-.9-.25-.9-.85zm1.72-6.91v6.1h2.16c3.51 0 3.67-6.1 0-6.1zM19.91 39.89a4.63 4.63 0 0 1-4.91-4.9 4.8 4.8 0 0 1 9.57 0c0 3.23-2.38 4.9-4.66 4.9zm-.14-8.12A3.05 3.05 0 0 0 16.72 35a3.07 3.07 0 1 0 6.14 0c0-2.16-1.6-3.23-3.09-3.23zM26 34.89c0-2.63 1.58-4.89 4.57-4.89 1.13 0 2.03.35 2.98 1.21.35.34.39.94.04 1.32a.85.85 0 0 1-1.2-.04c-.53-.59-1.08-.75-1.82-.75-2 0-2.97 1.49-2.97 3.15 0 1.69.95 3.24 2.97 3.24.74 0 1.43-.32 2.03-.88.4-.32.96-.16 1.2.17.21.3.31.8-.14 1.28a4.18 4.18 0 0 1-3.09 1.06c-3.15 0-4.57-2.25-4.57-4.87z"/><path fill="#cad1d8" d="M38.35 43.5H7V45h31.35c.91 0 1.65-.67 1.65-1.5V42c0 .83-.74 1.5-1.65 1.5z"/></svg>