<?xml version="1.0" encoding="UTF-8"?>
<svg width="12px" height="24px" viewBox="0 0 12 24" version="1.1" xmlns="http://www.w3.org/2000/svg" xmlns:xlink="http://www.w3.org/1999/xlink">
    <!-- Generator: Sketch 41.2 (35397) - http://www.bohemiancoding.com/sketch -->
    <title>dollar</title>
    <desc>Created with Sketch.</desc>
    <defs></defs>
    <g id="Page-1" stroke="none" stroke-width="1" fill="none" fill-rule="evenodd">
        <g id="Basket-Copy" transform="translate(-1760.000000, -214.000000)" fill="#FF6D54">
            <path d="M1766.00004,214 C1765.53042,214 1765.14974,214.383743 1765.14974,214.857142 L1765.14974,216.624998 C1763.88339,216.758027 1762.72342,217.180855 1761.82831,217.910711 C1760.73389,218.802825 1760.04795,220.169024 1760.04795,221.71428 C1760.04795,223.403022 1760.95012,224.591895 1762.06741,225.276752 C1763.0234,225.863037 1764.10574,226.207266 1765.14974,226.589294 L1765.14974,233.633889 C1763.49268,233.342118 1762.21587,232.258604 1761.61573,231.250005 C1761.42646,230.796662 1760.80974,230.59172 1760.39335,230.848177 C1759.97704,231.104633 1759.86684,231.757347 1760.18077,232.13389 C1761.07503,233.63646 1762.82341,235.059145 1765.14974,235.348173 L1765.14974,237.142858 C1765.14974,237.616257 1765.53042,238 1766.00004,238 C1766.46966,238 1766.85033,237.616257 1766.85033,237.142858 L1766.85033,235.375002 C1768.11668,235.235459 1769.27649,234.792488 1770.17177,234.06246 C1771.2661,233.170346 1771.95212,231.830976 1771.95212,230.28572 C1771.95212,228.596978 1771.04995,227.381465 1769.93266,226.696437 C1768.97667,226.110237 1767.89433,225.766094 1766.85033,225.383895 L1766.85033,218.366068 C1768.50739,218.65244 1769.78403,219.714696 1770.38434,220.723209 C1770.57353,221.176638 1771.19042,221.381452 1771.60673,221.124995 C1772.02303,220.868624 1772.13306,220.215824 1771.8193,219.839282 C1770.92496,218.336797 1769.17666,216.936526 1766.85033,216.651784 L1766.85033,214.857142 C1766.85033,214.383743 1766.46966,214 1766.00004,214 Z M1765.14974,218.339283 L1765.14974,224.767867 C1764.30038,224.454753 1763.4994,224.143867 1762.94424,223.803564 C1762.13561,223.307708 1761.74855,222.877594 1761.74855,221.71428 C1761.74855,220.663081 1762.17982,219.851624 1762.91771,219.249996 C1763.68927,218.733911 1764.38243,218.432111 1765.14974,218.339283 Z M1766.85033,227.205322 C1767.6997,227.518436 1768.50059,227.829322 1769.05584,228.169607 C1769.86447,228.665635 1770.25152,229.122321 1770.25152,230.28572 C1770.25152,231.336919 1769.82025,232.121633 1769.08237,232.723175 C1768.51819,233.183118 1767.74544,233.501203 1766.85033,233.633889 L1766.85033,227.205322 Z" id="dollar"></path>
        </g>
    </g>
</svg>