<svg xmlns="http://www.w3.org/2000/svg" width="50" height="50" viewBox="0 0 50 50"><path fill="#7cc990" d="M18.84 33.05l-5.4-5.96a1.57 1.57 0 0 0-2.21-.12 1.57 1.57 0 0 0-.11 2.21l6.29 6.95c.29.42.76.66 1.27.66.06 0 .11-.02.17-.03l.12.03c.46 0 .91-.21 1.21-.57l18.09-19.99c.58-.64.53-1.63-.11-2.21a1.55 1.55 0 0 0-2.2.11zM50 25c0 13.79-11.21 25-25 25S0 38.79 0 25 11.21 0 25 0s25 11.21 25 25zm-3.12 0A21.9 21.9 0 0 0 25 3.13 21.9 21.9 0 0 0 3.13 25 21.9 21.9 0 0 0 25 46.88 21.91 21.91 0 0 0 46.88 25z"/></svg>