<?xml version="1.0" encoding="UTF-8"?>
<svg width="22px" height="22px" viewBox="0 0 22 22" version="1.1" xmlns="http://www.w3.org/2000/svg" xmlns:xlink="http://www.w3.org/1999/xlink">
    <!-- Generator: Sketch 41.2 (35397) - http://www.bohemiancoding.com/sketch -->
    <title>euro</title>
    <desc>Created with Sketch.</desc>
    <defs></defs>
    <g id="Page-1" stroke="none" stroke-width="1" fill="none" fill-rule="evenodd">
        <g id="Basket-Copy" transform="translate(-1755.000000, -306.000000)" fill="#FF6D54">
            <path d="M1774.07891,309.352132 C1775.01366,309.942118 1775.72585,310.576631 1776.21548,311.255672 L1777,309.185155 C1776.51037,308.673091 1775.84269,308.155462 1774.99697,307.632266 C1773.30551,306.585876 1771.53617,306.045983 1769.68892,306.012588 C1768.27567,305.934665 1766.75114,306.218526 1765.11533,306.864171 C1761.86596,308.14433 1759.70157,310.582197 1758.62215,314.177773 L1755.78452,314.177773 L1755,316.098011 L1758.33839,316.098011 L1758.25493,316.632338 C1758.23268,317.077611 1758.2605,317.495054 1758.33839,317.884667 L1756.00152,317.884667 L1755.13354,319.754812 L1758.63885,319.754812 L1758.88923,320.623094 C1759.13404,321.324398 1759.45675,322.01457 1759.85736,322.693611 C1761.12595,324.819787 1762.93424,326.333714 1765.28225,327.235391 L1766.28376,327.569346 C1767.11836,327.814245 1767.98078,327.953393 1768.87102,327.986789 C1771.67527,328.12037 1774.12342,327.240957 1776.21548,325.348549 L1776.21548,322.960775 C1773.96763,325.287324 1771.35812,326.294753 1768.38695,325.983062 C1767.46333,325.882876 1766.5564,325.660239 1765.66616,325.315153 L1764.61457,324.814222 C1763.26808,324.057258 1762.20536,322.988604 1761.4264,321.608259 L1760.62519,319.754812 L1772.47648,319.754812 L1773.32777,317.884667 L1760.29135,317.884667 C1760.18007,317.662031 1760.13556,317.300247 1760.15781,316.799315 L1760.24127,316.098011 L1774.14568,316.098011 L1774.99697,314.177773 L1760.64188,314.177773 C1761.54325,311.884619 1763.00658,310.181452 1765.03187,309.06827 C1766.05564,308.500548 1766.99039,308.172159 1767.83612,308.083105 C1770.12848,307.726887 1772.20941,308.149896 1774.07891,309.352132 Z" id="euro"></path>
        </g>
    </g>
</svg>