<?xml version="1.0" encoding="UTF-8"?>
<svg width="17px" height="28px" viewBox="0 0 17 28" version="1.1" xmlns="http://www.w3.org/2000/svg" xmlns:xlink="http://www.w3.org/1999/xlink">
    <!-- Generator: Sketch 41.2 (35397) - http://www.bohemiancoding.com/sketch -->
    <title>Group</title>
    <desc>Created with Sketch.</desc>
    <defs></defs>
    <g id="Page-1" stroke="none" stroke-width="1" fill="none" fill-rule="evenodd">
        <g id="Artboard-2" transform="translate(-1005.000000, -4892.000000)" fill="#666666">
            <g id="Group" transform="translate(1005.000000, 4892.000000)">
                <path d="M16.208774,2.56526946 C16.208774,1.06092615 15.2068831,0 13.7647494,0 L13.7343713,0 L13.2030476,0 L12.5047778,0 L11.7912922,0 C11.2599685,0 10.8349417,0 10.4402395,0.0158163673 C8.7097006,0.0791377246 7.16132367,0.696702595 5.94689253,1.78931737 C4.71729909,2.8977485 3.92794831,4.43378044 3.66986763,6.2230978 C3.54840845,7.07818762 3.53324614,7.90158882 3.53324614,8.69335729 L2.56173338,8.69335729 C2.22778758,8.69335729 1.34730224,8.69335729 0.679410652,9.40593214 C0.0114654901,10.1026906 0.0114654901,11.0211018 0.0114654901,11.3694531 L0.0114654901,14.773996 C0.0114654901,15.1698523 0.0114654901,16.0724471 0.709735266,16.785022 C1.37768043,17.4659082 2.2581122,17.4659082 2.62243618,17.4659082 L3.54840845,17.4659082 L3.54840845,18.6219561 C3.54840845,20.8388743 3.53324614,23.0716088 3.53324614,25.2884711 C3.53324614,25.716016 3.51808383,26.5869222 4.18597542,27.2836806 C4.85392058,27.9962555 5.68881185,27.9962555 6.09867633,27.9962555 L7.38897258,27.9962555 L8.34532304,27.9962555 L9.2105925,27.9962555 C9.87853766,27.9962555 10.6982666,27.9962555 11.3661582,27.3153693 C12.0492657,26.6186108 12.0492657,25.7477046 12.0492657,25.0668184 L12.0492657,18.7169661 L12.0492657,17.4976527 L12.1858872,17.4976527 L13.5521021,17.4976527 C15.0853167,17.4976527 16.0568295,16.4842315 16.0568295,14.8690619 L16.0568295,11.369509 C16.0568295,11.0211577 16.0568295,10.1185629 15.373722,9.42180439 C14.7057769,8.74091816 13.8557233,8.72504591 13.5217239,8.72504591 C13.2484809,8.72504591 12.9600756,8.67754092 12.6868327,8.67754092 C12.4895084,8.67754092 12.2769682,8.6458523 12.0796439,8.6458523 L12.0644816,8.6458523 L12.0644816,8.48752096 C12.3225622,8.48752096 12.5805893,8.50333733 12.8538323,8.50333733 C13.1270753,8.50333733 13.4154806,8.51915369 13.7039395,8.50333733 C15.2219382,8.4716487 16.1782887,7.48991617 16.1935046,5.93806786 L16.1935046,3.48362475 C16.2239363,3.16701796 16.2239363,2.86611577 16.208774,2.56526946 Z M14.3871541,5.90643513 C14.3871541,6.44480639 14.2353703,6.58732136 13.6888843,6.60319361 C12.9753987,6.61900998 12.2771289,6.60319361 11.5636432,6.63488224 C10.6679956,6.66657086 10.3036716,7.06242715 10.273347,7.99671058 C10.2429688,8.86761677 10.273347,9.75439521 10.273347,10.704495 L11.093076,10.704495 L11.5029404,10.704495 L11.5181027,10.704495 C11.9128049,10.704495 12.3226694,10.65699 12.717318,10.65699 C12.990561,10.65699 13.263804,10.6411737 13.537047,10.6411737 C14.1290734,10.6411737 14.2656949,10.7678723 14.2656949,11.3854371 L14.2656949,14.8691178 C14.2656949,15.4391776 14.1139111,15.597509 13.5674251,15.597509 L12.2163725,15.597509 L10.2581311,15.597509 L10.2581311,16.1992575 L10.2581311,25.098507 C10.2581311,26.1119281 10.2277529,26.1278004 9.24107784,26.1278004 L7.41945793,26.1278004 L6.12916168,26.1278004 C5.4764324,26.1278004 5.3853514,26.0169741 5.3853514,25.3202156 C5.3853514,22.2957126 5.40051371,19.2553932 5.40051371,16.2309461 L5.40051371,15.5975649 L3.73067759,15.5975649 L2.65286795,15.5975649 C2.00013867,15.5975649 1.86351718,15.4708663 1.86351718,14.8057964 L1.86351718,11.4171257 C1.86351718,10.7678723 2.00013867,10.6253573 2.60732745,10.6253573 L3.68513709,10.6253573 L5.33975733,10.6253573 C5.35491963,10.4036487 5.35491963,10.2136287 5.37013552,10.0236088 C5.40051371,8.86767265 5.33975733,7.6800479 5.50675701,6.53992814 C5.90145919,3.80045509 7.87486291,2.04277046 10.5313741,1.94776048 C10.9564009,1.93194411 11.3966436,1.93194411 11.8216703,1.93194411 C12.2922376,1.93194411 12.7628585,1.96363273 13.2334258,1.96363273 C13.4155878,1.96363273 13.6129121,1.99532136 13.7950741,1.99532136 L13.8102364,1.99532136 C14.2352632,1.99532136 14.432641,2.18534132 14.432641,2.62870259 C14.4023164,3.72120559 14.4023164,4.79800399 14.3871541,5.90643513 Z" id="Shape"></path>
            </g>
        </g>
    </g>
</svg>