<svg xmlns="http://www.w3.org/2000/svg" width="24" height="22" viewBox="0 0 24 22"><path fill="#dce4e6" d="M23.02 3.73h-2.94V1.01A1 1 0 0 0 19.1 0H4.9a1 1 0 0 0-.98 1.01v2.72H.98a1 1 0 0 0-.98 1v9.87a1 1 0 0 0 .98 1.01h2.94v5.3c0 .34.06.59.32.83.11.11.24.18.39.22.15.04.29.04.43.04h13.88c.14 0 .28 0 .43-.04a.84.84 0 0 0 .39-.22c.26-.24.32-.49.32-.83v-1.74-3.56h2.94A1 1 0 0 0 24 14.6V4.73a1 1 0 0 0-.98-1zM2.45 7.27a.87.87 0 0 1-.86-.88c0-.48.39-.88.86-.88s.86.4.86.88c0 .49-.39.88-.86.88zM19.1 20.99H4.9v-7.95h14.2zm0-17.26H4.9V2.01a1 1 0 0 1 .98-1h12.24a1 1 0 0 1 .98 1v1.72z"/></svg>