<?xml version="1.0" encoding="UTF-8"?>
<svg width="116px" height="26px" viewBox="0 0 116 26" version="1.1" xmlns="http://www.w3.org/2000/svg" xmlns:xlink="http://www.w3.org/1999/xlink">
    <!-- Generator: Sketch 41.2 (35397) - http://www.bohemiancoding.com/sketch -->
    <title>Combined Shape</title>
    <desc>Created with Sketch.</desc>
    <defs></defs>
    <g id="Page-1" stroke="none" stroke-width="1" fill="none" fill-rule="evenodd">
        <g id="Artboard-2" transform="translate(-1554.000000, -5002.000000)" fill="#AAAAAA">
            <path d="M1574.98897,5015.16387 C1573.47773,5016.03586 1573.32049,5016.5488 1574.12415,5014.81337 C1575.08506,5012.73598 1576.50021,5008.87186 1572.38579,5011.30831 C1571.18902,5012.01787 1562.9165,5016.73688 1561.86823,5017.23271 C1560.95974,5017.66871 1558.01588,5019.29301 1557.88484,5018.35262 C1557.15106,5013.29166 1567.23184,5005.88828 1576.91078,5004.43497 C1590.94001,5002.32338 1592.12804,5005.10178 1592.34643,5004.51191 C1592.41631,5004.31528 1587.09639,5000.73328 1576.52642,5002.47726 C1567.65114,5003.93058 1558.47012,5010.00032 1555.15063,5015.66826 C1554.5042,5016.77107 1552.86192,5021.25926 1555.26419,5021.25926 C1558.48759,5021.25926 1568.75182,5016.63429 1572.2897,5013.88153 C1573.45152,5012.97535 1569.66031,5016.89931 1569.66031,5019.13912 C1569.66031,5019.91708 1570.97064,5019.30155 1572.21981,5018.71168 C1574.27266,5017.7371 1581.91623,5011.16297 1574.98897,5015.16387 Z M1641.49605,5019.03985 C1638.59338,5017.75751 1627.38994,5017.70819 1623.02293,5018.70282 C1621.59326,5019.02341 1626.67943,5017.11634 1627.64121,5015.16818 C1627.97914,5014.48591 1626.53213,5014.50235 1625.15445,5014.52701 C1622.8843,5014.55167 1613.19717,5017.23965 1621.13403,5016.50806 C1622.86697,5016.34365 1623.22222,5015.96553 1621.75789,5017.15744 C1619.99896,5018.58774 1617.07896,5021.3908 1621.81854,5020.90581 C1623.19623,5020.76607 1632.65807,5019.93584 1633.81047,5019.9194 C1634.82424,5019.90296 1638.16881,5019.66458 1637.88288,5020.53591 C1636.37522,5025.23781 1624.14068,5027.67918 1614.81747,5025.09806 C1601.30056,5021.35792 1601.42186,5018.46444 1600.97996,5018.89189 C1600.83266,5019.03163 1604.08192,5024.26783 1614.33225,5026.96403 C1622.93629,5029.22456 1633.79314,5027.58876 1639.19991,5023.96369 C1640.24834,5023.25676 1643.65356,5019.99338 1641.49605,5019.03985 Z M1584.209,5013.71261 L1584.15787,5013.74567 C1583.76588,5014.00191 1583.5784,5014.1011 1583.49319,5014.14243 C1583.49319,5014.04324 1583.53579,5013.77047 1583.6977,5013.04308 L1584.09822,5011.26594 C1584.22604,5010.72039 1584.3283,5010.34843 1584.41352,5010.15006 L1584.47317,5010.00127 L1584.05561,5009.7037 L1583.53579,5010.00127 C1583.36536,5009.92688 1583.19493,5009.86902 1582.99041,5009.82769 C1582.41947,5009.7037 1582.036,5009.73677 1581.70365,5009.86075 C1581.49914,5009.93515 1581.18384,5010.11699 1580.74924,5010.43109 C1580.30612,5010.74519 1580.0249,5010.96837 1579.88856,5011.11715 C1579.74369,5011.2742 1579.62439,5011.47258 1579.52213,5011.72055 C1579.33466,5012.17517 1579.18979,5012.62979 1579.07901,5013.08441 C1578.97675,5013.54729 1578.92562,5013.93578 1578.92562,5014.28294 C1578.92562,5014.7045 1579.00231,5015.00207 1579.1557,5015.19218 C1579.31761,5015.38229 1579.52213,5015.48148 1579.74369,5015.48148 C1580.1016,5015.48148 1580.5362,5015.27484 1581.06454,5014.85328 C1581.37983,5014.59704 1581.71218,5014.23335 1582.07008,5013.7374 C1582.036,5013.87792 1582.01043,5014.00191 1581.99339,5014.09283 C1581.93374,5014.38213 1581.89965,5014.60531 1581.89965,5014.77062 C1581.89965,5014.95247 1581.94226,5015.11779 1582.036,5015.24177 C1582.25756,5015.55587 1582.66659,5015.53108 1583.18641,5015.25004 C1583.44206,5015.11779 1583.8937,5014.82022 1584.55838,5014.3408 L1584.60951,5014.29948 L1584.67769,5014.08457 L1584.45612,5013.70434 L1584.209,5013.70434 L1584.209,5013.71261 Z M1581.12733,5012.49074 C1581.36294,5011.48148 1581.52542,5011.09259 1581.63104,5010.94444 C1581.76103,5010.75926 1581.92352,5010.66667 1582.12663,5010.66667 C1582.32161,5010.66667 1582.53285,5010.72222 1582.76033,5010.84259 C1582.70346,5011.27778 1582.57347,5011.75926 1582.37036,5012.26852 C1582.14288,5012.85185 1581.84227,5013.38889 1581.4848,5013.86111 C1581.09483,5014.37963 1580.92422,5014.49074 1580.86735,5014.51852 C1580.85922,5014.49074 1580.84298,5014.42593 1580.84298,5014.30556 C1580.84298,5013.91667 1580.94047,5013.30556 1581.12733,5012.49074 Z M1593.77837,5013.67644 L1593.71536,5013.71765 C1593.35529,5013.95668 1593.15726,5014.07207 1593.05824,5014.12152 C1593.08524,5013.89074 1593.22027,5013.25609 1593.70636,5011.59941 C1593.85039,5011.08015 1593.9224,5010.70101 1593.9224,5010.43726 C1593.9224,5010.24769 1593.87739,5010.09109 1593.78737,5009.95921 C1593.67935,5009.80261 1593.50832,5009.72019 1593.29228,5009.72019 C1592.81519,5009.72019 1592.23909,5009.96745 1591.52796,5010.47847 C1591.16789,5010.74222 1590.82583,5011.06367 1590.51077,5011.45105 C1590.58278,5011.17906 1590.63679,5010.95652 1590.6638,5010.78343 C1590.6998,5010.57738 1590.71781,5010.42902 1590.71781,5010.32187 C1590.71781,5010.14878 1590.6638,5010.00042 1590.54677,5009.88503 C1590.42975,5009.7614 1590.26772,5009.7037 1590.08769,5009.7037 C1589.63761,5009.7037 1589.09751,5009.96745 1588.42238,5010.5032 C1588.05331,5010.79992 1587.70225,5011.15433 1587.37819,5011.57468 C1587.4682,5011.21203 1587.53121,5010.94827 1587.56722,5010.80816 C1587.62123,5010.55265 1587.64824,5010.36308 1587.64824,5010.24769 C1587.64824,5010.10757 1587.60323,5009.99218 1587.52221,5009.89327 C1587.34218,5009.67898 1587.03612,5009.66249 1586.60404,5009.82734 C1586.41501,5009.90152 1586.13596,5010.05812 1585.73988,5010.33011 C1585.35281,5010.6021 1585.02875,5010.83288 1584.7677,5011.03894 L1584.69569,5011.09663 L1584.67769,5011.31093 L1584.88472,5011.64062 L1585.16378,5011.6571 L1585.22679,5011.61589 C1585.55985,5011.39335 1585.79389,5011.23675 1585.86591,5011.1873 L1585.87491,5011.1873 L1585.87491,5011.19554 C1585.87491,5011.36863 1585.8299,5011.76425 1585.60486,5012.68738 C1585.42482,5013.44566 1585.23579,5014.10504 1585.05576,5014.64078 C1584.96574,5014.89629 1584.92073,5015.0364 1584.92073,5015.04465 L1584.89373,5015.13531 L1585.15477,5015.48148 L1585.2988,5015.44851 C1585.86591,5015.31664 1586.27098,5015.2507 1586.49602,5015.2507 L1586.70306,5015.2507 L1586.71206,5015.06113 C1586.72106,5014.88804 1586.78408,5014.5666 1586.9011,5014.10504 C1587.01812,5013.65171 1587.17115,5013.25609 1587.36018,5012.91816 C1587.55822,5012.58023 1587.78326,5012.25054 1588.04431,5011.93734 C1588.35937,5011.5582 1588.56641,5011.39335 1588.67443,5011.31917 C1588.82746,5011.22851 1588.91747,5011.19554 1588.96248,5011.1873 L1588.96248,5011.20378 C1588.96248,5011.49226 1588.85446,5012.0857 1588.62942,5012.95937 C1588.40438,5013.84128 1588.18834,5014.53363 1587.9723,5015.02816 L1587.92729,5015.13531 L1588.23334,5015.47324 L1588.35937,5015.44851 C1588.88147,5015.34961 1589.27754,5015.30015 1589.52959,5015.30015 L1589.74563,5015.30015 L1589.74563,5015.0941 C1589.74563,5014.99519 1589.78163,5014.73144 1589.97067,5014.06382 C1590.11469,5013.53632 1590.29473,5013.09125 1590.49276,5012.74507 C1590.6908,5012.40714 1590.91584,5012.10218 1591.17689,5011.83843 C1591.48295,5011.51699 1591.68999,5011.37687 1591.79801,5011.31093 C1591.93303,5011.23675 1592.00504,5011.20378 1592.05005,5011.19554 L1592.05005,5011.23675 C1592.05005,5011.32742 1592.03205,5011.46753 1591.98704,5011.6571 C1591.94203,5011.86316 1591.84301,5012.25054 1591.68999,5012.78628 C1591.50995,5013.39621 1591.39293,5013.83304 1591.32992,5014.11328 C1591.25791,5014.40175 1591.2219,5014.64078 1591.2219,5014.81386 C1591.2219,5014.98695 1591.27591,5015.14355 1591.38393,5015.26718 C1591.64498,5015.57215 1592.09506,5015.53918 1592.71618,5015.21773 C1593.03123,5015.05289 1593.50832,5014.75617 1594.14744,5014.32757 L1594.21045,5014.28636 L1594.26446,5014.07207 L1594.03942,5013.70941 L1593.77837,5013.67644 Z M1597.56925,5013.68008 L1597.50181,5013.72158 C1597.03933,5014.00383 1596.81772,5014.11175 1596.72138,5014.15326 C1596.74065,5014.01213 1596.83699,5013.57216 1597.24166,5012.27714 C1597.444,5011.62133 1597.57889,5011.17305 1597.64633,5010.93231 C1597.71378,5010.68327 1597.74268,5010.46743 1597.74268,5010.3014 C1597.74268,5010.13538 1597.68487,5009.99425 1597.57889,5009.88633 C1597.46327,5009.77011 1597.30911,5009.7037 1597.13568,5009.7037 C1596.8659,5009.7037 1596.51904,5009.81162 1596.07583,5010.02746 C1595.67117,5010.22669 1595.09307,5010.58365 1594.37045,5011.06513 L1594.303,5011.11494 L1594.26446,5011.33078 L1594.48607,5011.67114 L1594.78475,5011.68774 L1594.85219,5011.64623 C1595.32431,5011.35568 1595.56518,5011.24777 1595.6808,5011.20626 C1595.6519,5011.40549 1595.53628,5011.90358 1595.17978,5013.06577 C1595.02562,5013.55556 1594.91964,5013.92912 1594.87146,5014.14496 C1594.82329,5014.36079 1594.79439,5014.56003 1594.79439,5014.73436 C1594.79439,5014.93359 1594.84256,5015.10792 1594.94854,5015.24074 C1595.03526,5015.34866 1595.19905,5015.48148 1595.49774,5015.48148 C1595.6519,5015.48148 1595.82532,5015.44828 1596.02766,5015.38186 C1596.21072,5015.32375 1596.49977,5015.18263 1596.92371,5014.93359 C1597.31874,5014.70115 1597.6656,5014.50192 1597.95465,5014.32759 L1598.02209,5014.28608 L1598.09917,5014.07024 L1597.84866,5013.68838 L1597.56925,5013.68008 Z M1597.21847,5007.77778 C1596.91573,5007.77778 1596.66804,5007.88142 1596.46621,5008.08869 C1596.27356,5008.28733 1596.18182,5008.52915 1596.18182,5008.81415 C1596.18182,5009.05597 1596.24604,5009.26325 1596.38365,5009.42734 C1596.53043,5009.6087 1596.75978,5009.7037 1597.07169,5009.7037 C1597.39278,5009.7037 1597.65882,5009.58279 1597.8423,5009.34961 C1598.00743,5009.1337 1598.09917,5008.88324 1598.09917,5008.61551 C1598.09917,5008.38233 1598.02578,5008.18369 1597.86065,5008.0196 C1597.70469,5007.85551 1597.48452,5007.77778 1597.21847,5007.77778 Z M1601.67762,5013.68258 C1601.5382,5014.18695 1601.47313,5014.53159 1601.47313,5014.74175 C1601.47313,5014.91827 1601.5289,5015.07799 1601.63114,5015.21249 C1601.85422,5015.51511 1602.25389,5015.53192 1602.81157,5015.27974 C1603.05323,5015.16205 1603.55514,5014.85103 1604.28012,5014.34666 L1604.34518,5014.30463 L1604.40095,5014.08607 L1604.17788,5013.71621 L1603.89904,5013.69099 L1603.83398,5013.73302 C1603.51796,5013.94317 1603.34136,5014.04404 1603.23912,5014.09448 C1603.24841,5014.03564 1603.24841,5013.96839 1603.267,5013.89273 C1603.29489,5013.69939 1603.38783,5013.18662 1603.68526,5011.84165 C1604.01987,5010.33696 1604.24294,5009.35345 1604.35448,5008.8743 L1604.80992,5007.09222 L1604.46601,5006.81481 L1604.33589,5006.85685 C1603.60161,5007.09222 1602.80227,5007.25193 1601.97505,5007.3528 L1601.90069,5007.36121 L1601.72409,5007.50411 L1601.66832,5007.8992 L1601.84492,5008.08413 L1601.94716,5008.08413 C1602.226,5008.08413 1602.43048,5008.09254 1602.55132,5008.09254 C1602.63497,5008.09254 1602.66285,5008.10935 1602.66285,5008.10935 C1602.66285,5008.10935 1602.67215,5008.12616 1602.67215,5008.16819 C1602.67215,5008.28588 1602.64426,5008.51284 1602.58849,5008.84068 L1602.43978,5009.74854 C1601.87281,5009.63926 1601.46384,5009.66448 1601.07346,5009.79897 C1600.8411,5009.87463 1600.52508,5010.03434 1600.08823,5010.29493 C1599.66997,5010.53871 1599.39113,5010.72364 1599.25171,5010.84133 C1599.103,5010.96742 1598.94499,5011.18598 1598.75909,5011.53062 C1598.5825,5011.85846 1598.43378,5012.26195 1598.29436,5012.76632 C1598.16424,5013.26228 1598.09917,5013.74983 1598.09917,5014.19535 C1598.09917,5014.55681 1598.17353,5014.85943 1598.33154,5015.0948 C1598.50814,5015.34698 1598.75909,5015.48148 1599.07511,5015.48148 C1599.53055,5015.48148 1600.07894,5015.20408 1600.74815,5014.63247 C1601.08276,5014.33825 1601.38948,5014.02723 1601.67762,5013.68258 Z M1600.03205,5014.51852 C1600.02429,5014.49087 1600.01653,5014.43558 1600.01653,5014.325 C1600.01653,5013.95641 1600.0631,5013.51409 1600.14849,5013.00727 C1600.24164,5012.49123 1600.35808,5012.00284 1600.50557,5011.54209 C1600.69187,5010.96155 1600.80055,5010.81411 1600.84712,5010.77725 C1600.90922,5010.72196 1601.03343,5010.66667 1601.29735,5010.66667 C1601.53023,5010.66667 1601.73982,5010.70353 1601.93388,5010.78646 L1601.87955,5011.12741 C1601.81745,5011.4868 1601.70877,5011.88304 1601.54576,5012.30693 C1601.38274,5012.74003 1601.18091,5013.1547 1600.93251,5013.53252 C1600.68411,5013.91955 1600.48228,5014.18678 1600.32703,5014.325 C1600.16402,5014.46323 1600.07863,5014.5093 1600.03205,5014.51852 Z M1605.59836,5015.20004 C1605.89403,5015.39043 1606.29721,5015.48148 1606.80791,5015.48148 C1607.32757,5015.48148 1607.80243,5015.38215 1608.20561,5015.19176 C1608.59983,5015.00966 1608.97613,5014.78616 1609.33452,5014.52956 C1609.71082,5014.25639 1610.01545,5013.82596 1610.23944,5013.2548 C1610.45447,5012.7002 1610.56198,5012.1456 1610.56198,5011.60756 C1610.56198,5010.97846 1610.36487,5010.49836 1609.98857,5010.18381 C1609.61227,5009.86926 1609.11949,5009.7037 1608.52815,5009.7037 C1607.97266,5009.7037 1607.42612,5009.82787 1606.90646,5010.08447 C1606.38681,5010.3328 1605.96571,5010.6308 1605.66108,5010.98673 C1605.34749,5011.34267 1605.1235,5011.78139 1604.99807,5012.31115 C1604.87263,5012.82437 1604.80992,5013.23825 1604.80992,5013.58591 C1604.80992,5013.89218 1604.86367,5014.19017 1604.98015,5014.47161 C1605.09662,5014.76133 1605.3027,5015.00966 1605.59836,5015.20004 Z M1608.64463,5011.66589 C1608.64463,5012.00434 1608.60518,5012.39114 1608.52627,5012.81017 C1608.44737,5013.2292 1608.34479,5013.5757 1608.21855,5013.85774 C1608.10019,5014.11561 1607.98184,5014.29289 1607.8477,5014.38959 C1607.72146,5014.47823 1607.58732,5014.51852 1607.42951,5014.51852 C1607.20069,5014.51852 1607.02711,5014.45405 1606.91664,5014.309 C1606.7904,5014.1559 1606.72727,5013.88997 1606.72727,5013.52735 C1606.72727,5013.08415 1606.79829,5012.56842 1606.9482,5011.99628 C1607.12179,5011.31133 1607.29538,5011.02123 1607.41373,5010.90841 C1607.57943,5010.73919 1607.75302,5010.66667 1607.95817,5010.66667 C1608.14754,5010.66667 1608.30534,5010.73919 1608.44737,5010.87618 C1608.58151,5011.00511 1608.64463,5011.27909 1608.64463,5011.66589 Z M1611.12803,5011.71655 L1611.27787,5011.61061 L1611.59419,5010.99128 C1611.71906,5010.98313 1611.78565,5010.97498 1611.81062,5010.97498 L1612.29343,5010.98313 C1612.48489,5010.98313 1612.63473,5010.98313 1612.74294,5010.97498 C1612.36002,5011.37429 1612.08532,5011.69211 1611.91884,5011.92843 C1611.69408,5012.2544 1611.54425,5012.57222 1611.45268,5012.87374 C1611.36944,5013.17526 1611.31949,5013.47678 1611.31949,5013.77015 C1611.31949,5014.31615 1611.461,5014.74805 1611.7357,5015.03328 C1612.01873,5015.32665 1612.385,5015.48148 1612.81786,5015.48148 C1613.32564,5015.48148 1613.85007,5015.2696 1614.36617,5014.84584 C1614.87395,5014.43838 1615.33179,5013.86794 1615.72303,5013.14266 C1616.11427,5012.40924 1616.31405,5011.71655 1616.31405,5011.08092 C1616.31405,5009.98078 1615.68973,5009.81779 1615.31514,5009.81779 C1615.22357,5009.81779 1615.12368,5009.83409 1615.01546,5009.86669 L1614.94055,5009.89114 L1614.89892,5009.96448 C1614.87395,5010.00522 1614.80736,5010.09486 1614.64087,5010.27415 C1614.49936,5010.42083 1614.38282,5010.52677 1614.29125,5010.59197 L1614.23298,5010.63271 L1614.18304,5010.83644 L1614.31623,5011.11351 L1614.56595,5011.18686 L1614.64087,5011.13796 C1614.70747,5011.09722 1614.77406,5011.07277 1614.83233,5011.07277 C1614.93222,5011.07277 1615.09871,5011.07277 1615.09871,5011.49653 C1615.09871,5011.85509 1615.00714,5012.3033 1614.83233,5012.8167 C1614.6492,5013.32195 1614.43277,5013.72941 1614.16639,5014.00648 C1613.92499,5014.26725 1613.68358,5014.39764 1613.42553,5014.39764 C1613.27569,5014.39764 1613.15915,5014.34059 1613.06759,5014.22651 C1612.9677,5014.09612 1612.90943,5013.85979 1612.90943,5013.55012 C1612.90943,5013.18341 1612.9677,5012.7841 1613.09256,5012.37664 C1613.21742,5011.96103 1613.39223,5011.55357 1613.62531,5011.17871 C1613.85839,5010.7957 1614.05817,5010.51047 1614.23298,5010.32304 L1614.3412,5010.2008 L1613.97493,5009.7037 L1613.80845,5009.82594 C1613.74185,5009.87484 1613.59202,5009.93188 1613.25072,5009.93188 C1613.05094,5009.93188 1612.73462,5009.91558 1612.31008,5009.88299 C1612.12695,5009.86669 1611.96046,5009.85854 1611.81895,5009.85854 C1611.71073,5009.85854 1611.51095,5009.88299 1611.1863,5009.94003 L1611.06144,5009.95633 L1610.56198,5011.52912 L1610.72847,5011.73285 L1611.12803,5011.73285 L1611.12803,5011.71655 Z M1654.19327,5023.30883 L1653.83336,5023.54355 C1653.73438,5023.61061 1653.6534,5023.66929 1653.58142,5023.7112 C1653.57242,5023.71958 1653.55442,5023.72797 1653.54543,5023.72797 C1653.55442,5023.4681 1653.6714,5022.90646 1653.89634,5022.05142 C1654.13029,5021.17962 1654.36423,5020.38327 1654.59817,5019.67912 L1654.63416,5019.56176 L1654.35523,5019.28513 L1654.22926,5019.31866 C1653.80636,5019.43602 1653.40146,5019.50308 1653.03255,5019.52823 L1652.8436,5019.53661 L1652.8256,5019.71265 C1652.8076,5019.96413 1652.75362,5020.224 1652.68163,5020.51739 C1652.53767,5021.03712 1652.35771,5021.50655 1652.15076,5021.89215 C1651.95281,5022.26937 1651.72787,5022.61307 1651.48492,5022.90646 C1651.09802,5023.36751 1650.90006,5023.53516 1650.80109,5023.59384 C1650.67512,5023.66929 1650.60314,5023.69443 1650.56715,5023.7112 L1650.56715,5023.69443 C1650.56715,5023.63576 1650.57614,5023.49325 1650.63913,5023.21662 L1651.11601,5021.4311 C1651.24198,5020.98682 1651.32296,5020.6599 1651.37695,5020.44195 C1651.42194,5020.21561 1651.44893,5020.03958 1651.44893,5019.89707 C1651.44893,5019.50308 1651.22399,5019.26837 1650.85508,5019.26837 C1650.60314,5019.26837 1650.28821,5019.36896 1649.89231,5019.57853 C1649.56839,5019.75456 1649.16348,5020.00605 1648.6686,5020.33297 L1648.6776,5020.27429 C1648.70459,5020.11502 1648.74958,5019.94737 1648.80357,5019.77971 L1648.83056,5019.6875 L1648.63261,5019.41926 L1648.49764,5019.43602 C1648.37168,5019.45279 1648.11074,5019.47793 1647.56187,5019.47793 L1647.24695,5019.47793 C1647.4359,5018.70673 1647.58886,5018.16185 1647.70584,5017.84331 L1647.74183,5017.72595 L1647.4269,5017.40741 L1647.29194,5017.44932 C1647.23795,5017.46609 1647.11198,5017.508 1646.89603,5017.57506 C1646.42814,5017.73433 1646.10422,5017.82654 1645.88827,5017.86846 L1645.71732,5017.90199 L1645.71732,5018.06964 C1645.71732,5018.32112 1645.68132,5018.63966 1645.60034,5019.02527 C1645.57335,5019.18454 1645.54636,5019.31866 1645.53736,5019.41926 C1645.06947,5019.56176 1644.69156,5019.67074 1644.40363,5019.72942 L1644.34065,5019.74618 L1644.17869,5019.89707 L1644.1157,5020.224 L1644.26867,5020.43356 L1645.32141,5020.43356 C1645.26742,5020.68504 1645.15945,5021.19639 1644.90751,5022.25261 C1644.72755,5023.02382 1644.61958,5023.47648 1644.58359,5023.66929 C1644.5386,5023.87885 1644.5206,5024.05489 1644.5206,5024.1974 C1644.5206,5024.44888 1644.59259,5024.65845 1644.73655,5024.8261 C1644.84453,5024.95184 1645.05148,5025.09435 1645.40239,5025.09435 C1645.60934,5025.09435 1645.86128,5025.02728 1646.15821,5024.88478 C1646.44614,5024.75904 1647.022,5024.39858 1647.92178,5023.78664 L1647.99377,5023.73635 L1648.02976,5023.52678 L1647.83181,5023.14956 L1647.55287,5023.13279 L1647.48989,5023.17471 C1647.12098,5023.41781 1646.90503,5023.55193 1646.77906,5023.61899 C1646.6261,5023.7112 1646.53612,5023.75311 1646.49113,5023.76988 C1646.39215,5023.80341 1646.32017,5023.80341 1646.31117,5023.78664 C1646.31117,5023.78664 1646.29318,5023.7615 1646.29318,5023.71958 C1646.29318,5023.67767 1646.30217,5023.62737 1646.31117,5023.56869 C1646.32017,5023.50163 1646.34716,5023.35913 1646.39215,5023.14118 L1646.80605,5021.2886 C1646.87804,5020.97844 1646.94102,5020.68504 1647.00401,5020.43356 L1647.4359,5020.43356 C1647.75982,5020.43356 1648.06575,5020.45033 1648.34468,5020.46709 L1648.42566,5020.47548 L1648.39867,5020.66828 L1648.56063,5021.02873 L1648.83956,5021.07065 L1648.91154,5021.02873 C1649.25346,5020.82755 1649.45141,5020.71857 1649.5054,5020.69343 C1649.5144,5020.69343 1649.5234,5020.68504 1649.5324,5020.68504 L1649.5324,5020.69343 C1649.5324,5020.89461 1649.45141,5021.4311 1649.04651,5022.82263 C1648.91154,5023.28368 1648.82157,5023.61899 1648.78558,5023.79503 C1648.74958,5023.97106 1648.73159,5024.13033 1648.73159,5024.27284 C1648.73159,5024.5327 1648.80357,5024.73389 1648.94754,5024.88478 C1649.0915,5025.03567 1649.28945,5025.11111 1649.5054,5025.11111 C1649.9463,5025.11111 1650.49516,5024.81772 1651.17,5024.22254 C1651.45793,5023.96268 1651.72787,5023.69443 1651.97081,5023.40942 C1651.84484,5023.91238 1651.78185,5024.23931 1651.78185,5024.42373 C1651.78185,5024.61653 1651.82684,5024.75904 1651.92582,5024.8764 C1652.14177,5025.14464 1652.54667,5025.12788 1653.02355,5024.90993 C1653.2485,5024.80095 1653.76137,5024.46564 1654.54419,5023.92077 L1654.60717,5023.87885 L1654.66116,5023.6609 L1654.43621,5023.28368 L1654.19327,5023.28368 L1654.19327,5023.30883 Z M1660.46656,5023.32062 L1660.40122,5023.36265 C1660.08389,5023.5728 1659.90655,5023.67367 1659.80388,5023.72411 C1659.80388,5023.67367 1659.81322,5023.59802 1659.82255,5023.52236 C1659.85055,5023.32902 1659.95322,5022.81625 1660.24255,5021.47128 C1660.57856,5019.96659 1660.80256,5018.98308 1660.91456,5018.50393 L1661.3719,5016.72185 L1661.02656,5016.44444 L1660.90523,5016.48647 C1660.16789,5016.72185 1659.36521,5016.88997 1658.53453,5016.98243 L1658.4692,5016.99084 L1658.29187,5017.13374 L1658.23586,5017.52883 L1658.4132,5017.71376 L1658.51587,5017.71376 C1658.79587,5017.71376 1659.00121,5017.72217 1659.12254,5017.72217 C1659.20654,5017.72217 1659.23454,5017.73898 1659.24388,5017.73898 C1659.24388,5017.74739 1659.25321,5017.7642 1659.25321,5017.79782 C1659.25321,5017.92391 1659.22521,5018.14247 1659.16921,5018.47031 L1659.01987,5019.37817 C1658.4412,5019.26889 1658.03986,5019.30251 1657.64786,5019.4286 C1657.41452,5019.50426 1657.08785,5019.66397 1656.65851,5019.92456 C1656.23851,5020.16834 1655.95851,5020.35327 1655.8185,5020.47096 C1655.66917,5020.59705 1655.5105,5020.82401 1655.32383,5021.16025 C1655.1465,5021.48809 1654.98783,5021.89158 1654.85716,5022.39595 C1654.72649,5022.90031 1654.66116,5023.37946 1654.66116,5023.82498 C1654.66116,5024.18644 1654.73582,5024.48906 1654.89449,5024.72443 C1655.07183,5024.97661 1655.32383,5025.11111 1655.64117,5025.11111 C1656.09851,5025.11111 1656.64918,5024.83371 1657.32119,5024.25369 C1657.64786,5023.97629 1657.95586,5023.66527 1658.2452,5023.31221 C1658.1052,5023.81658 1658.03986,5024.16122 1658.03986,5024.37138 C1658.03986,5024.5479 1658.09586,5024.70762 1658.19853,5024.84212 C1658.42253,5025.14474 1658.82387,5025.16155 1659.38388,5024.90937 C1659.62655,5024.79168 1660.13055,5024.48066 1660.85856,5023.97629 L1660.9239,5023.93426 L1660.9799,5023.7157 L1660.75589,5023.33743 L1660.46656,5023.32062 Z M1655.63536,5024.14815 C1655.6276,5024.1205 1655.61983,5024.06521 1655.61983,5023.95463 C1655.61983,5023.58604 1655.66641,5023.14372 1655.7518,5022.6369 C1655.84495,5022.12086 1655.96139,5021.62325 1656.10888,5021.17172 C1656.29518,5020.57274 1656.41162,5020.43452 1656.45043,5020.40688 C1656.51253,5020.35159 1656.63673,5020.2963 1656.90066,5020.2963 C1657.13354,5020.2963 1657.35089,5020.33316 1657.53719,5020.41609 L1657.47509,5020.75704 C1657.41299,5021.11643 1657.30431,5021.51267 1657.1413,5021.93656 C1656.97828,5022.36966 1656.7687,5022.78433 1656.52806,5023.16215 C1656.27965,5023.54918 1656.07783,5023.81641 1655.92258,5023.95463 C1655.76732,5024.10207 1655.68194,5024.13893 1655.63536,5024.14815 Z M1663.72765,5023.30971 L1663.6602,5023.35121 C1663.19772,5023.63346 1662.97612,5023.74138 1662.87977,5023.78289 C1662.89904,5023.64176 1662.99539,5023.20179 1663.40006,5021.90677 C1663.59276,5021.29246 1663.73728,5020.81098 1663.80473,5020.56194 C1663.87217,5020.3129 1663.90108,5020.09706 1663.90108,5019.93103 C1663.90108,5019.76501 1663.84327,5019.62388 1663.73728,5019.51596 C1663.58312,5019.36654 1663.40969,5019.33333 1663.29407,5019.33333 C1663.0243,5019.33333 1662.67744,5019.44125 1662.23423,5019.65709 C1661.81993,5019.86462 1661.25146,5020.21328 1660.52884,5020.69476 L1660.45176,5020.74457 L1660.41322,5020.96041 L1660.63483,5021.30077 L1660.93351,5021.31737 L1661.00096,5021.27586 C1661.47307,5020.98531 1661.71394,5020.87739 1661.82956,5020.83589 C1661.80066,5021.03512 1661.68504,5021.53321 1661.32854,5022.6954 C1661.17438,5023.20179 1661.0684,5023.55875 1661.02023,5023.77458 C1660.97205,5023.99042 1660.94315,5024.18966 1660.94315,5024.36398 C1660.94315,5024.56322 1661.00096,5024.73755 1661.0973,5024.87037 C1661.18402,5024.97829 1661.34781,5025.11111 1661.6465,5025.11111 C1661.80066,5025.11111 1661.97409,5025.07791 1662.17642,5025.01149 C1662.35948,5024.95338 1662.64853,5024.81226 1663.07247,5024.56322 C1663.4675,5024.33078 1663.81436,5024.13155 1664.10341,5023.95722 L1664.17085,5023.91571 L1664.24793,5023.69987 L1663.99743,5023.31801 L1663.72765,5023.30971 Z M1663.36723,5016.44444 C1663.06449,5016.44444 1662.80762,5016.54808 1662.61497,5016.75536 C1662.42232,5016.95399 1662.33058,5017.19581 1662.33058,5017.48082 C1662.33058,5017.72264 1662.3948,5017.92991 1662.53241,5018.094 C1662.67919,5018.27537 1662.90854,5018.37037 1663.22045,5018.37037 C1663.54154,5018.37037 1663.80758,5018.24946 1663.99106,5018.00764 C1664.15619,5017.79173 1664.24793,5017.54127 1664.24793,5017.27354 C1664.24793,5017.04036 1664.16537,5016.84172 1664.00941,5016.67763 C1663.84428,5016.52217 1663.62411,5016.44444 1663.36723,5016.44444 Z M1669.42721,5019.81344 C1669.05152,5019.49889 1668.55953,5019.33333 1667.96914,5019.33333 C1667.41454,5019.33333 1666.85994,5019.4575 1666.34111,5019.7141 C1665.82229,5019.96243 1665.41081,5020.26043 1665.09773,5020.61636 C1664.78465,5020.9723 1664.56996,5021.41102 1664.43578,5021.94078 C1664.31055,5022.454 1664.24793,5022.87615 1664.24793,5023.21554 C1664.24793,5023.52181 1664.30161,5023.8198 1664.41789,5024.10124 C1664.53418,5024.39924 1664.74887,5024.63929 1665.03511,5024.82967 C1665.33031,5025.02006 1665.73284,5025.11111 1666.24272,5025.11111 C1666.76154,5025.11111 1667.23564,5025.01178 1667.63817,5024.82139 C1668.03176,5024.63929 1668.40746,5024.41579 1668.76527,5024.15918 C1669.14991,5023.88602 1669.45405,5023.45559 1669.66874,5022.88443 C1669.88342,5022.32983 1669.99971,5021.77523 1669.99971,5021.23719 C1670.00865,5020.61636 1669.81186,5020.13626 1669.42721,5019.81344 Z M1668.08264,5021.30148 C1668.08264,5021.63922 1668.04319,5022.02521 1667.96429,5022.44336 C1667.88539,5022.86152 1667.78281,5023.2073 1667.65657,5023.48875 C1667.53821,5023.74608 1667.41986,5023.92299 1667.28572,5024.01949 C1667.15947,5024.10794 1667.02534,5024.14815 1666.86753,5024.14815 C1666.63871,5024.14815 1666.46512,5024.07578 1666.35466,5023.93907 C1666.22841,5023.78628 1666.16529,5023.52092 1666.16529,5023.15905 C1666.16529,5022.71677 1666.2363,5022.20212 1666.38622,5021.63118 C1666.52825,5021.08436 1666.68605,5020.71445 1666.85175,5020.53754 C1667.00956,5020.37671 1667.19103,5020.2963 1667.39618,5020.2963 C1667.58555,5020.2963 1667.75125,5020.36063 1667.88539,5020.50537 C1668.01163,5020.63404 1668.08264,5020.91549 1668.08264,5021.30148 Z" id="Combined-Shape"></path>
        </g>
    </g>
</svg>