<svg xmlns="http://www.w3.org/2000/svg" width="52" height="52" viewBox="0 0 52 52"><path fill="#3d8eb9" d="M44.96 16.75V.93c0-.52-.39-.93-.86-.93H7.88c-.47 0-.86.41-.86.93v15.82L.39 21.49a.92.92 0 0 0-.39.77v28.69c0 .51.39.92.86.92h50.26c.48 0 .86-.41.86-.92V22.26a.94.94 0 0 0-.38-.77zM7.02 24.73l-2.7-1.54h2.7zm14.5 10.37L1.72 49.22V23.8zm26.74 14.92H3.72l22.27-15.89zm2-26.22v25.42L30.46 35.1zm-5.3-.61h2.7l-2.7 1.54zm3.3-1.86h-3.3v-2.35zm-5.02 4.38l-14.41 8.23-2.36-1.69a.84.84 0 0 0-.96 0l-2.36 1.69-14.41-8.23V1.85h34.5zM7.02 21.33h-3.3l3.3-2.35z"/><path fill="#3d8eb9" d="M32.58 24.89c.47 0 .86-.42.86-.93s-.39-.93-.86-.93h-6.86c-3.31 0-6-2.89-6-6.45v-.27c0-3.56 2.69-6.46 6-6.46s6 2.9 6 6.46v.68c0 .77-.58 1.4-1.3 1.4-.72 0-1.3-.63-1.3-1.4v-1.3c0-2.2-1.67-4-3.72-4-2.05 0-3.72 1.8-3.72 4 0 2.21 1.67 4 3.72 4 .94 0 1.8-.37 2.45-.99a3 3 0 0 0 2.57 1.54c1.67 0 3.02-1.46 3.02-3.25v-.68c0-4.58-3.46-8.31-7.72-8.31S18 11.73 18 16.31v.27c0 4.58 3.46 8.31 7.72 8.31zm-7.18-7.05c-1.1 0-1.99-.96-1.99-2.15 0-1.18.89-2.15 1.99-2.15s2 .97 2 2.15c0 1.19-.9 2.15-2 2.15z"/></svg>