<?xml version="1.0" encoding="UTF-8"?>
<svg width="36px" height="36px" viewBox="0 0 36 36" version="1.1" xmlns="http://www.w3.org/2000/svg" xmlns:xlink="http://www.w3.org/1999/xlink">
    <!-- Generator: Sketch 41.2 (35397) - http://www.bohemiancoding.com/sketch -->
    <title>Group 19</title>
    <desc>Created with Sketch.</desc>
    <defs></defs>
    <g id="Page-1" stroke="none" stroke-width="1" fill="none" fill-rule="evenodd">
        <g id="Artboard-2" transform="translate(-1012.000000, -1148.000000)" fill="#fff">
            <g id="Group-19" transform="translate(1012.000000, 1148.000000)">
                <path d="M15.2227055,26.1428571 C14.0712944,23.7655057 14.6844625,22.4032584 15.5694083,21.1198254 C16.5385112,19.7142817 16.7882617,18.3229773 16.7882617,18.3229773 C16.7882617,18.3229773 17.5500814,19.3056814 17.2453276,20.8426574 C18.5911941,19.3560493 18.845188,16.987505 18.641954,16.0804009 C21.6841151,18.1899379 22.984275,22.7576657 21.2321024,26.1428571 C30.5514214,20.9107682 23.550214,13.0819526 22.3313283,12.2000806 C22.7376343,13.0819204 22.8146974,14.5747963 21.9939222,15.2992968 C20.6045195,10.0714185 17.1691715,9 17.1691715,9 C17.5754776,11.6960481 15.6963891,14.6441607 13.8843865,16.8470406 C13.8207342,15.7719899 13.7530975,15.0301645 13.1833685,14.0013996 C13.0554807,15.9543365 11.5513742,17.5462768 11.1440639,19.5030066 C10.5923455,22.1528654 11.5573345,24.0930737 15.2227055,26.1428571 Z" id="Shape"></path>
                <path d="M34.7625862,18.5747032 C34.4541185,18.1620958 34.4465949,17.5947605 34.7550626,17.1747851 L35.3945688,16.2832583 C35.8986501,15.5832992 36.0792166,14.6991404 35.8760793,13.8591895 C35.672942,13.0192386 35.1161955,12.3045436 34.3412644,11.8993041 L33.3631961,11.3835448 C32.8967328,11.1404011 32.6484539,10.6393778 32.7312135,10.1309865 L32.9193036,9.05525993 C33.062252,8.20794106 32.8290203,7.33851822 32.2797974,6.66803111 C31.7230508,5.997544 30.9029781,5.59230454 30.0302402,5.55546459 L28.9092235,5.51862464 C28.3825713,5.49652067 27.9311552,5.15022513 27.7882067,4.65656979 L27.479739,3.61031519 C27.1035589,2.33565289 25.8922589,1.44412607 24.5304869,1.44412607 C24.1166888,1.44412607 23.7028906,1.52517397 23.3191869,1.68726975 L22.295977,2.11461318 C21.82199,2.31354892 21.2426726,2.18829308 20.9041105,1.81252558 L20.1592739,1.00204666 C19.5799565,0.368399509 18.7448366,0 17.8796224,0 C16.9918373,0 16.1491938,0.375767499 15.5623528,1.03151862 L14.840087,1.86410151 C14.5015249,2.247237 13.9297311,2.37986083 13.4482205,2.18829308 L12.417487,1.77568563 C12.0413069,1.62832583 11.6500796,1.54727794 11.2513286,1.54727794 C9.8745094,1.54727794 8.65568582,2.45354073 8.2945529,3.75767499 L8.00113241,4.80392959 C7.86570756,5.29758494 7.41429142,5.65124847 6.89516285,5.68072043 L5.7891933,5.74703234 C4.90893182,5.79860827 4.09638276,6.21121572 3.55468339,6.88907081 C3.01298401,7.56692591 2.79479954,8.43634875 2.95279519,9.28366762 L3.15593246,10.3520262 C3.25373929,10.8604175 3.00546041,11.3688088 2.54652066,11.6193205 L1.57597595,12.1498158 C0.808568509,12.5697912 0.259345534,13.2918543 0.0712554738,14.1318052 C-0.116834586,14.971756 0.0712554738,15.8559149 0.59038404,16.5485059 L1.24493745,17.4252968 C1.55340515,17.8379042 1.56092875,18.4052395 1.25246105,18.8252149 L0.612954847,19.7167417 C0.108873486,20.4167008 -0.0716929719,21.3008596 0.131444293,22.1408105 C0.334581558,22.9807614 0.891328136,23.6880884 1.66625918,24.1006959 L2.6443275,24.6164552 C3.11079084,24.8595989 3.35906972,25.3606222 3.2763101,25.8690135 L3.08822004,26.9447401 C2.94527159,27.7920589 3.17850327,28.6614818 3.72772624,29.3319689 C4.28447282,30.002456 5.10454548,30.4076955 5.97728336,30.4445354 L7.09077652,30.4887433 C7.61742868,30.5108473 8.06884483,30.8571429 8.21179327,31.3507982 L8.52026097,32.3970528 C8.89644109,33.6717151 10.1077411,34.5632419 11.4695131,34.5632419 L11.4695131,34.5632419 C11.8833112,34.5632419 12.2971094,34.482194 12.6808131,34.3200982 L13.704023,33.8927548 C14.17801,33.6938191 14.7573274,33.8190749 15.0958895,34.1948424 L15.8407261,35.0053213 C16.4200435,35.6389685 17.2551634,36 18.1203776,36 C19.0081627,36 19.8508062,35.6242325 20.4376472,34.9684814 L21.159913,34.1358985 C21.4984751,33.752763 22.0702689,33.6201392 22.5517795,33.8117069 L23.582513,34.2243144 C23.9586931,34.3716742 24.3499204,34.4527221 24.7486714,34.4527221 C26.1254906,34.4527221 27.3443142,33.5464593 27.7054471,32.242325 L27.9988676,31.1960704 C28.1342924,30.7024151 28.5857086,30.3487515 29.1048371,30.3192796 L30.2108067,30.2603357 C31.0910682,30.2087597 31.9036172,29.7961523 32.4453166,29.1182972 C32.987016,28.4404421 33.2052005,27.5710192 33.0472048,26.7237004 L32.8440675,25.6553418 C32.7462607,25.1469505 32.9945396,24.6385591 33.4534793,24.3954155 L34.424024,23.8649202 C35.1914315,23.4449447 35.7406545,22.7228817 35.9287445,21.8829308 C36.1168346,21.0429799 35.9287445,20.1588211 35.409616,19.46623 L34.7625862,18.5747032 Z M34.1381272,21.4850594 C34.0628911,21.8239869 33.8447067,22.1039705 33.536239,22.2734343 L32.5656943,22.8039296 C31.4145831,23.4302088 30.7976477,24.7048711 31.038403,25.9721654 L31.2415402,27.0405239 C31.3092527,27.3794515 31.2189694,27.725747 31.000785,27.9983627 C30.7826005,28.2709783 30.4666092,28.4330741 30.1129999,28.4551781 L29.0070303,28.514122 C27.6903999,28.5878019 26.5769067,29.4719607 26.2232974,30.717151 L25.9298769,31.7634056 C25.7869285,32.286533 25.2978943,32.6475645 24.7486714,32.6475645 C24.5906757,32.6475645 24.4326801,32.6180925 24.282208,32.5591486 L23.2514745,32.1465411 C22.8752944,31.9991813 22.484067,31.9181334 22.0853161,31.9181334 C21.197531,31.9181334 20.3548876,32.2939009 19.7680466,32.9496521 L19.0382571,33.767499 C18.8050255,34.0327466 18.473987,34.1801064 18.112854,34.1801064 C17.7592447,34.1801064 17.4357298,34.0401146 17.2024981,33.782235 L16.4576615,32.971756 C15.8783441,32.3381089 15.0432243,31.9697094 14.1704864,31.9697094 C13.7491646,31.9697094 13.3428901,32.0507573 12.9591864,32.212853 L11.9359765,32.6401965 C11.7779808,32.7065084 11.6199852,32.7359804 11.4544659,32.7359804 C10.9127665,32.7359804 10.431256,32.3823168 10.2807839,31.8739255 L9.97231624,30.8276709 C9.60365972,29.5898485 8.47511936,28.7204257 7.15848894,28.6614818 L6.04499578,28.6172738 C5.69138647,28.6025379 5.36787157,28.4478101 5.1496871,28.1751944 C4.92397902,27.9025788 4.83369579,27.5636512 4.89388461,27.2247237 L5.07445107,26.1489971 C5.29263554,24.8743348 4.66065294,23.6144085 3.49449457,23.0028653 L2.51642625,22.487106 C2.20043495,22.3250102 1.98225048,22.0450266 1.90701446,21.7060991 C1.82425483,21.3671715 1.89196726,21.020876 2.09510452,20.7408923 L2.73461072,19.8493655 C3.49449457,18.7957429 3.48697096,17.3884568 2.70451631,16.3422022 L2.04996291,15.4654114 C1.83930204,15.1854278 1.76406601,14.8391322 1.84682564,14.5002047 C1.92206166,14.1612771 2.14024613,13.8812935 2.44871383,13.7118297 L3.41925854,13.1813344 C4.57036971,12.5550553 5.18730511,11.280393 4.94654983,10.0130986 L4.75845977,8.95947605 C4.69074735,8.61318052 4.78103058,8.27425297 4.99921505,8.00163733 C5.21739952,7.72902169 5.53339082,7.56692591 5.88700013,7.54482194 L6.99296968,7.47851003 C8.30960011,7.40483013 9.42309326,6.52067131 9.77670257,5.27548097 L10.0701231,4.22922636 C10.2130715,3.70609906 10.7021057,3.34506754 11.2513286,3.34506754 C11.4093243,3.34506754 11.5673199,3.3745395 11.717792,3.43348342 L12.7485255,3.84609087 C13.1247056,3.99345068 13.515933,4.07449857 13.9146839,4.07449857 C14.802469,4.07449857 15.6451124,3.69873107 16.2319534,3.04297994 L16.9617429,2.22513303 C17.1949745,1.95988539 17.526013,1.81252558 17.887146,1.81252558 C18.2407553,1.81252558 18.5642702,1.9525174 18.7975019,2.21039705 L19.5423385,3.02087597 C20.1216559,3.65452313 20.9567757,4.02292264 21.8295136,4.02292264 C22.2508354,4.02292264 22.6571099,3.94187474 23.0408136,3.77977896 L24.0640235,3.35243553 C24.2220192,3.28612362 24.3800148,3.25665166 24.5455341,3.25665166 C25.0872335,3.25665166 25.568744,3.61031519 25.7192161,4.11870651 L26.0276838,5.16496111 C26.3963403,6.40278346 27.5248806,7.2722063 28.8415111,7.33115023 L29.9550042,7.37535817 C30.3086135,7.39009415 30.6321284,7.54482194 30.8503129,7.81743758 C31.076021,8.09005321 31.1663042,8.42898076 31.1061154,8.76790831 L30.9255489,9.84363488 C30.7073645,11.1182972 31.3393471,12.3782235 32.5055054,12.9897667 L33.4835737,13.505526 C33.799565,13.6676218 34.0177495,13.9476054 34.1005091,14.286533 C34.1832688,14.6254605 34.1155563,14.971756 33.9124191,15.2517397 L33.2729129,16.1432665 C32.513029,17.1968891 32.5205526,18.6041752 33.3030073,19.6504298 L33.9575607,20.5272206 C34.1381272,20.7998363 34.2133632,21.1387638 34.1381272,21.4850594 Z" id="Shape"></path>
            </g>
        </g>
    </g>
</svg>