<svg xmlns="http://www.w3.org/2000/svg" width="47" height="52" viewBox="0 0 47 52"><path fill="#e2e5e7" d="M10.29 0A3.28 3.28 0 0 0 7 3.25v45.5A3.28 3.28 0 0 0 10.29 52h32.85a3.28 3.28 0 0 0 3.29-3.25V13L33.29 0z"/><path fill="#b0b7bd" d="M36.29 13h9.85L33 0v9.75A3.28 3.28 0 0 0 36.29 13z"/><path fill="#cad1d8" d="M45.86 22.75L36 13h9.86z"/><path fill="#84bd5a" d="M39.43 41.88c0 .89-.74 1.62-1.64 1.62H1.64c-.9 0-1.64-.73-1.64-1.62V25.63C0 24.73.74 24 1.64 24h36.15c.9 0 1.64.73 1.64 1.63z"/><path fill="#fff" d="M2 38.19v-7.38c0-.47.34-.81.93-.81.46 0 .8.34.8.81v2.83h4.28v-2.83c0-.47.43-.81.9-.81.46 0 .81.34.81.81v7.38a.8.8 0 0 1-.81.8c-.47 0-.9-.35-.9-.8v-2.85H3.73v2.85c0 .45-.34.8-.8.8-.59 0-.93-.35-.93-.8zM14.16 31.66h-2.3c-1.15 0-1.15-1.66 0-1.66h6.21c1.17 0 1.17 1.66 0 1.66h-2.18v6.56c0 1.13-1.74 1.16-1.74 0v-6.56zM22.73 33.41v4.8c0 .58-.47.9-.94.9-.42 0-.79-.32-.79-.9V30.9c0-.68.58-.9.79-.9.38 0 .6.22.82.47l2.9 3.86 2.99-4c.44-.54 1.5-.33 1.5.57v7.31c0 .58-.37.9-.79.9-.47 0-.84-.32-.84-.9v-4.8l-2.18 2.72c-.47.58-1.06.58-1.5 0zM31 30.79c0-.43.37-.79.83-.79a.8.8 0 0 1 .77.79v6.51h3.58c1.28 0 1.31 1.7 0 1.7h-4.35c-.46 0-.83-.32-.83-.79z"/><path fill="#cad1d8" d="M38.21 43.63H7v1.62h31.21c.91 0 1.65-.73 1.65-1.62V42c0 .89-.74 1.63-1.65 1.63z"/></svg>