<svg xmlns="http://www.w3.org/2000/svg" width="28" height="20" viewBox="0 0 28 20"><path fill="#3d8eb9" d="M6.99 20a.83.83 0 0 0 .03 0c.5 0 .92-.46.92-1.02V3.06l4.58 3.78c.4.34.99.25 1.29-.2.3-.46.24-1.09-.18-1.43l-6.06-5A.83.83 0 0 0 7 .01c-.2-.01-.4.06-.57.2l-6.06 5c-.41.34-.49.97-.18 1.43.31.45.88.54 1.3.2l4.57-3.78v15.92c0 .56.42 1.02.93 1.02z"/><path fill="#3d8eb9" d="M20.99 20a.83.83 0 0 0 .03 0c.5 0 .92-.46.92-1.02V3.06l4.58 3.78c.4.34.99.25 1.29-.2.3-.46.24-1.09-.18-1.43l-6.06-5a.83.83 0 0 0-.57-.2c-.2-.01-.4.06-.57.2l-6.06 5c-.41.34-.49.97-.18 1.43.31.45.88.54 1.3.2l4.57-3.78v15.92c0 .56.42 1.02.93 1.02z"/></svg>