<svg xmlns="http://www.w3.org/2000/svg" width="26" height="26" viewBox="0 0 26 26"><path fill="#3d8eb9" d="M17.59 10.28l-2.54-.18-.96-2.31a1.3 1.3 0 0 0-1.2-.79c-.52 0-.99.31-1.19.79l-.96 2.31-2.55.18a1.3 1.3 0 0 0-1.13.87c-.16.49 0 1.02.4 1.35l1.95 1.61-.61 2.43c-.1.38-.01.77.23 1.07a1.32 1.32 0 0 0 1.7.3l2.16-1.32 2.17 1.32a1.28 1.28 0 0 0 1.93-1.37l-.61-2.43 1.95-1.61c.4-.33.56-.86.39-1.35a1.28 1.28 0 0 0-1.13-.87zm-2.38 3.1a.63.63 0 0 0-.22.65l.68 2.72-2.42-1.48a.68.68 0 0 0-.7 0l-2.44 1.49.69-2.73a.64.64 0 0 0-.21-.65L8.4 11.57l2.85-.2a.69.69 0 0 0 .57-.41l1.07-2.59 1.08 2.6c.1.23.32.38.57.4l2.85.2z"/><path fill="#3d8eb9" d="M25.08 13.4a.86.86 0 0 1-.01-1.01l.47-.64a2.17 2.17 0 0 0-.76-3.16l-.71-.38a.85.85 0 0 1-.46-.9l.14-.78c.1-.61-.07-1.23-.46-1.72-.4-.48-.99-.77-1.62-.8l-.81-.03a.86.86 0 0 1-.81-.62l-.22-.75a2.24 2.24 0 0 0-3.01-1.39l-.73.31a.92.92 0 0 1-1.01-.22l-.54-.59a2.25 2.25 0 0 0-3.31.02l-.52.61a.93.93 0 0 1-1.01.23l-.74-.3a2.4 2.4 0 0 0-.84-.16c-1 0-1.88.65-2.14 1.59l-.21.76a.88.88 0 0 1-.8.63l-.79.05A2.16 2.16 0 0 0 2.13 6.7l.15.77a.85.85 0 0 1-.44.91l-.7.39a2.13 2.13 0 0 0-.71 3.17l.47.63c.22.3.23.71 0 1.01l-.46.65c-.36.5-.49 1.14-.35 1.75.15.6.55 1.11 1.11 1.41l.71.37c.33.18.51.54.45.91l-.13.77c-.11.62.06 1.24.46 1.73.4.48.99.77 1.62.8l.81.03c.38.02.7.27.8.62l.23.76a2.2 2.2 0 0 0 2.12 1.56c.3 0 .6-.06.88-.17l.74-.31a.87.87 0 0 1 1 .22l.54.58a2.23 2.23 0 0 0 3.31-.03l.53-.6a.9.9 0 0 1 1-.23l.74.3c.28.1.56.16.85.16a2.2 2.2 0 0 0 2.13-1.59l.21-.76c.1-.35.42-.61.8-.63l.8-.04a2.24 2.24 0 0 0 1.61-.83c.39-.49.55-1.11.43-1.73l-.14-.77a.84.84 0 0 1 .44-.91l.7-.38a2.15 2.15 0 0 0 .71-3.17zm-.45 2.1a.86.86 0 0 1-.43.57l-.71.39a2.15 2.15 0 0 0-1.1 2.28l.15.77a.86.86 0 0 1-.81 1.02l-.8.05a2.2 2.2 0 0 0-2.01 1.59l-.21.75a.89.89 0 0 1-.85.64.97.97 0 0 1-.34-.06l-.75-.3a2.21 2.21 0 0 0-2.51.58l-.52.59a.9.9 0 0 1-1.33.01l-.54-.59a2.25 2.25 0 0 0-2.52-.54l-.74.3a.84.84 0 0 1-.35.07.87.87 0 0 1-.84-.62l-.23-.75a2.21 2.21 0 0 0-2.03-1.57l-.8-.03a.84.84 0 0 1-.64-.32.81.81 0 0 1-.19-.68l.13-.78c.16-.92-.3-1.83-1.14-2.27l-.7-.37a.82.82 0 0 1-.44-.57.8.8 0 0 1 .13-.69l.46-.65c.55-.76.55-1.77-.02-2.53l-.47-.63a.83.83 0 0 1-.15-.7.9.9 0 0 1 .44-.57l.7-.38a2.15 2.15 0 0 0 1.1-2.28l-.14-.76a.85.85 0 0 1 .18-.7.9.9 0 0 1 .64-.33l.8-.04a2.2 2.2 0 0 0 2-1.59l.22-.76a.87.87 0 0 1 1.18-.57l.75.3a2.24 2.24 0 0 0 2.51-.58l.53-.59c.17-.2.4-.3.66-.3s.49.1.66.29l.54.58a2.23 2.23 0 0 0 2.52.55l.74-.31a.9.9 0 0 1 1.2.55l.22.76a2.2 2.2 0 0 0 2.03 1.56l.8.03c.26.01.49.12.65.32.16.2.23.44.18.69l-.13.77c-.16.92.3 1.83 1.14 2.27l.71.38c.23.11.38.32.44.56.06.24.01.49-.13.7l-.46.64c-.55.76-.55 1.78.02 2.53l.47.63c.13.2.18.44.13.69z"/></svg>