<svg xmlns="http://www.w3.org/2000/svg" width="24" height="24" viewBox="0 0 24 24"><path fill="#dce4e6" d="M12 0a12 12 0 1 0 0 24 12 12 0 0 0 0-24zm2.5 18.6c-.62.24-1.11.43-1.48.55-.37.13-.8.2-1.28.2a2.6 2.6 0 0 1-1.75-.55 1.8 1.8 0 0 1-.62-1.39 5.16 5.16 0 0 1 .2-1.44l.77-2.73a8.53 8.53 0 0 0 .24-1.39c0-.34-.07-.59-.21-.73-.15-.13-.42-.2-.83-.2-.2 0-.4.03-.61.09l-.54.18.2-.84c.51-.21.99-.38 1.46-.53.46-.15.9-.22 1.31-.22.74 0 1.31.18 1.72.54.4.36.6.82.6 1.4a6.88 6.88 0 0 1-.2 1.45l-.77 2.72a8.77 8.77 0 0 0-.24 1.38c0 .36.08.61.24.74.16.13.45.2.84.2.19 0 .4-.03.64-.1.24-.06.41-.12.51-.17zm-.14-11.05c-.36.33-.79.5-1.29.5-.51 0-.94-.17-1.3-.5a1.62 1.62 0 0 1 0-2.43c.36-.34.79-.5 1.3-.5.5 0 .93.16 1.29.5.36.34.54.74.54 1.21 0 .48-.18.88-.54 1.22z"/></svg>