<?xml version="1.0" encoding="UTF-8"?>
<svg width="28px" height="28px" viewBox="0 0 28 28" version="1.1" xmlns="http://www.w3.org/2000/svg" xmlns:xlink="http://www.w3.org/1999/xlink">
    <!-- Generator: Sketch 41.2 (35397) - http://www.bohemiancoding.com/sketch -->
    <title>Group 2</title>
    <desc>Created with Sketch.</desc>
    <defs></defs>
    <g id="Page-1" stroke="none" stroke-width="1" fill="none" fill-rule="evenodd">
        <g id="Artboard-2" transform="translate(-843.000000, -4892.000000)" fill="#666666">
            <g id="Group-2" transform="translate(843.000000, 4892.000000)">
                <path d="M27.4518222,15.3695111 L27.2505333,15.0528 C26.9285333,14.5792889 26.6080889,14.1057778 26.1243111,13.79 C25.7220444,13.5131111 25.2388889,13.3164889 24.7977333,13.1186222 C26.0440444,12.5262667 26.8968,11.6977778 27.2996889,10.6319111 C27.5809333,9.76266667 27.0666667,9.05364444 27.0666667,8.34275556 L27.0666667,8.26404444 C27.0666667,7.4732 25.9728,6.9608 24.9676,6.68422222 C24.3624889,6.566 23.6954667,6.566 23.0925333,6.60426667 L21.7712444,6.88115556 L22.2192444,5.89493333 C22.6205778,4.63088889 22.5029778,3.40791111 21.8191556,2.26208889 L21.6990667,2.06608889 C21.0952,1.078 20.2107111,0.486266667 19.0032889,0.1708 C17.7569778,-0.1456 16.6957778,-0.0273777778 15.5695556,0.564977778 C14.4414667,1.15857778 13.3777778,2.06671111 13.3777778,3.24955556 L13.3777778,3.32826667 L13.2356,3.60515556 L13.0234222,3.32826667 L12.5950222,2.61893333 C11.9510222,1.63146667 11.1343556,1.03911111 10.1279111,0.762222222 C9.24248889,0.565288889 8.51386667,0.644311111 7.74915556,1.03911111 C6.90542222,1.55151111 6.41822222,2.34328889 6.21662222,3.44742222 C6.01502222,4.59231111 6.216,5.69831111 6.81955556,6.80244444 L7.09924444,7.19848889 L6.13417778,6.88115556 C4.92675556,6.60426667 3.80084444,6.76293333 2.67493333,7.35497778 C1.50733333,7.94671111 0.783688889,8.77644444 0.300222222,9.92102222 C-0.142177778,11.0264 -0.101111111,12.0910222 0.461688889,13.0791111 C0.703422222,13.5134222 1.06524444,13.8687111 1.38631111,14.1057778 C1.86977778,14.5789778 2.47333333,14.8555556 3.19728889,14.9737778 L3.47791111,15.0524889 L2.8756,15.5670667 C2.31155556,16.0415111 1.9908,16.6329333 1.78951111,17.2246667 C1.58884444,17.9349333 1.66911111,18.6458222 2.07106667,19.3181333 C2.27266667,19.6332889 2.47333333,19.9073778 2.79533333,20.1071111 C3.11733333,20.3818222 3.51928889,20.58 4.00151111,20.6198222 C4.88693333,20.818 5.81248889,20.818 6.81706667,20.5006667 L6.09217778,21.6856889 L5.89275556,22.1987111 C5.48986667,23.4599556 5.60964444,24.5656444 6.21351111,25.7105333 C6.49537778,26.1467111 6.81706667,26.5408889 7.13906667,26.8958667 C7.6216,27.3301778 8.22391111,27.6067556 8.94942222,27.8049333 C10.1540444,28.1197778 11.3614667,28.0787111 12.5293778,27.4876 C13.6556,26.8958667 14.3783111,25.9469778 14.7413778,24.7641333 L14.7802667,24.5283111 C15.5452889,25.3552444 16.2692444,25.9087111 17.0747111,26.1062667 C17.8786222,26.3424 18.6828444,26.3044444 19.4071111,25.8293778 C20.0909333,25.4339556 20.5734667,24.7635111 20.8142667,23.9337778 C21.0152444,23.0657778 21.0152444,22.1980889 20.8142667,21.2131111 C21.2156,21.4872 21.6191111,21.6850667 22.1010222,21.8023556 C23.3874667,22.1980889 24.5149333,22.1576444 25.6408444,21.5659111 C26.7269333,20.9748 27.4508889,20.0252889 27.8124,18.8023111 C28.1359556,17.6185333 28.0556889,16.4742667 27.4518222,15.3695111 Z M21.6197333,8.77675556 L22.1016444,8.57857778 C22.8271556,8.26404444 23.5094222,8.18408889 24.2349333,8.26404444 C24.9162667,8.34275556 25.4012889,8.65728889 25.6414667,9.13204444 L25.8023111,9.64444444 L25.7220444,10.0401778 C25.4411111,10.7507556 24.8366222,11.3032889 23.8320444,11.7372889 C23.4297778,11.9336 22.988,12.0135556 22.5054667,12.0910222 L17.5575556,12.6849333 L17.4760444,12.4080444 L17.3957778,12.2888889 L17.5575556,12.0907111 L21.6197333,8.77675556 Z M14.7805778,3.80271111 C14.9815556,3.01342222 15.5456,2.42137778 16.2695556,2.02626667 C16.9938222,1.63146667 17.7980444,1.55182222 18.5618222,1.8284 C19.4077333,2.02626667 20.0097333,2.46026667 20.3731111,3.13133333 C20.5740889,3.52644444 20.6935556,4.00026667 20.6935556,4.51328889 L20.5737778,5.38097778 C20.4132444,5.81528889 20.2116444,6.21071111 19.9708444,6.56631111 L16.3507556,10.9081778 C15.9892444,10.6319111 15.5869778,10.4340444 15.1834667,10.2371111 L14.7805778,5.77671111 L14.7416889,4.19688889 L14.7805778,3.80271111 Z M7.90471111,3.92062222 C7.94328889,3.21035556 8.22391111,2.73653333 8.70768889,2.46057778 C8.94942222,2.26271111 9.31124444,2.26271111 9.63231111,2.42137778 C10.3572,2.61924444 10.9610667,3.13164444 11.4420444,4.1188 C11.6436444,4.51391111 11.8443111,4.9084 11.9258222,5.3816 L12.7297333,10.0411111 L12.1274222,10.2380444 L8.54622222,6.40795556 L8.34555556,6.01346667 C8.02355556,5.30226667 7.8232,4.63151111 7.90471111,3.92062222 Z M1.99017778,12.2892 C1.6688,11.6980889 1.6688,11.1063556 1.91053333,10.514 C2.19177778,9.76266667 2.71444444,9.17155556 3.47728889,8.85546667 C4.2028,8.46035556 4.92551111,8.34306667 5.73066667,8.53906667 L6.81675556,8.97337778 L10.3565778,11.4999111 C10.0348889,11.8956444 9.83328889,12.2888889 9.71195556,12.6849333 L3.92,13.3955111 L3.51866667,13.3168 C2.79471111,13.1976444 2.31155556,12.8834222 1.99017778,12.2892 Z M13.3777778,23.9356444 L13.2356,24.3310667 C12.9537333,25.0413333 12.4198667,25.6336889 11.6962222,25.9476 C10.9716444,26.3433333 10.1801778,26.4220444 9.45808889,26.2263556 C8.65137778,26.0281778 8.03631111,25.5546667 7.71431111,24.9224889 C7.51426667,24.5292444 7.34813333,24.0544889 7.34813333,23.5800444 L7.5432,22.6737778 C7.62471111,22.2783556 7.82568889,21.8826222 8.14706667,21.5674667 L11.5241778,17.6182222 C11.9264444,17.8167111 12.4301333,18.0139556 12.8734667,18.0544 C12.9528,19.3956 13.3777778,20.8189333 13.3777778,22.3564444 L13.3777778,23.9356444 Z M11.844,16.0421333 C11.3213333,15.5676889 11.0410222,14.8950667 11.0410222,14.1851111 C11.0410222,13.4742222 11.3213333,12.8828 11.844,12.3293333 C12.3274667,11.8956444 12.9711556,11.6190667 13.7352444,11.6190667 C14.4595111,11.6190667 15.1433333,11.8959556 15.5869778,12.3293333 C16.1479111,12.8828 16.3908889,13.4742222 16.3908889,14.1851111 C16.3908889,14.8950667 16.1479111,15.5670667 15.5869778,16.0421333 C15.0630667,16.5548444 14.4595111,16.8292444 13.7352444,16.8292444 C12.9711556,16.8298667 12.3277778,16.5554667 11.844,16.0421333 Z M19.2873333,22.9488 C19.2067556,23.6612444 18.9653333,24.1739556 18.4812444,24.3718222 C18.2012444,24.5672 17.8789333,24.5672 17.5569333,24.5298667 C16.7928444,24.3313778 16.1892889,23.7402667 15.7475111,22.7910667 L15.2634222,21.4887556 L14.6611111,18.0547111 L15.3433778,17.8164 L15.8676,17.5423111 L17.5572444,19.2372444 L18.6032,20.5012889 L18.8038667,20.8951556 C19.1656889,21.5674667 19.3676,22.1996444 19.2873333,22.9488 Z M26.2052,18.3294222 C26.0039111,19.1208889 25.5213778,19.7123111 24.8366222,20.0268444 C24.1139111,20.4225778 23.3884,20.5016 22.5854222,20.2253333 C22.1016444,20.1080444 21.7802667,19.9076889 21.4993333,19.5937778 L17.2750667,16.1594222 L17.5569333,15.5676889 L17.6785778,15.0929333 L22.2229778,14.6975111 L23.8314222,14.6592444 L24.2349333,14.6975111 C24.8366222,14.8956889 25.4012889,15.2509778 25.7214222,15.8424 C26.1236889,16.2785778 26.3252889,16.8703111 26.3252889,17.5429333 L26.2052,18.3294222 Z" id="ICQ"></path>
            </g>
        </g>
    </g>
</svg>