<svg xmlns="http://www.w3.org/2000/svg" width="47" height="52" viewBox="0 0 47 52"><path fill="#e2e5e7" d="M10.29 0A3.28 3.28 0 0 0 7 3.25v45.5A3.28 3.28 0 0 0 10.29 52h32.85a3.28 3.28 0 0 0 3.29-3.25V13L33.29 0z"/><path fill="#b0b7bd" d="M36.29 13h9.85L33 0v9.75A3.28 3.28 0 0 0 36.29 13z"/><path fill="#cad1d8" d="M45.86 22.75L36 13h9.86z"/><path fill="#50bee8" d="M39.43 41.88c0 .89-.74 1.62-1.64 1.62H1.64c-.9 0-1.64-.73-1.64-1.62V25.63C0 24.73.74 24 1.64 24h36.15c.9 0 1.64.73 1.64 1.63z"/><path fill="#fff" d="M11.58 30.82c0-1.09 1.73-1.09 1.73 0v5.13c0 2.04-.98 3.28-3.26 3.28-1.11 0-2.04-.3-2.86-1.34-.67-.8.59-1.94 1.28-1.11.55.68 1.14.83 1.72.81.73-.03 1.38-.35 1.39-1.64zM15.89 30h3.04a3.11 3.11 0 0 1 3.24 3.3c0 2.05-1.53 3.2-3.24 3.2h-2.2v1.71c0 .57-.36.9-.84.9a.89.89 0 0 1-.89-.9V30.9c0-.43.34-.9.89-.9zm.84 1.64v3.23h2.2a1.61 1.61 0 0 0 0-3.23zM31.95 38.22a5 5 0 0 1-3.23 1.09c-2.76 0-4.72-1.55-4.72-4.65A4.66 4.66 0 0 1 28.83 30c1.04 0 2.18.35 3 1.14.8.78-.36 1.94-1.14 1.25a2.8 2.8 0 0 0-1.86-.82 3.1 3.1 0 0 0-3.12 3.09c0 1.93 1.28 3.1 3.01 3.1.8 0 1.48-.24 1.97-.59v-1.6h-1.97c-1.17 0-1.05-1.58 0-1.58h2.62c.49 0 .94.36.94.76v2.77c0 .24-.11.45-.33.7z"/><path fill="#cad1d8" d="M38.21 43.63H7v1.62h31.21c.91 0 1.65-.73 1.65-1.62V42c0 .89-.74 1.63-1.65 1.63z"/></svg>