<svg xmlns="http://www.w3.org/2000/svg" width="5.32" height="9.07" viewBox="0 0 5.32 9.07"><path fill="#fff" d="M4.98 4.98L1.21 8.85a.62.62 0 0 1-.87 0 .65.65 0 0 1 0-.9l3.34-3.42L.34 1.11a.65.65 0 0 1 0-.9.62.62 0 0 1 .87 0l3.77 3.87c.12.13.18.3.18.45 0 .16-.06.32-.18.45z"/><path fill="none" stroke="#fff" stroke-miterlimit="50" stroke-width=".5" d="M4.98 4.98L1.21 8.85a.62.62 0 0 1-.87 0 .65.65 0 0 1 0-.9l3.34-3.42L.34 1.11a.65.65 0 0 1 0-.9.62.62 0 0 1 .87 0l3.77 3.87c.12.13.18.3.18.45 0 .16-.06.32-.18.45z"/></svg>