<svg xmlns="http://www.w3.org/2000/svg" width="50" height="48" viewBox="0 0 50 48"><path fill="#3d8eb9" d="M47.85 15.08A25.29 25.29 0 0 0 14.7 2.07a24.86 24.86 0 0 0-7.89 5.48 24.2 24.2 0 0 0-5.15 7.99A23.75 23.75 0 0 0 24.2 47.99a23.26 23.26 0 0 0 16.25-7.07 22.25 22.25 0 0 0 6.13-12.66l.19.01a3.22 3.22 0 0 0 3.23-3.2l-.01-.27H50c-.06-3.34-.8-6.67-2.15-9.72zm-2.98 18.21a22.1 22.1 0 0 1-20.67 13.1 21.6 21.6 0 0 1-15.11-6.6A20.9 20.9 0 0 1 3.23 24.8 20.46 20.46 0 0 1 16.4 6.14a20.42 20.42 0 0 1 15.44.37 19.73 19.73 0 0 1 10.43 10.87c.92 2.37 1.35 4.9 1.28 7.42h.01l-.01.27c0 1.65 1.26 3 2.88 3.18a21.99 21.99 0 0 1-1.56 5.04z"/></svg>