<?xml version="1.0" encoding="UTF-8"?>
<svg width="50px" height="48px" viewBox="0 0 50 48" version="1.1" xmlns="http://www.w3.org/2000/svg" xmlns:xlink="http://www.w3.org/1999/xlink">
    <!-- Generator: Sketch 41.2 (35397) - http://www.bohemiancoding.com/sketch -->
    <title>Shape</title>
    <desc>Created with Sketch.</desc>
    <defs></defs>
    <g id="Page-1" stroke="none" stroke-width="1" fill="none" fill-rule="evenodd">
        <g id="About-Us-(certificates)" transform="translate(-935.000000, -1926.000000)" fill="#3D8EB9">
            <path d="M985,1950.79967 C984.935653,1947.45727 984.204513,1944.12542 982.854284,1941.07882 C981.508506,1938.02954 979.555251,1935.26732 977.157274,1932.98479 C974.760749,1930.70054 971.91863,1928.89473 968.842539,1927.70346 C965.768093,1926.50758 962.462287,1925.93633 959.196541,1926.00562 C955.930311,1926.06974 952.678596,1926.77411 949.704977,1928.07287 C946.729132,1929.36741 944.033222,1931.24568 941.806032,1933.55038 C939.577293,1935.85393 937.816596,1938.58457 936.656119,1941.53846 C935.491288,1944.49071 934.93616,1947.66285 935.005829,1950.79967 C935.07066,1953.93697 935.759902,1957.05565 937.028463,1959.9078 C938.292863,1962.76196 940.126713,1965.34787 942.376159,1967.48336 C944.624347,1969.62058 947.288421,1971.30767 950.168277,1972.41822 C953.046875,1973.53309 956.137577,1974.06288 959.196541,1973.99406 C962.256183,1973.92966 965.292698,1973.26656 968.070372,1972.0488 C970.849788,1970.83507 973.367848,1969.07553 975.446701,1966.91777 C977.527392,1964.76126 979.168297,1962.20722 980.247202,1959.44816 C980.904222,1957.77557 981.349912,1956.02908 981.584852,1954.25945 C981.647651,1954.263 981.710837,1954.2655 981.774507,1954.2655 C983.555814,1954.2655 984.999903,1952.83323 984.999903,1951.06629 C984.999903,1950.97646 984.995162,1950.88768 984.987905,1950.79977 L985,1950.79967 L985,1950.79967 Z M979.874956,1959.29498 C978.691933,1961.95451 976.977876,1964.36372 974.876671,1966.35237 C972.776627,1968.34217 970.290499,1969.91082 967.607168,1970.94075 C964.924515,1971.97442 962.04882,1972.46285 959.196638,1972.39441 C956.343973,1972.32944 953.522078,1971.70779 950.940542,1970.57114 C948.357748,1969.43803 946.017538,1967.7973 944.086829,1965.78678 C942.154668,1963.77721 940.633266,1961.39957 939.635641,1958.83545 C938.634242,1956.27171 938.16262,1953.5259 938.231419,1950.79948 C938.297024,1948.07248 938.90305,1945.38013 940.008081,1942.91678 C941.10963,1940.45238 942.704185,1938.21938 944.657052,1936.37787 C946.608953,1934.53492 948.917134,1933.08518 951.403939,1932.13616 C953.890454,1931.1833 956.551239,1930.73614 959.196638,1930.80429 C961.842425,1930.86955 964.449506,1931.45002 966.835001,1932.50558 C969.221366,1933.55777 971.383629,1935.08006 973.166097,1936.94365 C974.950017,1938.80609 976.351724,1941.00742 977.267971,1943.37651 C978.187605,1945.74561 978.617619,1948.27826 978.549208,1950.79957 L978.561303,1950.79957 C978.553949,1950.88749 978.549208,1950.97627 978.549208,1951.0661 C978.549208,1952.71624 979.808867,1954.07402 981.426161,1954.24649 C981.112456,1955.98733 980.59313,1957.6867 979.874956,1959.29498 Z" id="Shape"></path>
        </g>
    </g>
</svg>