<svg xmlns="http://www.w3.org/2000/svg" width="20" height="22" viewBox="0 0 20 22"><path fill="#dce4e6" d="M18.88 22c.62 0 1.12-.54 1.12-1.21 0-.66-.5-1.2-1.12-1.2H10c-4.28 0-7.77-3.78-7.77-8.41v-.36c0-4.63 3.49-8.41 7.77-8.41 4.28 0 7.77 3.78 7.77 8.41v.89c0 1.01-.75 1.82-1.68 1.82-.93 0-1.68-.81-1.68-1.82v-1.69c0-2.87-2.17-5.21-4.82-5.21-2.66 0-4.82 2.34-4.82 5.21 0 2.88 2.16 5.21 4.82 5.21 1.21 0 2.32-.49 3.17-1.29a3.87 3.87 0 0 0 3.33 2.01c2.15 0 3.91-1.9 3.91-4.24v-.89C20 4.85 15.51 0 10 0S0 4.85 0 10.82v.36C0 17.15 4.49 22 10 22zm-9.29-9.18c-1.43 0-2.59-1.26-2.59-2.8 0-1.54 1.16-2.8 2.59-2.8 1.42 0 2.59 1.26 2.59 2.8 0 1.54-1.17 2.8-2.59 2.8z"/></svg>