<?xml version="1.0" encoding="UTF-8"?>
<svg width="78px" height="100px" viewBox="0 0 78 100" version="1.1" xmlns="http://www.w3.org/2000/svg" xmlns:xlink="http://www.w3.org/1999/xlink">
    <!-- Generator: Sketch 41.2 (35397) - http://www.bohemiancoding.com/sketch -->
    <title>Page 1</title>
    <desc>Created with Sketch.</desc>
    <defs>
        <polygon id="path-1" points="77.6448511 93.7128926 77.6448511 0.498347107 8.29787241e-05 0.498347107 8.29787241e-05 93.7128926 77.6448511 93.7128926"></polygon>
    </defs>
    <g id="Page-1" stroke="none" stroke-width="1" fill="none" fill-rule="evenodd">
        <g id="Contacts" transform="translate(-931.000000, -1728.000000)">
            <g id="Page-1" transform="translate(931.000000, 1728.000000)">
                <path d="M62.8357213,93.002314 C62.8357213,96.5915702 51.7323383,99.5014876 38.0358702,99.5014876 C24.3385723,99.5014876 13.2351894,96.5915702 13.2351894,93.002314 C13.2351894,89.411405 24.3385723,86.5014876 38.0358702,86.5014876 C51.7323383,86.5014876 62.8357213,89.411405 62.8357213,93.002314" id="Fill-1" fill="#E4E3E5"></path>
                <g id="Group-5" transform="translate(0.000000, 0.328099)">
                    <mask id="mask-2" fill="white">
                        <use xlink:href="#path-1"></use>
                    </mask>
                    <g id="Clip-4"></g>
                    <path d="M38.8225085,55.798843 C29.596934,55.798843 22.1205511,48.3509091 22.1205511,39.1641322 C22.1205511,29.9765289 29.596934,22.5294215 38.8225085,22.5294215 C48.0472532,22.5294215 55.524466,29.9765289 55.524466,39.1641322 C55.524466,48.3509091 48.0472532,55.798843 38.8225085,55.798843 M38.8225085,0.498016529 C17.3816362,0.498016529 8.29787241e-05,17.8104132 8.29787241e-05,39.1641322 C8.29787241e-05,48.9104132 3.62874255,57.8079339 9.60404043,64.6079339 L9.59076383,64.6228099 L9.77995532,64.8104132 C10.8113809,65.9682645 11.9100191,67.0633058 13.0725511,68.0897521 L38.8001043,93.7128926 L64.2322532,68.3839669 C72.4438277,61.2938843 77.644934,50.8368595 77.644934,39.1641322 C77.644934,17.8104132 60.2625511,0.498016529 38.8225085,0.498016529" id="Fill-3" fill="#3D8EB9" mask="url(#mask-2)"></path>
                </g>
            </g>
        </g>
    </g>
</svg>