<svg xmlns="http://www.w3.org/2000/svg" width="47" height="21" viewBox="0 0 47 21"><path fill="#dce4e6" d="M45.88 13.47c-.69-2.66-4.03-3.76-8.59-5.52-1.42-.77-5.28-6.52-11.74-7.59-2.33-.38-18.99-.64-21.61.2-.72.24-1.51 1-2.03 1.76C-1.23 6.84.52 14.34.52 14.34l-.52.92v1.81l3.49.79C4.08 19.53 5.63 21 7.45 21c1.78 0 3.3-1.07 3.93-2.48h23.01s.14-.27.37-.27a4.14 4.14 0 0 0 3.94 2.62 4.32 4.32 0 0 0 3.94-2.84c1.29-.01 2.29-.04 2.57-.04.71 0 .97-3.37.67-4.52zM4.22 2.96c1.23-.91 6.85-.59 6.85-.59l-.01 6.24H2.43c-.11-.95.45-4.65 1.79-5.65zm16.46 5.65h-7.35V2.47h7.35zm2.3 0V2.26s1.81.12 3.38.47c3.44.77 8.11 5.88 8.11 5.88z"/></svg>