<?xml version="1.0" encoding="UTF-8"?>
<svg width="31px" height="28px" viewBox="0 0 31 28" version="1.1" xmlns="http://www.w3.org/2000/svg" xmlns:xlink="http://www.w3.org/1999/xlink">
    <!-- Generator: Sketch 41.2 (35397) - http://www.bohemiancoding.com/sketch -->
    <title>MSN_Messenger</title>
    <desc>Created with Sketch.</desc>
    <defs>
        <path d="M896.001563,4908.80404 C896.51512,4903.94083 900.493037,4902.2206 901.075482,4901.99485 C900.086944,4901.20036 899.453867,4899.98342 899.453867,4898.61949 C899.453867,4896.22481 901.403042,4894.28408 903.808254,4894.28408 C906.212433,4894.28408 908.162986,4896.22481 908.162986,4898.61949 C908.162986,4899.97047 907.541964,4901.17726 906.568926,4901.9728 C907.383178,4902.2647 908.183308,4902.70115 908.898706,4903.27059 C907.006019,4904.23203 902.839005,4907.0033 902.206961,4912.98475 C902.205928,4913.0355 902.205928,4913.0838 902.205928,4913.13279 C898.545239,4912.89935 898.171523,4911.89136 898.171523,4911.89136 L898.171523,4911.89066 C897.938683,4911.66106 897.757853,4911.37966 897.647633,4911.02722 C897.114098,4910.90262 896.77896,4910.57607 896.77896,4910.57607 C896.77896,4910.57607 895.959541,4910.26632 896.001563,4908.80404 Z M911.266375,4903.42459 C910.402524,4903.76024 904.510564,4906.30856 903.748322,4913.51499 C903.685979,4915.68112 904.898746,4916.13927 904.898746,4916.13927 C904.898746,4916.13927 904.898746,4916.13927 904.898746,4916.13997 C904.898746,4916.13997 905.396803,4916.62261 906.187978,4916.80776 C906.350897,4917.32925 906.617837,4917.74715 906.963653,4918.08735 L906.963653,4918.0884 C906.963653,4918.0884 907.544375,4919.66303 913.379503,4919.95353 C913.465957,4919.96928 913.551033,4919.98293 913.63542,4919.99938 L915.086539,4919.99938 C915.268057,4919.99938 915.45371,4920.00078 915.644873,4919.99938 L917.312643,4919.99938 C917.456273,4919.97278 917.601971,4919.94828 917.748701,4919.92413 C923.744681,4919.51883 924.376037,4917.61485 924.376037,4917.61485 L924.375003,4917.61345 C924.534134,4917.3751 924.666398,4917.10981 924.761119,4916.80706 C927.490102,4916.25931 927.274484,4912.95885 926.457477,4910.42417 C925.322208,4906.90391 922.433405,4904.47878 919.405449,4903.39169 C920.847267,4902.21395 921.766917,4900.42547 921.766917,4898.42384 C921.767262,4894.87592 918.878459,4892 915.315245,4892 C911.751688,4892 908.863229,4894.87627 908.863229,4898.42384 C908.863229,4900.44507 909.800446,4902.2465 911.266375,4903.42459 Z" id="path-1"></path>
        <mask id="mask-2" maskContentUnits="userSpaceOnUse" maskUnits="objectBoundingBox" x="0" y="0" width="31" height="28" fill="white">
            <use xlink:href="#path-1"></use>
        </mask>
    </defs>
    <g id="Page-1" stroke="none" stroke-width="1" fill="none" fill-rule="evenodd">
        <g id="Artboard-2" transform="translate(-896.000000, -4892.000000)" stroke="#666666" stroke-width="4">
            <use id="MSN_Messenger" mask="url(#mask-2)" xlink:href="#path-1"></use>
        </g>
    </g>
</svg>