<?xml version="1.0" encoding="UTF-8"?>
<svg width="36px" height="36px" viewBox="0 0 36 36" version="1.1" xmlns="http://www.w3.org/2000/svg" xmlns:xlink="http://www.w3.org/1999/xlink">
    <!-- Generator: Sketch 41.2 (35397) - http://www.bohemiancoding.com/sketch -->
    <title>Group 20</title>
    <desc>Created with Sketch.</desc>
    <defs></defs>
    <g id="Page-1" stroke="none" stroke-width="1" fill="none" fill-rule="evenodd">
        <g id="Artboard-2" transform="translate(-669.000000, -1148.000000)" fill="#c7c7c7">
            <g id="Group-20" transform="translate(669.000000, 1148.000000)">
                <path d="M24.4935282,14.2969325 L20.9686848,14.0466258 L19.6384134,10.8441718 C19.360334,10.1815951 18.7139875,9.75460123 17.9849687,9.75460123 C17.2559499,9.75460123 16.6096033,10.1815951 16.331524,10.8441718 L15.0012526,14.0466258 L11.4764092,14.2969325 C10.7473904,14.3484663 10.1386221,14.8196319 9.9131524,15.4969325 C9.68768267,16.1742331 9.90563674,16.9104294 10.4617954,17.3742331 L13.1599165,19.604908 L12.3181628,22.9619632 C12.182881,23.4846626 12.3031315,24.0294479 12.6413361,24.4490798 C12.9795407,24.8760736 13.5056367,25.1263804 14.0467641,25.1263804 C14.377453,25.1263804 14.7006263,25.0380368 14.9862213,24.8613497 L17.9849687,23.0355828 L20.9837161,24.8613497 C21.2693111,25.0380368 21.5924843,25.1263804 21.9231733,25.1263804 C22.4643006,25.1263804 22.9903967,24.8760736 23.3286013,24.4490798 C23.6668058,24.0294479 23.7870564,23.4846626 23.6517745,22.9619632 L22.8100209,19.604908 L25.508142,17.3742331 C26.0643006,16.9177914 26.2822547,16.1815951 26.056785,15.4969325 C25.8313152,14.8196319 25.2150313,14.3484663 24.4935282,14.2969325 Z M21.1866388,18.5889571 C20.9160752,18.809816 20.8033403,19.1631902 20.8860125,19.4944785 L21.8329854,23.2564417 L18.4734864,21.209816 C18.1728601,21.0257669 17.7970772,21.0257669 17.5039666,21.209816 L14.136952,23.2711656 L15.0914405,19.4871166 C15.1741127,19.1558282 15.0613779,18.802454 14.7908142,18.5815951 L11.7620042,16.0785276 L15.7077244,15.798773 C16.0534447,15.7766871 16.3615866,15.5558282 16.4968685,15.2392638 L17.9849687,11.6539877 L19.4805846,15.2466258 C19.6158664,15.5631902 19.9164927,15.7840491 20.2697286,15.806135 L24.2154489,16.0858896 L21.1866388,18.5889571 Z" id="Shape"></path>
                <path d="M34.7298539,18.5595092 C34.4217119,18.1472393 34.4141962,17.5803681 34.7223382,17.1607362 L35.3611691,16.2699387 C35.8647182,15.5705521 36.0450939,14.6871166 35.8421712,13.8478528 C35.6392484,13.008589 35.0830898,12.2944785 34.308977,11.8895706 L33.3319415,11.3742331 C32.8659708,11.1312883 32.6179541,10.6306748 32.7006263,10.1226994 L32.8885177,9.04785276 C33.0313152,8.20122699 32.7983299,7.33251534 32.2496868,6.66257669 C31.6935282,5.99263804 30.8743215,5.58773006 30.0025052,5.55092025 L28.8826722,5.51411043 C28.3565762,5.49202454 27.9056367,5.14601227 27.7628392,4.65276074 L27.4546973,3.60736196 C27.0789144,2.33374233 25.8688935,1.44294479 24.5085595,1.44294479 C24.0951983,1.44294479 23.6818372,1.52392638 23.2985386,1.68588957 L22.2764092,2.11288344 C21.8029228,2.31165644 21.2242171,2.18650307 20.8860125,1.81104294 L20.1419624,1.00122699 C19.5632568,0.36809816 18.7290188,0 17.8647182,0 C16.9778706,0 16.1361169,0.375460123 15.5498956,1.03067485 L14.8283925,1.86257669 C14.4901879,2.24539877 13.9189979,2.37791411 13.4379958,2.18650307 L12.4083507,1.77423313 C12.0325678,1.62699387 11.6417537,1.54601227 11.2434238,1.54601227 C9.86805846,1.54601227 8.65052192,2.45153374 8.28977035,3.75460123 L7.99665971,4.8 C7.86137787,5.29325153 7.41043841,5.64662577 6.89185804,5.67607362 L5.78705637,5.74233129 C4.90772443,5.79386503 4.0960334,6.20613497 3.55490605,6.88343558 C3.01377871,7.5607362 2.79582463,8.42944785 2.95365344,9.27607362 L3.1565762,10.3435583 C3.25427975,10.8515337 3.00626305,11.3595092 2.54780793,11.609816 L1.5782881,12.1398773 C0.811691023,12.5595092 0.263048017,13.2809816 0.0751565762,14.1202454 C-0.112734864,14.9595092 0.0751565762,15.8429448 0.593736952,16.5349693 L1.24759916,17.4110429 C1.55574113,17.8233129 1.56325678,18.390184 1.25511482,18.809816 L0.616283925,19.7006135 C0.112734864,20.4 -0.0676409186,21.2834356 0.135281837,22.1226994 C0.338204593,22.9619632 0.894363257,23.6687117 1.66847599,24.0809816 L2.64551148,24.596319 C3.11148225,24.8392638 3.35949896,25.3398773 3.27682672,25.8478528 L3.08893528,26.9226994 C2.94613779,27.7693252 3.17912317,28.6380368 3.72776618,29.3079755 C4.28392484,29.9779141 5.10313152,30.3828221 5.97494781,30.4196319 L7.08726514,30.4638037 C7.61336117,30.4858896 8.06430063,30.8319018 8.20709812,31.3251534 L8.51524008,32.3705521 C8.89102296,33.6441718 10.1010438,34.5349693 11.4613779,34.5349693 L11.4613779,34.5349693 C11.874739,34.5349693 12.2881002,34.4539877 12.6713987,34.2920245 L13.6935282,33.8650307 C14.1670146,33.6662577 14.7457203,33.791411 15.0839248,34.1668712 L15.8279749,34.9766871 C16.4066806,35.609816 17.2409186,35.9705521 18.1052192,35.9705521 C18.9920668,35.9705521 19.8338205,35.595092 20.4200418,34.9398773 L21.1415449,34.1079755 C21.4797495,33.7251534 22.0509395,33.592638 22.5319415,33.7840491 L23.5615866,34.196319 C23.9373695,34.3435583 24.3281837,34.4245399 24.7265136,34.4245399 C26.1018789,34.4245399 27.3194154,33.5190184 27.680167,32.2159509 L27.9732777,31.1705521 C28.1085595,30.6773006 28.559499,30.3239264 29.0780793,30.2944785 L30.182881,30.2355828 C31.0622129,30.1840491 31.873904,29.7717791 32.4150313,29.0944785 C32.9561587,28.4171779 33.1741127,27.5484663 33.0162839,26.7018405 L32.8133612,25.6343558 C32.7156576,25.1263804 32.9636743,24.6184049 33.4221294,24.3754601 L34.3916493,23.8453988 C35.1582463,23.4257669 35.7068894,22.7042945 35.8947808,21.8650307 C36.0826722,21.0257669 35.8947808,20.1423313 35.3762004,19.4503067 L34.7298539,18.5595092 Z M34.1060543,21.4674847 C34.0308977,21.806135 33.8129436,22.0858896 33.5048017,22.2552147 L32.5352818,22.7852761 C31.3853862,23.4110429 30.7691023,24.6846626 31.0096033,25.9509202 L31.2125261,27.0184049 C31.280167,27.3570552 31.1899791,27.7030675 30.9720251,27.9754601 C30.754071,28.2478528 30.4384134,28.409816 30.0851775,28.4319018 L28.9803758,28.4907975 C27.6651357,28.5644172 26.5528184,29.4478528 26.1995825,30.6920245 L25.9064718,31.7374233 C25.7636743,32.2601227 25.2751566,32.6208589 24.7265136,32.6208589 C24.5686848,32.6208589 24.4108559,32.591411 24.2605428,32.5325153 L23.2308977,32.1202454 C22.8551148,31.9730061 22.4643006,31.8920245 22.0659708,31.8920245 C21.1791232,31.8920245 20.3373695,32.2674847 19.7511482,32.9226994 L19.0221294,33.7398773 C18.7891441,34.004908 18.4584551,34.1521472 18.0977035,34.1521472 C17.7444676,34.1521472 17.4212944,34.0122699 17.188309,33.7546012 L16.4442589,32.9447853 C15.8655532,32.3116564 15.0313152,31.9435583 14.159499,31.9435583 C13.7386221,31.9435583 13.3327766,32.0245399 12.9494781,32.1865031 L11.9273486,32.6134969 C11.7695198,32.6797546 11.611691,32.7092025 11.4463466,32.7092025 C10.9052192,32.7092025 10.4242171,32.3558282 10.273904,31.8478528 L9.965762,30.802454 C9.59749478,29.5656442 8.47014614,28.6969325 7.15490605,28.6380368 L6.04258873,28.593865 C5.68935282,28.5791411 5.36617954,28.4245399 5.14822547,28.1521472 C4.92275574,27.8797546 4.83256785,27.5411043 4.89269311,27.202454 L5.07306889,26.1276074 C5.29102296,24.8539877 4.65970772,23.595092 3.49478079,22.9840491 L2.5177453,22.4687117 C2.20208768,22.3067485 1.98413361,22.0269939 1.90897704,21.6883436 C1.8263048,21.3496933 1.89394572,21.003681 2.09686848,20.7239264 L2.73569937,19.8331288 C3.49478079,18.7803681 3.48726514,17.3742331 2.70563674,16.3288344 L2.05177453,15.4527607 C1.84133612,15.1730061 1.76617954,14.8269939 1.84885177,14.4883436 C1.92400835,14.1496933 2.14196242,13.8699387 2.45010438,13.7006135 L3.41962422,13.1705521 C4.56951983,12.5447853 5.18580376,11.2711656 4.94530271,10.004908 L4.75741127,8.95214724 C4.68977035,8.60613497 4.77995825,8.26748466 4.99791232,7.99509202 C5.21586639,7.72269939 5.53152401,7.5607362 5.88475992,7.53865031 L6.98956159,7.47239264 C8.30480167,7.39877301 9.417119,6.51533742 9.77035491,5.27116564 L10.0634656,4.22576687 C10.206263,3.70306748 10.6947808,3.34233129 11.2434238,3.34233129 C11.4012526,3.34233129 11.5590814,3.37177914 11.7093946,3.43067485 L12.7390397,3.84294479 C13.1148225,3.99018405 13.5056367,4.07116564 13.9039666,4.07116564 C14.7908142,4.07116564 15.6325678,3.69570552 16.2187891,3.0404908 L16.9478079,2.22331288 C17.1807933,1.95828221 17.5114823,1.81104294 17.8722338,1.81104294 C18.2254697,1.81104294 18.548643,1.95092025 18.7816284,2.20858896 L19.5256785,3.01840491 C20.1043841,3.65153374 20.9386221,4.0196319 21.8104384,4.0196319 C22.2313152,4.0196319 22.6371608,3.93865031 23.0204593,3.77668712 L24.0425887,3.34969325 C24.2004175,3.28343558 24.3582463,3.25398773 24.5235908,3.25398773 C25.0647182,3.25398773 25.5457203,3.60736196 25.6960334,4.11533742 L26.0041754,5.1607362 C26.3724426,6.39754601 27.4997912,7.26625767 28.8150313,7.32515337 L29.9273486,7.36932515 C30.2805846,7.38404908 30.6037578,7.53865031 30.8217119,7.81104294 C31.0471816,8.08343558 31.1373695,8.42208589 31.0772443,8.7607362 L30.8968685,9.83558282 C30.6789144,11.1092025 31.3102296,12.3680982 32.4751566,12.9791411 L33.4521921,13.4944785 C33.7678497,13.6564417 33.9858038,13.9361963 34.068476,14.2748466 C34.1511482,14.6134969 34.0835073,14.9595092 33.8805846,15.2392638 L33.2417537,16.1300613 C32.4826722,17.1828221 32.4901879,18.5889571 33.2718163,19.6343558 L33.9256785,20.5104294 C34.1060543,20.7828221 34.1812109,21.1214724 34.1060543,21.4674847 Z" id="Shape"></path>
            </g>
        </g>
    </g>
</svg>