<?xml version="1.0" encoding="UTF-8"?>
<svg width="48px" height="48px" viewBox="0 0 48 48" version="1.1" xmlns="http://www.w3.org/2000/svg" xmlns:xlink="http://www.w3.org/1999/xlink">
    <!-- Generator: Sketch 41.2 (35397) - http://www.bohemiancoding.com/sketch -->
    <title>Group 9</title>
    <desc>Created with Sketch.</desc>
    <defs></defs>
    <g id="Page-1" stroke="none" stroke-width="1" fill="none" fill-rule="evenodd">
        <g id="About-Us-(prizes)" transform="translate(-936.000000, -2421.000000)" fill="#3D8EB9">
            <g id="Group-9" transform="translate(936.000000, 2421.000000)">
                <path d="M3.49090909,44.6315789 L44.5090909,44.6315789 L44.5090909,16 L3.49090909,16 L3.49090909,44.6315789 Z M42.7636364,42.9473684 L6.67549091,42.9473684 L19.1764364,32.3275789 L28.1672727,41.0021053 C28.5085091,41.3313684 29.0600727,41.3313684 29.4013091,41.0021053 C29.7425455,40.6728421 29.7425455,40.1406316 29.4013091,39.8113684 L25.2061091,35.7633684 L33.2186182,27.2968421 L42.7636364,35.7389474 L42.7636364,42.9473684 Z M5.23636364,17.6842105 L42.7636364,17.6842105 L42.7636364,33.4543158 L33.7536,25.4846316 C33.5825455,25.3338947 33.3538909,25.2488421 33.1252364,25.264 C32.8939636,25.2741053 32.6757818,25.3726316 32.5195636,25.5376842 L23.9720727,34.5709474 L19.8327273,30.5768421 C19.5063273,30.2627368 18.9844364,30.2475789 18.6388364,30.5397895 L5.23636364,41.9258947 L5.23636364,17.6842105 Z" id="Shape"></path>
                <path d="M12.2181818,20.2105263 C9.53803636,20.2105263 7.35796364,22.3141053 7.35796364,24.9002105 C7.35796364,27.4854737 9.53803636,29.5890526 12.2181818,29.5890526 C14.8983273,29.5890526 17.0784,27.4854737 17.0784,24.9002105 C17.0784,22.3141053 14.8983273,20.2105263 12.2181818,20.2105263 Z M12.2181818,27.9056842 C10.5006545,27.9056842 9.10341818,26.5574737 9.10341818,24.9010526 C9.10341818,23.2446316 10.5006545,21.8947368 12.2181818,21.8947368 C13.9357091,21.8947368 15.3329455,23.2437895 15.3329455,24.9002105 C15.3329455,26.5566316 13.9357091,27.9056842 12.2181818,27.9056842 Z" id="Shape"></path>
                <path d="M42.2225455,12.6315789 C40.6603636,11.296 32.3493818,4.24589474 27.6061091,1.33473684 C26.8101818,0.517894737 25.6878545,0 24.4363636,0 C23.1848727,0 22.0625455,0.517894737 21.2666182,1.33473684 C16.5233455,4.24589474 8.21236364,11.296 6.65018182,12.6315789 L0,12.6315789 L0,48 L48,48 L48,12.6315789 L42.2225455,12.6315789 Z M21.8784,3.67915789 C21.8862545,3.64294737 21.9028364,3.60926316 21.9124364,3.57389474 C22.0389818,3.12336842 22.2746182,2.77473684 22.4884364,2.54315789 C22.4928,2.53894737 22.4936727,2.53305263 22.4980364,2.528 C22.9771636,2.01347368 23.6648727,1.68421053 24.4363636,1.68421053 C25.2078545,1.68421053 25.8955636,2.01347368 26.3746909,2.528 C26.3790545,2.53221053 26.3799273,2.53810526 26.3842909,2.54315789 C26.5981091,2.77473684 26.8337455,3.12421053 26.9602909,3.57473684 C26.9698909,3.61010526 26.9856,3.64378947 26.9943273,3.68 C27.0318545,3.84336842 27.0545455,4.02021053 27.0545455,4.21052632 C27.0545455,5.60336842 25.8798545,6.73684211 24.4363636,6.73684211 C22.9928727,6.73684211 21.8181818,5.60336842 21.8181818,4.21052632 C21.8181818,4.02021053 21.8408727,3.84336842 21.8784,3.67915789 Z M20.0727273,4.16842105 L20.0727273,4.21052632 C20.0727273,6.53221053 22.0302545,8.42105263 24.4363636,8.42105263 C26.8424727,8.42105263 28.8,6.53221053 28.8,4.21052632 L28.8,4.16842105 C32.4392727,6.72252632 37.0944,10.5524211 39.5738182,12.6315789 L9.29890909,12.6315789 C11.7783273,10.5524211 16.4343273,6.72252632 20.0727273,4.16842105 Z M46.2545455,46.3157895 L1.74545455,46.3157895 L1.74545455,14.3157895 L6.98181818,14.3157895 L41.8909091,14.3157895 L46.2545455,14.3157895 L46.2545455,46.3157895 Z" id="Shape"></path>
            </g>
        </g>
    </g>
</svg>