<svg xmlns="http://www.w3.org/2000/svg" width="54" height="48" viewBox="0 0 54 48"><path fill="#71ba51" d="M53.14 0H.86A.86.86 0 0 0 0 .85v46.3c0 .47.39.85.86.85h52.28c.47 0 .86-.38.86-.85v-9.03a.86.86 0 0 0-.86-.85.85.85 0 0 0-.86.85v8.19H1.72V8.47h50.56v26.26c0 .47.38.85.86.85.47 0 .86-.38.86-.85V.85a.86.86 0 0 0-.86-.85zM1.72 1.69h31.89v5.09H1.72zm33.61 5.09V1.69h16.95v5.09z"/><path fill="#71ba51" d="M44.08 3c-.6 0-1.08.48-1.08 1.07 0 .58.48 1.06 1.08 1.06.6 0 1.08-.48 1.08-1.06 0-.59-.48-1.07-1.08-1.07zM39.08 3c-.6 0-1.08.48-1.08 1.07 0 .58.48 1.06 1.08 1.06.6 0 1.08-.48 1.08-1.06 0-.59-.48-1.07-1.08-1.07zM49.08 3c-.6 0-1.08.48-1.08 1.07 0 .58.48 1.06 1.08 1.06.6 0 1.08-.48 1.08-1.06 0-.59-.48-1.07-1.08-1.07zM14.02 29.7V23H9l3.54 4.87L9 32.74h8.56V29.7H15.2zM45.15 23h-5.02v6.7H36v3.04h9.15l-3.54-4.87z"/><path fill="#71ba51" d="M15 29V19h24v10z"/></svg>