<svg xmlns="http://www.w3.org/2000/svg" width="48" height="49" viewBox="0 0 48 49"><path fill="#3d8eb9" d="M47.35 5.97l-12.62-4.9c-.88-.31-1.39.46-1.39.96V5.9H20.11L1.28 1.04C.44.84 0 1.55 0 2.03v41.05c0 .47.32.88.77.99l18.95 4.9c.01 0 .13.03.26.03h27c.56 0 1.02-.46 1.02-1.02V6.92a1 1 0 0 0-.65-.95zM35.39 3.52l6.14 2.38h-6.14zM2.04 3.34l16.91 4.37v38.95L2.04 42.29zM21 46.96V7.94h24.96v39.02z"/><path fill="#3d8eb9" d="M5.72 33.89L17 38.09 16.28 40 5 35.81zm0-11.94L17 26.14l-.72 1.91L5 23.86zM5 11.91l11.28 4.2.72-1.92L5.72 10zM26.05 27h15.9c.58 0 1.05-.47 1.05-1.05v-12.9c0-.58-.47-1.05-1.05-1.05h-15.9c-.58 0-1.05.47-1.05 1.05v12.9c0 .58.47 1.05 1.05 1.05zm1.04-12.9h13.82v10.8H27.09zM26 34v-2h16v2zM26 42v-2h16v2z"/></svg>