<svg xmlns="http://www.w3.org/2000/svg" width="54" height="48" viewBox="0 0 54 48"><path fill="#71ba51" d="M53.14 0H.86A.86.86 0 0 0 0 .85v46.3c0 .47.39.85.86.85h52.28c.47 0 .86-.38.86-.85v-9.03a.86.86 0 0 0-.86-.85.85.85 0 0 0-.86.85v8.19H1.72V8.47h50.56v26.26c0 .47.38.85.86.85.47 0 .86-.38.86-.85V.85a.86.86 0 0 0-.86-.85zM1.72 1.69h31.89v5.09H1.72zm33.61 5.09V1.69h16.95v5.09z"/><path fill="#71ba51" d="M44.08 3c-.6 0-1.08.48-1.08 1.07 0 .58.48 1.06 1.08 1.06.6 0 1.08-.48 1.08-1.06 0-.59-.48-1.07-1.08-1.07zM39.08 3c-.6 0-1.08.48-1.08 1.07 0 .58.48 1.06 1.08 1.06.6 0 1.08-.48 1.08-1.06 0-.59-.48-1.07-1.08-1.07zM49.08 3c-.6 0-1.08.48-1.08 1.07 0 .58.48 1.06 1.08 1.06.6 0 1.08-.48 1.08-1.06 0-.59-.48-1.07-1.08-1.07zM17.97 23.53a.9.9 0 0 0 .74-.63l2.05-6.77a.87.87 0 0 0-.6-1.09.9.9 0 0 0-1.11.59l-1.47 4.85-1.42-2.34a.9.9 0 0 0-.76-.42c-.31 0-.6.16-.77.42l-1.41 2.34-1.47-4.85a.9.9 0 0 0-1.11-.59.88.88 0 0 0-.6 1.1l2.05 6.76c.1.34.39.58.74.63h.11a.9.9 0 0 0 .77-.43l1.69-2.79 1.69 2.79c.18.3.53.47.88.43zM23.83 23.53h.11a.9.9 0 0 0 .77-.43l1.69-2.79 1.69 2.79c.18.3.53.47.88.43a.9.9 0 0 0 .74-.63l2.05-6.77a.87.87 0 0 0-.6-1.09.9.9 0 0 0-1.11.59l-1.47 4.85-1.42-2.34a.9.9 0 0 0-.76-.42c-.31 0-.6.16-.77.42l-1.41 2.34-1.47-4.85a.9.9 0 0 0-1.11-.59.88.88 0 0 0-.6 1.1l2.05 6.76c.1.34.39.58.74.63zM42.16 15.04a.9.9 0 0 0-1.11.59l-1.47 4.85-1.42-2.34a.9.9 0 0 0-1.52 0l-1.42 2.34-1.47-4.85a.9.9 0 0 0-1.11-.59.88.88 0 0 0-.6 1.1l2.05 6.76c.1.34.39.58.74.63.35.04.7-.13.88-.43l1.69-2.79 1.69 2.79a.9.9 0 0 0 .77.43h.11a.9.9 0 0 0 .74-.63l2.05-6.77a.87.87 0 0 0-.6-1.09zM16.48 27.87c0-.48-.4-.87-.88-.87h-4.72a.88.88 0 0 0-.88.87v4.66c0 .48.4.87.88.87h4.72c.48 0 .88-.39.88-.87zm-1.77 3.78h-2.94v-2.9h2.94zM15.6 35h-4.72a.88.88 0 0 0-.88.87v4.66c0 .48.4.87.88.87h4.72c.48 0 .88-.39.88-.87v-4.66c0-.48-.4-.87-.88-.87zm-.89 4.65h-2.94v-2.9h2.94zM42.5 29h-3.6c-.5 0-.9.48-.9 1.07 0 .59.4 1.06.9 1.06h3.6c.5 0 .9-.47.9-1.06 0-.59-.4-1.07-.9-1.07zM34.51 29H17.85c-.47 0-.85.48-.85 1.07 0 .59.38 1.06.85 1.06h16.66c.47 0 .85-.47.85-1.06 0-.59-.38-1.07-.85-1.07zM42.5 37h-3.6c-.5 0-.9.48-.9 1.07 0 .59.4 1.06.9 1.06h3.6c.5 0 .9-.47.9-1.06 0-.59-.4-1.07-.9-1.07zM34.51 37H17.85c-.47 0-.85.48-.85 1.07 0 .59.38 1.06.85 1.06h16.66c.47 0 .85-.47.85-1.06 0-.59-.38-1.07-.85-1.07z"/></svg>