<svg xmlns="http://www.w3.org/2000/svg" width="50" height="51" viewBox="0 0 50 51"><path fill="#71ba51" d="M48.1 3.48h-7.32V.8a.8.8 0 0 0-.79-.8H10.01a.8.8 0 0 0-.79.8v2.68H1.9A1.9 1.9 0 0 0 0 5.38V40.4c0 1.05.85 1.9 1.9 1.9h17.42v6.1H11.8a.8.8 0 0 0-.8.8c0 .44.36.8.8.8h22.87a.8.8 0 0 0 .8-.8.8.8 0 0 0-.8-.8h-3.99v-6.1h3.28a.8.8 0 0 0 .8-.8.8.8 0 0 0-.8-.8H1.9a.3.3 0 0 1-.3-.3V5.38c0-.16.13-.3.3-.3h7.32v29.13H4.1a.8.8 0 0 0-.8.8c0 .44.36.8.8.8h29.86a.8.8 0 0 0 .8-.8.8.8 0 0 0-.8-.8H27.7v-6.52a.8.8 0 0 0-.8-.8H14.27a.8.8 0 0 0-.8.8v6.52h-2.66V1.6h28.38v7.27c0 .44.35.79.8.79.44 0 .79-.35.79-.79V5.08h7.32c.17 0 .3.14.3.3V40.4a.3.3 0 0 1-.3.3h-2.09a.8.8 0 0 0-.8.8c0 .44.36.8.8.8h2.09a1.9 1.9 0 0 0 1.9-1.9V5.38a1.9 1.9 0 0 0-1.9-1.9zM29.08 48.4h-8.16v-6.1h8.16zM15.07 28.49H26.1v5.72H15.07z"/><path fill="#71ba51" d="M44.68 19.65l-.02-.05v-.03a.08.08 0 0 1-.02-.05l-.01-.02v-.01h-.01l-2.99-6.99a.85.85 0 0 0-.78-.5c-.35 0-.66.2-.79.5l-2.99 6.99-.01.01-.01.03-.01.04-.01.03-.01.05-.01.03-.01.04V46.86c0 1.98 1.73 3.6 3.85 3.6s3.84-1.62 3.84-3.6V19.8v-.08l-.01-.04v-.03zm-5.99.94H43v22.62h-4.31zm3.91-1.58h-3.51l1.76-4.09zm-1.75 29.87c-1.19 0-2.16-.91-2.16-2.02V44.8H43v2.06c0 1.11-.97 2.02-2.15 2.02zM13.8 10.73h21.48c.44 0 .8-.33.8-.74V4.74c0-.41-.36-.74-.8-.74H13.8c-.44 0-.8.33-.8.74v5.25c0 .41.36.74.8.74zm.8-5.24h19.88v3.75H14.6zM35.28 13H13.8c-.44 0-.8.43-.8.96s.36.96.8.96h21.48c.44 0 .8-.43.8-.96s-.36-.96-.8-.96zM26.61 17h-12.8c-.45 0-.81.43-.81.96s.36.96.81.96h12.8c.45 0 .81-.43.81-.96s-.36-.96-.81-.96zM33.95 17h-4.13c-.45 0-.82.43-.82.96s.37.96.82.96h4.13c.45 0 .82-.43.82-.96s-.37-.96-.82-.96zM26.61 20h-12.8c-.45 0-.81.43-.81.96s.36.96.81.96h12.8c.45 0 .81-.43.81-.96s-.36-.96-.81-.96zM33.93 20h-4.09c-.46 0-.84.43-.84.96s.38.96.84.96h4.09c.46 0 .84-.43.84-.96s-.38-.96-.84-.96zM26.61 24h-12.8c-.45 0-.81.43-.81.96s.36.96.81.96h12.8c.45 0 .81-.43.81-.96s-.36-.96-.81-.96zM33.93 24h-4.09c-.46 0-.84.43-.84.96s.38.96.84.96h4.09c.46 0 .84-.43.84-.96s-.38-.96-.84-.96z"/></svg>