<svg xmlns="http://www.w3.org/2000/svg" width="48.3" height="48.3" viewBox="0 0 48.3 48.3"><path fill="#3d8eb9" d="M24.15.15c-13.23 0-24 10.77-24 24s10.77 24 24 24 24-10.77 24-24-10.77-24-24-24zm0 46.4a22.43 22.43 0 0 1-22.4-22.4 22.43 22.43 0 0 1 22.4-22.4 22.43 22.43 0 0 1 22.4 22.4 22.43 22.43 0 0 1-22.4 22.4z"/><path fill="none" stroke="#3d8eb9" stroke-miterlimit="50" stroke-width=".3" d="M24.15.15c-13.23 0-24 10.77-24 24s10.77 24 24 24 24-10.77 24-24-10.77-24-24-24zm0 46.4a22.43 22.43 0 0 1-22.4-22.4 22.43 22.43 0 0 1 22.4-22.4 22.43 22.43 0 0 1 22.4 22.4 22.43 22.43 0 0 1-22.4 22.4z"/><path fill="#3d8eb9" d="M18.49 6.73a.8.8 0 0 0-.37-1.56A17.56 17.56 0 0 0 5.17 18.12a.8.8 0 0 0 .59.96l.19.03a.8.8 0 0 0 .78-.62A15.95 15.95 0 0 1 18.49 6.73z"/><path fill="none" stroke="#3d8eb9" stroke-miterlimit="50" stroke-width=".3" d="M18.49 6.73a.8.8 0 0 0-.37-1.56A17.56 17.56 0 0 0 5.17 18.12a.8.8 0 0 0 .59.96l.19.03a.8.8 0 0 0 .78-.62A15.95 15.95 0 0 1 18.49 6.73z"/><path fill="#3d8eb9" d="M42.49 29.17a.8.8 0 0 0-.96.59 16.03 16.03 0 0 1-4.22 7.55 16.03 16.03 0 0 1-7.55 4.22.8.8 0 0 0-.59.96.8.8 0 0 0 .78.62l.19-.02a17.56 17.56 0 0 0 12.95-12.95.82.82 0 0 0-.6-.97z"/><path fill="none" stroke="#3d8eb9" stroke-miterlimit="50" stroke-width=".3" d="M42.49 29.17a.8.8 0 0 0-.96.59 16.03 16.03 0 0 1-4.22 7.55 16.03 16.03 0 0 1-7.55 4.22.8.8 0 0 0-.59.96.8.8 0 0 0 .78.62l.19-.02a17.56 17.56 0 0 0 12.95-12.95.82.82 0 0 0-.6-.97z"/><path fill="#3d8eb9" d="M19.66 10.73a.8.8 0 0 0-.36-1.56A13.59 13.59 0 0 0 9.17 19.3a.8.8 0 0 0 .6.96c.06.02.12.02.18.02a.8.8 0 0 0 .78-.62 11.95 11.95 0 0 1 8.93-8.93z"/><path fill="none" stroke="#3d8eb9" stroke-miterlimit="50" stroke-width=".3" d="M19.66 10.73a.8.8 0 0 0-.36-1.56A13.59 13.59 0 0 0 9.17 19.3a.8.8 0 0 0 .6.96c.06.02.12.02.18.02a.8.8 0 0 0 .78-.62 11.95 11.95 0 0 1 8.93-8.93z"/><path fill="#3d8eb9" d="M39.26 29.13a.8.8 0 0 0-1.56-.36 11.9 11.9 0 0 1-8.93 8.93.8.8 0 0 0 .18 1.58c.06 0 .12 0 .18-.02a13.54 13.54 0 0 0 10.13-10.13z"/><path fill="none" stroke="#3d8eb9" stroke-miterlimit="50" stroke-width=".3" d="M39.26 29.13a.8.8 0 0 0-1.56-.36 11.9 11.9 0 0 1-8.93 8.93.8.8 0 0 0 .18 1.58c.06 0 .12 0 .18-.02a13.54 13.54 0 0 0 10.13-10.13z"/><path fill="#3d8eb9" d="M21.44 13.78a.82.82 0 0 0-.96-.61 9.62 9.62 0 0 0-7.31 7.31.8.8 0 0 0 .61.95.8.8 0 0 0 .95-.61 8.03 8.03 0 0 1 6.1-6.09.8.8 0 0 0 .61-.95z"/><path fill="none" stroke="#3d8eb9" stroke-miterlimit="50" stroke-width=".3" d="M21.44 13.78a.82.82 0 0 0-.96-.61 9.62 9.62 0 0 0-7.31 7.31.8.8 0 0 0 .61.95.8.8 0 0 0 .95-.61 8.03 8.03 0 0 1 6.1-6.09.8.8 0 0 0 .61-.95z"/><path fill="#3d8eb9" d="M35.44 28.12a.8.8 0 0 0-.62-.95.8.8 0 0 0-.95.61 7.98 7.98 0 0 1-6.09 6.09.8.8 0 0 0 .17 1.58l.17-.01a9.62 9.62 0 0 0 7.32-7.32z"/><path fill="none" stroke="#3d8eb9" stroke-miterlimit="50" stroke-width=".3" d="M35.44 28.12a.8.8 0 0 0-.62-.95.8.8 0 0 0-.95.61 7.98 7.98 0 0 1-6.09 6.09.8.8 0 0 0 .17 1.58l.17-.01a9.62 9.62 0 0 0 7.32-7.32z"/><path fill="#3d8eb9" d="M31.08 24.61a6.47 6.47 0 1 0-12.94.02 6.47 6.47 0 0 0 12.94-.02zm-6.47 4.87a4.87 4.87 0 1 1 .01-9.73 4.87 4.87 0 0 1-.01 9.73z"/><path fill="none" stroke="#3d8eb9" stroke-miterlimit="50" stroke-width=".3" d="M31.08 24.61a6.47 6.47 0 1 0-12.94.02 6.47 6.47 0 0 0 12.94-.02zm-6.47 4.87a4.87 4.87 0 1 1 .01-9.73 4.87 4.87 0 0 1-.01 9.73z"/></svg>