<svg xmlns="http://www.w3.org/2000/svg" width="47" height="52" viewBox="0 0 47 52"><path fill="#e2e5e7" d="M10.29 0A3.28 3.28 0 0 0 7 3.25v45.5A3.28 3.28 0 0 0 10.29 52h32.85a3.28 3.28 0 0 0 3.29-3.25V13L33.29 0z"/><path fill="#b0b7bd" d="M36.29 13h9.85L33 0v9.75A3.28 3.28 0 0 0 36.29 13z"/><path fill="#f15642" d="M39.43 41.88c0 .89-.74 1.62-1.64 1.62H1.64c-.9 0-1.64-.73-1.64-1.62V25.63C0 24.73.74 24 1.64 24h36.15c.9 0 1.64.73 1.64 1.63z"/><path fill="#fff" d="M7.89 30h3.04a3.11 3.11 0 0 1 3.24 3.3c0 2.05-1.53 3.2-3.24 3.2h-2.2v1.71c0 .57-.36.9-.84.9a.89.89 0 0 1-.89-.9V30.9c0-.43.34-.9.89-.9zm.84 1.64v3.23h2.2a1.6 1.6 0 0 0 1.57-1.57c0-.91-.69-1.66-1.57-1.66zM16 38.19v-7.38c0-.47.47-.81.91-.81h3c6.01 0 5.88 8.99.12 8.99h-3.12c-.44 0-.91-.23-.91-.8zm1.73-.78h2.18c3.55 0 3.71-5.82 0-5.82h-2.18zM27.72 31.69v2.07h3.35c.47 0 .94.46.94.92 0 .43-.47.78-.94.78h-3.35v2.73c0 .45-.33.8-.79.8-.58 0-.93-.35-.93-.8v-7.38c0-.47.35-.81.93-.81h4.61c.58 0 .92.34.92.81a.9.9 0 0 1-.92.88z"/></svg>