<svg xmlns="http://www.w3.org/2000/svg" width="53.86" height="53.8" viewBox="0 0 53.86 53.8"><path fill="none" stroke="#3d8eb9" stroke-miterlimit="50" stroke-width="1.8" d="M11.24 26.48H9.91a1.99 1.99 0 0 1-1.98-1.99v-6.61c0-1.09.89-1.98 1.98-1.98h1.33c1.09 0 1.98.89 1.98 1.98v6.61c0 1.1-.89 1.99-1.98 1.99zM29.98 47.83h-7.05l3.53-7.93zM21.93 52.31l.88-4.41h7.05l.88 4.4zM17.05 34.03l-.24-.13-.88 3.53 7.05 9.69 3.53-7.93c-3.71 0-7.06-2.09-9.46-5.16zM36.38 34.03c-2.4 3.07-5.74 5.16-9.45 5.16l3.53 7.93 7.05-9.69-.89-3.53z"/><path fill="none" stroke="#3d8eb9" stroke-miterlimit="50" stroke-width="1.8" d="M49.82 44.91c-4.86-2.56-9.47-4.5-13.72-5.01h-.4l-5.77 7.93.88 4.4h-.33v.01h21.48v-3.77c0-1.49-.82-2.86-2.14-3.56zM17.2 39.9h-.41c-4.24.51-8.85 2.45-13.71 5.01a4.04 4.04 0 0 0-2.15 3.56v3.77h21.15l.88-4.41zM21.93 51.9h.33zM41.91 26.48h1.33c1.09 0 1.98-.89 1.98-1.99v-6.61c0-1.09-.89-1.98-1.98-1.98h-1.33c-1.09 0-1.98.89-1.98 1.98v6.61c0 1.1.89 1.99 1.98 1.99zM42.66 15.88C42.66 4.32 34.5.9 26.79.9c-7.7 0-15.86 3.42-15.86 14.98"/><path fill="none" stroke="#3d8eb9" stroke-miterlimit="50" stroke-width="1.8" d="M12.93 18.12a13.22 13.22 0 0 1 26.44 0v6.17c0 7.79-5.92 15.86-13.22 15.86-7.3 0-13.22-8.07-13.22-15.86zM41.91 26.9c0 3.9-2.35 7.05-14.98 7.05"/><path fill="#3d8eb9" d="M30.75 25.9c.72 1.54-.81 4-3.74 4-2.74 0-4.66-2.48-3.92-3.92.91.61 2.26 1 3.77 1 1.58 0 2.98-.42 3.89-1.08zM18.93 18.4a2.5 2.5 0 1 1 5 0 2.5 2.5 0 0 1-5 0zM28.93 18.4a2.5 2.5 0 1 1 5 0 2.5 2.5 0 0 1-5 0z"/></svg>