<?xml version="1.0" encoding="UTF-8"?>
<svg width="14px" height="18px" viewBox="0 0 14 18" version="1.1" xmlns="http://www.w3.org/2000/svg" xmlns:xlink="http://www.w3.org/1999/xlink">
    <!-- Generator: Sketch 41.2 (35397) - http://www.bohemiancoding.com/sketch -->
    <title>pin</title>
    <desc>Created with Sketch.</desc>
    <defs></defs>
    <g id="Page-1" stroke="none" stroke-width="1" fill="none" fill-rule="evenodd">
        <g id="Artboard-2" transform="translate(-1637.000000, -234.000000)" fill="#FFA400">
            <g id="pin" transform="translate(1637.000000, 234.000000)">
                <path d="M6.56083402,0 C2.94591495,0 0.0152098765,2.82603704 0.0152098765,6.31181481 C0.0152098765,6.57866667 0.0374101509,6.83874074 0.0712482853,7.09655556 C0.630556927,12.0269259 6.13580247,17.7093704 6.13580247,17.7093704 C6.23389849,17.8152222 6.32846091,17.8805185 6.41952812,17.9277778 L6.42421399,17.930037 L6.60753909,17.9863333 L6.7908642,17.930037 L6.79555007,17.9277778 C6.88661728,17.8804815 6.98121811,17.8118148 7.07927572,17.7093704 C7.07927572,17.7093704 12.5051303,12.0167778 13.051572,7.08533333 C13.0842579,6.83088889 13.1064582,6.57303704 13.1064582,6.3107037 C13.1052675,2.82603704 10.1757531,0 6.56083402,0 Z M6.56083402,10.3718519 C4.23963786,10.3718519 2.35046365,8.55014815 2.35046365,6.31185185 C2.35046365,4.07355556 4.23963786,2.25185185 6.56083402,2.25185185 C8.88203018,2.25185185 10.7700521,4.07355556 10.7700521,6.31185185 C10.7700521,8.55014815 8.88203018,10.3718519 6.56083402,10.3718519 Z" id="Shape"></path>
            </g>
        </g>
    </g>
</svg>