<svg xmlns="http://www.w3.org/2000/svg" width="47" height="52" viewBox="0 0 47 52"><path fill="#e2e5e7" d="M10.29 0A3.28 3.28 0 0 0 7 3.25v45.5A3.28 3.28 0 0 0 10.29 52h32.85a3.28 3.28 0 0 0 3.29-3.25V13L33.29 0z"/><path fill="#b0b7bd" d="M36.29 13h9.85L33 0v9.75A3.28 3.28 0 0 0 36.29 13z"/><path fill="#cad1d8" d="M45.86 22.75L36 13h9.86z"/><path fill="#f15642" d="M39.43 41.88c0 .89-.74 1.62-1.64 1.62H1.64c-.9 0-1.64-.73-1.64-1.62V25.63C0 24.73.74 24 1.64 24h36.15c.9 0 1.64.73 1.64 1.63z"/><path fill="#fff" d="M8.89 30h3.04a3.11 3.11 0 0 1 3.24 3.3c0 2.05-1.53 3.2-3.24 3.2h-2.2v1.71c0 .57-.36.9-.84.9a.89.89 0 0 1-.89-.9V30.9c0-.43.34-.9.89-.9zm.84 1.64v3.23h2.2a1.6 1.6 0 0 0 1.57-1.57c0-.91-.69-1.66-1.57-1.66zM16.89 30h3.04a3.11 3.11 0 0 1 3.24 3.3c0 2.05-1.53 3.2-3.24 3.2h-2.2v1.71c0 .57-.36.9-.84.9a.89.89 0 0 1-.89-.9V30.9c0-.43.34-.9.89-.9zm.84 1.64v3.23h2.2a1.6 1.6 0 0 0 1.57-1.57c0-.91-.69-1.66-1.57-1.66zM28.15 31.66h-2.29c-1.15 0-1.15-1.66 0-1.66h6.21c1.17 0 1.17 1.66 0 1.66h-2.18v6.56c0 1.13-1.74 1.16-1.74 0z"/><path fill="#cad1d8" d="M38.21 43.63H7v1.62h31.21c.91 0 1.65-.73 1.65-1.62V42c0 .89-.74 1.63-1.65 1.63z"/></svg>