<svg xmlns="http://www.w3.org/2000/svg" width="30.15" height="30.15" viewBox="0 0 30.15 30.15"><path fill="#fff" d="M30.08 21.07V10a2.57 2.57 0 0 0-2.61-2.52h-3.14v-5.8c0-.88-.75-1.61-1.68-1.61H7.5C6.58.08 5.83.8 5.83 1.7v5.79H2.69A2.57 2.57 0 0 0 .08 10v11.06a2.58 2.58 0 0 0 2.6 2.53h3.15v4.86c0 .89.75 1.62 1.68 1.62h15.14c.93 0 1.68-.73 1.68-1.62v-4.87h3.14a2.57 2.57 0 0 0 2.6-2.52zM7.08 1.7c0-.22.19-.41.43-.41h15.14c.24 0 .43.19.43.4v5.8h-16zm15.58 27.17H7.5a.42.42 0 0 1-.43-.41V16.15h16v12.3c0 .23-.2.42-.42.42zm4.8-6.5h-3.13v-6.82a.62.62 0 0 0-.63-.61H6.46a.62.62 0 0 0-.63.6v6.84H2.69c-.75 0-1.36-.58-1.36-1.31V10c0-.72.6-1.31 1.36-1.31h24.78c.75 0 1.36.59 1.36 1.3v11.07c0 .73-.61 1.3-1.36 1.3zM4.59 11.07c-.2 0-.4.08-.53.2a.74.74 0 0 0-.22.53c0 .19.08.37.22.5a.75.75 0 0 0 1.06 0 .7.7 0 0 0 .22-.5.74.74 0 0 0-.22-.52.78.78 0 0 0-.53-.21zm5.9 12.43h9.2c.36 0 .65-.32.65-.73 0-.4-.3-.73-.65-.73h-9.2c-.36 0-.65.33-.65.73 0 .4.29.73.65.73zm0 3.66h9.2c.36 0 .65-.32.65-.73s-.3-.73-.65-.73h-9.2c-.36 0-.65.32-.65.73 0 .4.29.73.65.73zm-.65-8.05c0-.4.29-.73.65-.73h9.2c.36 0 .65.33.65.73 0 .4-.3.74-.65.74h-9.2c-.36 0-.65-.33-.65-.74z"/><path fill="none" stroke="#fff" stroke-miterlimit="50" stroke-width=".3" d="M30.08 21.07V10a2.57 2.57 0 0 0-2.61-2.52h-3.14v-5.8c0-.88-.75-1.61-1.68-1.61H7.5C6.58.08 5.83.8 5.83 1.7v5.79H2.69A2.57 2.57 0 0 0 .08 10v11.06a2.58 2.58 0 0 0 2.6 2.53h3.15v4.86c0 .89.75 1.62 1.68 1.62h15.14c.93 0 1.68-.73 1.68-1.62v-4.87h3.14a2.57 2.57 0 0 0 2.6-2.52zM7.08 1.7c0-.22.19-.41.43-.41h15.14c.24 0 .43.19.43.4v5.8h-16zm15.58 27.17H7.5a.42.42 0 0 1-.43-.41V16.15h16v12.3c0 .23-.2.42-.42.42zm4.8-6.5h-3.13v-6.82a.62.62 0 0 0-.63-.61H6.46a.62.62 0 0 0-.63.6v6.84H2.69c-.75 0-1.36-.58-1.36-1.31V10c0-.72.6-1.31 1.36-1.31h24.78c.75 0 1.36.59 1.36 1.3v11.07c0 .73-.61 1.3-1.36 1.3zM4.59 11.07c-.2 0-.4.08-.53.2a.74.74 0 0 0-.22.53c0 .19.08.37.22.5a.75.75 0 0 0 1.06 0 .7.7 0 0 0 .22-.5.74.74 0 0 0-.22-.52.78.78 0 0 0-.53-.21zm5.9 12.43h9.2c.36 0 .65-.32.65-.73 0-.4-.3-.73-.65-.73h-9.2c-.36 0-.65.33-.65.73 0 .4.29.73.65.73zm0 3.66h9.2c.36 0 .65-.32.65-.73s-.3-.73-.65-.73h-9.2c-.36 0-.65.32-.65.73 0 .4.29.73.65.73zm-.65-8.05c0-.4.29-.73.65-.73h9.2c.36 0 .65.33.65.73 0 .4-.3.74-.65.74h-9.2c-.36 0-.65-.33-.65-.74z"/></svg>