<svg xmlns="http://www.w3.org/2000/svg" width="26" height="26" viewBox="0 0 26 26"><path fill="#dce4e6" d="M12.84 1a12 12 0 1 0 .31 24 12 12 0 0 0-.31-24zm-.04 19.3h-.06a1.69 1.69 0 0 1-1.71-1.78 1.7 1.7 0 0 1 1.75-1.71h.06a1.7 1.7 0 0 1 1.73 1.81c-.03.99-.76 1.68-1.77 1.68zm4.3-8.52c-.24.35-.77.77-1.44 1.29l-.73.5c-.4.32-.64.61-.73.9-.08.23-.11.29-.12.75v.12h-2.79v-.24c.04-.97.06-1.54.47-2.02.63-.74 2.02-1.64 2.08-1.68.2-.15.37-.32.5-.5.29-.4.42-.72.42-1.04 0-.43-.13-.83-.38-1.19-.25-.35-.72-.52-1.39-.52-.67 0-1.12.21-1.4.65-.28.44-.42.91-.42 1.39v.12H8.29v-.12c.08-1.77.71-3.04 1.88-3.78a4.92 4.92 0 0 1 2.71-.71c1.39 0 2.57.33 3.5 1 .94.68 1.41 1.69 1.41 3.02 0 .74-.23 1.43-.69 2.06z"/></svg>