<svg xmlns="http://www.w3.org/2000/svg" width="40" height="31" viewBox="0 0 40 31"><path fill="#fff" d="M36.32 2c.73 0 1.33.63 1.33 1.4 0 .77-.6 1.39-1.33 1.39-.72 0-1.32-.62-1.32-1.39 0-.77.6-1.4 1.32-1.4zM28.32 14c.73 0 1.33.63 1.33 1.4 0 .77-.6 1.39-1.33 1.39-.73 0-1.32-.62-1.32-1.39 0-.77.59-1.4 1.32-1.4zM18.32 10c.73 0 1.33.63 1.33 1.4 0 .77-.6 1.39-1.33 1.39-.72 0-1.32-.62-1.32-1.39 0-.77.6-1.4 1.32-1.4z"/><path fill="#7cc990" d="M36.78 0a3.24 3.24 0 0 1 3.15 3.32 3.23 3.23 0 0 1-3.15 3.31c-.24 0-.48-.03-.71-.08l-4.69 7.32c.36.54.58 1.2.58 1.91a3.24 3.24 0 0 1-3.15 3.32 3.25 3.25 0 0 1-3.15-3.32l.01-.2-4.82-2.05a3.08 3.08 0 0 1-3.48 1.12l-3.85 5.77c.48.59.77 1.35.77 2.18a3.24 3.24 0 0 1-3.14 3.32A3.24 3.24 0 0 1 8 22.6a3.24 3.24 0 0 1 3.15-3.32c.28 0 .56.04.82.12l3.92-5.86a3.36 3.36 0 0 1-.67-2.03 3.24 3.24 0 0 1 3.14-3.32 3.24 3.24 0 0 1 3.15 3.32l-.01.22 4.81 2.04a3.1 3.1 0 0 1 3.63-1.08l4.55-7.11a3.38 3.38 0 0 1-.85-2.26A3.24 3.24 0 0 1 36.78 0zm1.33 3.32c0-.77-.6-1.4-1.33-1.4-.73 0-1.32.63-1.32 1.4 0 .77.59 1.39 1.32 1.39.73 0 1.33-.62 1.33-1.39zm-7.98 12.46c0-.77-.59-1.39-1.32-1.39-.73 0-1.32.62-1.32 1.39 0 .77.59 1.4 1.32 1.4.73 0 1.32-.63 1.32-1.4zm-10.44-4.27c0-.77-.6-1.4-1.33-1.4-.72 0-1.32.63-1.32 1.4 0 .77.6 1.39 1.32 1.39.73 0 1.33-.62 1.33-1.39zM12.47 22.6c0-.77-.59-1.4-1.32-1.4-.73 0-1.33.63-1.33 1.4 0 .77.6 1.39 1.33 1.39.73 0 1.32-.62 1.32-1.39z"/><path fill="#fff" d="M11.32 21c.73 0 1.33.63 1.33 1.39 0 .77-.6 1.4-1.33 1.4-.73 0-1.32-.63-1.32-1.4 0-.76.59-1.39 1.32-1.39z"/><path fill="#ddd" d="M0 31v-2h40v2z"/></svg>