<?xml version="1.0" encoding="UTF-8"?>
<svg width="40px" height="40px" viewBox="0 0 40 40" version="1.1" xmlns="http://www.w3.org/2000/svg" xmlns:xlink="http://www.w3.org/1999/xlink">
    <!-- Generator: Sketch 41.2 (35397) - http://www.bohemiancoding.com/sketch -->
    <title>Group 35</title>
    <desc>Created with Sketch.</desc>
    <defs></defs>
    <g id="Page-1" stroke="none" stroke-width="1" fill="none" fill-rule="evenodd">
        <g id="Artboard-2" transform="translate(-610.000000, -1442.000000)">
            <g id="Group-35" transform="translate(610.000000, 1442.000000)">
                <g id="Group-24" transform="translate(0.000000, 6.000000)">
                    <g id="Group-22" transform="translate(8.000000, 0.000000)">
                        <g id="Group-23">
                            <path d="M28.782173,1.92608 C29.5129689,1.92608 30.1054671,2.55181333 30.1054671,3.32187556 C30.1054671,4.09193778 29.5129689,4.71767111 28.782173,4.71767111 C28.0549204,4.71767111 27.4588789,4.09193778 27.4588789,3.32187556 C27.4588789,2.55181333 28.0549204,1.92608 28.782173,1.92608 Z" id="Shape" fill="#FFFFFF"></path>
                            <path d="M20.8106298,14.3919822 C21.5378824,14.3919822 22.1339239,15.0177156 22.1339239,15.7877778 C22.1339239,16.55784 21.5378824,17.1835733 20.8106298,17.1835733 C20.0798339,17.1835733 19.4873356,16.55784 19.4873356,15.7877778 C19.4873356,15.0177156 20.0798339,14.3919822 20.8106298,14.3919822 Z" id="Shape" fill="#FFFFFF"></path>
                            <path d="M10.3626851,10.1157333 C11.093481,10.1157333 11.6859792,10.7414667 11.6859792,11.5115289 C11.6859792,12.2815911 11.093481,12.9073244 10.3626851,12.9073244 C9.63543253,12.9073244 9.039391,12.2815911 9.039391,11.5115289 C9.039391,10.7414667 9.63543253,10.1157333 10.3626851,10.1157333 Z" id="Shape" fill="#FFFFFF"></path>
                            <path d="M28.782173,0.00450666667 C30.5169273,0.00450666667 31.9289135,1.49286222 31.9289135,3.32187556 C31.9289135,5.15088889 30.5169273,6.63924444 28.782173,6.63924444 C28.5373564,6.63924444 28.3032803,6.60596444 28.0726367,6.55038222 L23.379045,13.8774133 C23.7408997,14.4179822 23.9572595,15.0769956 23.9572595,15.7878933 C23.9572595,17.6169067 22.5452734,19.1052622 20.810519,19.1052622 C19.0757647,19.1052622 17.6637785,17.6169067 17.6637785,15.7878933 C17.6637785,15.71752 17.6708651,15.65096 17.6744083,15.5805867 L12.8496055,13.5368711 C12.2749343,14.3217244 11.3737301,14.8290133 10.3626851,14.8290133 C10.0185467,14.8290133 9.68503806,14.7697333 9.37289965,14.6586844 L5.51662284,20.4269867 C5.99905882,21.0119289 6.2935917,21.7708978 6.2935917,22.60024 C6.2935917,24.4329511 4.88160554,25.9213067 3.14685121,25.9213067 C1.41209689,25.9213067 0,24.4328356 0,22.6001244 C0,20.7711111 1.41198616,19.2827556 3.14674048,19.2827556 C3.43407612,19.2827556 3.70723875,19.3271289 3.96977163,19.4048978 L7.88639446,13.5477333 C7.46773702,12.9849778 7.21583391,12.2814756 7.21583391,11.5114133 C7.21583391,9.6824 8.62782007,8.19404444 10.3625744,8.19404444 C12.0973287,8.19404444 13.5093149,9.6824 13.5093149,11.5114133 C13.5093149,11.5891822 13.5022284,11.6632533 13.4986851,11.7372089 L18.3128581,13.7772267 C18.8875294,12.9848622 19.7922768,12.4702933 20.8104083,12.4702933 C21.2076955,12.4702933 21.5873772,12.55176 21.9350588,12.6923911 L26.4902422,5.58757333 C25.9616332,4.99153778 25.6352111,4.19917333 25.6352111,3.32176 C25.6354325,1.49286222 27.0474187,0.00450666667 28.782173,0.00450666667 Z M30.1054671,3.32187556 C30.1054671,2.55181333 29.5129689,1.92608 28.782173,1.92608 C28.0549204,1.92608 27.4588789,2.55181333 27.4588789,3.32187556 C27.4588789,4.09193778 28.0549204,4.71767111 28.782173,4.71767111 C29.5130796,4.71767111 30.1054671,4.09193778 30.1054671,3.32187556 Z M22.1339239,15.7877778 C22.1339239,15.0177156 21.5378824,14.3919822 20.8106298,14.3919822 C20.0798339,14.3919822 19.4873356,15.0177156 19.4873356,15.7877778 C19.4873356,16.55784 20.0798339,17.1835733 20.8106298,17.1835733 C21.5378824,17.1835733 22.1339239,16.55784 22.1339239,15.7877778 Z M11.6859792,11.5115289 C11.6859792,10.7414667 11.093481,10.1157333 10.3626851,10.1157333 C9.63543253,10.1157333 9.039391,10.7414667 9.039391,11.5115289 C9.039391,12.2815911 9.63543253,12.9073244 10.3626851,12.9073244 C11.0935917,12.9073244 11.6859792,12.2815911 11.6859792,11.5115289 Z M4.4700346,22.6001244 C4.4700346,21.83376 3.87753633,21.2080267 3.14674048,21.2080267 C2.41594464,21.2080267 1.82344637,21.83376 1.82344637,22.6001244 C1.82344637,23.3701867 2.41594464,23.99592 3.14674048,23.99592 C3.87753633,23.99592 4.4700346,23.3701867 4.4700346,22.6001244 Z" id="Shape" fill="#7CC990"></path>
                            <path d="M3.14674048,21.2080267 C3.87753633,21.2080267 4.4700346,21.83376 4.4700346,22.6001244 C4.4700346,23.3701867 3.87753633,23.99592 3.14674048,23.99592 C2.41594464,23.99592 1.82344637,23.3701867 1.82344637,22.6001244 C1.82344637,21.83376 2.41594464,21.2080267 3.14674048,21.2080267 Z" id="Shape" fill="#FFFFFF"></path>
                        </g>
                    </g>
                    <rect id="Rectangle-11" fill="#DDDDDD" x="0" y="29" width="40" height="2"></rect>
                </g>
                <rect id="Rectangle-11" fill="#DDDDDD" transform="translate(4.000000, 20.000000) rotate(-90.000000) translate(-4.000000, -20.000000) " x="-16" y="19" width="40" height="2"></rect>
            </g>
        </g>
    </g>
</svg>