<?xml version="1.0" encoding="utf-8"?>
<!-- Generator: Adobe Illustrator 19.0.0, SVG Export Plug-In . SVG Version: 6.00 Build 0)  -->
<svg version="1.1" id="Шар_1" xmlns="http://www.w3.org/2000/svg" xmlns:xlink="http://www.w3.org/1999/xlink" x="0px" y="0px"
	 viewBox="0 0 68 12" style="enable-background:new 0 0 68 12;" xml:space="preserve">
<style type="text/css">
	.st0{fill:#F6A217;}
</style>
<g id="Page-1">
	<g id="Artboard-2" transform="translate(-1539.000000, -415.000000)">
		<path id="Shape" class="st0" d="M1545.6,415.4l1.4,2.9c0.1,0.2,0.3,0.3,0.5,0.4l3,0.5c0.5,0.1,0.7,0.8,0.4,1.2l-2.2,2.2
			c-0.2,0.2-0.2,0.4-0.2,0.6l0.5,3.2c0.1,0.6-0.5,1-0.9,0.7l-2.7-1.5c-0.2-0.1-0.4-0.1-0.6,0l-2.7,1.5c-0.5,0.3-1-0.2-0.9-0.7
			l0.5-3.2c0-0.2,0-0.4-0.2-0.6l-2.2-2.2c-0.4-0.4-0.2-1.1,0.4-1.2l3-0.5c0.2,0,0.4-0.2,0.5-0.4l1.4-2.9
			C1544.7,414.9,1545.3,414.9,1545.6,415.4z"/>
	</g>
</g>
<g id="Page-1_1_">
	<g id="Artboard-2_1_" transform="translate(-1539.000000, -415.000000)">
		<path id="Shape_1_" class="st0" d="M1559.3,415.4l1.4,2.9c0.1,0.2,0.3,0.3,0.5,0.4l3,0.5c0.5,0.1,0.7,0.8,0.4,1.2l-2.2,2.2
			c-0.2,0.2-0.2,0.4-0.2,0.6l0.5,3.2c0.1,0.6-0.5,1-0.9,0.7l-2.7-1.5c-0.2-0.1-0.4-0.1-0.6,0l-2.7,1.5c-0.5,0.3-1-0.2-0.9-0.7
			l0.5-3.2c0-0.2,0-0.4-0.2-0.6l-2.2-2.2c-0.4-0.4-0.2-1.1,0.4-1.2l3-0.5c0.2,0,0.4-0.2,0.5-0.4l1.4-2.9
			C1558.4,414.9,1559.1,414.9,1559.3,415.4z"/>
	</g>
</g>
<g id="Page-1_2_">
	<g id="Artboard-2_2_" transform="translate(-1539.000000, -415.000000)">
		<path id="Shape_2_" class="st0" d="M1573.2,415.4l1.4,2.9c0.1,0.2,0.3,0.3,0.5,0.4l3,0.5c0.5,0.1,0.7,0.8,0.4,1.2l-2.2,2.2
			c-0.2,0.2-0.2,0.4-0.2,0.6l0.5,3.2c0.1,0.6-0.5,1-0.9,0.7l-2.7-1.5c-0.2-0.1-0.4-0.1-0.6,0l-2.7,1.5c-0.5,0.3-1-0.2-0.9-0.7
			l0.5-3.2c0-0.2,0-0.4-0.2-0.6l-2.2-2.2c-0.4-0.4-0.2-1.1,0.4-1.2l3-0.5c0.2,0,0.4-0.2,0.5-0.4l1.4-2.9
			C1572.3,414.9,1573,414.9,1573.2,415.4z"/>
	</g>
</g>
<g id="Page-1_3_">
	<g id="Artboard-2_3_" transform="translate(-1539.000000, -415.000000)">
		<path id="Shape_3_" class="st0" d="M1587.5,415.4l1.4,2.9c0.1,0.2,0.3,0.3,0.5,0.4l3,0.5c0.5,0.1,0.7,0.8,0.4,1.2l-2.2,2.2
			c-0.2,0.2-0.2,0.4-0.2,0.6l0.5,3.2c0.1,0.6-0.5,1-0.9,0.7l-2.7-1.5c-0.2-0.1-0.4-0.1-0.6,0l-2.7,1.5c-0.5,0.3-1-0.2-0.9-0.7
			l0.5-3.2c0-0.2,0-0.4-0.2-0.6l-2.2-2.2c-0.4-0.4-0.2-1.1,0.4-1.2l3-0.5c0.2,0,0.4-0.2,0.5-0.4l1.4-2.9
			C1586.6,414.9,1587.3,414.9,1587.5,415.4z"/>
	</g>
</g>
<g id="Page-1_4_">
	<g id="Artboard-2_4_" transform="translate(-1539.000000, -415.000000)">
		<path id="Shape_4_" class="st0" d="M1601.6,415.4l1.4,2.9c0.1,0.2,0.3,0.3,0.5,0.4l3,0.5c0.5,0.1,0.7,0.8,0.4,1.2l-2.2,2.2
			c-0.2,0.2-0.2,0.4-0.2,0.6l0.5,3.2c0.1,0.6-0.5,1-0.9,0.7l-2.7-1.5c-0.2-0.1-0.4-0.1-0.6,0l-2.7,1.5c-0.5,0.3-1-0.2-0.9-0.7
			l0.5-3.2c0-0.2,0-0.4-0.2-0.6l-2.2-2.2c-0.4-0.4-0.2-1.1,0.4-1.2l3-0.5c0.2,0,0.4-0.2,0.5-0.4l1.4-2.9
			C1600.7,414.9,1601.3,414.9,1601.6,415.4z"/>
	</g>
</g>
</svg>
