<?xml version="1.0" encoding="UTF-8"?>
<svg width="33px" height="34px" viewBox="0 0 33 34" version="1.1" xmlns="http://www.w3.org/2000/svg" xmlns:xlink="http://www.w3.org/1999/xlink">
    <!-- Generator: Sketch 41.2 (35397) - http://www.bohemiancoding.com/sketch -->
    <title>Group 17</title>
    <desc>Created with Sketch.</desc>
    <defs></defs>
    <g id="Page-1" stroke="none" stroke-width="1" fill="none" fill-rule="evenodd">
        <g id="Artboard-2" transform="translate(-338.000000, -1148.000000)" fill="#fff">
            <g id="Group-17" transform="translate(338.000000, 1148.000000)">
                <path d="M32.0096131,23.1145964 C32.7053199,22.2258469 33.0389752,21.2731075 32.9963809,20.2919281 C32.9537866,19.2112087 32.4710513,18.3651192 32.0735045,17.8460895 C32.5349427,16.6942702 32.712419,14.8812212 31.1719253,13.4734421 C30.0431764,12.4424927 28.1264331,11.980343 25.4713887,12.1083229 C23.6043388,12.1936428 22.0425479,12.5420326 21.9786565,12.5562526 L21.9715574,12.5562526 C21.616605,12.6202426 21.2403554,12.6984525 20.8570067,12.7837725 C20.8286105,12.3287327 20.9067,11.1982434 21.7443879,8.65286491 C22.7382548,5.62400669 22.6814624,3.30614806 21.5598126,1.75616897 C20.3813704,0.127979925 18.5001224,0 17.9463965,0 C17.4139678,0 16.9241334,0.22040987 16.57628,0.625679632 C15.7882855,1.54286909 15.8805732,3.2350481 15.9799599,4.01714764 C15.0428854,6.53408616 12.4162371,12.7055625 10.1942347,14.4190715 C10.1516404,14.4475115 10.1161452,14.4830615 10.0806499,14.5186115 C9.42753741,15.2082811 8.98739635,15.9548306 8.68923628,16.6089502 C8.27039238,16.3814304 7.79475608,16.2534504 7.28362453,16.2534504 L2.95320449,16.2534504 C1.32042316,16.2534504 0,17.5830197 0,19.2112087 L0,30.7649519 C0,32.4002509 1.32752221,33.7227102 2.95320449,33.7227102 L7.28362453,33.7227102 C7.91543992,33.7227102 8.504661,33.5236303 8.98739635,33.1823505 L10.6556729,33.3814304 C10.9112387,33.4169803 15.4546302,33.99289 20.1187056,33.9004601 C20.9634924,33.96445 21.758586,34 22.4968871,34 C23.7676169,34 24.8750686,33.9004601 25.797945,33.7013802 C27.9702541,33.2392304 29.4539553,32.314931 30.2064546,30.9569218 C30.7814776,29.9188624 30.7814776,28.887913 30.6891899,28.2337934 C32.1019007,26.9539941 32.3503674,25.539105 32.3006741,24.5437056 C32.2722779,23.9677959 32.144495,23.4772062 32.0096131,23.1145964 Z M2.95320449,31.8030113 C2.3781815,31.8030113 1.9167433,31.3337516 1.9167433,30.7649519 L1.9167433,19.2040987 C1.9167433,18.628189 2.38528055,18.1660393 2.95320449,18.1660393 L7.28362453,18.1660393 C7.85864752,18.1660393 8.32008572,18.635299 8.32008572,19.2040987 L8.32008572,30.7578419 C8.32008572,31.3337516 7.85154847,31.7959013 7.28362453,31.7959013 L2.95320449,31.7959013 L2.95320449,31.8030113 L2.95320449,31.8030113 Z M30.1922565,22.2827269 C29.8940964,22.5955667 29.837304,23.0719364 30.0644736,23.4416562 C30.0644736,23.4487662 30.3555346,23.9464659 30.3910298,24.6290255 C30.4407232,25.560435 29.9934831,26.3851945 29.0564086,27.0890841 C28.7227533,27.3450439 28.5878713,27.7858637 28.7298523,28.1840234 C28.7298523,28.1911334 29.0351114,29.1296529 28.538178,30.0184023 C28.0625417,30.8716018 27.0047834,31.4830615 25.4003982,31.8243413 C24.1154703,32.1016311 22.3691042,32.1514011 20.2251913,31.9807612 L20.1258046,31.9807612 C15.561116,32.0803011 10.9467339,31.4830615 10.8970406,31.4759515 L10.8899416,31.4759515 L10.1729376,31.3906315 C10.2155319,31.1915517 10.236829,30.9782518 10.236829,30.7649519 L10.236829,19.2040987 C10.236829,18.8983689 10.1871357,18.5997491 10.1019471,18.3224592 C10.22973,17.8460895 10.5846824,16.7867001 11.4223702,15.8837307 C14.6098434,13.3525721 17.726326,4.81346717 17.8612079,4.44374739 C17.9180003,4.29443747 17.9321984,4.13090757 17.9038022,3.96737767 C17.7831184,3.17105813 17.8257127,2.19698871 17.9960899,1.90547888 C18.3723395,1.91258887 19.3875035,2.01923881 19.9980217,2.86532831 C20.7221248,3.86783772 20.6937286,5.65955667 19.9128332,8.03429527 C18.7201929,11.6532831 18.6208062,13.558762 19.5649797,14.3977415 C20.033517,14.8172313 20.6582333,14.8385613 21.1125725,14.6750314 C21.5456145,14.5754914 21.9573593,14.4901715 22.347807,14.4261815 C22.3762032,14.4190715 22.4116985,14.4119615 22.4400947,14.4048515 C24.6195028,13.9284818 28.5239799,13.636972 29.8798983,14.8741113 C31.0299443,15.9263906 30.2135536,17.3199498 30.121266,17.4692597 C29.8586012,17.8674195 29.9366907,18.3864492 30.2916432,18.706399 C30.2987422,18.713509 31.0441424,19.4173986 31.0796376,20.363028 C31.1080338,20.9958176 30.8098738,21.6428273 30.1922565,22.2827269 Z" id="Shape"></path>
            </g>
        </g>
    </g>
</svg>