<svg xmlns="http://www.w3.org/2000/svg" width="41" height="26" viewBox="0 0 41 26"><path fill="#ffa400" d="M40.11 12.04H16.03l5.96-6.4c.35-.38.35-.98 0-1.36a.85.85 0 0 0-1.26 0l-7.47 8.04c-.35.38-.35.98 0 1.36l7.48 8.04c.17.18.4.28.63.28a.9.9 0 0 0 .63-.28 1 1 0 0 0 0-1.35l-5.97-6.41h24.08c.49 0 .89-.43.89-.96s-.4-.96-.89-.96zM1 0C.73 0 .48.1.29.28a.94.94 0 0 0 0 1.36 1.01 1.01 0 0 0 1.42 0 .94.94 0 0 0 0-1.36A1 1 0 0 0 1 0zM1 4c-.27 0-.52.1-.71.28a.94.94 0 0 0 0 1.36 1.01 1.01 0 0 0 1.42 0 .94.94 0 0 0 0-1.36A1 1 0 0 0 1 4zM1 8c-.27 0-.52.1-.71.28a.94.94 0 0 0 0 1.36 1.01 1.01 0 0 0 1.42 0 .94.94 0 0 0 0-1.36A1 1 0 0 0 1 8zM1 12c-.27 0-.52.1-.71.28a.94.94 0 0 0 0 1.36 1.01 1.01 0 0 0 1.42 0 .94.94 0 0 0 0-1.36A1 1 0 0 0 1 12zM1 16c-.27 0-.52.1-.71.28a.94.94 0 0 0 0 1.36 1.01 1.01 0 0 0 1.42 0 .94.94 0 0 0 0-1.36A1 1 0 0 0 1 16zM1 20c-.27 0-.52.1-.71.28a.94.94 0 0 0 0 1.36 1.01 1.01 0 0 0 1.42 0 .94.94 0 0 0 0-1.36A1 1 0 0 0 1 20zM1 24c-.27 0-.52.1-.71.28a.94.94 0 0 0 0 1.36 1.01 1.01 0 0 0 1.42 0 .94.94 0 0 0 0-1.36A1 1 0 0 0 1 24z"/></svg>