<?xml version="1.0" encoding="UTF-8"?>
<svg width="16px" height="20px" viewBox="0 0 16 20" version="1.1" xmlns="http://www.w3.org/2000/svg" xmlns:xlink="http://www.w3.org/1999/xlink">
    <!-- Generator: Sketch 41.2 (35397) - http://www.bohemiancoding.com/sketch -->
    <title>rouble</title>
    <desc>Created with Sketch.</desc>
    <defs></defs>
    <g id="Page-1" stroke="none" stroke-width="1" fill="none" fill-rule="evenodd">
        <g id="Basket-Copy" transform="translate(-1758.000000, -125.000000)" fill="#FF6D54">
            <path d="M1767.38667,135.769231 C1771.6,135.769231 1774,133.666667 1774,129.974359 C1774,126.641026 1771.86667,125 1767.38667,125 L1762.8,125 C1762.37333,125 1762,125.358974 1762,125.769231 L1762,134.230769 L1758.8,134.230769 C1758.37333,134.230769 1758,134.589744 1758,135 C1758,135.410256 1758.37333,135.769231 1758.8,135.769231 L1762,135.769231 L1762,138.076923 L1758.8,138.076923 C1758.37333,138.076923 1758,138.435897 1758,138.846154 C1758,139.25641 1758.37333,139.615385 1758.8,139.615385 L1762,139.615385 L1762,144.230769 C1762,144.641026 1762.37333,145 1762.8,145 C1763.22667,145 1763.6,144.641026 1763.6,144.230769 L1763.6,139.615385 L1770,139.615385 C1770.42667,139.615385 1770.8,139.25641 1770.8,138.846154 C1770.8,138.435897 1770.42667,138.076923 1770,138.076923 L1763.6,138.076923 L1763.6,135.769231 L1767.38667,135.769231 Z M1763.6,126.538462 L1767.38667,126.538462 C1771.54667,126.538462 1772.4,127.923077 1772.4,129.974359 C1772.4,132.794872 1770.74667,134.230769 1767.38667,134.230769 L1763.6,134.230769 L1763.6,126.538462 Z" id="rouble"></path>
        </g>
    </g>
</svg>