<svg xmlns="http://www.w3.org/2000/svg" width="22" height="24" viewBox="0 0 22 24"><defs><clipPath id="a"><path fill="#fff" d="M280 896a1 1 0 0 1 1-1h20a1 1 0 0 1 1 1v22a1 1 0 0 1-1 1h-20a1 1 0 0 1-1-1z"/></clipPath><clipPath id="b"><path fill="#fff" d="M284 900a1 1 0 0 1 1-1h4a1 1 0 0 1 1 1v5a1 1 0 0 1-1 1h-4a1 1 0 0 1-1-1z"/></clipPath><clipPath id="c"><path fill="#fff" d="M284 909a1 1 0 0 1 1-1h4a1 1 0 0 1 1 1v5a1 1 0 0 1-1 1h-4a1 1 0 0 1-1-1z"/></clipPath><clipPath id="d"><path fill="#fff" d="M292 900a1 1 0 0 1 1-1h4a1 1 0 0 1 1 1v5a1 1 0 0 1-1 1h-4a1 1 0 0 1-1-1z"/></clipPath><clipPath id="e"><path fill="#fff" d="M292 909a1 1 0 0 1 1-1h4a1 1 0 0 1 1 1v5a1 1 0 0 1-1 1h-4a1 1 0 0 1-1-1z"/></clipPath></defs><path fill="none" stroke="#3d8eb9" stroke-miterlimit="50" stroke-width="3" d="M280 896a1 1 0 0 1 1-1h20a1 1 0 0 1 1 1v22a1 1 0 0 1-1 1h-20a1 1 0 0 1-1-1z" clip-path="url(&quot;#a&quot;)" transform="translate(-280 -895)"/><path fill="none" stroke="#3d8eb9" stroke-miterlimit="50" stroke-width="3" d="M284 900a1 1 0 0 1 1-1h4a1 1 0 0 1 1 1v5a1 1 0 0 1-1 1h-4a1 1 0 0 1-1-1z" clip-path="url(&quot;#b&quot;)" transform="translate(-280 -895)"/><path fill="none" stroke="#3d8eb9" stroke-miterlimit="50" stroke-width="3" d="M284 909a1 1 0 0 1 1-1h4a1 1 0 0 1 1 1v5a1 1 0 0 1-1 1h-4a1 1 0 0 1-1-1z" clip-path="url(&quot;#c&quot;)" transform="translate(-280 -895)"/><path fill="none" stroke="#3d8eb9" stroke-miterlimit="50" stroke-width="3" d="M292 900a1 1 0 0 1 1-1h4a1 1 0 0 1 1 1v5a1 1 0 0 1-1 1h-4a1 1 0 0 1-1-1z" clip-path="url(&quot;#d&quot;)" transform="translate(-280 -895)"/><path fill="none" stroke="#3d8eb9" stroke-miterlimit="50" stroke-width="3" d="M292 909a1 1 0 0 1 1-1h4a1 1 0 0 1 1 1v5a1 1 0 0 1-1 1h-4a1 1 0 0 1-1-1z" clip-path="url(&quot;#e&quot;)" transform="translate(-280 -895)"/></svg>