<?xml version="1.0" encoding="UTF-8"?>
<svg width="60px" height="60px" viewBox="0 0 60 60" version="1.1" xmlns="http://www.w3.org/2000/svg" xmlns:xlink="http://www.w3.org/1999/xlink">
    <!-- Generator: Sketch 41.2 (35397) - http://www.bohemiancoding.com/sketch -->
    <title>Group 32</title>
    <desc>Created with Sketch.</desc>
    <defs>
        <polygon id="path-1" points="0.0087804878 0.248759124 0.0087804878 60 53.946878 60 53.946878 0.248759124"></polygon>
        <polygon id="path-3" points="0.0087804878 53.0235036 59.9411713 53.0235036 59.9411713 8.17678832 0.0087804878 8.17678832"></polygon>
    </defs>
    <g id="Page-1" stroke="none" stroke-width="1" fill="none" fill-rule="evenodd">
        <g id="Artboard-2" transform="translate(-930.000000, -2731.000000)">
            <g id="Group-32" transform="translate(930.000000, 2731.000000)">
                <g id="Group-18">
                    <mask id="mask-2" fill="white">
                        <use xlink:href="#path-1"></use>
                    </mask>
                    <g id="Clip-2"></g>
                    <path d="M10.9893659,30.1020438 L6.99292683,30.1020438 C6.44078049,30.1020438 5.99429268,30.5484672 5.99429268,31.0988321 L5.99429268,33.0918248 C5.99429268,33.6427737 6.44078049,34.0886131 6.99292683,34.0886131 C7.54565854,34.0886131 7.99214634,33.6427737 7.99214634,33.0918248 L7.99214634,32.0950365 L9.99014634,32.0950365 L9.99014634,37.0785401 C9.99014634,37.6293431 10.4364878,38.0747445 10.9893659,38.0747445 C11.5415122,38.0747445 11.988,37.6293431 11.988,37.0785401 L11.988,31.0988321 C11.9885854,30.5484672 11.5415122,30.1020438 10.9893659,30.1020438 Z" id="Fill-1" fill="#599FC9" mask="url(#mask-2)"></path>
                    <path d="M26.3860976,4.00029197 L27.5287317,4.82832117 L27.0594146,6.13474453 C26.9244878,6.51051095 27.0275122,6.92919708 27.3201951,7.20116788 C27.5082439,7.37562044 27.7517561,7.46744526 27.9998049,7.46744526 C28.1364878,7.46744526 28.2753659,7.44058394 28.4051707,7.38189781 L30.0086341,6.67313869 L31.578878,7.37956204 C31.943561,7.54437956 32.3672195,7.47547445 32.6620976,7.20861314 C32.9565366,6.94116788 33.0645366,6.52481752 32.9359024,6.14905109 L32.4929268,4.85912409 L33.5961951,3.96948905 C33.9260488,3.70321168 34.0507317,3.25956204 33.9089268,2.86087591 C33.7677073,2.46350365 33.3916098,2.19766423 32.9679512,2.19766423 L31.5869268,2.19766423 L30.8637073,0.755474453 C30.5253659,0.0798540146 29.4163902,0.0798540146 29.0767317,0.755474453 L28.3542439,2.19766423 L26.9736585,2.19766423 C26.5403415,2.19766423 26.1573659,2.47547445 26.0236098,2.8859854 C25.8898537,3.29664234 26.0356098,3.74715328 26.3860976,4.00029197 Z" id="Fill-3" fill="#599FC9" mask="url(#mask-2)"></path>
                    <path d="M4.99507317,36.0817518 C0.057804878,36.0817518 0,48.9078832 0,49.0373723 C0,51.4443796 1.7195122,53.4562044 3.99585366,53.919854 L3.99585366,59.0036496 C3.99585366,59.5545985 4.44278049,60 4.99507317,60 C5.54721951,60 5.99429268,59.5545985 5.99429268,59.0036496 L5.99429268,53.919854 C8.27063415,53.4562044 9.99014634,51.4443796 9.99014634,49.0373723 C9.99014634,48.9078832 9.93234146,36.0817518 4.99507317,36.0817518 Z M4.99507317,52.0271533 C3.34302439,52.0271533 1.99785366,50.6865693 1.99785366,49.0373723 C1.99785366,44.0721168 3.33497561,38.0747445 4.99507317,38.0747445 C6.65560976,38.0747445 7.99214634,44.0721168 7.99214634,49.0373723 C7.99214634,50.6865693 6.64770732,52.0271533 4.99507317,52.0271533 Z" id="Fill-4" fill="#599FC9" mask="url(#mask-2)"></path>
                    <path d="M17.3951707,4.00029197 L18.5379512,4.82832117 L18.0680488,6.13474453 C17.933122,6.51051095 18.036,6.92919708 18.3286829,7.20116788 C18.5167317,7.37562044 18.7602439,7.46744526 19.008439,7.46744526 C19.1449756,7.46744526 19.2838537,7.44058394 19.4142439,7.38189781 L21.0177073,6.67313869 L22.5880976,7.37956204 C22.9516098,7.54437956 23.376878,7.47547445 23.6707317,7.20861314 C23.9657561,6.94116788 24.0731707,6.52481752 23.9445366,6.14905109 L23.5021463,4.85912409 L24.6048293,3.96948905 C24.9346829,3.70321168 25.0592195,3.25956204 24.917561,2.86087591 C24.7769268,2.46350365 24.4000976,2.19766423 23.9765854,2.19766423 L22.596,2.19766423 L21.8729268,0.755474453 C21.5338537,0.0798540146 20.424878,0.0798540146 20.0853659,0.755474453 L19.3627317,2.19766423 L17.9822927,2.19766423 C17.5489756,2.19766423 17.166,2.47547445 17.0322439,2.8859854 C16.8984878,3.29664234 17.0442439,3.74715328 17.3951707,4.00029197 Z" id="Fill-5" fill="#599FC9" mask="url(#mask-2)"></path>
                    <path d="M36.3766829,4.00029197 L37.5194634,4.82832117 L37.049561,6.13474453 C36.9152195,6.51051095 37.0180976,6.92919708 37.3107805,7.20116788 C37.4982439,7.37562044 37.7417561,7.46744526 37.9899512,7.46744526 C38.1264878,7.46744526 38.2653659,7.44058394 38.3957561,7.38189781 L39.9992195,6.67313869 L41.5696098,7.37956204 C41.9342927,7.54437956 42.3583902,7.47547445 42.6522439,7.20861314 C42.9472683,6.94116788 43.0546829,6.52481752 42.9260488,6.14905109 L42.4836585,4.85912409 L43.5863415,3.96948905 C43.9161951,3.70321168 44.0407317,3.25956204 43.8990732,2.86087591 C43.758439,2.46350365 43.3816098,2.19766423 42.9580976,2.19766423 L41.5775122,2.19766423 L40.8538537,0.755474453 C40.5153659,0.0798540146 39.4063902,0.0798540146 39.066878,0.755474453 L38.3443902,2.19766423 L36.9638049,2.19766423 C36.5304878,2.19766423 36.1475122,2.47547445 36.0137561,2.8859854 C35.88,3.29664234 36.0257561,3.74715328 36.3766829,4.00029197 Z" id="Fill-6" fill="#599FC9" mask="url(#mask-2)"></path>
                    <path d="M7.40458537,4.00029197 L8.54780488,4.82832117 L8.07790244,6.13474453 C7.94297561,6.51051095 8.04585366,6.92919708 8.33853659,7.20116788 C8.52673171,7.37562044 8.7702439,7.46744526 9.01829268,7.46744526 C9.15497561,7.46744526 9.29385366,7.44058394 9.42365854,7.38189781 L11.027122,6.67313869 L12.5979512,7.37956204 C12.9614634,7.54437956 13.386878,7.47547445 13.6805854,7.20861314 C13.9750244,6.94116788 14.0830244,6.52481752 13.9543902,6.14905109 L13.512,4.85912409 L14.6146829,3.96948905 C14.9445366,3.70321168 15.0692195,3.25956204 14.9274146,2.86087591 C14.7867805,2.46350365 14.4100976,2.19766423 13.986439,2.19766423 L12.606,2.19766423 L11.8821951,0.755474453 C11.5438537,0.0798540146 10.434878,0.0798540146 10.0952195,0.755474453 L9.37273171,2.19766423 L7.99214634,2.19766423 C7.55882927,2.19766423 7.17585366,2.47547445 7.04209756,2.8859854 C6.90834146,3.29664234 7.05409756,3.74715328 7.40458537,4.00029197 Z" id="Fill-7" fill="#599FC9" mask="url(#mask-2)"></path>
                    <path d="M46.3668293,4.00029197 L47.5094634,4.82832117 L47.0401463,6.13474453 C46.9053659,6.51051095 47.0082439,6.92919708 47.3009268,7.20116788 C47.4883902,7.37562044 47.7324878,7.46744526 47.9799512,7.46744526 C48.1172195,7.46744526 48.2555122,7.44058394 48.3859024,7.38189781 L49.9893659,6.67313869 L51.5596098,7.37956204 C51.9242927,7.54437956 52.3485366,7.47547445 52.6423902,7.20861314 C52.9372683,6.94116788 53.0448293,6.52481752 52.9161951,6.14905109 L52.4736585,4.85912409 L53.5763415,3.96948905 C53.9061951,3.70321168 54.030878,3.25956204 53.8890732,2.86087591 C53.748439,2.46350365 53.3717561,2.19766423 52.9480976,2.19766423 L51.5676585,2.19766423 L50.8445854,0.755474453 C50.5055122,0.0798540146 49.3965366,0.0798540146 49.0570244,0.755474453 L48.3349756,2.19766423 L46.9539512,2.19766423 C46.5206341,2.19766423 46.1375122,2.47547445 46.0037561,2.8859854 C45.87,3.29664234 46.0157561,3.74715328 46.3668293,4.00029197 Z" id="Fill-8" fill="#599FC9" mask="url(#mask-2)"></path>
                    <path d="M56.9445366,54.020292 C56.7714146,54.020292 56.5999024,54.0350365 56.4305854,54.0652555 C55.7423415,52.8272993 54.4287805,52.0271533 52.9480976,52.0271533 C51.467561,52.0271533 50.154,52.8272993 49.4657561,54.0652555 C49.2970244,54.0350365 49.1250732,54.020292 48.9523902,54.020292 C47.2997561,54.020292 45.9551707,55.3614599 45.9551707,57.010073 C45.9551707,58.6592701 47.2997561,60 48.9523902,60 L56.9445366,60 C58.5965854,60 59.9417561,58.6592701 59.9417561,57.010073 C59.9417561,55.3614599 58.5965854,54.020292 56.9445366,54.020292 Z M56.9445366,58.0068613 L48.9523902,58.0068613 C48.4006829,58.0068613 47.9531707,57.560438 47.9531707,57.010073 C47.9531707,56.4608759 48.4006829,56.0132847 48.9523902,56.0132847 C49.1427805,56.0132847 49.3257073,56.0680292 49.4937073,56.1757664 C49.7663415,56.3525547 50.1087805,56.3833577 50.4106829,56.2624818 C50.712439,56.139854 50.9342927,55.879854 51.0090732,55.5639416 C51.2189268,54.6548905 52.0163415,54.020292 52.9480976,54.020292 C53.8805854,54.020292 54.6768293,54.6548905 54.887122,55.5639416 C54.9620488,55.879854 55.1839024,56.139854 55.4856585,56.2624818 C55.787561,56.3833577 56.1288293,56.3525547 56.4026341,56.1757664 C57.053122,55.7572263 57.9431707,56.2705109 57.9431707,57.010073 C57.9431707,57.560438 57.4956585,58.0068613 56.9445366,58.0068613 Z" id="Fill-10" fill="#599FC9" mask="url(#mask-2)"></path>
                    <path d="M10.9893659,18.1432117 L6.99292683,18.1432117 C6.44078049,18.1432117 5.99429268,18.589781 5.99429268,19.1394161 L5.99429268,25.1191241 C5.99429268,25.670073 6.44078049,26.1153285 6.99292683,26.1153285 L10.9893659,26.1153285 C11.5415122,26.1153285 11.988,25.670073 11.988,25.1191241 L11.988,19.1394161 C11.9885854,18.589781 11.5415122,18.1432117 10.9893659,18.1432117 Z M7.99214634,24.1223358 L9.99014634,24.1223358 L9.99014634,20.1362044 L7.99214634,20.1362044 L7.99214634,24.1223358 Z" id="Fill-11" fill="#599FC9" mask="url(#mask-2)"></path>
                    <path d="M42.9580976,14.1564964 C42.4053659,14.1564964 41.958878,14.6030657 41.958878,15.1532847 L41.958878,53.0240876 C41.958878,53.5748905 42.4053659,54.020292 42.9580976,54.020292 C43.5102439,54.020292 43.9567317,53.5748905 43.9567317,53.0240876 L43.9567317,15.1532847 C43.9573171,14.6030657 43.5102439,14.1564964 42.9580976,14.1564964 Z" id="Fill-12" fill="#599FC9" mask="url(#mask-2)"></path>
                    <mask id="mask-4" fill="white">
                        <use xlink:href="#path-3"></use>
                    </mask>
                    <g id="Clip-14"></g>
                    <path d="M47.9531707,37.0779562 C47.9531707,37.6293431 48.3995122,38.0747445 48.9523902,38.0747445 L52.9480976,38.0747445 C53.5009756,38.0747445 53.9474634,37.6293431 53.9474634,37.0779562 L53.9474634,31.0988321 C53.9474634,30.5484672 53.5009756,30.1020438 52.9480976,30.1020438 L48.9523902,30.1020438 C48.3995122,30.1020438 47.9531707,30.5484672 47.9531707,31.0988321 L47.9531707,37.0779562 Z M49.9510244,36.0817518 L51.9494634,36.0817518 L51.9494634,32.0950365 L49.9510244,32.0950365 L49.9510244,36.0817518 Z" id="Fill-13" fill="#599FC9" mask="url(#mask-4)"></path>
                    <path d="M58.9423902,8.17678832 C58.3902439,8.17678832 57.9431707,8.62335766 57.9431707,9.17372263 L57.9431707,10.169927 L1.99785366,10.169927 L1.99785366,9.17372263 C1.99785366,8.62335766 1.5515122,8.17678832 0.999219512,8.17678832 C0.446487805,8.17678832 0,8.62335766 0,9.17372263 L0,33.0918248 C0,33.6427737 0.446487805,34.0886131 0.999219512,34.0886131 C1.5515122,34.0886131 1.99785366,33.6427737 1.99785366,33.0918248 L1.99785366,12.1635036 L57.9431707,12.1635036 L57.9431707,52.0271533 C57.9431707,52.5781022 58.3896585,53.0235036 58.9423902,53.0235036 C59.4946829,53.0235036 59.9411707,52.5781022 59.9411707,52.0271533 L59.9411707,9.17372263 C59.9417561,8.62335766 59.4946829,8.17678832 58.9423902,8.17678832 Z" id="Fill-15" fill="#599FC9" mask="url(#mask-4)"></path>
                    <path d="M47.9531707,49.0373723 C47.9531707,49.5887591 48.3995122,50.0341606 48.9523902,50.0341606 L52.9480976,50.0341606 C53.5009756,50.0341606 53.9474634,49.5887591 53.9474634,49.0373723 L53.9474634,43.0576642 C53.9474634,42.5078832 53.5009756,42.0614599 52.9480976,42.0614599 L48.9523902,42.0614599 C48.3995122,42.0614599 47.9531707,42.5078832 47.9531707,43.0576642 L47.9531707,49.0373723 Z M49.9510244,48.0405839 L51.9494634,48.0405839 L51.9494634,44.0544526 L49.9510244,44.0544526 L49.9510244,48.0405839 Z" id="Fill-17" fill="#599FC9" mask="url(#mask-4)"></path>
                    <path d="M48.9523902,26.1159124 L52.9480976,26.1159124 C53.5009756,26.1159124 53.9474634,25.6705109 53.9474634,25.1191241 L53.9474634,19.1394161 C53.9474634,18.589781 53.5009756,18.1432117 52.9480976,18.1432117 L48.9523902,18.1432117 C48.3995122,18.1432117 47.9531707,18.589781 47.9531707,19.1394161 L47.9531707,25.1191241 C47.9531707,25.670073 48.3995122,26.1159124 48.9523902,26.1159124 Z M49.9510244,24.1223358 L51.9494634,24.1223358 L51.9494634,20.1362044 L49.9510244,20.1362044 L49.9510244,24.1223358 Z" id="Fill-18" fill="#599FC9" mask="url(#mask-4)"></path>
                    <path d="M32.9679512,26.1159124 L36.9638049,26.1159124 C37.5165366,26.1159124 37.9630244,25.6705109 37.9630244,25.1191241 L37.9630244,19.1394161 C37.9630244,18.589781 37.5165366,18.1432117 36.9638049,18.1432117 L32.9679512,18.1432117 C32.4152195,18.1432117 31.9687317,18.589781 31.9687317,19.1394161 L31.9687317,25.1191241 C31.9687317,25.670073 32.4152195,26.1159124 32.9679512,26.1159124 Z M33.9665854,24.1223358 L35.9651707,24.1223358 L35.9651707,20.1362044 L33.9665854,20.1362044 L33.9665854,24.1223358 Z" id="Fill-19" fill="#599FC9" mask="url(#mask-4)"></path>
                    <path d="M17.9822927,53.0240876 L17.9822927,15.1532847 C17.9822927,14.6030657 17.5358049,14.1564964 16.9836585,14.1564964 C16.4307805,14.1564964 15.984439,14.6030657 15.984439,15.1532847 L15.984439,53.0240876 C15.984439,53.5748905 16.4307805,54.020292 16.9836585,54.020292 C17.5358049,54.020292 17.9822927,53.5748905 17.9822927,53.0240876 Z" id="Fill-20" fill="#599FC9" mask="url(#mask-4)"></path>
                    <path d="M42.9580976,56.0132847 L14.9850732,56.0132847 C14.4329268,56.0132847 13.986439,56.459854 13.986439,57.010073 L13.986439,59.0032117 C13.986439,59.5545985 14.4329268,60 14.9850732,60 C15.5379512,60 15.984439,59.5545985 15.984439,59.0032117 L15.984439,58.0068613 L42.9580976,58.0068613 C43.5102439,58.0068613 43.9567317,57.5616058 43.9567317,57.010073 C43.9573171,56.459854 43.5102439,56.0132847 42.9580976,56.0132847 Z" id="Fill-21" fill="#599FC9" mask="url(#mask-4)"></path>
                    <path d="M21.9787317,37.0779562 C21.9787317,37.6293431 22.4250732,38.0747445 22.9773659,38.0747445 L26.9736585,38.0747445 C27.5259512,38.0747445 27.972439,37.6293431 27.972439,37.0779562 L27.972439,31.0988321 C27.972439,30.5484672 27.5259512,30.1020438 26.9736585,30.1020438 L22.9773659,30.1020438 C22.4250732,30.1020438 21.9787317,30.5484672 21.9787317,31.0988321 L21.9787317,37.0779562 Z M23.9765854,36.0817518 L25.974439,36.0817518 L25.974439,32.0950365 L23.9765854,32.0950365 L23.9765854,36.0817518 Z" id="Fill-22" fill="#599FC9" mask="url(#mask-4)"></path>
                    <path d="M22.9773659,26.1159124 L26.9736585,26.1159124 C27.5259512,26.1159124 27.972439,25.6705109 27.972439,25.1191241 L27.972439,19.1394161 C27.972439,18.589781 27.5259512,18.1432117 26.9736585,18.1432117 L22.9773659,18.1432117 C22.4250732,18.1432117 21.9787317,18.589781 21.9787317,19.1394161 L21.9787317,25.1191241 C21.9787317,25.670073 22.4250732,26.1159124 22.9773659,26.1159124 Z M23.9765854,24.1223358 L25.974439,24.1223358 L25.974439,20.1362044 L23.9765854,20.1362044 L23.9765854,24.1223358 Z" id="Fill-23" fill="#599FC9" mask="url(#mask-4)"></path>
                    <path d="M19.9807317,42.0576642 C19.9807317,42.6090511 20.4272195,43.0544526 20.9793659,43.0544526 L21.9787317,43.0544526 L21.9787317,52.0235036 C21.9787317,52.5748905 22.4250732,53.020292 22.9773659,53.020292 C23.5300976,53.020292 23.9765854,52.5748905 23.9765854,52.0235036 L23.9765854,43.0544526 L28.9716585,43.0544526 L28.9716585,47.0405839 C28.4193659,47.0405839 27.972439,47.4870073 27.972439,48.0373723 C27.972439,48.5881752 28.4193659,49.0335766 28.9716585,49.0335766 L28.9716585,52.0235036 C28.9716585,52.5748905 29.418,53.020292 29.970878,53.020292 C30.5230244,53.020292 30.9695122,52.5748905 30.9695122,52.0235036 L30.9695122,49.0335766 C31.5222439,49.0335766 31.9687317,48.5881752 31.9687317,48.0373723 C31.9687317,47.4870073 31.5222439,47.0405839 30.9695122,47.0405839 L30.9695122,43.0544526 L35.9651707,43.0544526 L35.9651707,52.0235036 C35.9651707,52.5748905 36.4115122,53.020292 36.9638049,53.020292 C37.5165366,53.020292 37.9630244,52.5748905 37.9630244,52.0235036 L37.9630244,43.0544526 L38.9616585,43.0544526 C39.5145366,43.0544526 39.960878,42.6090511 39.960878,42.0576642 C39.960878,41.5078832 39.5145366,41.0614599 38.9616585,41.0614599 L20.9793659,41.0614599 C20.4272195,41.0614599 19.9807317,41.5078832 19.9807317,42.0576642 Z" id="Fill-24" fill="#599FC9" mask="url(#mask-4)"></path>
                    <path d="M31.9687317,37.0779562 C31.9687317,37.6293431 32.4152195,38.0747445 32.9679512,38.0747445 L36.9638049,38.0747445 C37.5165366,38.0747445 37.9630244,37.6293431 37.9630244,37.0779562 L37.9630244,31.0988321 C37.9630244,30.5484672 37.5165366,30.1020438 36.9638049,30.1020438 L32.9679512,30.1020438 C32.4152195,30.1020438 31.9687317,30.5484672 31.9687317,31.0988321 L31.9687317,37.0779562 Z M33.9665854,36.0817518 L35.9651707,36.0817518 L35.9651707,32.0950365 L33.9665854,32.0950365 L33.9665854,36.0817518 Z" id="Fill-25" fill="#599FC9" mask="url(#mask-4)"></path>
                </g>
            </g>
        </g>
    </g>
</svg>