<svg xmlns="http://www.w3.org/2000/svg" width="18" height="30" viewBox="0 0 18 30"><path fill="#fff" d="M9.45 16.46C8.1 16.46 7 15.43 7 14.15v-3.84C7 9.04 8.1 8 9.45 8c1.36 0 2.46 1.04 2.46 2.31v3.84c0 1.28-1.1 2.31-2.46 2.31zm0-6.92a.79.79 0 0 0-.81.77v3.84c0 .43.36.77.81.77.46 0 .82-.34.82-.77v-3.84c0-.43-.36-.77-.82-.77z"/><path fill="#fff" d="M9.82 4.65V.77C9.82.34 9.45 0 9 0c-.45 0-.82.34-.82.77v3.88C3.6 5.04 0 8.67 0 13.08v8.46C0 26.2 4.04 30 9 30s9-3.8 9-8.46v-8.46c0-4.41-3.6-8.04-8.18-8.43zm6.54 16.89c0 3.82-3.3 6.92-7.36 6.92-4.06 0-7.36-3.1-7.36-6.92v-8.46c0-3.82 3.3-6.93 7.36-6.93 4.06 0 7.36 3.11 7.36 6.93z"/></svg>