<svg xmlns="http://www.w3.org/2000/svg" width="55" height="20" viewBox="0 0 55 20"><path fill="#dce4e6" d="M45.05 11A4.03 4.03 0 0 0 41 15.05c0 2.25 1.8 4.05 4.05 4.05s4.05-1.8 4.05-4.05S47.3 11 45.05 11zm0 6.56a2.52 2.52 0 0 1-2.51-2.51 2.52 2.52 0 0 1 2.51-2.51 2.56 2.56 0 0 1 2.51 2.51 2.52 2.52 0 0 1-2.51 2.51z"/><path fill="#dce4e6" d="M45 15.5a.5.5 0 1 1 1 0 .5.5 0 0 1-1 0zM45.13 14.67L45 13h.39l-.13 1.67h-.07zM46 15.13l1.67-.13v.39L46 15.26v-.07zM44.67 15.26l-1.67.13V15l1.67.13v.13z"/><path fill="#dce4e6" d="M46 15.29L47.09 14l.26.26-1.29 1.09c.07 0 0 0-.06-.06.06 0 .06 0 0 0zM45.35 16.06l-1.09 1.29-.26-.26L45.29 16l.06.06c0-.06 0 0 0 0zM46.06 16l1.29 1.09-.26.26L46 16.06l.06-.06c0 .06 0 0 0 0zM45.29 15.35L44 14.26l.26-.26 1.09 1.29-.06.06c.06-.06.06-.06 0 0zM12.05 11A4.03 4.03 0 0 0 8 15.05c0 2.25 1.8 4.05 4.05 4.05s4.05-1.8 4.05-4.05S14.3 11 12.05 11zm0 6.56a2.52 2.52 0 0 1-2.51-2.51 2.52 2.52 0 0 1 2.51-2.51 2.56 2.56 0 0 1 2.51 2.51 2.52 2.52 0 0 1-2.51 2.51z"/><path fill="#dce4e6" d="M11 15.5a.5.5 0 1 1 1 0 .5.5 0 0 1-1 0zM12.13 14.67L12 13h.39l-.13 1.67h-.07zM13 15.13l1.67-.13v.39L13 15.26v-.07z"/><path fill="#dce4e6" d="M11.67 15.26l-1.67.13V15l1.67.13v.13zM12 15.29L13.09 14l.26.26-1.29 1.09c.07 0 0 0-.06-.06.06 0 .06 0 0 0zM11.35 16.06l-1.09 1.29-.26-.26L11.29 16l.06.06c0-.06 0 0 0 0zM12.06 16l1.29 1.09-.26.26L12 16.06l.06-.06c0 .06 0 0 0 0z"/><path fill="#dce4e6" d="M11.29 15.35L10 14.26l.26-.26 1.09 1.29-.06.06c.06-.06.06-.06 0 0z"/><path fill="#dce4e6" d="M54.82 12.26a5.7 5.7 0 0 0-.31-.83c-.06-.12-.67-.12-.67-.12v.25h-.43l-.06.32h-.43l-.61-.32-1.29-.06-.43-1.14c-.12-.38.25-.26.25-.26l2.69-.06s-.73-.82-.8-.82c-.06 0-1.16-.7-3.92-1.39-2.75-.7-8.26-1.33-8.26-1.33s-2.21-1.96-8.03-4.24c-5.82-2.28-15.37-.82-16.6-.57-1.22.25-9 3.35-9 3.35l-4.78.32c-.12 0-.24.13-.3.25v1.08L1.35 7.7c-.06.19-.13 1.2-.19 1.39L.12 10.42c-.06.13-.12.25-.12.38 0 .44.12 1.46.18 1.77.13.44.19 1.08.13 1.33-.13.25.79 1.14.79 1.14l6.13 1.26c-.06-.25-.06-.5-.06-.76a4.8 4.8 0 0 1 4.71-4.87 4.76 4.76 0 0 1 4.72 4.87c0 .45-.06.83-.12 1.21.49 0 .79.06.79.06.12 0 14.03.13 23.46.19-.12-.38-.12-.76-.12-1.2a4.8 4.8 0 0 1 4.71-4.87 4.76 4.76 0 0 1 4.72 4.87c0 .38-.06.82-.12 1.14l2.75-.45s1.9-.57 2.15-.69c.18-.13.12-1.14.18-1.46-.18-.31-.18-1.83-.18-2.08zM13.96 6.31s-1.04-1.9-.49-2.34c.68-.57.74-.51 3.07-1.2 2.32-.7 8.02-.64 8.02-.64l.25 4.68zm12.87.63L25.72 2.2c.13 0 1.72.06 3.07.25 1.34.19 4.41 1.01 6.98 2.72 2.57 1.64 2.88 2.59 2.88 2.59z"/></svg>