<svg xmlns="http://www.w3.org/2000/svg" width="11.32" height="7.58" viewBox="0 0 11.32 7.58"><path fill="#fff" d="M9.28.45L3.77 6.16l-1.73-1.8a.52.52 0 0 0-.71-.04c-.21.18-.23.48-.04.67L3.3 7.1c.1.13.25.2.4.2H3.83c.14 0 .29-.06.39-.17l5.82-6.04c.19-.19.17-.49-.04-.67a.52.52 0 0 0-.71.04z"/><path fill="none" stroke="#fff" stroke-miterlimit="50" stroke-width=".8" d="M9.28.45L3.77 6.16l-1.73-1.8a.52.52 0 0 0-.71-.04c-.21.18-.23.48-.04.67L3.3 7.1c.1.13.25.2.4.2H3.83c.14 0 .29-.06.39-.17l5.82-6.04c.19-.19.17-.49-.04-.67a.52.52 0 0 0-.71.04z"/></svg>