<svg xmlns="http://www.w3.org/2000/svg" width="63" height="46" viewBox="0 0 63 46"><path fill="#3d8eb9" d="M61.67 14.87a1.1 1.1 0 0 1-.8.34 1.1 1.1 0 0 1-.8-.34 40 40 0 0 0-58.14 0 1.1 1.1 0 0 1-1.6 0 1.2 1.2 0 0 1 0-1.66A42.22 42.22 0 0 1 31 0c11.6 0 22.49 4.69 30.67 13.21.44.45.44 1.2 0 1.66zm-6.64 5.24c.44.46.44 1.21 0 1.67a1.1 1.1 0 0 1-1.6 0 30.88 30.88 0 0 0-44.87 0 1.1 1.1 0 0 1-1.59 0 1.22 1.22 0 0 1 0-1.67 33.09 33.09 0 0 1 48.06 0zm-6.64 6.92c.44.45.44 1.2 0 1.66a1.1 1.1 0 0 1-1.59 0 21.76 21.76 0 0 0-31.6 0c-.44.46-1.15.46-1.59 0a1.2 1.2 0 0 1 0-1.66 23.94 23.94 0 0 1 34.78 0zM38.4 38.3c0 4.25-3.32 7.7-7.4 7.7s-7.4-3.45-7.4-7.7 3.32-7.7 7.4-7.7 7.4 3.45 7.4 7.7zm-2.26 0A5.26 5.26 0 0 0 31 32.95a5.26 5.26 0 0 0-5.14 5.35A5.26 5.26 0 0 0 31 43.65c2.83 0 5.14-2.4 5.14-5.35z"/></svg>