<svg xmlns="http://www.w3.org/2000/svg" width="50" height="50" viewBox="0 0 50 50"><path fill="#3d8eb9" d="M49.77 23.01V23A25.03 25.03 0 0 0 29.65.45L29.5.42a24.64 24.64 0 0 0-15.81 2.27c-.1.03-.18.08-.27.13A25.1 25.1 0 0 0 .68 19.17l-.04.16A25.1 25.1 0 0 0 4.95 39.9a24.9 24.9 0 0 0 16.07 9.75l.09.02a24.74 24.74 0 0 0 19.74-5.49 24.97 24.97 0 0 0 8.92-21.17zM30.54 3.21a22.54 22.54 0 0 1 15.92 15.5c-1.89-1.86-3.76-2.89-5.63-3.11-2.24-.27-4.13.6-5.87 1.69a54.21 54.21 0 0 0-3.68-4.24 41.6 41.6 0 0 1 1.82-1.09c.6-.34.81-1.1.47-1.7a1.24 1.24 0 0 0-1.69-.48c-.78.44-1.59.93-2.41 1.47a53.32 53.32 0 0 0-3.14-2.73c2.47-1.7 3.91-2.93 4.21-5.31zm-5.62-.71c1.08 0 2.14.08 3.18.22-.14 1.58-1.04 2.3-3.87 4.21a29.97 29.97 0 0 0-6-3.41 22.39 22.39 0 0 1 6.69-1.02zM2.49 24.98c0-1.69.19-3.33.54-4.92.66-.88 3.78-4.78 8.54-5.44a31.2 31.2 0 0 0 5.4-1.3c.65-.22 1-.92.79-1.58a1.24 1.24 0 0 0-1.57-.79 28.65 28.65 0 0 1-4.96 1.19 14.17 14.17 0 0 0-6.27 2.59c2.1-4.1 5.43-7.46 9.48-9.62 2.18.09 5.74 1.84 9.42 4.64 1.2.92 2.37 1.91 3.51 2.96a84.5 84.5 0 0 0-12.18 10.98c-4.28 4.62-7.69 9.22-9.54 12.78-2-3.37-3.16-7.3-3.16-11.49zm36.44 17.55a22.32 22.32 0 0 1-15.23 4.9c1.22-1.78 2.53-4.46 3.62-8.94a1.25 1.25 0 0 0-2.42-.59c-1.27 5.22-2.8 7.69-4.09 9.18a22.42 22.42 0 0 1-13.54-8.24c1.48-3.4 5.14-8.47 9.75-13.46a82.2 82.2 0 0 1 12.17-10.91 50.04 50.04 0 0 1 3.68 4.2c-2.55 1.7-4.58 3.28-6.01 9.09a1.24 1.24 0 0 0 1.21 1.55c.55 0 1.06-.38 1.2-.95 1.23-4.97 2.71-6.09 5.09-7.68.26.36.51.72.75 1.09 3.55 5.39 7.06 13.33 3.82 20.76zm3.58-3.61c.31-2.23.22-4.58-.29-7.02a33.05 33.05 0 0 0-5.03-11.5c-.24-.37-.49-.74-.75-1.1 2.8-1.76 5.88-2.67 10.87 4.29a22.43 22.43 0 0 1-4.8 15.33z"/><path fill="#3d8eb9" d="M36.25 10.71c.15 0 .3-.02.45-.08l.54-.2c.65-.24.99-.95.76-1.6a1.26 1.26 0 0 0-1.6-.76l-.61.23a1.25 1.25 0 0 0 .46 2.41zM20.25 11.77c.17 0 .34-.03.51-.11l.61-.28c.62-.3.89-1.04.6-1.67a1.25 1.25 0 0 0-1.66-.59l-.57.27a1.25 1.25 0 1 0 .51 2.38zM27.56 30.02a1.25 1.25 0 0 0-1.44 1.02l-.1.66c-.11.68.35 1.32 1.03 1.43l.2.01c.6 0 1.13-.43 1.23-1.05l.1-.63a1.25 1.25 0 0 0-1.02-1.44z"/></svg>