<svg xmlns="http://www.w3.org/2000/svg" width="48" height="55" viewBox="0 0 48 55"><path fill="#3d8eb9" d="M37.92 50.2c.24 0 .48-.09.65-.26l5.54-5.4a.9.9 0 0 0 .27-.64v-36a.9.9 0 0 0-.92-.9h-5.54a.9.9 0 0 0-.92.9c0 .5.41.9.92.9h4.62v34.73l-5.27 5.13a.9.9 0 0 0 0 1.28c.18.17.42.26.65.26z"/><path fill="#3d8eb9" d="M10.46 8.8a.9.9 0 0 0 .92-.9.9.9 0 0 0-.92-.9H4.92a.9.9 0 0 0-.92.9v38.7c0 1.99 1.66 3.6 3.69 3.6h26.75c.51 0 .93-.4.93-.9v-5.4c0-.41.41-.9.92-.9h3.69a.9.9 0 0 0 .92-.9.9.9 0 0 0-.92-.9h-3.69a2.8 2.8 0 0 0-2.77 2.7v4.5H7.69a1.83 1.83 0 0 1-1.85-1.8V8.8h4.62zM23.85 4C22.83 4 22 4.81 22 5.8s.83 1.8 1.85 1.8c1.01 0 1.84-.81 1.84-1.8S24.86 4 23.85 4z"/><path fill="#3d8eb9" d="M43.36 4h-5.54a.9.9 0 0 0-.92.9c0 .5.41.9.92.9h5.54c1.34 0 2.77 1.39 2.77 2.7v41.4c0 1.31-1.43 2.7-2.77 2.7H4.61c-1.34 0-2.76-1.39-2.76-2.7V8.5c0-1.31 1.42-2.7 2.76-2.7h5.54a.9.9 0 0 0 .92-.9.9.9 0 0 0-.92-.9H4.61C2.24 4 0 6.19 0 8.5v41.4c0 2.31 2.24 4.5 4.61 4.5h38.75c2.37 0 4.61-2.19 4.61-4.5V8.5c0-2.31-2.24-4.5-4.61-4.5z"/><path fill="#3d8eb9" d="M7 29.7c0 .5.41.9.92.9h3.69c.4 0 .75-.25.88-.62l2.81-8.23 6.51 19.03c.12.36.46.61.85.62h.02c.38 0 .72-.23.86-.57l5.71-14.31 1.83 3.58c.16.31.48.5.83.5h2.94a2.74 2.74 0 0 0 2.59 1.8 2.74 2.74 0 0 0 2.77-2.7c0-1.49-1.24-2.7-2.77-2.7-1.2 0-2.21.75-2.59 1.8h-2.37l-2.51-4.9a.97.97 0 0 0-.87-.5.92.92 0 0 0-.82.57l-5.53 13.88-6.57-19.23a.93.93 0 0 0-1.75 0L10.95 28.8H7.92a.9.9 0 0 0-.92.9zm30.44-.9c.51 0 .93.4.93.9s-.42.9-.93.9a.9.9 0 0 1-.92-.9c0-.5.41-.9.92-.9zM13.92 10.8h20.3a.9.9 0 0 0 .92-.9V4.5a.9.9 0 0 0-.92-.9h-4.93A5.56 5.56 0 0 0 24.07 0a5.56 5.56 0 0 0-5.22 3.6h-4.93a.9.9 0 0 0-.92.9v5.4c0 .5.41.9.92.9zm.93-5.4h4.7a.9.9 0 0 0 .9-.72 3.68 3.68 0 0 1 3.62-2.88 3.68 3.68 0 0 1 3.62 2.88.9.9 0 0 0 .9.72h4.71V9H14.85z"/></svg>