<svg xmlns="http://www.w3.org/2000/svg" width="56" height="57" viewBox="0 0 56 57"><path fill="#3d8eb9" d="M13.03 26.21c.48 2.03 2.06 8.39 3.72 10.87 1.19 1.79 4 6 11.02 6s9.82-4.21 11.02-6c1.65-2.48 3.24-8.84 3.72-10.87a2.8 2.8 0 0 0 2.02-2.69v-3.73c0-1.12-.74-2.79-2.79-2.79a.93.93 0 1 0 0 1.86c.75 0 .92.52.93.93v3.73c0 .51-.42.93-.93.93a.94.94 0 0 0-.91.73c-.02.08-1.84 8.25-3.59 10.86-1.12 1.68-3.45 5.18-9.47 5.18-6.02 0-8.35-3.5-9.47-5.18-1.75-2.61-3.58-10.78-3.6-10.86a.93.93 0 0 0-.91-.73.93.93 0 0 1-.93-.93v-3.71c.01-.43.18-.95.93-.95a.93.93 0 1 0 0-1.86C11.74 17 11 18.67 11 19.79v3.73a2.8 2.8 0 0 0 2.03 2.69z"/><path fill="#3d8eb9" d="M32.79 24.79c.52 0 .94-.41.94-.93h.93a.93.93 0 1 0 0-1.86h-3.73a.93.93 0 1 0 0 1.86h.93c0 .52.42.93.93.93zM25.59 22.93a.93.93 0 0 0-.93-.93h-3.73a.93.93 0 1 0 0 1.86h.93c0 .52.42.93.93.93.52 0 .94-.41.94-.93h.93c.51 0 .93-.41.93-.93zM13.93 14.9h27.95c.51 0 .93-.41.93-.93V4.66A4.72 4.72 0 0 0 38.15 0H17.66A4.72 4.72 0 0 0 13 4.66v9.31c0 .52.42.93.93.93zm.93-10.24c0-1.49 1.31-2.8 2.8-2.8h20.49c1.52 0 2.8 1.28 2.8 2.8v8.38H14.86zM27.73 35.79a4.97 4.97 0 0 0 3.45-1.2.92.92 0 0 0 0-1.3.93.93 0 0 0-1.31-.03 3.2 3.2 0 0 1-2.14.67c-1.4 0-2.1-.62-2.15-.67a.94.94 0 0 0-1.31.01.94.94 0 0 0 0 1.32c.13.12 1.27 1.2 3.46 1.2zM55.84 54.95l-.93-2.79c-1.14-3.42-4.11-5.28-16.5-5.3l-3.53-1.76a.91.91 0 0 0-.93.06c-.03.01-2.6 1.7-6 1.7-3.38 0-5.98-1.69-6.01-1.7a.91.91 0 0 0-.93-.06l-3.53 1.76c-12.39.02-15.36 1.88-16.5 5.3l-.93 2.79a.93.93 0 1 0 1.77.59l.93-2.79c.56-1.7 1.34-4.02 14.94-4.02h.01c.14 0 .29-.04.42-.1l3.27-1.64c1 .56 3.47 1.74 6.56 1.74 3.08 0 5.55-1.18 6.56-1.74 2.39 1.2 3.26 1.63 3.68 1.71v.03c13.61 0 14.39 2.32 14.95 4.02l.94 2.79a.93.93 0 1 0 1.76-.59z"/><path fill="#3d8eb9" d="M30.94 50h-.01a.93.93 0 1 0 .01 1.86.93.93 0 1 0 0-1.86zM24.94 50h-.01a.93.93 0 1 0 .01 1.86.93.93 0 1 0 0-1.86zM30.94 54h-.01a.93.93 0 1 0 .01 1.86.93.93 0 1 0 0-1.86zM24.94 54h-.01a.93.93 0 1 0 .01 1.86.93.93 0 1 0 0-1.86z"/></svg>