<svg xmlns="http://www.w3.org/2000/svg" width="53" height="53" viewBox="0 0 53 53"><path fill="#3d8eb9" d="M5.4 1.24c-.44.44-.7 1.08.22 4.92.55 2.3 4.86 15.13 6.33 18.81 2.99 7.5 4.91 7.25 6 7.4.54.07 1.06-.06 1.51-.37 1.23-.85 1.64-1.09 2.11-1.38l.56-.35c1.33 2.2 2.97 5.61 4.56 8.92 2.13 4.45 4.34 9.05 6.11 11.43a4.7 4.7 0 0 0 3.16 2.07c1.57.2 3.2-.65 4.14-2.17.96-1.55.99-3.38.09-4.78C38.32 42.84 11 6.46 6.9 1.47c-.57-.7-1.24-.48-1.5-.23zm33.03 48.22c-.54.87-1.41 1.36-2.22 1.25-.64-.08-1.27-.53-1.83-1.28-1.66-2.23-3.82-6.75-5.92-11.12-1.92-3.98-3.73-7.75-5.21-9.97a1 1 0 0 0-.69-.43 1 1 0 0 0-.66.15c-.66.44-2.28 1.41-3.55 2.29-.06.04-.09.05-.14.04-.68.35-.72-.17-1.86-1.73-1.84-2.53-7.03-17.35-8.54-22.22-.58-1.89.04-.85.5-.25 4.93 6.42 28.41 37.83 30.23 40.64.57.89.32 1.94-.11 2.63zM52.72 11.17a.98.98 0 0 0-1.39-.02 410.16 410.16 0 0 0-8.08 8.17l-1.86-1.88 7.86-7.71a1 1 0 0 0 .02-1.41.97.97 0 0 0-1.39-.03L40 16.03l-1.75-1.78 7.9-7.75a1 1 0 0 0 .02-1.41.96.96 0 0 0-1.39-.02l-7.93 7.77-1.7-1.72 8.56-8.41a1 1 0 0 0 .03-1.41 1 1 0 0 0-1.4-.02l-9.85 9.67c-2.52 2.48-2.33 6.11.42 9.45l-5.61 5.59a1 1 0 0 0 .52 1.7c.3.05.62-.04.85-.27l5.61-5.59a7.96 7.96 0 0 0 3.78 1.78l.54.07a5.65 5.65 0 0 0 4.5-1.39c.68-.67 1.65-1.67 2.88-2.93 1.88-1.92 4.22-4.32 6.72-6.78a1 1 0 0 0 .02-1.41zM38.78 21.69a5.98 5.98 0 0 1-3.74-1.87c-2.02-2.1-3.39-5.1-1.3-7.31l8.12 8.22a.8.8 0 0 0-.13.13c-.65.63-1.75.94-2.95.83z"/><path fill="#3d8eb9" d="M22.79 34.82a.98.98 0 0 0-1.39.09C17.43 39.42 10.23 47.4 7.8 49.58c-1.21 1.08-3.11.64-4.13-.45-1.06-1.13-.9-2.57.44-3.95 3.42-3.49 8.45-7.49 12.25-10.39a1 1 0 0 0 .19-1.39.98.98 0 0 0-1.38-.2c-3.84 2.93-8.95 6.99-12.46 10.58-2.55 2.61-1.85 5.25-.47 6.73a5.45 5.45 0 0 0 3.06 1.62c1.3.22 2.69-.06 3.81-1.06C11.92 48.55 20 39.5 22.87 36.23a1 1 0 0 0-.08-1.41z"/></svg>