<svg xmlns="http://www.w3.org/2000/svg" width="50" height="50" viewBox="0 0 50 50"><path fill="#3d8eb9" d="M42.88 0H7.12A7.12 7.12 0 0 0 0 7.12v35.76A7.12 7.12 0 0 0 7.12 50h35.76A7.12 7.12 0 0 0 50 42.88V7.12A7.12 7.12 0 0 0 42.88 0zm0 48.01H7.12a5.13 5.13 0 0 1-5.13-5.13V7.12c0-2.83 2.3-5.13 5.13-5.13h35.76c2.83 0 5.13 2.3 5.13 5.13v35.76c0 2.83-2.3 5.13-5.13 5.13z"/><path fill="#3d8eb9" d="M25.39 9h-8.15c-.75.04-1.24.49-1.24 1.06v30.17c0 .76.71 1.15 1.46 1.15.71 0 1.46-.39 1.46-1.15V28.27h6.38c5.19 0 9.22-2.57 9.22-9.44v-.44c0-6.86-3.99-9.39-9.13-9.39zm6.2 9.97c0 4.6-2.34 6.78-6.29 6.78h-6.38V11.7h6.38c3.95 0 6.29 2.13 6.29 6.74zM4 30a1 1 0 0 0-1 1v.39a1 1 0 1 0 1.99 0V31A1 1 0 0 0 4 30zM4 34a1 1 0 0 0-1 1v8.06a1 1 0 1 0 1.99 0V35A1 1 0 0 0 4 34z"/></svg>