<svg xmlns="http://www.w3.org/2000/svg" width="50" height="52" viewBox="0 0 50 52"><path fill="#3d8eb9" d="M49.71 50.2L26.08 23.47v-5.44h15.2a1.1 1.1 0 0 0 .84-1.79l-3.83-4.47 3.75-4.19c.28-.32.35-.78.18-1.17a1.1 1.1 0 0 0-1-.64H26.08V4.69a2.46 2.46 0 0 0 1.47-2.24A2.46 2.46 0 0 0 25.08 0a2.46 2.46 0 0 0-2.47 2.45c0 .93.52 1.74 1.29 2.15v18.92L.27 50.15c-.28.32-.35.77-.17 1.16.17.39.56.64.99.64l47.8.05a1.09 1.09 0 0 0 .82-1.8zM38.79 7.94l-2.75 3.08h-9.96V7.94zm-12.71 5.25h10.56l2.29 2.67H26.08zm-1.07 12.35l8.39 9.5-3.81 3.27-2.55-3.95a1.08 1.08 0 0 0-.8-.5c-.33-.03-.65.08-.89.31l-6.06 6.02-2.74-5.12zM3.5 49.78l11.51-12.97 3.04 5.69a1.08 1.08 0 0 0 .96.58c.29 0 .57-.11.78-.32l6.15-6.1 2.49 3.87c.17.26.45.44.76.49.31.04.63-.05.87-.25l4.78-4.1 11.64 13.16z"/></svg>