<?xml version="1.0" encoding="UTF-8"?>
<svg width="27px" height="27px" viewBox="0 0 27 27" version="1.1" xmlns="http://www.w3.org/2000/svg" xmlns:xlink="http://www.w3.org/1999/xlink">
    <!-- Generator: Sketch 41.2 (35397) - http://www.bohemiancoding.com/sketch -->
    <title>Group 25</title>
    <desc>Created with Sketch.</desc>
    <defs></defs>
    <g id="Page-1" stroke="none" stroke-width="1" fill="none" fill-rule="evenodd" stroke-linecap="round">
        <g id="Artboard-2" transform="translate(-250.000000, -4893.000000)" stroke="#FFA400" stroke-width="2">
            <g id="Group-25" transform="translate(251.000000, 4894.000000)">
                <path d="M8,13 L24.880357,13" id="Path-5" transform="translate(16.440178, 13.000000) scale(-1, 1) translate(-16.440178, -13.000000) "></path>
                <path d="M13.6831957,9.35526449 C13.6831957,9.35526449 13.8048737,9.45686599 13.9588955,9.5854746 L20.8971909,15.378969 C21.1912517,15.6245105 21.6666747,15.6070698 21.9420003,15.3556114 L28.5539789,9.31680435" id="Path-4-Copy-3" transform="translate(21.118587, 12.435392) scale(1, -1) rotate(-90.000000) translate(-21.118587, -12.435392) "></path>
                <path d="M11.2299995,0 L3.00943379,1.62258611e-15 C1.3473694,1.95064657e-15 2.09913712e-18,1.33858343 8.2428083e-17,3.00079743 L9.79902271e-16,21.5718634 C1.05999348e-15,23.229158 1.3357981,24.5726608 3.00562609,24.5726608 L10.8938358,24.5726608" id="Path-23"></path>
            </g>
        </g>
    </g>
</svg>