<?xml version="1.0" encoding="UTF-8"?>
<svg width="28px" height="28px" viewBox="0 0 28 28" version="1.1" xmlns="http://www.w3.org/2000/svg" xmlns:xlink="http://www.w3.org/1999/xlink">
    <!-- Generator: Sketch 41.2 (35397) - http://www.bohemiancoding.com/sketch -->
    <title>Combined Shape</title>
    <desc>Created with Sketch.</desc>
    <defs></defs>
    <g id="Page-1" stroke="none" stroke-width="1" fill="none" fill-rule="evenodd">
        <g id="Artboard-2" transform="translate(-952.000000, -4892.000000)" fill="#666666">
            <path d="M968.06322,4917.25775 C967.427125,4917.36461 966.777737,4917.41883 966.132869,4917.41883 C959.830147,4917.41883 954.702705,4912.35533 954.702705,4906.13147 C954.702705,4905.42428 954.768774,4904.71906 954.899183,4904.0355 C954.942121,4903.81049 954.904234,4903.57774 954.79217,4903.37728 C954.270134,4902.4439 953.99416,4901.38528 953.99416,4900.31615 C953.994027,4896.8163 956.877524,4893.96916 960.421841,4893.96916 C960.972459,4893.96916 961.418855,4893.52833 961.418855,4892.98458 C961.418855,4892.44083 960.972459,4892 960.421841,4892 C955.778017,4892 952,4895.73051 952,4900.31602 C952,4901.59821 952.302959,4902.8691 952.878967,4904.01358 C952.765839,4904.70882 952.708677,4905.41943 952.708677,4906.13134 C952.708677,4913.44099 958.730773,4919.38785 966.132869,4919.38785 C966.889403,4919.38785 967.651254,4919.32432 968.397419,4919.19908 C968.940326,4919.10784 969.305499,4918.5994 969.213242,4918.0634 C969.120852,4917.52726 968.60626,4917.16664 968.06322,4917.25775 Z M979.347687,4908.47228 C979.486604,4907.69906 979.556927,4906.9131 979.556927,4906.13134 C979.556927,4898.8213 973.534964,4892.87404 966.133002,4892.87404 C965.436023,4892.87404 964.734524,4892.92761 964.048047,4893.03328 C963.503943,4893.11704 963.131725,4893.62049 963.216537,4894.1578 C963.30135,4894.69512 963.811289,4895.06283 964.35526,4894.97894 C964.940307,4894.88889 965.538516,4894.8432 966.133002,4894.8432 C972.435458,4894.8432 977.5629,4899.90709 977.5629,4906.13134 C977.5629,4906.88816 977.485531,4907.64983 977.333055,4908.39522 C977.290914,4908.60146 977.316704,4908.8157 977.406701,4909.00632 C977.804443,4909.84846 978.005973,4910.74942 978.005973,4911.68411 C978.005973,4915.1837 975.122742,4918.03084 971.57869,4918.03084 C971.028073,4918.03084 970.581677,4918.47167 970.581677,4919.01542 C970.581677,4919.55917 971.028073,4920 971.57869,4920 C976.222249,4920 980,4916.26949 980,4911.68411 C980,4910.56917 979.78079,4909.49033 979.347687,4908.47228 Z M971.218968,4908.36883 C971.218968,4907.78124 971.101985,4907.27831 970.871874,4906.87437 C970.641763,4906.47017 970.316737,4906.13121 969.905436,4905.86564 C969.493602,4905.60256 968.987917,4905.3744 968.402072,4905.18995 C967.822342,4905.00603 967.157932,4904.83419 966.428251,4904.67889 C965.850381,4904.54722 965.428179,4904.44535 965.175868,4904.37564 C964.922494,4904.30659 964.670848,4904.21076 964.427178,4904.08959 C964.181381,4903.96789 963.985434,4903.8206 963.843991,4903.65099 C963.702016,4903.47862 963.632624,4903.27961 963.632624,4903.0437 C963.632624,4902.66273 963.835882,4902.34544 964.254628,4902.07409 C964.66686,4901.8072 965.217344,4901.67198 965.890528,4901.67198 C966.626856,4901.67198 967.146366,4901.79289 967.47897,4902.04219 C967.806921,4902.28925 968.092067,4902.63622 968.325368,4903.07534 C968.510946,4903.39027 968.674722,4903.60491 968.829591,4903.73986 C969.021683,4903.90751 969.3051,4903.94334 969.509023,4903.94334 C969.835246,4903.94334 970.111086,4903.82953 970.328967,4903.60557 C970.547114,4903.38108 970.65745,4903.12588 970.65745,4902.84718 C970.65745,4902.54091 970.568516,4902.22269 970.393308,4901.90133 C970.21903,4901.58075 969.937606,4901.26896 969.557544,4900.97543 C969.177749,4900.68294 968.693998,4900.4448 968.119053,4900.26758 C967.543178,4900.09219 966.851782,4900.0024 966.063609,4900.0024 C965.075768,4900.0024 964.20491,4900.13722 963.475761,4900.40411 C962.746478,4900.66995 962.180706,4901.05669 961.795061,4901.55318 C961.409682,4902.04993 961.213869,4902.62558 961.213869,4903.26359 C961.213869,4903.93363 961.399048,4904.50219 961.764221,4904.95418 C962.129526,4905.40551 962.630559,4905.76652 963.253094,4906.0279 C963.878421,4906.29045 964.662473,4906.52216 965.582916,4906.71671 C966.267798,4906.85796 966.826524,4906.99475 967.244738,4907.12314 C967.656173,4907.2493 967.99755,4907.43558 968.259034,4907.67674 C968.51972,4907.91829 968.652123,4908.23664 968.652123,4908.62246 C968.652123,4909.11724 968.413637,4909.51751 967.923771,4909.84833 C967.440951,4910.17311 966.804058,4910.33786 966.032237,4910.33786 C965.470852,4910.33786 965.01063,4910.25608 964.665663,4910.09474 C964.320962,4909.93366 964.049243,4909.72545 963.858348,4909.47642 C963.668783,4909.22857 963.489453,4908.91534 963.324746,4908.5433 C963.190881,4908.2323 963.02644,4907.99351 962.836874,4907.83493 C962.647309,4907.67648 962.412014,4907.59574 962.137237,4907.59574 C961.794131,4907.59574 961.519487,4907.69617 961.298283,4907.90227 C961.079339,4908.10483 960.968205,4908.35216 960.968205,4908.63756 C960.968205,4909.1288 961.153118,4909.64091 961.51736,4910.16051 C961.883065,4910.68089 962.364423,4911.10229 962.948407,4911.41355 C963.772472,4911.84506 964.831433,4912.06337 966.098173,4912.06337 C967.153811,4912.06337 968.080502,4911.90321 968.852589,4911.58683 C969.623347,4911.27019 970.21677,4910.82647 970.616506,4910.26776 C971.015976,4909.70931 971.218968,4909.07051 971.218968,4908.36883 Z" id="Combined-Shape"></path>
        </g>
    </g>
</svg>