<svg xmlns="http://www.w3.org/2000/svg" width="60" height="60" viewBox="0 0 60 60"><path fill="#e9eff1" d="M0 30a30 30 0 1 1 60 0 30 30 0 0 1-60 0z"/><path fill="#fff" d="M6 30a24 24 0 0 0 48 0 24 24 0 0 0-48 0zm32.93-6.59a2.82 2.82 0 1 1-5.63 0 2.82 2.82 0 0 1 5.63 0zm-15.06-2.82a2.82 2.82 0 1 1-1.99.82 2.8 2.8 0 0 1 2.01-.82zm18.61 17.59c-.44.69-4.69 6.64-12.48 6.64s-12.04-5.95-12.5-6.63c-.24-.35-.27-.8-.09-1.18.19-.38.56-.63.98-.66.43-.03.83.17 1.06.52.38.57 3.97 5.6 10.55 5.6s10.17-5.03 10.56-5.61c.23-.35.63-.55 1.06-.52a1.17 1.17 0 1 1 .89 1.83z"/></svg>