<?xml version="1.0" encoding="UTF-8"?>
<svg width="18px" height="18px" viewBox="0 0 18 18" version="1.1" xmlns="http://www.w3.org/2000/svg" xmlns:xlink="http://www.w3.org/1999/xlink">
    <!-- Generator: Sketch 41.2 (35397) - http://www.bohemiancoding.com/sketch -->
    <title>Shape</title>
    <desc>Created with Sketch.</desc>
    <defs></defs>
    <g id="Page-1" stroke="none" stroke-width="1" fill="none" fill-rule="evenodd">
        <g id="Artboard-2" transform="translate(-1539.000000, -415.000000)" fill="#ffa400">
            <path d="M1548.86903,415.565069 L1550.8992,419.866545 C1551.04038,420.165717 1551.31334,420.373017 1551.62912,420.420915 L1556.16894,421.110738 C1556.96418,421.231663 1557.28146,422.253244 1556.70623,422.839416 L1553.42124,426.187625 C1553.19295,426.420445 1553.08857,426.75613 1553.14264,427.084748 L1553.91799,431.812602 C1554.05391,432.640624 1553.22261,433.271947 1552.51147,432.881296 L1548.45113,430.649287 C1548.16877,430.494205 1547.83123,430.494205 1547.54887,430.649287 L1543.48853,432.881296 C1542.77739,433.272339 1541.94609,432.640624 1542.08201,431.812602 L1542.85736,427.084748 C1542.91143,426.75613 1542.80705,426.420445 1542.57876,426.187625 L1539.29377,422.839416 C1538.71854,422.252851 1539.03582,421.23127 1539.83106,421.110738 L1544.37088,420.420915 C1544.68666,420.373017 1544.95962,420.165717 1545.1008,419.866545 L1547.13097,415.565069 C1547.48617,414.811644 1548.51346,414.811644 1548.86903,415.565069 Z" id="Shape"></path>
        </g>
    </g>
</svg>