<?xml version="1.0" encoding="utf-8"?>
<!-- Generator: Adobe Illustrator 19.0.0, SVG Export Plug-In . SVG Version: 6.00 Build 0)  -->
<svg version="1.1" id="Шар_1" xmlns="http://www.w3.org/2000/svg" xmlns:xlink="http://www.w3.org/1999/xlink" x="0px" y="0px"
	 viewBox="-51 23 110 18" style="enable-background:new -51 23 110 18;" xml:space="preserve">
<style type="text/css">
	.st0{fill:#FCB941;}
	.st1{fill:#DDDDDD;}
</style>
<path class="st0" d="M-41.1,23.6l2,4.3c0.1,0.3,0.4,0.5,0.7,0.5l4.5,0.7c0.8,0.1,1.1,1.1,0.5,1.7l-3.3,3.4c-0.2,0.2-0.3,0.6-0.3,0.9
	l0.8,4.7c0.1,0.8-0.7,1.5-1.4,1.1l-4.1-2.2c-0.3-0.2-0.6-0.2-0.9,0l-4.1,2.2c-0.7,0.4-1.5-0.2-1.4-1.1l0.8-4.7
	c0-0.3-0.1-0.7-0.3-0.9l-3.3-3.4c-0.6-0.6-0.3-1.6,0.5-1.7l4.5-0.7c0.3,0,0.6-0.3,0.7-0.6l2-4.3c0.2-0.5,0.8-0.7,1.3-0.5
	C-41.4,23.2-41.2,23.4-41.1,23.6z"/>
<path class="st0" d="M4.9,23.6l2,4.3c0.1,0.3,0.4,0.5,0.7,0.5l4.5,0.7c0.8,0.1,1.1,1.1,0.5,1.7l-3.3,3.4c-0.2,0.2-0.3,0.6-0.3,0.9
	l0.8,4.7c0.1,0.8-0.7,1.5-1.4,1.1l-4.1-2.2c-0.3-0.2-0.6-0.2-0.9,0l-4.1,2.2c-0.7,0.4-1.5-0.2-1.4-1.1l0.8-4.7c0-0.3,0-0.7-0.3-0.9
	l-3.3-3.4c-0.6-0.6-0.3-1.6,0.5-1.7l4.5-0.7c0.3,0,0.6-0.3,0.7-0.6l2-4.3c0.2-0.5,0.8-0.7,1.3-0.5C4.6,23.2,4.8,23.4,4.9,23.6z"/>
<path class="st0" d="M-18.1,23.6l2,4.3c0.1,0.3,0.4,0.5,0.7,0.5l4.5,0.7c0.8,0.1,1.1,1.1,0.5,1.7l-3.3,3.4c-0.2,0.2-0.3,0.6-0.3,0.9
	l0.8,4.7c0.1,0.8-0.7,1.5-1.4,1.1l-4.1-2.2c-0.3-0.2-0.6-0.2-0.9,0l-4.1,2.2c-0.7,0.4-1.5-0.2-1.4-1.1l0.8-4.7c0-0.3,0-0.7-0.3-0.9
	l-3.3-3.4c-0.6-0.6-0.3-1.6,0.5-1.7l4.5-0.7c0.3,0,0.6-0.3,0.7-0.6l2-4.3c0.2-0.5,0.8-0.7,1.3-0.5C-18.4,23.2-18.2,23.4-18.1,23.6z"
	/>
<path class="st1" d="M27.9,23.6l2,4.3c0.1,0.3,0.4,0.5,0.7,0.5l4.5,0.7c0.8,0.1,1.1,1.1,0.5,1.7l-3.3,3.4c-0.2,0.2-0.3,0.6-0.3,0.9
	l0.8,4.7c0.1,0.8-0.7,1.5-1.4,1.1l-4.1-2.2c-0.3-0.2-0.6-0.2-0.9,0l-4.1,2.2c-0.7,0.4-1.5-0.2-1.4-1.1l0.8-4.7
	c0.1-0.3-0.1-0.7-0.3-0.9l-3.3-3.4c-0.6-0.6-0.3-1.6,0.5-1.7l4.5-0.7c0.3,0,0.6-0.3,0.7-0.6l2-4.3c0.2-0.5,0.8-0.7,1.3-0.5
	C27.6,23.2,27.8,23.4,27.9,23.6z"/>
<path class="st1" d="M50.9,23.6l2,4.3c0.1,0.3,0.4,0.5,0.7,0.5l4.5,0.7c0.8,0.1,1.1,1.1,0.5,1.7l-3.3,3.4c-0.2,0.2-0.3,0.6-0.3,0.9
	l0.8,4.7c0.1,0.8-0.7,1.5-1.4,1.1l-4.1-2.2c-0.3-0.2-0.6-0.2-0.9,0l-4.1,2.2c-0.7,0.4-1.5-0.2-1.4-1.1l0.8-4.7
	c0.1-0.3-0.1-0.7-0.3-0.9l-3.3-3.4c-0.6-0.6-0.3-1.6,0.5-1.7l4.5-0.7c0.3,0,0.6-0.3,0.7-0.6l2-4.3c0.2-0.5,0.8-0.7,1.3-0.5
	C50.6,23.2,50.8,23.4,50.9,23.6z"/>
</svg>
