<?xml version="1.0" encoding="UTF-8"?>
<svg width="28px" height="28px" viewBox="0 0 28 28" version="1.1" xmlns="http://www.w3.org/2000/svg" xmlns:xlink="http://www.w3.org/1999/xlink">
    <!-- Generator: Sketch 41.2 (35397) - http://www.bohemiancoding.com/sketch -->
    <title>Group 6</title>
    <desc>Created with Sketch.</desc>
    <defs></defs>
    <g id="Page-1" stroke="none" stroke-width="1" fill="none" fill-rule="evenodd">
        <g id="Artboard-2" transform="translate(-1099.000000, -4745.000000)" stroke="#333333" stroke-width="0.344" fill="#333333">
            <g id="Group-6" transform="translate(1100.000000, 4746.000000)">
                <path d="M25.9682281,13.0158859 C25.9682281,5.85661914 20.1433809,0.0317718941 12.9841141,0.0317718941 C5.82484725,0.0317718941 -4.26325641e-13,5.85661914 -4.26325641e-13,13.0158859 C-4.26325641e-13,20.1751527 5.82484725,26 12.9841141,26 C20.1433809,26 25.9682281,20.1751527 25.9682281,13.0158859 Z M1.29735234,13.0158859 C1.29735234,6.57148676 6.53971487,1.32912424 12.9841141,1.32912424 C19.4285132,1.32912424 24.6708758,6.57148676 24.6708758,13.0158859 C24.6708758,19.4602851 19.4285132,24.7026477 12.9841141,24.7026477 C6.53971487,24.7026477 1.29735234,19.4602851 1.29735234,13.0158859 Z" id="Shape" transform="translate(12.984114, 13.015886) rotate(-90.000000) translate(-12.984114, -13.015886) "></path>
                <path d="M13.4421589,19.1187373 L17.0906314,15.4702648 C17.3448065,15.2160896 17.3448065,14.8083503 17.0906314,14.5541752 C16.8364562,14.3 16.4287169,14.3 16.1745418,14.5541752 L13.6327902,17.0959267 L13.6327902,7.3790224 C13.6327902,7.01894094 13.3415479,6.72769857 12.9814664,6.72769857 C12.6213849,6.72769857 12.3301426,7.01894094 12.3301426,7.3790224 L12.3301426,17.0906314 L9.78839104,14.5488798 C9.53421589,14.2947047 9.12647658,14.2947047 8.87230143,14.5488798 C8.61812627,14.803055 8.61812627,15.2107943 8.87230143,15.4649695 L12.5207739,19.113442 C12.6478615,19.2405295 12.8120163,19.3040733 12.9814664,19.3040733 C13.1509165,19.3040733 13.3150713,19.2458248 13.4421589,19.1187373 Z" id="Shape" transform="translate(12.981466, 13.015886) rotate(-90.000000) translate(-12.981466, -13.015886) "></path>
            </g>
        </g>
    </g>
</svg>