<svg xmlns="http://www.w3.org/2000/svg" width="52" height="52" viewBox="0 0 52 52"><path fill="#3d8eb9" d="M44.38 7.62A25.8 25.8 0 0 0 26 0 25.8 25.8 0 0 0 7.62 7.62 25.8 25.8 0 0 0 0 26a25.8 25.8 0 0 0 7.62 18.38A25.8 25.8 0 0 0 26 52a25.8 25.8 0 0 0 18.38-7.62A25.8 25.8 0 0 0 52 26a25.8 25.8 0 0 0-7.62-18.38zM26 49.93A23.96 23.96 0 0 1 2.07 26 23.96 23.96 0 0 1 26 2.07 23.96 23.96 0 0 1 49.93 26 23.96 23.96 0 0 1 26 49.93z"/><path fill="#3d8eb9" d="M39.8 13.06a3.64 3.64 0 0 0-5.13 0l-21.6 21.6a3.62 3.62 0 0 0 .02 5.18c.71.7 1.63 1.04 2.56 1.04.93 0 1.87-.35 2.58-1.07L39.8 18.19a3.64 3.64 0 0 0 0-5.13zm-1.47 3.66L16.76 38.35a1.58 1.58 0 0 1-2.23-2.22l21.6-21.61c.61-.6 1.6-.6 2.2 0 .61.61.61 1.6 0 2.2zM17.61 13a4.62 4.62 0 1 0 .02 9.24A4.62 4.62 0 0 0 17.6 13zm0 7.15a2.54 2.54 0 1 1 0-5.09 2.54 2.54 0 0 1 0 5.09zM34.61 30a4.62 4.62 0 1 0 .02 9.24A4.62 4.62 0 0 0 34.6 30zm0 7.15a2.54 2.54 0 1 1 0-5.09 2.54 2.54 0 0 1 0 5.09z"/><path fill="#3d8eb9" d="M46.97 30.03c-.55-.14-1.12.2-1.26.75a20.29 20.29 0 0 1-19.67 15.28c-.58 0-1.04.46-1.04 1.03 0 .57.46 1.04 1.04 1.04a22.36 22.36 0 0 0 21.68-16.84 1.04 1.04 0 0 0-.75-1.26zM47.06 25c-.58 0-1.04.46-1.04 1.04l-.02.88c-.02.57.42 1.06.99 1.08h.05c.55 0 1.01-.43 1.03-.99l.02-.97c0-.58-.46-1.04-1.03-1.04z"/></svg>