<?xml version="1.0" encoding="UTF-8"?>
<svg width="56px" height="60px" viewBox="0 0 56 60" version="1.1" xmlns="http://www.w3.org/2000/svg" xmlns:xlink="http://www.w3.org/1999/xlink">
    <!-- Generator: Sketch 41.2 (35397) - http://www.bohemiancoding.com/sketch -->
    <title>Group 4</title>
    <desc>Created with Sketch.</desc>
    <defs></defs>
    <g id="Page-1" stroke="none" stroke-width="1" fill="none" fill-rule="evenodd">
        <g id="Artboard-2" transform="translate(-932.000000, -3847.000000)" fill="#FFFFFF">
            <g id="Group-4" transform="translate(932.000000, 3847.000000)">
                <path d="M47.9013559,45.2356641 C47.4378136,44.9934375 46.8635763,45.1686328 46.6185763,45.62625 C46.5626949,45.7306641 46.5057458,45.8342578 46.4484407,45.9375 L42.6454237,45.9375 C43.0649492,44.8042969 43.4230169,43.6239844 43.715,42.4025391 C43.8354237,41.8986328 43.5194746,41.3937891 43.0093051,41.2747266 C42.4992542,41.1560156 41.9878983,41.4678516 41.8674746,41.9717578 C41.539661,43.3432031 41.1151525,44.6714062 40.6056949,45.9375 L33.3148983,45.9375 C33.8338475,42.6796875 34.1198983,39.1354688 34.1632034,35.625 L38.9152542,35.625 C39.4394237,35.625 39.8644068,35.2052344 39.8644068,34.6875 C39.8644068,34.1697656 39.4394237,33.75 38.9152542,33.75 L34.1632034,33.75 C34.1156271,29.8996875 33.7758305,26.0089453 33.157339,22.5 L40.2184407,22.5 C40.652322,23.4778125 41.0381525,24.5073047 41.3704746,25.5841406 C41.4951695,25.9883203 41.8713898,26.2485938 42.2779831,26.2485938 C42.3695763,26.2485938 42.4628305,26.2354687 42.5550169,26.2075781 C43.0564068,26.0566406 43.3390169,25.5326953 43.1862034,25.0375781 C42.9161695,24.1624219 42.612322,23.3159766 42.2777458,22.5 L45.8966271,22.5 C45.9926102,22.6553906 46.0889492,22.8105469 46.1812542,22.9682813 C46.3572034,23.2686328 46.676,23.4364453 47.0036949,23.4364453 C47.1650508,23.4364453 47.3284237,23.3957812 47.4781525,23.3103516 C47.9318475,23.0510156 48.0869153,22.4776172 47.8243559,22.029375 C47.7003729,21.8177344 47.5723559,21.6086719 47.442322,21.4008984 C47.3979492,21.1488281 47.2522542,20.9312109 47.0473559,20.7912891 C44.8928983,17.5585547 42.0051017,14.8358203 38.6217288,12.8661328 C34.699,10.5822656 30.2054746,9.375 25.6271186,9.375 C23.6297458,9.375 21.6400847,9.60292969 19.7134237,10.0524609 C19.2032542,10.1716406 18.8874237,10.6764844 19.0079661,11.1803906 C19.1285085,11.6844141 19.6399831,11.9960156 20.1499153,11.8773047 C20.765678,11.7335156 21.3889153,11.6160938 22.016661,11.5215234 C20.4676441,13.5396094 19.2784746,16.8142969 18.4578136,20.6248828 L10.6625424,20.6248828 C10.5149492,20.5896094 10.3642712,20.5914844 10.2218983,20.6248828 L6.64418644,20.6248828 C6.87957627,20.3149219 7.12220339,20.0097656 7.37372881,19.7109375 C7.70889831,19.3128516 7.65384746,18.7217578 7.25081356,18.3905859 C6.84789831,18.0598828 6.24933898,18.1140234 5.91416949,18.5119922 C5.3000678,19.2413672 4.73105085,20.0026172 4.20747458,20.7904688 C3.9999661,20.9319141 3.85320339,21.1528125 3.81037288,21.4086328 C1.33640678,25.3782422 0,29.9827734 0,34.6875 C0,41.4486328 2.66569492,47.8052344 7.50601695,52.5861328 C12.346339,57.3670313 18.7818305,60 25.6271186,60 C35.1537627,60 43.8402881,54.8280469 48.2967966,46.5025781 C48.5417966,46.0448437 48.3647797,45.4776563 47.9013559,45.2356641 Z M39.7662881,47.8125 C38.6566102,50.0513672 37.2670508,52.0367578 35.6653559,53.638125 C33.7895932,55.5133594 31.6951695,56.8228125 29.4804407,57.5247656 C31.0198475,55.3366406 32.194661,51.8671875 32.9835254,47.8125 L39.7662881,47.8125 Z M32.7920339,20.625 C32.0094576,16.9756641 30.9004915,13.8696094 29.4817458,11.8519922 C33.4042373,13.0948828 36.8788475,16.2048047 39.2933729,20.625 L32.7920339,20.625 Z M37.6581017,14.4814453 C40.3647288,16.0571484 42.7282373,18.1538672 44.6086271,20.625 L41.427661,20.625 C40.0706102,17.9036719 38.3463559,15.5907422 36.3632203,13.7825391 C36.8013729,14.0022656 37.2337119,14.2344141 37.6581017,14.4814453 Z M21.6609661,16.2738281 C22.8375593,13.1280469 24.3202542,11.25 25.6271186,11.25 C27.1576271,11.25 28.8256441,13.6714453 30.0890847,17.7274219 C30.3718136,18.6351563 30.6285593,19.6046484 30.8592034,20.625 L20.3971695,20.625 C20.758678,19.0188281 21.1824746,17.5533984 21.6609661,16.2738281 Z M18.1174237,30.9355078 C18.6415932,30.9667969 19.0903051,30.5725781 19.1216271,30.0557812 C19.2840508,27.3794531 19.5887288,24.8240625 20.0151356,22.4998828 L31.2423051,22.4998828 C31.8648305,25.8851953 32.2174407,29.7277734 32.2650169,33.7498828 L27.5254237,33.7498828 C27.0012542,33.7498828 26.5762712,34.1696484 26.5762712,34.6873828 C26.5762712,35.2051172 27.0012542,35.6248828 27.5254237,35.6248828 L32.2651356,35.6248828 C32.2219492,39.2800781 31.9268814,42.7871484 31.4062712,45.9373828 L27.5254237,45.9373828 C27.0012542,45.9373828 26.5762712,46.3571484 26.5762712,46.8748828 C26.5762712,47.3926172 27.0012542,47.8123828 27.5254237,47.8123828 L31.060661,47.8123828 C30.7816102,49.1803125 30.4572373,50.4658594 30.0892034,51.6474609 C28.8256441,55.7035547 27.1576271,58.125 25.6271186,58.125 C24.3458814,58.125 22.939,56.3954297 21.7672712,53.3799609 C21.5794576,52.8964453 21.0303729,52.6555078 20.5410847,52.8405469 C20.051678,53.0260547 19.8072712,53.5683984 19.9950847,54.0516797 C20.5737119,55.5407812 21.1795085,56.6715234 21.7850678,57.5272266 C17.5205254,56.1776953 13.8615424,52.6317187 11.4772712,47.8081641 C11.9603898,47.7645703 12.3389831,47.3636719 12.3389831,46.875 C12.3389831,46.3572656 11.914,45.9375 11.3898305,45.9375 L10.6432034,45.9375 C9.408,42.8537109 8.66469492,39.3496875 8.55732203,35.625 L10.440678,35.625 C10.9648475,35.625 11.3898305,35.2052344 11.3898305,34.6875 C11.3898305,34.1697656 10.9648475,33.75 10.440678,33.75 L8.5569661,33.75 C8.67240678,29.7598828 9.52474576,25.9014844 11.0418475,22.5 L18.0910847,22.5 C17.6690678,24.8823047 17.3801695,27.4156641 17.2267627,29.94375 C17.1954407,30.4605469 17.5940847,30.9046875 18.1174237,30.9355078 Z M1.91894915,35.625 L6.65818644,35.625 C6.75654237,39.2571094 7.42462712,42.7573828 8.60655932,45.9375 L4.816,45.9375 C3.10052542,42.8537109 2.06808475,39.3496875 1.91894915,35.625 Z M8.98088136,22.5 C7.56189831,25.9477734 6.76579661,29.7917578 6.65735593,33.75 L1.91811864,33.75 C2.08042373,29.7636328 3.27445763,25.8856641 5.35927119,22.5 L8.98088136,22.5 Z M5.97740678,47.8125 L9.3810678,47.8125 C10.1425254,49.4852344 11.0541864,51.0508594 12.1088136,52.4763281 C12.9707627,53.6412891 13.9031864,54.6792188 14.8925593,55.5860156 C11.2977627,53.7772266 8.22867797,51.0902344 5.97740678,47.8125 Z M36.3200339,55.6188281 C36.5548305,55.4051953 36.7868983,55.1846484 37.0156441,54.9560156 C38.9876271,52.9845703 40.6271695,50.5658203 41.8754237,47.8126172 L45.2905932,47.8126172 C42.9941186,51.1715625 39.8940678,53.8388672 36.3200339,55.6188281 Z" id="Shape"></path>
                <path d="M9.88898305,18.5753906 C10.0541356,18.691875 10.2474068,18.75 10.440678,18.75 C10.6376271,18.75 10.8345763,18.6895313 11.0013898,18.5689453 C11.2885085,18.3612891 18.0338983,13.4153906 18.0338983,7.5 C18.0338983,3.36445312 14.6276271,0 10.440678,0 C6.25372881,0 2.84745763,3.36445312 2.84745763,7.5 C2.84745763,13.5379688 9.60150847,18.3725391 9.88898305,18.5753906 Z M10.440678,1.875 C13.5808305,1.875 16.1355932,4.39828125 16.1355932,7.5 C16.1355932,11.5705078 11.9658475,15.3644531 10.4346271,16.6201172 C8.90210169,15.3860156 4.74576271,11.6554688 4.74576271,7.5 C4.74576271,4.39828125 7.30052542,1.875 10.440678,1.875 Z" id="Shape"></path>
                <path d="M14.2372881,7.5 C14.2372881,6.98226563 13.8123051,6.5625 13.2881356,6.5625 C12.7639661,6.5625 12.3389831,6.98226563 12.3389831,7.5 C12.3389831,8.53382812 11.4873559,9.375 10.440678,9.375 C9.394,9.375 8.54237288,8.53382812 8.54237288,7.5 C8.54237288,6.46617187 9.394,5.625 10.440678,5.625 C10.9648475,5.625 11.3898305,5.20523437 11.3898305,4.6875 C11.3898305,4.16976563 10.9648475,3.75 10.440678,3.75 C8.34720339,3.75 6.6440678,5.43222656 6.6440678,7.5 C6.6440678,9.56777344 8.34720339,11.25 10.440678,11.25 C12.5341525,11.25 14.2372881,9.56777344 14.2372881,7.5 Z" id="Shape"></path>
                <path d="M48.4067797,25.3125 C44.2198305,25.3125 40.8135593,28.6769531 40.8135593,32.8125 C40.8135593,38.8504688 47.5676102,43.6850391 47.8550847,43.8878906 C48.0202373,44.004375 48.2135085,44.0625 48.4067797,44.0625 C48.6037288,44.0625 48.800678,44.0020313 48.9674915,43.8814453 C49.2546102,43.6737891 56,38.7278906 56,32.8125 C56,28.6769531 52.5937288,25.3125 48.4067797,25.3125 Z M48.4007288,41.9326172 C46.8682034,40.6985156 42.7118644,36.9679687 42.7118644,32.8125 C42.7118644,29.7107813 45.2666271,27.1875 48.4067797,27.1875 C51.5469322,27.1875 54.1016949,29.7107813 54.1016949,32.8125 C54.1016949,36.8830078 49.9319492,40.6769531 48.4007288,41.9326172 Z" id="Shape"></path>
                <path d="M51.2542373,31.875 C50.7300678,31.875 50.3050847,32.2947656 50.3050847,32.8125 C50.3050847,33.8463281 49.4534576,34.6875 48.4067797,34.6875 C47.3601017,34.6875 46.5084746,33.8463281 46.5084746,32.8125 C46.5084746,31.7786719 47.3601017,30.9375 48.4067797,30.9375 C48.9309492,30.9375 49.3559322,30.5177344 49.3559322,30 C49.3559322,29.4822656 48.9309492,29.0625 48.4067797,29.0625 C46.3133051,29.0625 44.6101695,30.7447266 44.6101695,32.8125 C44.6101695,34.8802734 46.3133051,36.5625 48.4067797,36.5625 C50.5002542,36.5625 52.2033898,34.8802734 52.2033898,32.8125 C52.2033898,32.2947656 51.7784068,31.875 51.2542373,31.875 Z" id="Shape"></path>
                <path d="M11.3898305,40.3125 C11.3898305,46.3504688 18.1438814,51.1850391 18.4313559,51.3878906 C18.5965085,51.504375 18.7897797,51.5625 18.9830508,51.5625 C19.18,51.5625 19.3769492,51.5020313 19.5437627,51.3814453 C19.8308814,51.1737891 26.5762712,46.2278906 26.5762712,40.3125 C26.5762712,36.1769531 23.17,32.8125 18.9830508,32.8125 C14.7961017,32.8125 11.3898305,36.1769531 11.3898305,40.3125 Z M18.9830508,34.6875 C22.1232034,34.6875 24.6779661,37.2107812 24.6779661,40.3125 C24.6779661,44.3830078 20.5082203,48.1769531 18.977,49.4326172 C17.4444746,48.1985156 13.2881356,44.4679687 13.2881356,40.3125 C13.2881356,37.2107812 15.8428983,34.6875 18.9830508,34.6875 Z" id="Shape"></path>
                <path d="M18.9830508,44.0625 C21.0765254,44.0625 22.779661,42.3802734 22.779661,40.3125 C22.779661,39.7947656 22.354678,39.375 21.8305085,39.375 C21.306339,39.375 20.8813559,39.7947656 20.8813559,40.3125 C20.8813559,41.3463281 20.0297288,42.1875 18.9830508,42.1875 C17.9363729,42.1875 17.0847458,41.3463281 17.0847458,40.3125 C17.0847458,39.2786719 17.9363729,38.4375 18.9830508,38.4375 C19.5072203,38.4375 19.9322034,38.0177344 19.9322034,37.5 C19.9322034,36.9822656 19.5072203,36.5625 18.9830508,36.5625 C16.8895763,36.5625 15.1864407,38.2447266 15.1864407,40.3125 C15.1864407,42.3802734 16.8895763,44.0625 18.9830508,44.0625 Z" id="Shape"></path>
            </g>
        </g>
    </g>
</svg>