<svg xmlns="http://www.w3.org/2000/svg" width="33.21" height="33.3" viewBox="0 0 33.21 33.3"><path fill="#c3ccce" d="M32.07 3.93l-.06-.57a2.48 2.48 0 0 0-2.3-2.18l-.49-.03a5.25 5.25 0 0 0-3.9 1.5l-4.84 4.8-15.85-.02c-1.34 0-2.64.55-3.6 1.5l-.67.68a1 1 0 0 0-.24.87c.1.3.3.54.6.64l12.62 3.44-2.94 2.92-5.32.19c-.54 0-1.06.2-1.45.63l-.52.5a.97.97 0 0 0-.24.86c.1.3.3.5.58.63l6.77 2.57 2.73 7c.12.3.4.5.7.54.3.03.57-.06.78-.3l.54-.54c.37-.36.58-.85.64-1.45l.18-5.34 2.96-2.9 3.42 12.62c.1.3.34.54.64.63.1.03.15.03.24.03.24 0 .48-.1.67-.27l.66-.67a5.08 5.08 0 0 0 1.51-3.62V12.78l4.7-4.71a4.98 4.98 0 0 0 1.48-4.14zm-2.33 3.29l-4.9 4.89a.57.57 0 0 0-.19.42v16.06c0 1.06-.42 2.02-1.15 2.78l-.3.3-3.6-13.07a.6.6 0 0 0-.42-.42c-.06 0-.09-.03-.15-.03a.61.61 0 0 0-.43.18l-3.87 3.8a.55.55 0 0 0-.18.43l-.18 5.55c0 .18-.06.45-.27.63l-.22.2-2.63-6.78a.57.57 0 0 0-.36-.33l-6.57-2.5.2-.2a.95.95 0 0 1 .62-.26l5.6-.18c.15 0 .3-.06.4-.18l3.83-3.83a.59.59 0 0 0 .15-.58.6.6 0 0 0-.42-.42l-13.13-3.6.3-.3a3.92 3.92 0 0 1 2.76-1.14l16.1.03a.6.6 0 0 0 .41-.18l5.03-4.98a3.9 3.9 0 0 1 3-1.15l.48.03c.6.03 1.08.52 1.15 1.09l.06.57a3.9 3.9 0 0 1-1.12 3.17z"/><path fill="#3d8eb9" stroke="#3d8eb9" stroke-miterlimit="50" stroke-width=".3" d="M32.07 3.93l-.06-.57a2.48 2.48 0 0 0-2.3-2.18l-.49-.03a5.25 5.25 0 0 0-3.9 1.5l-4.84 4.8-15.85-.02c-1.34 0-2.64.55-3.6 1.5l-.67.68a1 1 0 0 0-.24.87c.1.3.3.54.6.64l12.62 3.44-2.94 2.92-5.32.19c-.54 0-1.06.2-1.45.63l-.52.5a.97.97 0 0 0-.24.86c.1.3.3.5.58.63l6.77 2.57 2.73 7c.12.3.4.5.7.54.3.03.57-.06.78-.3l.54-.54c.37-.36.58-.85.64-1.45l.18-5.34 2.96-2.9 3.42 12.62c.1.3.34.54.64.63.1.03.15.03.24.03.24 0 .48-.1.67-.27l.66-.67a5.08 5.08 0 0 0 1.51-3.62V12.78l4.7-4.71a4.98 4.98 0 0 0 1.48-4.14zm-2.33 3.29l-4.9 4.89a.57.57 0 0 0-.19.42v16.06c0 1.06-.42 2.02-1.15 2.78l-.3.3-3.6-13.07a.6.6 0 0 0-.42-.42c-.06 0-.09-.03-.15-.03a.61.61 0 0 0-.43.18l-3.87 3.8a.55.55 0 0 0-.18.43l-.18 5.55c0 .18-.06.45-.27.63l-.22.2-2.63-6.78a.57.57 0 0 0-.36-.33l-6.57-2.5.2-.2a.95.95 0 0 1 .62-.26l5.6-.18c.15 0 .3-.06.4-.18l3.83-3.83a.59.59 0 0 0 .15-.58.6.6 0 0 0-.42-.42l-13.13-3.6.3-.3a3.92 3.92 0 0 1 2.76-1.14l16.1.03a.6.6 0 0 0 .41-.18l5.03-4.98a3.9 3.9 0 0 1 3-1.15l.48.03c.6.03 1.08.52 1.15 1.09l.06.57a3.9 3.9 0 0 1-1.12 3.17z"/></svg>