<?xml version="1.0" encoding="UTF-8"?>
<svg width="30px" height="26px" viewBox="0 0 30 26" version="1.1" xmlns="http://www.w3.org/2000/svg" xmlns:xlink="http://www.w3.org/1999/xlink">
    <!-- Generator: Sketch 41.2 (35397) - http://www.bohemiancoding.com/sketch -->
    <title>Shape</title>
    <desc>Created with Sketch.</desc>
    <defs></defs>
    <g id="Page-1" stroke="none" stroke-width="1" fill="none" fill-rule="evenodd">
        <g id="Artboard-2" transform="translate(-1047.000000, -4893.000000)" fill="#fff">
            <path d="M1076.30646,4896.2759 C1076.37409,4896.069 1076.40794,4895.84489 1076.40794,4895.62071 C1076.40794,4894.5 1075.52844,4893.56897 1074.42903,4893.55174 L1074.37829,4893.55174 L1074.25991,4893.55174 C1073.95546,4893.56897 1073.66791,4893.65519 1073.4142,4893.79314 C1073.32961,4893.82765 1073.26198,4893.87937 1073.19434,4893.91381 C1073.16049,4893.93103 1073.12671,4893.94832 1073.09286,4893.96554 C1072.56855,4894.17243 1072.02729,4894.37933 1071.46914,4894.58623 C1070.5389,4893.89659 1069.43949,4893.37935 1068.13711,4893.08623 C1067.98488,4893.05172 1067.83266,4893 1067.68043,4893 L1066.24278,4893 C1066.07367,4893 1065.88759,4893.06895 1065.71848,4893.10345 C1064.58527,4893.41379 1063.40127,4893.84481 1062.31881,4894.75862 C1060.84731,4896.01722 1059.95086,4897.62067 1059.66337,4899.46551 C1056.70348,4898.8276 1054.25094,4897.36205 1052.23824,4894.89657 C1051.84921,4894.43105 1051.29105,4894.20694 1050.68216,4894.20694 L1050.68216,4894.20694 C1050.09015,4894.20694 1049.51511,4894.44834 1049.12607,4894.91385 C1048.00976,4896.2759 1047.58694,4898.06902 1047.94213,4900.01732 C1048.04361,4900.55178 1048.19583,4901.0863 1048.3988,4901.62076 C1048.1282,4901.93111 1047.95902,4902.3104 1047.90828,4902.72419 C1047.67147,4904.68971 1048.36495,4906.53455 1049.85334,4908.06899 C1049.78571,4908.36212 1049.76875,4908.65518 1049.83645,4908.9483 C1050.09015,4910.29313 1050.76669,4911.44828 1051.79846,4912.34487 C1051.17268,4912.48282 1050.49608,4912.56899 1049.78571,4912.56899 C1049.58274,4912.56899 1049.37978,4912.56899 1049.17681,4912.55177 L1049.02459,4912.55177 C1048.14509,4912.55177 1047.35012,4913.13796 1047.09642,4914.00004 C1046.80886,4914.91386 1047.18101,4915.91384 1047.99287,4916.39657 C1048.0605,4916.43108 1048.1282,4916.4828 1048.19583,4916.51724 C1048.36495,4916.62069 1048.56792,4916.74136 1048.77088,4916.86209 C1051.37558,4918.27586 1054.14946,4919 1056.99097,4919 C1058.03965,4919 1059.10521,4918.89655 1060.17078,4918.70688 C1063.63808,4918.08619 1066.7333,4916.46552 1069.1351,4914.06893 C1071.53689,4911.67234 1073.2113,4908.49995 1073.95552,4904.93098 C1074.12464,4904.1034 1074.19233,4903.29303 1074.24308,4902.51717 C1074.25997,4902.22405 1074.27692,4901.94821 1074.31071,4901.67237 C1075.19021,4900.87928 1075.95133,4900.03442 1076.61096,4899.06894 C1076.84778,4898.72409 1077,4898.3103 1077,4897.86207 C1076.99988,4897.22422 1076.72928,4896.65525 1076.30646,4896.2759 Z M1072.66998,4900.37939 C1072.50086,4900.53456 1072.36553,4900.82768 1072.33168,4901.06902 C1072.19635,4902.20695 1072.19635,4903.37938 1071.9596,4904.48281 C1070.58958,4910.96554 1066.02286,4915.53455 1059.79858,4916.67248 C1058.85139,4916.84487 1057.90426,4916.9311 1056.97396,4916.9311 C1054.45379,4916.9311 1052.03516,4916.29319 1049.71795,4915.03453 C1049.48114,4914.91386 1049.26128,4914.75868 1049.02447,4914.62073 C1049.27817,4914.63795 1049.53188,4914.65524 1049.78559,4914.65524 C1052.81317,4914.65524 1055.5701,4913.34491 1056.60182,4912.27593 C1053.94637,4911.86214 1052.18732,4910.46558 1051.83213,4908.5863 C1052.52562,4908.55179 1053.21904,4908.50007 1053.92942,4908.46563 C1051.1048,4907.0863 1049.68404,4905.15528 1049.93775,4902.98287 C1050.61428,4903.15527 1051.30777,4903.32772 1051.9843,4903.50011 C1049.75168,4901.06908 1049.17663,4898.03458 1050.68192,4896.22424 C1053.54032,4899.68975 1057.21065,4901.5346 1061.69278,4901.84494 C1061.67589,4901.70699 1061.65893,4901.62082 1061.65893,4901.5346 C1061.43907,4899.46563 1062.03102,4897.68979 1063.63784,4896.32769 C1064.39896,4895.67249 1065.31231,4895.41387 1066.2595,4895.06909 L1067.69715,4895.06909 C1068.91494,4895.41393 1070.01435,4895.89667 1070.94459,4896.77598 C1070.99533,4896.81048 1071.07992,4896.86221 1071.16445,4896.86221 C1071.21519,4896.86221 1071.28283,4896.86221 1071.31668,4896.84499 C1072.16238,4896.53464 1073.00803,4896.2243 1073.85374,4895.89673 C1074.00596,4895.82779 1074.15819,4895.74156 1074.395,4895.62089 C1073.92144,4896.89677 1073.16032,4897.7933 1072.16238,4898.50022 C1072.17928,4898.53472 1072.19623,4898.58645 1072.23002,4898.62089 C1073.12647,4898.36227 1074.03981,4898.10365 1074.98694,4897.82781 C1074.31059,4898.81038 1073.54947,4899.63797 1072.66998,4900.37939 Z" id="Shape"></path>
        </g>
    </g>
</svg>