<svg xmlns="http://www.w3.org/2000/svg" width="52" height="52" viewBox="0 0 52 52"><path fill="#3d8eb9" d="M44.38 7.62A25.8 25.8 0 0 0 26 0 25.8 25.8 0 0 0 7.62 7.62 25.8 25.8 0 0 0 0 26a25.8 25.8 0 0 0 7.62 18.38A25.8 25.8 0 0 0 26 52a25.8 25.8 0 0 0 18.38-7.62A25.8 25.8 0 0 0 52 26a25.8 25.8 0 0 0-7.62-18.38zM26 49.93A23.96 23.96 0 0 1 2.07 26 23.96 23.96 0 0 1 26 2.07 23.96 23.96 0 0 1 49.93 26 23.96 23.96 0 0 1 26 49.93z"/><path fill="#3d8eb9" d="M26.63 13.51v-1.89a.63.63 0 0 0-1.25 0v1.89A15 15 0 0 0 11 28.5v.14a5.86 5.86 0 0 1 9.8.93 5.87 5.87 0 0 1 4.58-3.14v11.45a3.12 3.12 0 1 0 6.24 0 .62.62 0 1 0-1.24 0 1.87 1.87 0 1 1-3.75 0V26.43a5.87 5.87 0 0 1 4.57 3.14 5.86 5.86 0 0 1 9.8-.93v-.14a15 15 0 0 0-14.37-14.99zm9.77 11.64a7.04 7.04 0 0 0-5.2 2.27 7.02 7.02 0 0 0-5.2-2.27 7.04 7.04 0 0 0-5.2 2.27 7.02 7.02 0 0 0-5.2-2.27c-1.09 0-2.13.24-3.1.71a13.68 13.68 0 0 1 3.78-7.08A13.57 13.57 0 0 1 26 14.75a13.57 13.57 0 0 1 9.72 4.03 13.5 13.5 0 0 1 3.78 7.08 7.04 7.04 0 0 0-3.1-.71z"/><path fill="none" stroke="#3d8eb9" stroke-miterlimit="50" d="M26.63 13.51v-1.89a.63.63 0 0 0-1.25 0v1.89A15 15 0 0 0 11 28.5v.14a5.86 5.86 0 0 1 9.8.93 5.87 5.87 0 0 1 4.58-3.14v11.45a3.12 3.12 0 1 0 6.24 0 .62.62 0 1 0-1.24 0 1.87 1.87 0 1 1-3.75 0V26.43a5.87 5.87 0 0 1 4.57 3.14 5.86 5.86 0 0 1 9.8-.93v-.14a15 15 0 0 0-14.37-14.99zm9.77 11.64a7.04 7.04 0 0 0-5.2 2.27 7.02 7.02 0 0 0-5.2-2.27 7.04 7.04 0 0 0-5.2 2.27 7.02 7.02 0 0 0-5.2-2.27c-1.09 0-2.13.24-3.1.71a13.68 13.68 0 0 1 3.78-7.08A13.57 13.57 0 0 1 26 14.75a13.57 13.57 0 0 1 9.72 4.03 13.5 13.5 0 0 1 3.78 7.08 7.04 7.04 0 0 0-3.1-.71z"/></svg>