<?xml version="1.0" encoding="utf-8"?>
<!-- Generator: Adobe Illustrator 19.0.0, SVG Export Plug-In . SVG Version: 6.00 Build 0)  -->
<svg version="1.1" id="Capa_1" xmlns="http://www.w3.org/2000/svg" xmlns:xlink="http://www.w3.org/1999/xlink" x="0px" y="0px"
	 viewBox="859.2 267.5 78.9 19.5" style="enable-background:new 859.2 267.5 78.9 19.5;" xml:space="preserve">
<style type="text/css">
	.st0{fill:#AAAAAA;}
</style>
<g>
	<g>
		<g>
			<path class="st0" d="M869.1,277.8c2.4,0,4.4-2.3,4.4-5.2c0-4-2-5.2-4.4-5.2c-2.4,0-4.4,1.2-4.4,5.2
				C864.7,275.5,866.6,277.8,869.1,277.8z"/>
			<path class="st0" d="M878.8,285.4l-2.2-5c-0.1-0.2-0.3-0.4-0.5-0.5l-3.5-1.8c-0.1,0-0.2,0-0.2,0c-1,0.7-2.1,1.1-3.3,1.1
				c-1.2,0-2.3-0.4-3.3-1.1c-0.1-0.1-0.2-0.1-0.2,0l-3.5,1.8c-0.2,0.1-0.4,0.3-0.5,0.5l-2.2,5c-0.2,0.3-0.1,0.7,0.1,1.1
				c0.2,0.3,0.6,0.5,0.9,0.5h17.5c0.4,0,0.7-0.2,0.9-0.5C879,286.2,879,285.8,878.8,285.4z"/>
		</g>
	</g>
	<g>
		<g>
			<path class="st0" d="M892.8,277.8c2.4,0,4.4-2.3,4.4-5.2c0-4-2-5.2-4.4-5.2c-2.4,0-4.4,1.2-4.4,5.2
				C888.4,275.5,890.3,277.8,892.8,277.8z"/>
			<path class="st0" d="M902.5,285.4l-2.2-5c-0.1-0.2-0.3-0.4-0.5-0.5l-3.5-1.8c-0.1,0-0.2,0-0.2,0c-1,0.7-2.1,1.1-3.3,1.1
				c-1.2,0-2.3-0.4-3.3-1.1c-0.1-0.1-0.2-0.1-0.2,0l-3.5,1.8c-0.2,0.1-0.4,0.3-0.5,0.5l-2.2,5c-0.2,0.3-0.1,0.7,0.1,1.1
				c0.2,0.3,0.6,0.5,0.9,0.5h17.5c0.4,0,0.7-0.2,0.9-0.5C902.6,286.2,902.7,285.8,902.5,285.4z"/>
		</g>
	</g>
	<g>
		<g>
			<path class="st0" d="M913.5,280.5c1.7,0,3.1-1.6,3.1-3.6c0-2.8-1.4-3.6-3.1-3.6c-1.7,0-3.1,0.9-3.1,3.6
				C910.4,278.9,911.8,280.5,913.5,280.5z"/>
			<path class="st0" d="M920.4,285.9l-1.6-3.5c-0.1-0.2-0.2-0.3-0.4-0.4l-2.4-1.3c-0.1,0-0.1,0-0.2,0c-0.7,0.5-1.5,0.8-2.3,0.8
				c-0.8,0-1.7-0.3-2.3-0.8c0,0-0.1,0-0.2,0l-2.4,1.3c-0.2,0.1-0.3,0.2-0.4,0.4l-1.6,3.5c-0.1,0.2-0.1,0.5,0.1,0.7
				c0.1,0.2,0.4,0.4,0.7,0.4h12.3c0.3,0,0.5-0.1,0.7-0.4C920.5,286.4,920.5,286.1,920.4,285.9z"/>
		</g>
	</g>
	<g>
		<g>
			<path class="st0" d="M931.2,280.5c1.7,0,3.1-1.6,3.1-3.6c0-2.8-1.4-3.6-3.1-3.6c-1.7,0-3.1,0.9-3.1,3.6
				C928.1,278.9,929.5,280.5,931.2,280.5z"/>
			<path class="st0" d="M938.1,285.9l-1.6-3.5c-0.1-0.2-0.2-0.3-0.4-0.4l-2.4-1.3c-0.1,0-0.1,0-0.2,0c-0.7,0.5-1.5,0.8-2.3,0.8
				c-0.8,0-1.7-0.3-2.3-0.8c0,0-0.1,0-0.2,0l-2.4,1.3c-0.2,0.1-0.3,0.2-0.4,0.4l-1.6,3.5c-0.1,0.2-0.1,0.5,0.1,0.7
				c0.1,0.2,0.4,0.4,0.7,0.4h12.3c0.3,0,0.5-0.1,0.7-0.4C938.2,286.4,938.2,286.1,938.1,285.9z"/>
		</g>
	</g>
</g>
</svg>
