<?xml version="1.0" encoding="UTF-8"?>
<svg width="42px" height="42px" viewBox="0 0 42 42" version="1.1" xmlns="http://www.w3.org/2000/svg" xmlns:xlink="http://www.w3.org/1999/xlink">
    <!-- Generator: Sketch 41.2 (35397) - http://www.bohemiancoding.com/sketch -->
    <title>Group 28</title>
    <desc>Created with Sketch.</desc>
    <defs>
        <circle id="path-1" cx="21" cy="21" r="21"></circle>
        <mask id="mask-2" maskContentUnits="userSpaceOnUse" maskUnits="objectBoundingBox" x="0" y="0" width="42" height="42" fill="white">
            <use xlink:href="#path-1"></use>
        </mask>
    </defs>
    <g id="Page-1" stroke="none" stroke-width="1" fill="none" fill-rule="evenodd">
        <g id="Artboard-2" transform="translate(-1520.000000, -24.000000)" stroke="#3D8EB9">
            <g id="Group-28" transform="translate(1520.000000, 24.000000)">
                <use id="Oval-2-Copy-2" mask="url(#mask-2)" stroke-width="3" xlink:href="#path-1"></use>
                <g id="Group-27" transform="translate(12.000000, 10.000000)" stroke-width="0.300000012" fill="#3D8EB9">
                    <path d="M8.92802285,11.7776938 L8.99200254,11.7776938 L9.01599492,11.7776938 L9.05598223,11.7776938 C10.2276103,11.7568998 11.1753094,11.3285444 11.8750873,10.5092628 C13.4145985,8.70434783 13.1586798,5.61020794 13.1306887,5.31493384 C13.0307204,3.09829868 12.0230403,2.03780718 11.1913043,1.54291115 C10.5715011,1.17277883 9.84773088,0.9731569 9.03998731,0.956521739 L9.01199619,0.956521739 L8.99600127,0.956521739 L8.97200889,0.956521739 C8.52814979,0.956521739 7.65642653,1.03137996 6.82069184,1.52627599 C5.98095843,2.02117202 4.9572834,3.08166352 4.85731514,5.31493384 C4.82932402,5.61020794 4.57340527,8.70434783 6.11291653,10.5092628 C6.80869565,11.3285444 7.7563948,11.7568998 8.92802285,11.7776938 Z M5.9249762,5.41890359 C5.9249762,5.40642722 5.92897493,5.39395085 5.92897493,5.38563327 C6.06093304,2.40378072 8.09628689,2.08355388 8.96801016,2.08355388 L8.98400508,2.08355388 L9.01599492,2.08355388 C10.0956522,2.10850662 11.9310695,2.56597353 12.0550301,5.38563327 C12.0550301,5.39810964 12.0550301,5.41058601 12.0590289,5.41890359 C12.0630276,5.44801512 12.3429387,8.27599244 11.0713424,9.76483932 C10.5675024,10.3553875 9.89571565,10.6465028 9.01199619,10.6548204 L8.99200254,10.6548204 L8.99200254,10.6548204 L8.97200889,10.6548204 C8.09228816,10.6465028 7.4165027,10.3553875 6.91666138,9.76483932 C5.64906379,8.28431002 5.92097747,5.44385633 5.9249762,5.41890359 Z" id="Shape"></path>
                    <path d="M17.2093938,16.9096408 L17.2093938,16.8971645 C17.2093938,16.8638941 17.2053951,16.8306238 17.2053951,16.7931947 C17.1814027,15.9697543 17.1294192,14.0442344 15.3939702,13.4287335 C15.381974,13.4245747 15.3659791,13.4204159 15.3539829,13.4162571 C13.5505554,12.9379962 12.0510314,11.8567108 12.0350365,11.8442344 C11.7911139,11.6654064 11.4552206,11.7277883 11.2832752,11.9814745 C11.1113297,12.2351607 11.1713107,12.5844991 11.4152333,12.763327 C11.4832117,12.8132325 13.0747064,13.9652174 15.0660743,14.4975425 C15.9977785,14.8427221 16.1017455,15.8782609 16.1297366,16.826465 C16.1297366,16.8638941 16.1297366,16.8971645 16.1337353,16.9304348 C16.1377341,17.3047259 16.1137417,17.8827977 16.049762,18.2155009 C15.4019676,18.5981096 12.8627737,19.9206049 9,19.9206049 C5.1532212,19.9206049 2.59803237,18.5939509 1.94623929,18.2113422 C1.8822596,17.8786389 1.85426849,17.3005671 1.86226595,16.926276 C1.86226595,16.8930057 1.86626468,16.8597353 1.86626468,16.8223062 C1.89425579,15.8741021 1.99822279,14.8385633 2.92992701,14.4933837 C4.92129483,13.9610586 6.51278959,12.8049149 6.58076801,12.7591682 C6.82469057,12.5803403 6.88467153,12.2310019 6.71272612,11.9773157 C6.5407807,11.7236295 6.20488734,11.6612476 5.96096477,11.8400756 C5.94496985,11.852552 4.45344335,12.9338374 2.64201841,13.4120983 C2.62602348,13.4162571 2.61402729,13.4204159 2.6020311,13.4245747 C0.866582037,14.0442344 0.81459854,15.9697543 0.790606157,16.7890359 C0.790606157,16.826465 0.790606157,16.8597353 0.786607426,16.8930057 L0.786607426,16.905482 C0.782608696,17.1217391 0.778609965,18.2321361 0.990542685,18.789414 C1.03052999,18.8975425 1.10250714,18.9890359 1.19847667,19.0514178 C1.31843859,19.1345936 4.19352586,21.0393195 9.00399873,21.0393195 C13.8144716,21.0393195 16.6895589,19.1304348 16.8095208,19.0514178 C16.9014916,18.9890359 16.9774675,18.8975425 17.0174548,18.789414 C17.2173913,18.2362949 17.2133926,17.1258979 17.2093938,16.9096408 Z" id="Shape"></path>
                </g>
            </g>
        </g>
    </g>
</svg>