<svg xmlns="http://www.w3.org/2000/svg" width="47" height="52" viewBox="0 0 47 52"><path fill="#e2e5e7" d="M10.29 0A3.28 3.28 0 0 0 7 3.25v45.5A3.28 3.28 0 0 0 10.29 52h32.85a3.28 3.28 0 0 0 3.29-3.25V13L33.29 0z"/><path fill="#b0b7bd" d="M36.29 13h9.85L33 0v9.75A3.28 3.28 0 0 0 36.29 13z"/><path fill="#84bd5a" d="M39.43 41.88c0 .89-.74 1.62-1.64 1.62H1.64c-.9 0-1.64-.73-1.64-1.62V25.63C0 24.73.74 24 1.64 24h36.15c.9 0 1.64.73 1.64 1.63z"/><path fill="#fff" d="M12.02 33.16l2.28-2.83c.68-.88 2.01.25 1.26 1.09-.78.92-1.61 1.93-2.4 2.95l2.68 3.3c.72.98-.72 1.91-1.43.95l-2.42-3.07-2.38 3.14c-.67.94-2.15-.12-1.4-1.01l2.64-3.31c-.83-1.03-1.63-2.03-2.43-2.95-.83-.97.71-1.97 1.31-1.06zM17 30.79c0-.43.37-.79.83-.79a.8.8 0 0 1 .77.79v6.51h3.58c1.28 0 1.31 1.7 0 1.7h-4.35c-.46 0-.83-.32-.83-.79v-7.42zM24.15 32.36c.3-2.52 4.15-2.97 5.97-1.59.89.71-.06 1.84-.85 1.27-.97-.61-3.17-.9-3.45.45-.35 2.13 5.36.91 5.27 4.37-.09 3.3-4.93 3.38-6.74 1.9a.97.97 0 0 1-.19-1.28c.35-.33.73-.45 1.17-.09 1.08.73 3.85 1.27 4.05-.57-.17-1.92-5.63-.77-5.23-4.46z"/></svg>